%TF.GenerationSoftware,KiCad,Pcbnew,8.0.8*%
%TF.CreationDate,2025-02-10T18:34:36-05:00*%
%TF.ProjectId,draft,64726166-742e-46b6-9963-61645f706362,rev?*%
%TF.SameCoordinates,Original*%
%TF.FileFunction,Drillmap*%
%TF.FilePolarity,Positive*%
%FSLAX45Y45*%
G04 Gerber Fmt 4.5, Leading zero omitted, Abs format (unit mm)*
G04 Created by KiCad (PCBNEW 8.0.8) date 2025-02-10 18:34:36*
%MOMM*%
%LPD*%
G01*
G04 APERTURE LIST*
%ADD10C,0.050000*%
%ADD11C,0.200000*%
%ADD12C,0.100000*%
%ADD13C,0.105000*%
%ADD14C,0.150000*%
%ADD15C,0.160000*%
G04 APERTURE END LIST*
D10*
X10550000Y-4750000D02*
X20950000Y-4750000D01*
X20950000Y-11900000D01*
X10550000Y-11900000D01*
X10550000Y-4750000D01*
D11*
D12*
X12785000Y-10785000D02*
X12815000Y-10815000D01*
X12815000Y-10785000D02*
X12785000Y-10815000D01*
X13685000Y-9622770D02*
X13715000Y-9652770D01*
X13715000Y-9622770D02*
X13685000Y-9652770D01*
X13685000Y-9747230D02*
X13715000Y-9777230D01*
X13715000Y-9747230D02*
X13685000Y-9777230D01*
X13685000Y-10035000D02*
X13715000Y-10065000D01*
X13715000Y-10035000D02*
X13685000Y-10065000D01*
X13685000Y-10159460D02*
X13715000Y-10189460D01*
X13715000Y-10159460D02*
X13685000Y-10189460D01*
X13835000Y-9060070D02*
X13865000Y-9090070D01*
X13865000Y-9060070D02*
X13835000Y-9090070D01*
X13865080Y-9654920D02*
X13895080Y-9684920D01*
X13895080Y-9654920D02*
X13865080Y-9684920D01*
X13865080Y-9734920D02*
X13895080Y-9764920D01*
X13895080Y-9734920D02*
X13865080Y-9764920D01*
X13935000Y-10660070D02*
X13965000Y-10690070D01*
X13965000Y-10660070D02*
X13935000Y-10690070D01*
X14085000Y-9022770D02*
X14115000Y-9052770D01*
X14115000Y-9022770D02*
X14085000Y-9052770D01*
X14085000Y-9147230D02*
X14115000Y-9177230D01*
X14115000Y-9147230D02*
X14085000Y-9177230D01*
X14245000Y-9435000D02*
X14275000Y-9465000D01*
X14275000Y-9435000D02*
X14245000Y-9465000D01*
X14285000Y-10785000D02*
X14315000Y-10815000D01*
X14315000Y-10785000D02*
X14285000Y-10815000D01*
X14565000Y-10274840D02*
X14595000Y-10304840D01*
X14595000Y-10274840D02*
X14565000Y-10304840D01*
X14704920Y-9814920D02*
X14734920Y-9844920D01*
X14734920Y-9814920D02*
X14704920Y-9844920D01*
X14935000Y-9622770D02*
X14965000Y-9652770D01*
X14965000Y-9622770D02*
X14935000Y-9652770D01*
X14935000Y-9972770D02*
X14965000Y-10002770D01*
X14965000Y-9972770D02*
X14935000Y-10002770D01*
X14935000Y-10097230D02*
X14965000Y-10127230D01*
X14965000Y-10097230D02*
X14935000Y-10127230D01*
X18385000Y-10841150D02*
X18415000Y-10871150D01*
X18415000Y-10841150D02*
X18385000Y-10871150D01*
X18485000Y-10841150D02*
X18515000Y-10871150D01*
X18515000Y-10841150D02*
X18485000Y-10871150D01*
X18585000Y-10841150D02*
X18615000Y-10871150D01*
X18615000Y-10841150D02*
X18585000Y-10871150D01*
X11220000Y-6440000D02*
G75*
G02*
X11180000Y-6440000I-20000J0D01*
G01*
X11180000Y-6440000D02*
G75*
G02*
X11220000Y-6440000I20000J0D01*
G01*
X11220000Y-6610000D02*
G75*
G02*
X11180000Y-6610000I-20000J0D01*
G01*
X11180000Y-6610000D02*
G75*
G02*
X11220000Y-6610000I20000J0D01*
G01*
X11220000Y-6780000D02*
G75*
G02*
X11180000Y-6780000I-20000J0D01*
G01*
X11180000Y-6780000D02*
G75*
G02*
X11220000Y-6780000I20000J0D01*
G01*
X11220000Y-8040000D02*
G75*
G02*
X11180000Y-8040000I-20000J0D01*
G01*
X11180000Y-8040000D02*
G75*
G02*
X11220000Y-8040000I20000J0D01*
G01*
X11220000Y-8210000D02*
G75*
G02*
X11180000Y-8210000I-20000J0D01*
G01*
X11180000Y-8210000D02*
G75*
G02*
X11220000Y-8210000I20000J0D01*
G01*
X11220000Y-8380000D02*
G75*
G02*
X11180000Y-8380000I-20000J0D01*
G01*
X11180000Y-8380000D02*
G75*
G02*
X11220000Y-8380000I20000J0D01*
G01*
X11870000Y-6450000D02*
G75*
G02*
X11830000Y-6450000I-20000J0D01*
G01*
X11830000Y-6450000D02*
G75*
G02*
X11870000Y-6450000I20000J0D01*
G01*
X11889503Y-8066680D02*
G75*
G02*
X11849503Y-8066680I-20000J0D01*
G01*
X11849503Y-8066680D02*
G75*
G02*
X11889503Y-8066680I20000J0D01*
G01*
X11892500Y-6162500D02*
G75*
G02*
X11852500Y-6162500I-20000J0D01*
G01*
X11852500Y-6162500D02*
G75*
G02*
X11892500Y-6162500I20000J0D01*
G01*
X11892500Y-6717500D02*
G75*
G02*
X11852500Y-6717500I-20000J0D01*
G01*
X11852500Y-6717500D02*
G75*
G02*
X11892500Y-6717500I20000J0D01*
G01*
X11892500Y-7762500D02*
G75*
G02*
X11852500Y-7762500I-20000J0D01*
G01*
X11852500Y-7762500D02*
G75*
G02*
X11892500Y-7762500I20000J0D01*
G01*
X11892500Y-8317500D02*
G75*
G02*
X11852500Y-8317500I-20000J0D01*
G01*
X11852500Y-8317500D02*
G75*
G02*
X11892500Y-8317500I20000J0D01*
G01*
X12120000Y-6200000D02*
G75*
G02*
X12080000Y-6200000I-20000J0D01*
G01*
X12080000Y-6200000D02*
G75*
G02*
X12120000Y-6200000I20000J0D01*
G01*
X12120000Y-6750000D02*
G75*
G02*
X12080000Y-6750000I-20000J0D01*
G01*
X12080000Y-6750000D02*
G75*
G02*
X12120000Y-6750000I20000J0D01*
G01*
X12135000Y-6440000D02*
G75*
G02*
X12095000Y-6440000I-20000J0D01*
G01*
X12095000Y-6440000D02*
G75*
G02*
X12135000Y-6440000I20000J0D01*
G01*
X12135000Y-8040000D02*
G75*
G02*
X12095000Y-8040000I-20000J0D01*
G01*
X12095000Y-8040000D02*
G75*
G02*
X12135000Y-8040000I20000J0D01*
G01*
X12170000Y-9650000D02*
G75*
G02*
X12130000Y-9650000I-20000J0D01*
G01*
X12130000Y-9650000D02*
G75*
G02*
X12170000Y-9650000I20000J0D01*
G01*
X12370000Y-6150000D02*
G75*
G02*
X12330000Y-6150000I-20000J0D01*
G01*
X12330000Y-6150000D02*
G75*
G02*
X12370000Y-6150000I20000J0D01*
G01*
X12370000Y-6450000D02*
G75*
G02*
X12330000Y-6450000I-20000J0D01*
G01*
X12330000Y-6450000D02*
G75*
G02*
X12370000Y-6450000I20000J0D01*
G01*
X12370000Y-6750000D02*
G75*
G02*
X12330000Y-6750000I-20000J0D01*
G01*
X12330000Y-6750000D02*
G75*
G02*
X12370000Y-6750000I20000J0D01*
G01*
X12370000Y-7750000D02*
G75*
G02*
X12330000Y-7750000I-20000J0D01*
G01*
X12330000Y-7750000D02*
G75*
G02*
X12370000Y-7750000I20000J0D01*
G01*
X12370000Y-8350000D02*
G75*
G02*
X12330000Y-8350000I-20000J0D01*
G01*
X12330000Y-8350000D02*
G75*
G02*
X12370000Y-8350000I20000J0D01*
G01*
X12375712Y-8054585D02*
G75*
G02*
X12335712Y-8054585I-20000J0D01*
G01*
X12335712Y-8054585D02*
G75*
G02*
X12375712Y-8054585I20000J0D01*
G01*
X12590000Y-5350000D02*
G75*
G02*
X12550000Y-5350000I-20000J0D01*
G01*
X12550000Y-5350000D02*
G75*
G02*
X12590000Y-5350000I20000J0D01*
G01*
X13165000Y-5745000D02*
G75*
G02*
X13125000Y-5745000I-20000J0D01*
G01*
X13125000Y-5745000D02*
G75*
G02*
X13165000Y-5745000I20000J0D01*
G01*
X13370000Y-7900000D02*
G75*
G02*
X13330000Y-7900000I-20000J0D01*
G01*
X13330000Y-7900000D02*
G75*
G02*
X13370000Y-7900000I20000J0D01*
G01*
X13470000Y-9300000D02*
G75*
G02*
X13430000Y-9300000I-20000J0D01*
G01*
X13430000Y-9300000D02*
G75*
G02*
X13470000Y-9300000I20000J0D01*
G01*
X14170000Y-5750000D02*
G75*
G02*
X14130000Y-5750000I-20000J0D01*
G01*
X14130000Y-5750000D02*
G75*
G02*
X14170000Y-5750000I20000J0D01*
G01*
X14820000Y-8250000D02*
G75*
G02*
X14780000Y-8250000I-20000J0D01*
G01*
X14780000Y-8250000D02*
G75*
G02*
X14820000Y-8250000I20000J0D01*
G01*
X14918885Y-10301115D02*
G75*
G02*
X14878885Y-10301115I-20000J0D01*
G01*
X14878885Y-10301115D02*
G75*
G02*
X14918885Y-10301115I20000J0D01*
G01*
X15242530Y-7850000D02*
G75*
G02*
X15202530Y-7850000I-20000J0D01*
G01*
X15202530Y-7850000D02*
G75*
G02*
X15242530Y-7850000I20000J0D01*
G01*
X15320000Y-10105000D02*
G75*
G02*
X15280000Y-10105000I-20000J0D01*
G01*
X15280000Y-10105000D02*
G75*
G02*
X15320000Y-10105000I20000J0D01*
G01*
X15397470Y-7850000D02*
G75*
G02*
X15357470Y-7850000I-20000J0D01*
G01*
X15357470Y-7850000D02*
G75*
G02*
X15397470Y-7850000I20000J0D01*
G01*
X15870000Y-10550000D02*
G75*
G02*
X15830000Y-10550000I-20000J0D01*
G01*
X15830000Y-10550000D02*
G75*
G02*
X15870000Y-10550000I20000J0D01*
G01*
X16097470Y-6100000D02*
G75*
G02*
X16057470Y-6100000I-20000J0D01*
G01*
X16057470Y-6100000D02*
G75*
G02*
X16097470Y-6100000I20000J0D01*
G01*
X16670000Y-5266000D02*
G75*
G02*
X16630000Y-5266000I-20000J0D01*
G01*
X16630000Y-5266000D02*
G75*
G02*
X16670000Y-5266000I20000J0D01*
G01*
X16840240Y-6950000D02*
G75*
G02*
X16800240Y-6950000I-20000J0D01*
G01*
X16800240Y-6950000D02*
G75*
G02*
X16840240Y-6950000I20000J0D01*
G01*
X16892500Y-7950000D02*
G75*
G02*
X16852500Y-7950000I-20000J0D01*
G01*
X16852500Y-7950000D02*
G75*
G02*
X16892500Y-7950000I20000J0D01*
G01*
X17120000Y-5266000D02*
G75*
G02*
X17080000Y-5266000I-20000J0D01*
G01*
X17080000Y-5266000D02*
G75*
G02*
X17120000Y-5266000I20000J0D01*
G01*
X19330000Y-11066000D02*
G75*
G02*
X19290000Y-11066000I-20000J0D01*
G01*
X19290000Y-11066000D02*
G75*
G02*
X19330000Y-11066000I20000J0D01*
G01*
X19770000Y-11066000D02*
G75*
G02*
X19730000Y-11066000I-20000J0D01*
G01*
X19730000Y-11066000D02*
G75*
G02*
X19770000Y-11066000I20000J0D01*
G01*
X20252500Y-5550000D02*
G75*
G02*
X20212500Y-5550000I-20000J0D01*
G01*
X20212500Y-5550000D02*
G75*
G02*
X20252500Y-5550000I20000J0D01*
G01*
X15050000Y-5340000D02*
X15050000Y-5410000D01*
X15015000Y-5375000D02*
X15085000Y-5375000D01*
X15050000Y-5590000D02*
X15050000Y-5660000D01*
X15015000Y-5625000D02*
X15085000Y-5625000D01*
X15450000Y-5340000D02*
X15450000Y-5410000D01*
X15415000Y-5375000D02*
X15485000Y-5375000D01*
X15450000Y-5590000D02*
X15450000Y-5660000D01*
X15415000Y-5625000D02*
X15485000Y-5625000D01*
X15850000Y-5340000D02*
X15850000Y-5410000D01*
X15815000Y-5375000D02*
X15885000Y-5375000D01*
X15850000Y-5590000D02*
X15850000Y-5660000D01*
X15815000Y-5625000D02*
X15885000Y-5625000D01*
X16150000Y-8965000D02*
X16150000Y-9035000D01*
X16115000Y-9000000D02*
X16185000Y-9000000D01*
X16150000Y-9365000D02*
X16150000Y-9435000D01*
X16115000Y-9400000D02*
X16185000Y-9400000D01*
X16150000Y-9765000D02*
X16150000Y-9835000D01*
X16115000Y-9800000D02*
X16185000Y-9800000D01*
X16400000Y-8965000D02*
X16400000Y-9035000D01*
X16365000Y-9000000D02*
X16435000Y-9000000D01*
X16400000Y-9365000D02*
X16400000Y-9435000D01*
X16365000Y-9400000D02*
X16435000Y-9400000D01*
X16400000Y-9765000D02*
X16400000Y-9835000D01*
X16365000Y-9800000D02*
X16435000Y-9800000D01*
X17238285Y-5834284D02*
X17238285Y-5777715D01*
X17181716Y-5777715D01*
X17181716Y-5834284D01*
X17238285Y-5834284D01*
X17238285Y-6088284D02*
X17238285Y-6031715D01*
X17181716Y-6031715D01*
X17181716Y-6088284D01*
X17238285Y-6088284D01*
X17238285Y-6342284D02*
X17238285Y-6285715D01*
X17181716Y-6285715D01*
X17181716Y-6342284D01*
X17238285Y-6342284D01*
X17238285Y-6596284D02*
X17238285Y-6539715D01*
X17181716Y-6539715D01*
X17181716Y-6596284D01*
X17238285Y-6596284D01*
X17238285Y-6850284D02*
X17238285Y-6793715D01*
X17181716Y-6793715D01*
X17181716Y-6850284D01*
X17238285Y-6850284D01*
X17238285Y-7104284D02*
X17238285Y-7047715D01*
X17181716Y-7047715D01*
X17181716Y-7104284D01*
X17238285Y-7104284D01*
X17238285Y-7358284D02*
X17238285Y-7301715D01*
X17181716Y-7301715D01*
X17181716Y-7358284D01*
X17238285Y-7358284D01*
X17238285Y-7612284D02*
X17238285Y-7555715D01*
X17181716Y-7555715D01*
X17181716Y-7612284D01*
X17238285Y-7612284D01*
X17238285Y-7866284D02*
X17238285Y-7809715D01*
X17181716Y-7809715D01*
X17181716Y-7866284D01*
X17238285Y-7866284D01*
X17238285Y-8120284D02*
X17238285Y-8063715D01*
X17181716Y-8063715D01*
X17181716Y-8120284D01*
X17238285Y-8120284D01*
X17238285Y-8374284D02*
X17238285Y-8317715D01*
X17181716Y-8317715D01*
X17181716Y-8374284D01*
X17238285Y-8374284D01*
X17238285Y-8628285D02*
X17238285Y-8571716D01*
X17181716Y-8571716D01*
X17181716Y-8628285D01*
X17238285Y-8628285D01*
X17238285Y-8882285D02*
X17238285Y-8825716D01*
X17181716Y-8825716D01*
X17181716Y-8882285D01*
X17238285Y-8882285D01*
X17238285Y-9136285D02*
X17238285Y-9079716D01*
X17181716Y-9079716D01*
X17181716Y-9136285D01*
X17238285Y-9136285D01*
X17238285Y-9390285D02*
X17238285Y-9333716D01*
X17181716Y-9333716D01*
X17181716Y-9390285D01*
X17238285Y-9390285D01*
X17238285Y-9644285D02*
X17238285Y-9587716D01*
X17181716Y-9587716D01*
X17181716Y-9644285D01*
X17238285Y-9644285D01*
X17238285Y-9898285D02*
X17238285Y-9841716D01*
X17181716Y-9841716D01*
X17181716Y-9898285D01*
X17238285Y-9898285D01*
X17238285Y-10152285D02*
X17238285Y-10095716D01*
X17181716Y-10095716D01*
X17181716Y-10152285D01*
X17238285Y-10152285D01*
X17238285Y-10406285D02*
X17238285Y-10349716D01*
X17181716Y-10349716D01*
X17181716Y-10406285D01*
X17238285Y-10406285D01*
X19777917Y-10152013D02*
X19777917Y-10095444D01*
X19721348Y-10095444D01*
X19721348Y-10152013D01*
X19777917Y-10152013D01*
X19777917Y-10406013D02*
X19777917Y-10349444D01*
X19721348Y-10349444D01*
X19721348Y-10406013D01*
X19777917Y-10406013D01*
X19778285Y-5834284D02*
X19778285Y-5777715D01*
X19721716Y-5777715D01*
X19721716Y-5834284D01*
X19778285Y-5834284D01*
X19778285Y-6088284D02*
X19778285Y-6031715D01*
X19721716Y-6031715D01*
X19721716Y-6088284D01*
X19778285Y-6088284D01*
X19778285Y-6342284D02*
X19778285Y-6285715D01*
X19721716Y-6285715D01*
X19721716Y-6342284D01*
X19778285Y-6342284D01*
X19778285Y-6596284D02*
X19778285Y-6539715D01*
X19721716Y-6539715D01*
X19721716Y-6596284D01*
X19778285Y-6596284D01*
X19778285Y-6850284D02*
X19778285Y-6793715D01*
X19721716Y-6793715D01*
X19721716Y-6850284D01*
X19778285Y-6850284D01*
X19778285Y-7104284D02*
X19778285Y-7047715D01*
X19721716Y-7047715D01*
X19721716Y-7104284D01*
X19778285Y-7104284D01*
X19778285Y-7358284D02*
X19778285Y-7301715D01*
X19721716Y-7301715D01*
X19721716Y-7358284D01*
X19778285Y-7358284D01*
X19778285Y-7612284D02*
X19778285Y-7555715D01*
X19721716Y-7555715D01*
X19721716Y-7612284D01*
X19778285Y-7612284D01*
X19778285Y-7866284D02*
X19778285Y-7809715D01*
X19721716Y-7809715D01*
X19721716Y-7866284D01*
X19778285Y-7866284D01*
X19778285Y-8120284D02*
X19778285Y-8063715D01*
X19721716Y-8063715D01*
X19721716Y-8120284D01*
X19778285Y-8120284D01*
X19778285Y-8374284D02*
X19778285Y-8317715D01*
X19721716Y-8317715D01*
X19721716Y-8374284D01*
X19778285Y-8374284D01*
X19778285Y-8628285D02*
X19778285Y-8571716D01*
X19721716Y-8571716D01*
X19721716Y-8628285D01*
X19778285Y-8628285D01*
X19778285Y-8882285D02*
X19778285Y-8825716D01*
X19721716Y-8825716D01*
X19721716Y-8882285D01*
X19778285Y-8882285D01*
X19778285Y-9136285D02*
X19778285Y-9079716D01*
X19721716Y-9079716D01*
X19721716Y-9136285D01*
X19778285Y-9136285D01*
X19778285Y-9390285D02*
X19778285Y-9333716D01*
X19721716Y-9333716D01*
X19721716Y-9390285D01*
X19778285Y-9390285D01*
X19778285Y-9644285D02*
X19778285Y-9587716D01*
X19721716Y-9587716D01*
X19721716Y-9644285D01*
X19778285Y-9644285D01*
X19778285Y-9898285D02*
X19778285Y-9841716D01*
X19721716Y-9841716D01*
X19721716Y-9898285D01*
X19778285Y-9898285D01*
X11038000Y-11200000D02*
X11088000Y-11150000D01*
X11038000Y-11100000D01*
X10988000Y-11150000D01*
X11038000Y-11200000D01*
X11292000Y-11200000D02*
X11342000Y-11150000D01*
X11292000Y-11100000D01*
X11242000Y-11150000D01*
X11292000Y-11200000D01*
X11546000Y-11200000D02*
X11596000Y-11150000D01*
X11546000Y-11100000D01*
X11496000Y-11150000D01*
X11546000Y-11200000D01*
X11800000Y-11200000D02*
X11850000Y-11150000D01*
X11800000Y-11100000D01*
X11750000Y-11150000D01*
X11800000Y-11200000D01*
X12470000Y-11175070D02*
X12520000Y-11125070D01*
X12470000Y-11075070D01*
X12420000Y-11125070D01*
X12470000Y-11175070D01*
X12724000Y-11175070D02*
X12774000Y-11125070D01*
X12724000Y-11075070D01*
X12674000Y-11125070D01*
X12724000Y-11175070D01*
X12978000Y-11175070D02*
X13028000Y-11125070D01*
X12978000Y-11075070D01*
X12928000Y-11125070D01*
X12978000Y-11175070D01*
X13232000Y-11175070D02*
X13282000Y-11125070D01*
X13232000Y-11075070D01*
X13182000Y-11125070D01*
X13232000Y-11175070D01*
X13920000Y-11175070D02*
X13970000Y-11125070D01*
X13920000Y-11075070D01*
X13870000Y-11125070D01*
X13920000Y-11175070D01*
X14174000Y-11175070D02*
X14224000Y-11125070D01*
X14174000Y-11075070D01*
X14124000Y-11125070D01*
X14174000Y-11175070D01*
X14428000Y-11175070D02*
X14478000Y-11125070D01*
X14428000Y-11075070D01*
X14378000Y-11125070D01*
X14428000Y-11175070D01*
X14682000Y-11175070D02*
X14732000Y-11125070D01*
X14682000Y-11075070D01*
X14632000Y-11125070D01*
X14682000Y-11175070D01*
X15842000Y-10996000D02*
X15892000Y-10946000D01*
X15842000Y-10896000D01*
X15792000Y-10946000D01*
X15842000Y-10996000D01*
X15842000Y-11250000D02*
X15892000Y-11200000D01*
X15842000Y-11150000D01*
X15792000Y-11200000D01*
X15842000Y-11250000D01*
X16096000Y-10996000D02*
X16146000Y-10946000D01*
X16096000Y-10896000D01*
X16046000Y-10946000D01*
X16096000Y-10996000D01*
X16096000Y-11250000D02*
X16146000Y-11200000D01*
X16096000Y-11150000D01*
X16046000Y-11200000D01*
X16096000Y-11250000D01*
X16350000Y-10996000D02*
X16400000Y-10946000D01*
X16350000Y-10896000D01*
X16300000Y-10946000D01*
X16350000Y-10996000D01*
X16350000Y-11250000D02*
X16400000Y-11200000D01*
X16350000Y-11150000D01*
X16300000Y-11200000D01*
X16350000Y-11250000D01*
X17600000Y-10958000D02*
X17650000Y-10908000D01*
X17600000Y-10858000D01*
X17550000Y-10908000D01*
X17600000Y-10958000D01*
X17600000Y-11212000D02*
X17650000Y-11162000D01*
X17600000Y-11112000D01*
X17550000Y-11162000D01*
X17600000Y-11212000D01*
X17600000Y-11466000D02*
X17650000Y-11416000D01*
X17600000Y-11366000D01*
X17550000Y-11416000D01*
X17600000Y-11466000D01*
X20550000Y-6030000D02*
X20600000Y-5980000D01*
X20550000Y-5930000D01*
X20500000Y-5980000D01*
X20550000Y-6030000D01*
X20550000Y-6284000D02*
X20600000Y-6234000D01*
X20550000Y-6184000D01*
X20500000Y-6234000D01*
X20550000Y-6284000D01*
X20550000Y-6538000D02*
X20600000Y-6488000D01*
X20550000Y-6438000D01*
X20500000Y-6488000D01*
X20550000Y-6538000D01*
X20550000Y-6792000D02*
X20600000Y-6742000D01*
X20550000Y-6692000D01*
X20500000Y-6742000D01*
X20550000Y-6792000D01*
X20550000Y-7046000D02*
X20600000Y-6996000D01*
X20550000Y-6946000D01*
X20500000Y-6996000D01*
X20550000Y-7046000D01*
X20550000Y-7300000D02*
X20600000Y-7250000D01*
X20550000Y-7200000D01*
X20500000Y-7250000D01*
X20550000Y-7300000D01*
X20550000Y-7554000D02*
X20600000Y-7504000D01*
X20550000Y-7454000D01*
X20500000Y-7504000D01*
X20550000Y-7554000D01*
X20550000Y-7808000D02*
X20600000Y-7758000D01*
X20550000Y-7708000D01*
X20500000Y-7758000D01*
X20550000Y-7808000D01*
X20550000Y-8062000D02*
X20600000Y-8012000D01*
X20550000Y-7962000D01*
X20500000Y-8012000D01*
X20550000Y-8062000D01*
X20550000Y-8316000D02*
X20600000Y-8266000D01*
X20550000Y-8216000D01*
X20500000Y-8266000D01*
X20550000Y-8316000D01*
X20550000Y-8570000D02*
X20600000Y-8520000D01*
X20550000Y-8470000D01*
X20500000Y-8520000D01*
X20550000Y-8570000D01*
X20550000Y-8824000D02*
X20600000Y-8774000D01*
X20550000Y-8724000D01*
X20500000Y-8774000D01*
X20550000Y-8824000D01*
X20550000Y-9078000D02*
X20600000Y-9028000D01*
X20550000Y-8978000D01*
X20500000Y-9028000D01*
X20550000Y-9078000D01*
X20550000Y-9332000D02*
X20600000Y-9282000D01*
X20550000Y-9232000D01*
X20500000Y-9282000D01*
X20550000Y-9332000D01*
X20550000Y-9586000D02*
X20600000Y-9536000D01*
X20550000Y-9486000D01*
X20500000Y-9536000D01*
X20550000Y-9586000D01*
X20550000Y-9840000D02*
X20600000Y-9790000D01*
X20550000Y-9740000D01*
X20500000Y-9790000D01*
X20550000Y-9840000D01*
X20550000Y-10094000D02*
X20600000Y-10044000D01*
X20550000Y-9994000D01*
X20500000Y-10044000D01*
X20550000Y-10094000D01*
X20550000Y-10348000D02*
X20600000Y-10298000D01*
X20550000Y-10248000D01*
X20500000Y-10298000D01*
X20550000Y-10348000D01*
D13*
X11197500Y-5397500D02*
X11302500Y-5502500D01*
X11302500Y-5397500D02*
X11197500Y-5502500D01*
X11302500Y-5450000D02*
G75*
G02*
X11197500Y-5450000I-52500J0D01*
G01*
X11197500Y-5450000D02*
G75*
G02*
X11302500Y-5450000I52500J0D01*
G01*
X11447500Y-5397500D02*
X11552500Y-5502500D01*
X11552500Y-5397500D02*
X11447500Y-5502500D01*
X11552500Y-5450000D02*
G75*
G02*
X11447500Y-5450000I-52500J0D01*
G01*
X11447500Y-5450000D02*
G75*
G02*
X11552500Y-5450000I52500J0D01*
G01*
X20297500Y-11063500D02*
X20402500Y-11168500D01*
X20402500Y-11063500D02*
X20297500Y-11168500D01*
X20402500Y-11116000D02*
G75*
G02*
X20297500Y-11116000I-52500J0D01*
G01*
X20297500Y-11116000D02*
G75*
G02*
X20402500Y-11116000I52500J0D01*
G01*
X20547500Y-11063500D02*
X20652500Y-11168500D01*
X20652500Y-11063500D02*
X20547500Y-11168500D01*
X20652500Y-11116000D02*
G75*
G02*
X20547500Y-11116000I-52500J0D01*
G01*
X20547500Y-11116000D02*
G75*
G02*
X20652500Y-11116000I52500J0D01*
G01*
D14*
X14625000Y-5125000D02*
X14775000Y-5275000D01*
X14775000Y-5125000D02*
X14625000Y-5275000D01*
X14700000Y-5125000D02*
X14700000Y-5275000D01*
X14625000Y-5200000D02*
X14775000Y-5200000D01*
X14625000Y-5725000D02*
X14775000Y-5875000D01*
X14775000Y-5725000D02*
X14625000Y-5875000D01*
X14700000Y-5725000D02*
X14700000Y-5875000D01*
X14625000Y-5800000D02*
X14775000Y-5800000D01*
X15900000Y-8575000D02*
X16050000Y-8725000D01*
X16050000Y-8575000D02*
X15900000Y-8725000D01*
X15975000Y-8575000D02*
X15975000Y-8725000D01*
X15900000Y-8650000D02*
X16050000Y-8650000D01*
X15900000Y-10075000D02*
X16050000Y-10225000D01*
X16050000Y-10075000D02*
X15900000Y-10225000D01*
X15975000Y-10075000D02*
X15975000Y-10225000D01*
X15900000Y-10150000D02*
X16050000Y-10150000D01*
X16125000Y-5125000D02*
X16275000Y-5275000D01*
X16275000Y-5125000D02*
X16125000Y-5275000D01*
X16200000Y-5125000D02*
X16200000Y-5275000D01*
X16125000Y-5200000D02*
X16275000Y-5200000D01*
X16125000Y-5725000D02*
X16275000Y-5875000D01*
X16275000Y-5725000D02*
X16125000Y-5875000D01*
X16200000Y-5725000D02*
X16200000Y-5875000D01*
X16125000Y-5800000D02*
X16275000Y-5800000D01*
X16500000Y-8575000D02*
X16650000Y-8725000D01*
X16650000Y-8575000D02*
X16500000Y-8725000D01*
X16575000Y-8575000D02*
X16575000Y-8725000D01*
X16500000Y-8650000D02*
X16650000Y-8650000D01*
X16500000Y-10075000D02*
X16650000Y-10225000D01*
X16650000Y-10075000D02*
X16500000Y-10225000D01*
X16575000Y-10075000D02*
X16575000Y-10225000D01*
X16500000Y-10150000D02*
X16650000Y-10150000D01*
D15*
X12896000Y-7020000D02*
X13056000Y-7180000D01*
X13056000Y-7020000D02*
X12896000Y-7180000D01*
X13032569Y-7156569D02*
X13032569Y-7043431D01*
X12919431Y-7043431D01*
X12919431Y-7156569D01*
X13032569Y-7156569D01*
X13020000Y-8608000D02*
X13180000Y-8768000D01*
X13180000Y-8608000D02*
X13020000Y-8768000D01*
X13156569Y-8744569D02*
X13156569Y-8631431D01*
X13043431Y-8631431D01*
X13043431Y-8744569D01*
X13156569Y-8744569D01*
X13020000Y-10132000D02*
X13180000Y-10292000D01*
X13180000Y-10132000D02*
X13020000Y-10292000D01*
X13156569Y-10268569D02*
X13156569Y-10155431D01*
X13043431Y-10155431D01*
X13043431Y-10268569D01*
X13156569Y-10268569D01*
X14420000Y-7020000D02*
X14580000Y-7180000D01*
X14580000Y-7020000D02*
X14420000Y-7180000D01*
X14556569Y-7156569D02*
X14556569Y-7043431D01*
X14443431Y-7043431D01*
X14443431Y-7156569D01*
X14556569Y-7156569D01*
D11*
X10808277Y-12213984D02*
X10808277Y-12013984D01*
X10808277Y-12013984D02*
X10855896Y-12013984D01*
X10855896Y-12013984D02*
X10884467Y-12023508D01*
X10884467Y-12023508D02*
X10903515Y-12042555D01*
X10903515Y-12042555D02*
X10913039Y-12061603D01*
X10913039Y-12061603D02*
X10922563Y-12099698D01*
X10922563Y-12099698D02*
X10922563Y-12128269D01*
X10922563Y-12128269D02*
X10913039Y-12166365D01*
X10913039Y-12166365D02*
X10903515Y-12185412D01*
X10903515Y-12185412D02*
X10884467Y-12204460D01*
X10884467Y-12204460D02*
X10855896Y-12213984D01*
X10855896Y-12213984D02*
X10808277Y-12213984D01*
X11008277Y-12213984D02*
X11008277Y-12080650D01*
X11008277Y-12118746D02*
X11017801Y-12099698D01*
X11017801Y-12099698D02*
X11027324Y-12090174D01*
X11027324Y-12090174D02*
X11046372Y-12080650D01*
X11046372Y-12080650D02*
X11065420Y-12080650D01*
X11132086Y-12213984D02*
X11132086Y-12080650D01*
X11132086Y-12013984D02*
X11122563Y-12023508D01*
X11122563Y-12023508D02*
X11132086Y-12033031D01*
X11132086Y-12033031D02*
X11141610Y-12023508D01*
X11141610Y-12023508D02*
X11132086Y-12013984D01*
X11132086Y-12013984D02*
X11132086Y-12033031D01*
X11255896Y-12213984D02*
X11236848Y-12204460D01*
X11236848Y-12204460D02*
X11227324Y-12185412D01*
X11227324Y-12185412D02*
X11227324Y-12013984D01*
X11360658Y-12213984D02*
X11341610Y-12204460D01*
X11341610Y-12204460D02*
X11332086Y-12185412D01*
X11332086Y-12185412D02*
X11332086Y-12013984D01*
X11589229Y-12213984D02*
X11589229Y-12013984D01*
X11589229Y-12013984D02*
X11655896Y-12156841D01*
X11655896Y-12156841D02*
X11722562Y-12013984D01*
X11722562Y-12013984D02*
X11722562Y-12213984D01*
X11903515Y-12213984D02*
X11903515Y-12109222D01*
X11903515Y-12109222D02*
X11893991Y-12090174D01*
X11893991Y-12090174D02*
X11874943Y-12080650D01*
X11874943Y-12080650D02*
X11836848Y-12080650D01*
X11836848Y-12080650D02*
X11817801Y-12090174D01*
X11903515Y-12204460D02*
X11884467Y-12213984D01*
X11884467Y-12213984D02*
X11836848Y-12213984D01*
X11836848Y-12213984D02*
X11817801Y-12204460D01*
X11817801Y-12204460D02*
X11808277Y-12185412D01*
X11808277Y-12185412D02*
X11808277Y-12166365D01*
X11808277Y-12166365D02*
X11817801Y-12147317D01*
X11817801Y-12147317D02*
X11836848Y-12137793D01*
X11836848Y-12137793D02*
X11884467Y-12137793D01*
X11884467Y-12137793D02*
X11903515Y-12128269D01*
X11998753Y-12080650D02*
X11998753Y-12280650D01*
X11998753Y-12090174D02*
X12017801Y-12080650D01*
X12017801Y-12080650D02*
X12055896Y-12080650D01*
X12055896Y-12080650D02*
X12074943Y-12090174D01*
X12074943Y-12090174D02*
X12084467Y-12099698D01*
X12084467Y-12099698D02*
X12093991Y-12118746D01*
X12093991Y-12118746D02*
X12093991Y-12175888D01*
X12093991Y-12175888D02*
X12084467Y-12194936D01*
X12084467Y-12194936D02*
X12074943Y-12204460D01*
X12074943Y-12204460D02*
X12055896Y-12213984D01*
X12055896Y-12213984D02*
X12017801Y-12213984D01*
X12017801Y-12213984D02*
X11998753Y-12204460D01*
X12179705Y-12194936D02*
X12189229Y-12204460D01*
X12189229Y-12204460D02*
X12179705Y-12213984D01*
X12179705Y-12213984D02*
X12170182Y-12204460D01*
X12170182Y-12204460D02*
X12179705Y-12194936D01*
X12179705Y-12194936D02*
X12179705Y-12213984D01*
X12179705Y-12090174D02*
X12189229Y-12099698D01*
X12189229Y-12099698D02*
X12179705Y-12109222D01*
X12179705Y-12109222D02*
X12170182Y-12099698D01*
X12170182Y-12099698D02*
X12179705Y-12090174D01*
X12179705Y-12090174D02*
X12179705Y-12109222D01*
D12*
X10517500Y-12527500D02*
X10547500Y-12557500D01*
X10547500Y-12527500D02*
X10517500Y-12557500D01*
D11*
X10846372Y-12433984D02*
X10865420Y-12433984D01*
X10865420Y-12433984D02*
X10884467Y-12443508D01*
X10884467Y-12443508D02*
X10893991Y-12453031D01*
X10893991Y-12453031D02*
X10903515Y-12472079D01*
X10903515Y-12472079D02*
X10913039Y-12510174D01*
X10913039Y-12510174D02*
X10913039Y-12557793D01*
X10913039Y-12557793D02*
X10903515Y-12595888D01*
X10903515Y-12595888D02*
X10893991Y-12614936D01*
X10893991Y-12614936D02*
X10884467Y-12624460D01*
X10884467Y-12624460D02*
X10865420Y-12633984D01*
X10865420Y-12633984D02*
X10846372Y-12633984D01*
X10846372Y-12633984D02*
X10827324Y-12624460D01*
X10827324Y-12624460D02*
X10817801Y-12614936D01*
X10817801Y-12614936D02*
X10808277Y-12595888D01*
X10808277Y-12595888D02*
X10798753Y-12557793D01*
X10798753Y-12557793D02*
X10798753Y-12510174D01*
X10798753Y-12510174D02*
X10808277Y-12472079D01*
X10808277Y-12472079D02*
X10817801Y-12453031D01*
X10817801Y-12453031D02*
X10827324Y-12443508D01*
X10827324Y-12443508D02*
X10846372Y-12433984D01*
X10998753Y-12614936D02*
X11008277Y-12624460D01*
X11008277Y-12624460D02*
X10998753Y-12633984D01*
X10998753Y-12633984D02*
X10989229Y-12624460D01*
X10989229Y-12624460D02*
X10998753Y-12614936D01*
X10998753Y-12614936D02*
X10998753Y-12633984D01*
X11074944Y-12433984D02*
X11198753Y-12433984D01*
X11198753Y-12433984D02*
X11132086Y-12510174D01*
X11132086Y-12510174D02*
X11160658Y-12510174D01*
X11160658Y-12510174D02*
X11179705Y-12519698D01*
X11179705Y-12519698D02*
X11189229Y-12529222D01*
X11189229Y-12529222D02*
X11198753Y-12548269D01*
X11198753Y-12548269D02*
X11198753Y-12595888D01*
X11198753Y-12595888D02*
X11189229Y-12614936D01*
X11189229Y-12614936D02*
X11179705Y-12624460D01*
X11179705Y-12624460D02*
X11160658Y-12633984D01*
X11160658Y-12633984D02*
X11103515Y-12633984D01*
X11103515Y-12633984D02*
X11084467Y-12624460D01*
X11084467Y-12624460D02*
X11074944Y-12614936D01*
X11322562Y-12433984D02*
X11341610Y-12433984D01*
X11341610Y-12433984D02*
X11360658Y-12443508D01*
X11360658Y-12443508D02*
X11370182Y-12453031D01*
X11370182Y-12453031D02*
X11379705Y-12472079D01*
X11379705Y-12472079D02*
X11389229Y-12510174D01*
X11389229Y-12510174D02*
X11389229Y-12557793D01*
X11389229Y-12557793D02*
X11379705Y-12595888D01*
X11379705Y-12595888D02*
X11370182Y-12614936D01*
X11370182Y-12614936D02*
X11360658Y-12624460D01*
X11360658Y-12624460D02*
X11341610Y-12633984D01*
X11341610Y-12633984D02*
X11322562Y-12633984D01*
X11322562Y-12633984D02*
X11303515Y-12624460D01*
X11303515Y-12624460D02*
X11293991Y-12614936D01*
X11293991Y-12614936D02*
X11284467Y-12595888D01*
X11284467Y-12595888D02*
X11274943Y-12557793D01*
X11274943Y-12557793D02*
X11274943Y-12510174D01*
X11274943Y-12510174D02*
X11284467Y-12472079D01*
X11284467Y-12472079D02*
X11293991Y-12453031D01*
X11293991Y-12453031D02*
X11303515Y-12443508D01*
X11303515Y-12443508D02*
X11322562Y-12433984D01*
X11513039Y-12433984D02*
X11532086Y-12433984D01*
X11532086Y-12433984D02*
X11551134Y-12443508D01*
X11551134Y-12443508D02*
X11560658Y-12453031D01*
X11560658Y-12453031D02*
X11570182Y-12472079D01*
X11570182Y-12472079D02*
X11579705Y-12510174D01*
X11579705Y-12510174D02*
X11579705Y-12557793D01*
X11579705Y-12557793D02*
X11570182Y-12595888D01*
X11570182Y-12595888D02*
X11560658Y-12614936D01*
X11560658Y-12614936D02*
X11551134Y-12624460D01*
X11551134Y-12624460D02*
X11532086Y-12633984D01*
X11532086Y-12633984D02*
X11513039Y-12633984D01*
X11513039Y-12633984D02*
X11493991Y-12624460D01*
X11493991Y-12624460D02*
X11484467Y-12614936D01*
X11484467Y-12614936D02*
X11474943Y-12595888D01*
X11474943Y-12595888D02*
X11465420Y-12557793D01*
X11465420Y-12557793D02*
X11465420Y-12510174D01*
X11465420Y-12510174D02*
X11474943Y-12472079D01*
X11474943Y-12472079D02*
X11484467Y-12453031D01*
X11484467Y-12453031D02*
X11493991Y-12443508D01*
X11493991Y-12443508D02*
X11513039Y-12433984D01*
X11665420Y-12633984D02*
X11665420Y-12500650D01*
X11665420Y-12519698D02*
X11674943Y-12510174D01*
X11674943Y-12510174D02*
X11693991Y-12500650D01*
X11693991Y-12500650D02*
X11722563Y-12500650D01*
X11722563Y-12500650D02*
X11741610Y-12510174D01*
X11741610Y-12510174D02*
X11751134Y-12529222D01*
X11751134Y-12529222D02*
X11751134Y-12633984D01*
X11751134Y-12529222D02*
X11760658Y-12510174D01*
X11760658Y-12510174D02*
X11779705Y-12500650D01*
X11779705Y-12500650D02*
X11808277Y-12500650D01*
X11808277Y-12500650D02*
X11827324Y-12510174D01*
X11827324Y-12510174D02*
X11836848Y-12529222D01*
X11836848Y-12529222D02*
X11836848Y-12633984D01*
X11932086Y-12633984D02*
X11932086Y-12500650D01*
X11932086Y-12519698D02*
X11941610Y-12510174D01*
X11941610Y-12510174D02*
X11960658Y-12500650D01*
X11960658Y-12500650D02*
X11989229Y-12500650D01*
X11989229Y-12500650D02*
X12008277Y-12510174D01*
X12008277Y-12510174D02*
X12017801Y-12529222D01*
X12017801Y-12529222D02*
X12017801Y-12633984D01*
X12017801Y-12529222D02*
X12027324Y-12510174D01*
X12027324Y-12510174D02*
X12046372Y-12500650D01*
X12046372Y-12500650D02*
X12074943Y-12500650D01*
X12074943Y-12500650D02*
X12093991Y-12510174D01*
X12093991Y-12510174D02*
X12103515Y-12529222D01*
X12103515Y-12529222D02*
X12103515Y-12633984D01*
X12493991Y-12424460D02*
X12322563Y-12681603D01*
X12751134Y-12433984D02*
X12770182Y-12433984D01*
X12770182Y-12433984D02*
X12789229Y-12443508D01*
X12789229Y-12443508D02*
X12798753Y-12453031D01*
X12798753Y-12453031D02*
X12808277Y-12472079D01*
X12808277Y-12472079D02*
X12817801Y-12510174D01*
X12817801Y-12510174D02*
X12817801Y-12557793D01*
X12817801Y-12557793D02*
X12808277Y-12595888D01*
X12808277Y-12595888D02*
X12798753Y-12614936D01*
X12798753Y-12614936D02*
X12789229Y-12624460D01*
X12789229Y-12624460D02*
X12770182Y-12633984D01*
X12770182Y-12633984D02*
X12751134Y-12633984D01*
X12751134Y-12633984D02*
X12732086Y-12624460D01*
X12732086Y-12624460D02*
X12722563Y-12614936D01*
X12722563Y-12614936D02*
X12713039Y-12595888D01*
X12713039Y-12595888D02*
X12703515Y-12557793D01*
X12703515Y-12557793D02*
X12703515Y-12510174D01*
X12703515Y-12510174D02*
X12713039Y-12472079D01*
X12713039Y-12472079D02*
X12722563Y-12453031D01*
X12722563Y-12453031D02*
X12732086Y-12443508D01*
X12732086Y-12443508D02*
X12751134Y-12433984D01*
X12903515Y-12614936D02*
X12913039Y-12624460D01*
X12913039Y-12624460D02*
X12903515Y-12633984D01*
X12903515Y-12633984D02*
X12893991Y-12624460D01*
X12893991Y-12624460D02*
X12903515Y-12614936D01*
X12903515Y-12614936D02*
X12903515Y-12633984D01*
X13036848Y-12433984D02*
X13055896Y-12433984D01*
X13055896Y-12433984D02*
X13074944Y-12443508D01*
X13074944Y-12443508D02*
X13084467Y-12453031D01*
X13084467Y-12453031D02*
X13093991Y-12472079D01*
X13093991Y-12472079D02*
X13103515Y-12510174D01*
X13103515Y-12510174D02*
X13103515Y-12557793D01*
X13103515Y-12557793D02*
X13093991Y-12595888D01*
X13093991Y-12595888D02*
X13084467Y-12614936D01*
X13084467Y-12614936D02*
X13074944Y-12624460D01*
X13074944Y-12624460D02*
X13055896Y-12633984D01*
X13055896Y-12633984D02*
X13036848Y-12633984D01*
X13036848Y-12633984D02*
X13017801Y-12624460D01*
X13017801Y-12624460D02*
X13008277Y-12614936D01*
X13008277Y-12614936D02*
X12998753Y-12595888D01*
X12998753Y-12595888D02*
X12989229Y-12557793D01*
X12989229Y-12557793D02*
X12989229Y-12510174D01*
X12989229Y-12510174D02*
X12998753Y-12472079D01*
X12998753Y-12472079D02*
X13008277Y-12453031D01*
X13008277Y-12453031D02*
X13017801Y-12443508D01*
X13017801Y-12443508D02*
X13036848Y-12433984D01*
X13293991Y-12633984D02*
X13179706Y-12633984D01*
X13236848Y-12633984D02*
X13236848Y-12433984D01*
X13236848Y-12433984D02*
X13217801Y-12462555D01*
X13217801Y-12462555D02*
X13198753Y-12481603D01*
X13198753Y-12481603D02*
X13179706Y-12491127D01*
X13484467Y-12633984D02*
X13370182Y-12633984D01*
X13427325Y-12633984D02*
X13427325Y-12433984D01*
X13427325Y-12433984D02*
X13408277Y-12462555D01*
X13408277Y-12462555D02*
X13389229Y-12481603D01*
X13389229Y-12481603D02*
X13370182Y-12491127D01*
X13598753Y-12519698D02*
X13579706Y-12510174D01*
X13579706Y-12510174D02*
X13570182Y-12500650D01*
X13570182Y-12500650D02*
X13560658Y-12481603D01*
X13560658Y-12481603D02*
X13560658Y-12472079D01*
X13560658Y-12472079D02*
X13570182Y-12453031D01*
X13570182Y-12453031D02*
X13579706Y-12443508D01*
X13579706Y-12443508D02*
X13598753Y-12433984D01*
X13598753Y-12433984D02*
X13636848Y-12433984D01*
X13636848Y-12433984D02*
X13655896Y-12443508D01*
X13655896Y-12443508D02*
X13665420Y-12453031D01*
X13665420Y-12453031D02*
X13674944Y-12472079D01*
X13674944Y-12472079D02*
X13674944Y-12481603D01*
X13674944Y-12481603D02*
X13665420Y-12500650D01*
X13665420Y-12500650D02*
X13655896Y-12510174D01*
X13655896Y-12510174D02*
X13636848Y-12519698D01*
X13636848Y-12519698D02*
X13598753Y-12519698D01*
X13598753Y-12519698D02*
X13579706Y-12529222D01*
X13579706Y-12529222D02*
X13570182Y-12538746D01*
X13570182Y-12538746D02*
X13560658Y-12557793D01*
X13560658Y-12557793D02*
X13560658Y-12595888D01*
X13560658Y-12595888D02*
X13570182Y-12614936D01*
X13570182Y-12614936D02*
X13579706Y-12624460D01*
X13579706Y-12624460D02*
X13598753Y-12633984D01*
X13598753Y-12633984D02*
X13636848Y-12633984D01*
X13636848Y-12633984D02*
X13655896Y-12624460D01*
X13655896Y-12624460D02*
X13665420Y-12614936D01*
X13665420Y-12614936D02*
X13674944Y-12595888D01*
X13674944Y-12595888D02*
X13674944Y-12557793D01*
X13674944Y-12557793D02*
X13665420Y-12538746D01*
X13665420Y-12538746D02*
X13655896Y-12529222D01*
X13655896Y-12529222D02*
X13636848Y-12519698D01*
X13751134Y-12433984D02*
X13751134Y-12472079D01*
X13827325Y-12433984D02*
X13827325Y-12472079D01*
X14122563Y-12710174D02*
X14113039Y-12700650D01*
X14113039Y-12700650D02*
X14093991Y-12672079D01*
X14093991Y-12672079D02*
X14084468Y-12653031D01*
X14084468Y-12653031D02*
X14074944Y-12624460D01*
X14074944Y-12624460D02*
X14065420Y-12576841D01*
X14065420Y-12576841D02*
X14065420Y-12538746D01*
X14065420Y-12538746D02*
X14074944Y-12491127D01*
X14074944Y-12491127D02*
X14084468Y-12462555D01*
X14084468Y-12462555D02*
X14093991Y-12443508D01*
X14093991Y-12443508D02*
X14113039Y-12414936D01*
X14113039Y-12414936D02*
X14122563Y-12405412D01*
X14189229Y-12453031D02*
X14198753Y-12443508D01*
X14198753Y-12443508D02*
X14217801Y-12433984D01*
X14217801Y-12433984D02*
X14265420Y-12433984D01*
X14265420Y-12433984D02*
X14284468Y-12443508D01*
X14284468Y-12443508D02*
X14293991Y-12453031D01*
X14293991Y-12453031D02*
X14303515Y-12472079D01*
X14303515Y-12472079D02*
X14303515Y-12491127D01*
X14303515Y-12491127D02*
X14293991Y-12519698D01*
X14293991Y-12519698D02*
X14179706Y-12633984D01*
X14179706Y-12633984D02*
X14303515Y-12633984D01*
X14493991Y-12633984D02*
X14379706Y-12633984D01*
X14436848Y-12633984D02*
X14436848Y-12433984D01*
X14436848Y-12433984D02*
X14417801Y-12462555D01*
X14417801Y-12462555D02*
X14398753Y-12481603D01*
X14398753Y-12481603D02*
X14379706Y-12491127D01*
X14732087Y-12633984D02*
X14732087Y-12433984D01*
X14817801Y-12633984D02*
X14817801Y-12529222D01*
X14817801Y-12529222D02*
X14808277Y-12510174D01*
X14808277Y-12510174D02*
X14789230Y-12500650D01*
X14789230Y-12500650D02*
X14760658Y-12500650D01*
X14760658Y-12500650D02*
X14741610Y-12510174D01*
X14741610Y-12510174D02*
X14732087Y-12519698D01*
X14941610Y-12633984D02*
X14922563Y-12624460D01*
X14922563Y-12624460D02*
X14913039Y-12614936D01*
X14913039Y-12614936D02*
X14903515Y-12595888D01*
X14903515Y-12595888D02*
X14903515Y-12538746D01*
X14903515Y-12538746D02*
X14913039Y-12519698D01*
X14913039Y-12519698D02*
X14922563Y-12510174D01*
X14922563Y-12510174D02*
X14941610Y-12500650D01*
X14941610Y-12500650D02*
X14970182Y-12500650D01*
X14970182Y-12500650D02*
X14989230Y-12510174D01*
X14989230Y-12510174D02*
X14998753Y-12519698D01*
X14998753Y-12519698D02*
X15008277Y-12538746D01*
X15008277Y-12538746D02*
X15008277Y-12595888D01*
X15008277Y-12595888D02*
X14998753Y-12614936D01*
X14998753Y-12614936D02*
X14989230Y-12624460D01*
X14989230Y-12624460D02*
X14970182Y-12633984D01*
X14970182Y-12633984D02*
X14941610Y-12633984D01*
X15122563Y-12633984D02*
X15103515Y-12624460D01*
X15103515Y-12624460D02*
X15093991Y-12605412D01*
X15093991Y-12605412D02*
X15093991Y-12433984D01*
X15274944Y-12624460D02*
X15255896Y-12633984D01*
X15255896Y-12633984D02*
X15217801Y-12633984D01*
X15217801Y-12633984D02*
X15198753Y-12624460D01*
X15198753Y-12624460D02*
X15189230Y-12605412D01*
X15189230Y-12605412D02*
X15189230Y-12529222D01*
X15189230Y-12529222D02*
X15198753Y-12510174D01*
X15198753Y-12510174D02*
X15217801Y-12500650D01*
X15217801Y-12500650D02*
X15255896Y-12500650D01*
X15255896Y-12500650D02*
X15274944Y-12510174D01*
X15274944Y-12510174D02*
X15284468Y-12529222D01*
X15284468Y-12529222D02*
X15284468Y-12548269D01*
X15284468Y-12548269D02*
X15189230Y-12567317D01*
X15360658Y-12624460D02*
X15379706Y-12633984D01*
X15379706Y-12633984D02*
X15417801Y-12633984D01*
X15417801Y-12633984D02*
X15436849Y-12624460D01*
X15436849Y-12624460D02*
X15446372Y-12605412D01*
X15446372Y-12605412D02*
X15446372Y-12595888D01*
X15446372Y-12595888D02*
X15436849Y-12576841D01*
X15436849Y-12576841D02*
X15417801Y-12567317D01*
X15417801Y-12567317D02*
X15389230Y-12567317D01*
X15389230Y-12567317D02*
X15370182Y-12557793D01*
X15370182Y-12557793D02*
X15360658Y-12538746D01*
X15360658Y-12538746D02*
X15360658Y-12529222D01*
X15360658Y-12529222D02*
X15370182Y-12510174D01*
X15370182Y-12510174D02*
X15389230Y-12500650D01*
X15389230Y-12500650D02*
X15417801Y-12500650D01*
X15417801Y-12500650D02*
X15436849Y-12510174D01*
X15513039Y-12710174D02*
X15522563Y-12700650D01*
X15522563Y-12700650D02*
X15541611Y-12672079D01*
X15541611Y-12672079D02*
X15551134Y-12653031D01*
X15551134Y-12653031D02*
X15560658Y-12624460D01*
X15560658Y-12624460D02*
X15570182Y-12576841D01*
X15570182Y-12576841D02*
X15570182Y-12538746D01*
X15570182Y-12538746D02*
X15560658Y-12491127D01*
X15560658Y-12491127D02*
X15551134Y-12462555D01*
X15551134Y-12462555D02*
X15541611Y-12443508D01*
X15541611Y-12443508D02*
X15522563Y-12414936D01*
X15522563Y-12414936D02*
X15513039Y-12405412D01*
D12*
X10547500Y-12806500D02*
G75*
G02*
X10507500Y-12806500I-20000J0D01*
G01*
X10507500Y-12806500D02*
G75*
G02*
X10547500Y-12806500I20000J0D01*
G01*
D11*
X10846372Y-12697984D02*
X10865420Y-12697984D01*
X10865420Y-12697984D02*
X10884467Y-12707508D01*
X10884467Y-12707508D02*
X10893991Y-12717031D01*
X10893991Y-12717031D02*
X10903515Y-12736079D01*
X10903515Y-12736079D02*
X10913039Y-12774174D01*
X10913039Y-12774174D02*
X10913039Y-12821793D01*
X10913039Y-12821793D02*
X10903515Y-12859888D01*
X10903515Y-12859888D02*
X10893991Y-12878936D01*
X10893991Y-12878936D02*
X10884467Y-12888460D01*
X10884467Y-12888460D02*
X10865420Y-12897984D01*
X10865420Y-12897984D02*
X10846372Y-12897984D01*
X10846372Y-12897984D02*
X10827324Y-12888460D01*
X10827324Y-12888460D02*
X10817801Y-12878936D01*
X10817801Y-12878936D02*
X10808277Y-12859888D01*
X10808277Y-12859888D02*
X10798753Y-12821793D01*
X10798753Y-12821793D02*
X10798753Y-12774174D01*
X10798753Y-12774174D02*
X10808277Y-12736079D01*
X10808277Y-12736079D02*
X10817801Y-12717031D01*
X10817801Y-12717031D02*
X10827324Y-12707508D01*
X10827324Y-12707508D02*
X10846372Y-12697984D01*
X10998753Y-12878936D02*
X11008277Y-12888460D01*
X11008277Y-12888460D02*
X10998753Y-12897984D01*
X10998753Y-12897984D02*
X10989229Y-12888460D01*
X10989229Y-12888460D02*
X10998753Y-12878936D01*
X10998753Y-12878936D02*
X10998753Y-12897984D01*
X11179705Y-12764650D02*
X11179705Y-12897984D01*
X11132086Y-12688460D02*
X11084467Y-12831317D01*
X11084467Y-12831317D02*
X11208277Y-12831317D01*
X11322562Y-12697984D02*
X11341610Y-12697984D01*
X11341610Y-12697984D02*
X11360658Y-12707508D01*
X11360658Y-12707508D02*
X11370182Y-12717031D01*
X11370182Y-12717031D02*
X11379705Y-12736079D01*
X11379705Y-12736079D02*
X11389229Y-12774174D01*
X11389229Y-12774174D02*
X11389229Y-12821793D01*
X11389229Y-12821793D02*
X11379705Y-12859888D01*
X11379705Y-12859888D02*
X11370182Y-12878936D01*
X11370182Y-12878936D02*
X11360658Y-12888460D01*
X11360658Y-12888460D02*
X11341610Y-12897984D01*
X11341610Y-12897984D02*
X11322562Y-12897984D01*
X11322562Y-12897984D02*
X11303515Y-12888460D01*
X11303515Y-12888460D02*
X11293991Y-12878936D01*
X11293991Y-12878936D02*
X11284467Y-12859888D01*
X11284467Y-12859888D02*
X11274943Y-12821793D01*
X11274943Y-12821793D02*
X11274943Y-12774174D01*
X11274943Y-12774174D02*
X11284467Y-12736079D01*
X11284467Y-12736079D02*
X11293991Y-12717031D01*
X11293991Y-12717031D02*
X11303515Y-12707508D01*
X11303515Y-12707508D02*
X11322562Y-12697984D01*
X11513039Y-12697984D02*
X11532086Y-12697984D01*
X11532086Y-12697984D02*
X11551134Y-12707508D01*
X11551134Y-12707508D02*
X11560658Y-12717031D01*
X11560658Y-12717031D02*
X11570182Y-12736079D01*
X11570182Y-12736079D02*
X11579705Y-12774174D01*
X11579705Y-12774174D02*
X11579705Y-12821793D01*
X11579705Y-12821793D02*
X11570182Y-12859888D01*
X11570182Y-12859888D02*
X11560658Y-12878936D01*
X11560658Y-12878936D02*
X11551134Y-12888460D01*
X11551134Y-12888460D02*
X11532086Y-12897984D01*
X11532086Y-12897984D02*
X11513039Y-12897984D01*
X11513039Y-12897984D02*
X11493991Y-12888460D01*
X11493991Y-12888460D02*
X11484467Y-12878936D01*
X11484467Y-12878936D02*
X11474943Y-12859888D01*
X11474943Y-12859888D02*
X11465420Y-12821793D01*
X11465420Y-12821793D02*
X11465420Y-12774174D01*
X11465420Y-12774174D02*
X11474943Y-12736079D01*
X11474943Y-12736079D02*
X11484467Y-12717031D01*
X11484467Y-12717031D02*
X11493991Y-12707508D01*
X11493991Y-12707508D02*
X11513039Y-12697984D01*
X11665420Y-12897984D02*
X11665420Y-12764650D01*
X11665420Y-12783698D02*
X11674943Y-12774174D01*
X11674943Y-12774174D02*
X11693991Y-12764650D01*
X11693991Y-12764650D02*
X11722563Y-12764650D01*
X11722563Y-12764650D02*
X11741610Y-12774174D01*
X11741610Y-12774174D02*
X11751134Y-12793222D01*
X11751134Y-12793222D02*
X11751134Y-12897984D01*
X11751134Y-12793222D02*
X11760658Y-12774174D01*
X11760658Y-12774174D02*
X11779705Y-12764650D01*
X11779705Y-12764650D02*
X11808277Y-12764650D01*
X11808277Y-12764650D02*
X11827324Y-12774174D01*
X11827324Y-12774174D02*
X11836848Y-12793222D01*
X11836848Y-12793222D02*
X11836848Y-12897984D01*
X11932086Y-12897984D02*
X11932086Y-12764650D01*
X11932086Y-12783698D02*
X11941610Y-12774174D01*
X11941610Y-12774174D02*
X11960658Y-12764650D01*
X11960658Y-12764650D02*
X11989229Y-12764650D01*
X11989229Y-12764650D02*
X12008277Y-12774174D01*
X12008277Y-12774174D02*
X12017801Y-12793222D01*
X12017801Y-12793222D02*
X12017801Y-12897984D01*
X12017801Y-12793222D02*
X12027324Y-12774174D01*
X12027324Y-12774174D02*
X12046372Y-12764650D01*
X12046372Y-12764650D02*
X12074943Y-12764650D01*
X12074943Y-12764650D02*
X12093991Y-12774174D01*
X12093991Y-12774174D02*
X12103515Y-12793222D01*
X12103515Y-12793222D02*
X12103515Y-12897984D01*
X12493991Y-12688460D02*
X12322563Y-12945603D01*
X12751134Y-12697984D02*
X12770182Y-12697984D01*
X12770182Y-12697984D02*
X12789229Y-12707508D01*
X12789229Y-12707508D02*
X12798753Y-12717031D01*
X12798753Y-12717031D02*
X12808277Y-12736079D01*
X12808277Y-12736079D02*
X12817801Y-12774174D01*
X12817801Y-12774174D02*
X12817801Y-12821793D01*
X12817801Y-12821793D02*
X12808277Y-12859888D01*
X12808277Y-12859888D02*
X12798753Y-12878936D01*
X12798753Y-12878936D02*
X12789229Y-12888460D01*
X12789229Y-12888460D02*
X12770182Y-12897984D01*
X12770182Y-12897984D02*
X12751134Y-12897984D01*
X12751134Y-12897984D02*
X12732086Y-12888460D01*
X12732086Y-12888460D02*
X12722563Y-12878936D01*
X12722563Y-12878936D02*
X12713039Y-12859888D01*
X12713039Y-12859888D02*
X12703515Y-12821793D01*
X12703515Y-12821793D02*
X12703515Y-12774174D01*
X12703515Y-12774174D02*
X12713039Y-12736079D01*
X12713039Y-12736079D02*
X12722563Y-12717031D01*
X12722563Y-12717031D02*
X12732086Y-12707508D01*
X12732086Y-12707508D02*
X12751134Y-12697984D01*
X12903515Y-12878936D02*
X12913039Y-12888460D01*
X12913039Y-12888460D02*
X12903515Y-12897984D01*
X12903515Y-12897984D02*
X12893991Y-12888460D01*
X12893991Y-12888460D02*
X12903515Y-12878936D01*
X12903515Y-12878936D02*
X12903515Y-12897984D01*
X13036848Y-12697984D02*
X13055896Y-12697984D01*
X13055896Y-12697984D02*
X13074944Y-12707508D01*
X13074944Y-12707508D02*
X13084467Y-12717031D01*
X13084467Y-12717031D02*
X13093991Y-12736079D01*
X13093991Y-12736079D02*
X13103515Y-12774174D01*
X13103515Y-12774174D02*
X13103515Y-12821793D01*
X13103515Y-12821793D02*
X13093991Y-12859888D01*
X13093991Y-12859888D02*
X13084467Y-12878936D01*
X13084467Y-12878936D02*
X13074944Y-12888460D01*
X13074944Y-12888460D02*
X13055896Y-12897984D01*
X13055896Y-12897984D02*
X13036848Y-12897984D01*
X13036848Y-12897984D02*
X13017801Y-12888460D01*
X13017801Y-12888460D02*
X13008277Y-12878936D01*
X13008277Y-12878936D02*
X12998753Y-12859888D01*
X12998753Y-12859888D02*
X12989229Y-12821793D01*
X12989229Y-12821793D02*
X12989229Y-12774174D01*
X12989229Y-12774174D02*
X12998753Y-12736079D01*
X12998753Y-12736079D02*
X13008277Y-12717031D01*
X13008277Y-12717031D02*
X13017801Y-12707508D01*
X13017801Y-12707508D02*
X13036848Y-12697984D01*
X13293991Y-12897984D02*
X13179706Y-12897984D01*
X13236848Y-12897984D02*
X13236848Y-12697984D01*
X13236848Y-12697984D02*
X13217801Y-12726555D01*
X13217801Y-12726555D02*
X13198753Y-12745603D01*
X13198753Y-12745603D02*
X13179706Y-12755127D01*
X13474944Y-12697984D02*
X13379706Y-12697984D01*
X13379706Y-12697984D02*
X13370182Y-12793222D01*
X13370182Y-12793222D02*
X13379706Y-12783698D01*
X13379706Y-12783698D02*
X13398753Y-12774174D01*
X13398753Y-12774174D02*
X13446372Y-12774174D01*
X13446372Y-12774174D02*
X13465420Y-12783698D01*
X13465420Y-12783698D02*
X13474944Y-12793222D01*
X13474944Y-12793222D02*
X13484467Y-12812269D01*
X13484467Y-12812269D02*
X13484467Y-12859888D01*
X13484467Y-12859888D02*
X13474944Y-12878936D01*
X13474944Y-12878936D02*
X13465420Y-12888460D01*
X13465420Y-12888460D02*
X13446372Y-12897984D01*
X13446372Y-12897984D02*
X13398753Y-12897984D01*
X13398753Y-12897984D02*
X13379706Y-12888460D01*
X13379706Y-12888460D02*
X13370182Y-12878936D01*
X13551134Y-12697984D02*
X13684467Y-12697984D01*
X13684467Y-12697984D02*
X13598753Y-12897984D01*
X13751134Y-12697984D02*
X13751134Y-12736079D01*
X13827325Y-12697984D02*
X13827325Y-12736079D01*
X14122563Y-12974174D02*
X14113039Y-12964650D01*
X14113039Y-12964650D02*
X14093991Y-12936079D01*
X14093991Y-12936079D02*
X14084468Y-12917031D01*
X14084468Y-12917031D02*
X14074944Y-12888460D01*
X14074944Y-12888460D02*
X14065420Y-12840841D01*
X14065420Y-12840841D02*
X14065420Y-12802746D01*
X14065420Y-12802746D02*
X14074944Y-12755127D01*
X14074944Y-12755127D02*
X14084468Y-12726555D01*
X14084468Y-12726555D02*
X14093991Y-12707508D01*
X14093991Y-12707508D02*
X14113039Y-12678936D01*
X14113039Y-12678936D02*
X14122563Y-12669412D01*
X14284468Y-12764650D02*
X14284468Y-12897984D01*
X14236848Y-12688460D02*
X14189229Y-12831317D01*
X14189229Y-12831317D02*
X14313039Y-12831317D01*
X14379706Y-12717031D02*
X14389229Y-12707508D01*
X14389229Y-12707508D02*
X14408277Y-12697984D01*
X14408277Y-12697984D02*
X14455896Y-12697984D01*
X14455896Y-12697984D02*
X14474944Y-12707508D01*
X14474944Y-12707508D02*
X14484468Y-12717031D01*
X14484468Y-12717031D02*
X14493991Y-12736079D01*
X14493991Y-12736079D02*
X14493991Y-12755127D01*
X14493991Y-12755127D02*
X14484468Y-12783698D01*
X14484468Y-12783698D02*
X14370182Y-12897984D01*
X14370182Y-12897984D02*
X14493991Y-12897984D01*
X14732087Y-12897984D02*
X14732087Y-12697984D01*
X14817801Y-12897984D02*
X14817801Y-12793222D01*
X14817801Y-12793222D02*
X14808277Y-12774174D01*
X14808277Y-12774174D02*
X14789230Y-12764650D01*
X14789230Y-12764650D02*
X14760658Y-12764650D01*
X14760658Y-12764650D02*
X14741610Y-12774174D01*
X14741610Y-12774174D02*
X14732087Y-12783698D01*
X14941610Y-12897984D02*
X14922563Y-12888460D01*
X14922563Y-12888460D02*
X14913039Y-12878936D01*
X14913039Y-12878936D02*
X14903515Y-12859888D01*
X14903515Y-12859888D02*
X14903515Y-12802746D01*
X14903515Y-12802746D02*
X14913039Y-12783698D01*
X14913039Y-12783698D02*
X14922563Y-12774174D01*
X14922563Y-12774174D02*
X14941610Y-12764650D01*
X14941610Y-12764650D02*
X14970182Y-12764650D01*
X14970182Y-12764650D02*
X14989230Y-12774174D01*
X14989230Y-12774174D02*
X14998753Y-12783698D01*
X14998753Y-12783698D02*
X15008277Y-12802746D01*
X15008277Y-12802746D02*
X15008277Y-12859888D01*
X15008277Y-12859888D02*
X14998753Y-12878936D01*
X14998753Y-12878936D02*
X14989230Y-12888460D01*
X14989230Y-12888460D02*
X14970182Y-12897984D01*
X14970182Y-12897984D02*
X14941610Y-12897984D01*
X15122563Y-12897984D02*
X15103515Y-12888460D01*
X15103515Y-12888460D02*
X15093991Y-12869412D01*
X15093991Y-12869412D02*
X15093991Y-12697984D01*
X15274944Y-12888460D02*
X15255896Y-12897984D01*
X15255896Y-12897984D02*
X15217801Y-12897984D01*
X15217801Y-12897984D02*
X15198753Y-12888460D01*
X15198753Y-12888460D02*
X15189230Y-12869412D01*
X15189230Y-12869412D02*
X15189230Y-12793222D01*
X15189230Y-12793222D02*
X15198753Y-12774174D01*
X15198753Y-12774174D02*
X15217801Y-12764650D01*
X15217801Y-12764650D02*
X15255896Y-12764650D01*
X15255896Y-12764650D02*
X15274944Y-12774174D01*
X15274944Y-12774174D02*
X15284468Y-12793222D01*
X15284468Y-12793222D02*
X15284468Y-12812269D01*
X15284468Y-12812269D02*
X15189230Y-12831317D01*
X15360658Y-12888460D02*
X15379706Y-12897984D01*
X15379706Y-12897984D02*
X15417801Y-12897984D01*
X15417801Y-12897984D02*
X15436849Y-12888460D01*
X15436849Y-12888460D02*
X15446372Y-12869412D01*
X15446372Y-12869412D02*
X15446372Y-12859888D01*
X15446372Y-12859888D02*
X15436849Y-12840841D01*
X15436849Y-12840841D02*
X15417801Y-12831317D01*
X15417801Y-12831317D02*
X15389230Y-12831317D01*
X15389230Y-12831317D02*
X15370182Y-12821793D01*
X15370182Y-12821793D02*
X15360658Y-12802746D01*
X15360658Y-12802746D02*
X15360658Y-12793222D01*
X15360658Y-12793222D02*
X15370182Y-12774174D01*
X15370182Y-12774174D02*
X15389230Y-12764650D01*
X15389230Y-12764650D02*
X15417801Y-12764650D01*
X15417801Y-12764650D02*
X15436849Y-12774174D01*
X15513039Y-12974174D02*
X15522563Y-12964650D01*
X15522563Y-12964650D02*
X15541611Y-12936079D01*
X15541611Y-12936079D02*
X15551134Y-12917031D01*
X15551134Y-12917031D02*
X15560658Y-12888460D01*
X15560658Y-12888460D02*
X15570182Y-12840841D01*
X15570182Y-12840841D02*
X15570182Y-12802746D01*
X15570182Y-12802746D02*
X15560658Y-12755127D01*
X15560658Y-12755127D02*
X15551134Y-12726555D01*
X15551134Y-12726555D02*
X15541611Y-12707508D01*
X15541611Y-12707508D02*
X15522563Y-12678936D01*
X15522563Y-12678936D02*
X15513039Y-12669412D01*
D12*
X10512500Y-13035500D02*
X10512500Y-13105500D01*
X10477500Y-13070500D02*
X10547500Y-13070500D01*
D11*
X10846372Y-12961984D02*
X10865420Y-12961984D01*
X10865420Y-12961984D02*
X10884467Y-12971508D01*
X10884467Y-12971508D02*
X10893991Y-12981031D01*
X10893991Y-12981031D02*
X10903515Y-13000079D01*
X10903515Y-13000079D02*
X10913039Y-13038174D01*
X10913039Y-13038174D02*
X10913039Y-13085793D01*
X10913039Y-13085793D02*
X10903515Y-13123888D01*
X10903515Y-13123888D02*
X10893991Y-13142936D01*
X10893991Y-13142936D02*
X10884467Y-13152460D01*
X10884467Y-13152460D02*
X10865420Y-13161984D01*
X10865420Y-13161984D02*
X10846372Y-13161984D01*
X10846372Y-13161984D02*
X10827324Y-13152460D01*
X10827324Y-13152460D02*
X10817801Y-13142936D01*
X10817801Y-13142936D02*
X10808277Y-13123888D01*
X10808277Y-13123888D02*
X10798753Y-13085793D01*
X10798753Y-13085793D02*
X10798753Y-13038174D01*
X10798753Y-13038174D02*
X10808277Y-13000079D01*
X10808277Y-13000079D02*
X10817801Y-12981031D01*
X10817801Y-12981031D02*
X10827324Y-12971508D01*
X10827324Y-12971508D02*
X10846372Y-12961984D01*
X10998753Y-13142936D02*
X11008277Y-13152460D01*
X11008277Y-13152460D02*
X10998753Y-13161984D01*
X10998753Y-13161984D02*
X10989229Y-13152460D01*
X10989229Y-13152460D02*
X10998753Y-13142936D01*
X10998753Y-13142936D02*
X10998753Y-13161984D01*
X11074944Y-12961984D02*
X11208277Y-12961984D01*
X11208277Y-12961984D02*
X11122563Y-13161984D01*
X11322562Y-12961984D02*
X11341610Y-12961984D01*
X11341610Y-12961984D02*
X11360658Y-12971508D01*
X11360658Y-12971508D02*
X11370182Y-12981031D01*
X11370182Y-12981031D02*
X11379705Y-13000079D01*
X11379705Y-13000079D02*
X11389229Y-13038174D01*
X11389229Y-13038174D02*
X11389229Y-13085793D01*
X11389229Y-13085793D02*
X11379705Y-13123888D01*
X11379705Y-13123888D02*
X11370182Y-13142936D01*
X11370182Y-13142936D02*
X11360658Y-13152460D01*
X11360658Y-13152460D02*
X11341610Y-13161984D01*
X11341610Y-13161984D02*
X11322562Y-13161984D01*
X11322562Y-13161984D02*
X11303515Y-13152460D01*
X11303515Y-13152460D02*
X11293991Y-13142936D01*
X11293991Y-13142936D02*
X11284467Y-13123888D01*
X11284467Y-13123888D02*
X11274943Y-13085793D01*
X11274943Y-13085793D02*
X11274943Y-13038174D01*
X11274943Y-13038174D02*
X11284467Y-13000079D01*
X11284467Y-13000079D02*
X11293991Y-12981031D01*
X11293991Y-12981031D02*
X11303515Y-12971508D01*
X11303515Y-12971508D02*
X11322562Y-12961984D01*
X11513039Y-12961984D02*
X11532086Y-12961984D01*
X11532086Y-12961984D02*
X11551134Y-12971508D01*
X11551134Y-12971508D02*
X11560658Y-12981031D01*
X11560658Y-12981031D02*
X11570182Y-13000079D01*
X11570182Y-13000079D02*
X11579705Y-13038174D01*
X11579705Y-13038174D02*
X11579705Y-13085793D01*
X11579705Y-13085793D02*
X11570182Y-13123888D01*
X11570182Y-13123888D02*
X11560658Y-13142936D01*
X11560658Y-13142936D02*
X11551134Y-13152460D01*
X11551134Y-13152460D02*
X11532086Y-13161984D01*
X11532086Y-13161984D02*
X11513039Y-13161984D01*
X11513039Y-13161984D02*
X11493991Y-13152460D01*
X11493991Y-13152460D02*
X11484467Y-13142936D01*
X11484467Y-13142936D02*
X11474943Y-13123888D01*
X11474943Y-13123888D02*
X11465420Y-13085793D01*
X11465420Y-13085793D02*
X11465420Y-13038174D01*
X11465420Y-13038174D02*
X11474943Y-13000079D01*
X11474943Y-13000079D02*
X11484467Y-12981031D01*
X11484467Y-12981031D02*
X11493991Y-12971508D01*
X11493991Y-12971508D02*
X11513039Y-12961984D01*
X11665420Y-13161984D02*
X11665420Y-13028650D01*
X11665420Y-13047698D02*
X11674943Y-13038174D01*
X11674943Y-13038174D02*
X11693991Y-13028650D01*
X11693991Y-13028650D02*
X11722563Y-13028650D01*
X11722563Y-13028650D02*
X11741610Y-13038174D01*
X11741610Y-13038174D02*
X11751134Y-13057222D01*
X11751134Y-13057222D02*
X11751134Y-13161984D01*
X11751134Y-13057222D02*
X11760658Y-13038174D01*
X11760658Y-13038174D02*
X11779705Y-13028650D01*
X11779705Y-13028650D02*
X11808277Y-13028650D01*
X11808277Y-13028650D02*
X11827324Y-13038174D01*
X11827324Y-13038174D02*
X11836848Y-13057222D01*
X11836848Y-13057222D02*
X11836848Y-13161984D01*
X11932086Y-13161984D02*
X11932086Y-13028650D01*
X11932086Y-13047698D02*
X11941610Y-13038174D01*
X11941610Y-13038174D02*
X11960658Y-13028650D01*
X11960658Y-13028650D02*
X11989229Y-13028650D01*
X11989229Y-13028650D02*
X12008277Y-13038174D01*
X12008277Y-13038174D02*
X12017801Y-13057222D01*
X12017801Y-13057222D02*
X12017801Y-13161984D01*
X12017801Y-13057222D02*
X12027324Y-13038174D01*
X12027324Y-13038174D02*
X12046372Y-13028650D01*
X12046372Y-13028650D02*
X12074943Y-13028650D01*
X12074943Y-13028650D02*
X12093991Y-13038174D01*
X12093991Y-13038174D02*
X12103515Y-13057222D01*
X12103515Y-13057222D02*
X12103515Y-13161984D01*
X12493991Y-12952460D02*
X12322563Y-13209603D01*
X12751134Y-12961984D02*
X12770182Y-12961984D01*
X12770182Y-12961984D02*
X12789229Y-12971508D01*
X12789229Y-12971508D02*
X12798753Y-12981031D01*
X12798753Y-12981031D02*
X12808277Y-13000079D01*
X12808277Y-13000079D02*
X12817801Y-13038174D01*
X12817801Y-13038174D02*
X12817801Y-13085793D01*
X12817801Y-13085793D02*
X12808277Y-13123888D01*
X12808277Y-13123888D02*
X12798753Y-13142936D01*
X12798753Y-13142936D02*
X12789229Y-13152460D01*
X12789229Y-13152460D02*
X12770182Y-13161984D01*
X12770182Y-13161984D02*
X12751134Y-13161984D01*
X12751134Y-13161984D02*
X12732086Y-13152460D01*
X12732086Y-13152460D02*
X12722563Y-13142936D01*
X12722563Y-13142936D02*
X12713039Y-13123888D01*
X12713039Y-13123888D02*
X12703515Y-13085793D01*
X12703515Y-13085793D02*
X12703515Y-13038174D01*
X12703515Y-13038174D02*
X12713039Y-13000079D01*
X12713039Y-13000079D02*
X12722563Y-12981031D01*
X12722563Y-12981031D02*
X12732086Y-12971508D01*
X12732086Y-12971508D02*
X12751134Y-12961984D01*
X12903515Y-13142936D02*
X12913039Y-13152460D01*
X12913039Y-13152460D02*
X12903515Y-13161984D01*
X12903515Y-13161984D02*
X12893991Y-13152460D01*
X12893991Y-13152460D02*
X12903515Y-13142936D01*
X12903515Y-13142936D02*
X12903515Y-13161984D01*
X13036848Y-12961984D02*
X13055896Y-12961984D01*
X13055896Y-12961984D02*
X13074944Y-12971508D01*
X13074944Y-12971508D02*
X13084467Y-12981031D01*
X13084467Y-12981031D02*
X13093991Y-13000079D01*
X13093991Y-13000079D02*
X13103515Y-13038174D01*
X13103515Y-13038174D02*
X13103515Y-13085793D01*
X13103515Y-13085793D02*
X13093991Y-13123888D01*
X13093991Y-13123888D02*
X13084467Y-13142936D01*
X13084467Y-13142936D02*
X13074944Y-13152460D01*
X13074944Y-13152460D02*
X13055896Y-13161984D01*
X13055896Y-13161984D02*
X13036848Y-13161984D01*
X13036848Y-13161984D02*
X13017801Y-13152460D01*
X13017801Y-13152460D02*
X13008277Y-13142936D01*
X13008277Y-13142936D02*
X12998753Y-13123888D01*
X12998753Y-13123888D02*
X12989229Y-13085793D01*
X12989229Y-13085793D02*
X12989229Y-13038174D01*
X12989229Y-13038174D02*
X12998753Y-13000079D01*
X12998753Y-13000079D02*
X13008277Y-12981031D01*
X13008277Y-12981031D02*
X13017801Y-12971508D01*
X13017801Y-12971508D02*
X13036848Y-12961984D01*
X13179706Y-12981031D02*
X13189229Y-12971508D01*
X13189229Y-12971508D02*
X13208277Y-12961984D01*
X13208277Y-12961984D02*
X13255896Y-12961984D01*
X13255896Y-12961984D02*
X13274944Y-12971508D01*
X13274944Y-12971508D02*
X13284467Y-12981031D01*
X13284467Y-12981031D02*
X13293991Y-13000079D01*
X13293991Y-13000079D02*
X13293991Y-13019127D01*
X13293991Y-13019127D02*
X13284467Y-13047698D01*
X13284467Y-13047698D02*
X13170182Y-13161984D01*
X13170182Y-13161984D02*
X13293991Y-13161984D01*
X13360658Y-12961984D02*
X13493991Y-12961984D01*
X13493991Y-12961984D02*
X13408277Y-13161984D01*
X13655896Y-12961984D02*
X13617801Y-12961984D01*
X13617801Y-12961984D02*
X13598753Y-12971508D01*
X13598753Y-12971508D02*
X13589229Y-12981031D01*
X13589229Y-12981031D02*
X13570182Y-13009603D01*
X13570182Y-13009603D02*
X13560658Y-13047698D01*
X13560658Y-13047698D02*
X13560658Y-13123888D01*
X13560658Y-13123888D02*
X13570182Y-13142936D01*
X13570182Y-13142936D02*
X13579706Y-13152460D01*
X13579706Y-13152460D02*
X13598753Y-13161984D01*
X13598753Y-13161984D02*
X13636848Y-13161984D01*
X13636848Y-13161984D02*
X13655896Y-13152460D01*
X13655896Y-13152460D02*
X13665420Y-13142936D01*
X13665420Y-13142936D02*
X13674944Y-13123888D01*
X13674944Y-13123888D02*
X13674944Y-13076269D01*
X13674944Y-13076269D02*
X13665420Y-13057222D01*
X13665420Y-13057222D02*
X13655896Y-13047698D01*
X13655896Y-13047698D02*
X13636848Y-13038174D01*
X13636848Y-13038174D02*
X13598753Y-13038174D01*
X13598753Y-13038174D02*
X13579706Y-13047698D01*
X13579706Y-13047698D02*
X13570182Y-13057222D01*
X13570182Y-13057222D02*
X13560658Y-13076269D01*
X13751134Y-12961984D02*
X13751134Y-13000079D01*
X13827325Y-12961984D02*
X13827325Y-13000079D01*
X14122563Y-13238174D02*
X14113039Y-13228650D01*
X14113039Y-13228650D02*
X14093991Y-13200079D01*
X14093991Y-13200079D02*
X14084468Y-13181031D01*
X14084468Y-13181031D02*
X14074944Y-13152460D01*
X14074944Y-13152460D02*
X14065420Y-13104841D01*
X14065420Y-13104841D02*
X14065420Y-13066746D01*
X14065420Y-13066746D02*
X14074944Y-13019127D01*
X14074944Y-13019127D02*
X14084468Y-12990555D01*
X14084468Y-12990555D02*
X14093991Y-12971508D01*
X14093991Y-12971508D02*
X14113039Y-12942936D01*
X14113039Y-12942936D02*
X14122563Y-12933412D01*
X14303515Y-13161984D02*
X14189229Y-13161984D01*
X14246372Y-13161984D02*
X14246372Y-12961984D01*
X14246372Y-12961984D02*
X14227325Y-12990555D01*
X14227325Y-12990555D02*
X14208277Y-13009603D01*
X14208277Y-13009603D02*
X14189229Y-13019127D01*
X14379706Y-12981031D02*
X14389229Y-12971508D01*
X14389229Y-12971508D02*
X14408277Y-12961984D01*
X14408277Y-12961984D02*
X14455896Y-12961984D01*
X14455896Y-12961984D02*
X14474944Y-12971508D01*
X14474944Y-12971508D02*
X14484468Y-12981031D01*
X14484468Y-12981031D02*
X14493991Y-13000079D01*
X14493991Y-13000079D02*
X14493991Y-13019127D01*
X14493991Y-13019127D02*
X14484468Y-13047698D01*
X14484468Y-13047698D02*
X14370182Y-13161984D01*
X14370182Y-13161984D02*
X14493991Y-13161984D01*
X14732087Y-13161984D02*
X14732087Y-12961984D01*
X14817801Y-13161984D02*
X14817801Y-13057222D01*
X14817801Y-13057222D02*
X14808277Y-13038174D01*
X14808277Y-13038174D02*
X14789230Y-13028650D01*
X14789230Y-13028650D02*
X14760658Y-13028650D01*
X14760658Y-13028650D02*
X14741610Y-13038174D01*
X14741610Y-13038174D02*
X14732087Y-13047698D01*
X14941610Y-13161984D02*
X14922563Y-13152460D01*
X14922563Y-13152460D02*
X14913039Y-13142936D01*
X14913039Y-13142936D02*
X14903515Y-13123888D01*
X14903515Y-13123888D02*
X14903515Y-13066746D01*
X14903515Y-13066746D02*
X14913039Y-13047698D01*
X14913039Y-13047698D02*
X14922563Y-13038174D01*
X14922563Y-13038174D02*
X14941610Y-13028650D01*
X14941610Y-13028650D02*
X14970182Y-13028650D01*
X14970182Y-13028650D02*
X14989230Y-13038174D01*
X14989230Y-13038174D02*
X14998753Y-13047698D01*
X14998753Y-13047698D02*
X15008277Y-13066746D01*
X15008277Y-13066746D02*
X15008277Y-13123888D01*
X15008277Y-13123888D02*
X14998753Y-13142936D01*
X14998753Y-13142936D02*
X14989230Y-13152460D01*
X14989230Y-13152460D02*
X14970182Y-13161984D01*
X14970182Y-13161984D02*
X14941610Y-13161984D01*
X15122563Y-13161984D02*
X15103515Y-13152460D01*
X15103515Y-13152460D02*
X15093991Y-13133412D01*
X15093991Y-13133412D02*
X15093991Y-12961984D01*
X15274944Y-13152460D02*
X15255896Y-13161984D01*
X15255896Y-13161984D02*
X15217801Y-13161984D01*
X15217801Y-13161984D02*
X15198753Y-13152460D01*
X15198753Y-13152460D02*
X15189230Y-13133412D01*
X15189230Y-13133412D02*
X15189230Y-13057222D01*
X15189230Y-13057222D02*
X15198753Y-13038174D01*
X15198753Y-13038174D02*
X15217801Y-13028650D01*
X15217801Y-13028650D02*
X15255896Y-13028650D01*
X15255896Y-13028650D02*
X15274944Y-13038174D01*
X15274944Y-13038174D02*
X15284468Y-13057222D01*
X15284468Y-13057222D02*
X15284468Y-13076269D01*
X15284468Y-13076269D02*
X15189230Y-13095317D01*
X15360658Y-13152460D02*
X15379706Y-13161984D01*
X15379706Y-13161984D02*
X15417801Y-13161984D01*
X15417801Y-13161984D02*
X15436849Y-13152460D01*
X15436849Y-13152460D02*
X15446372Y-13133412D01*
X15446372Y-13133412D02*
X15446372Y-13123888D01*
X15446372Y-13123888D02*
X15436849Y-13104841D01*
X15436849Y-13104841D02*
X15417801Y-13095317D01*
X15417801Y-13095317D02*
X15389230Y-13095317D01*
X15389230Y-13095317D02*
X15370182Y-13085793D01*
X15370182Y-13085793D02*
X15360658Y-13066746D01*
X15360658Y-13066746D02*
X15360658Y-13057222D01*
X15360658Y-13057222D02*
X15370182Y-13038174D01*
X15370182Y-13038174D02*
X15389230Y-13028650D01*
X15389230Y-13028650D02*
X15417801Y-13028650D01*
X15417801Y-13028650D02*
X15436849Y-13038174D01*
X15513039Y-13238174D02*
X15522563Y-13228650D01*
X15522563Y-13228650D02*
X15541611Y-13200079D01*
X15541611Y-13200079D02*
X15551134Y-13181031D01*
X15551134Y-13181031D02*
X15560658Y-13152460D01*
X15560658Y-13152460D02*
X15570182Y-13104841D01*
X15570182Y-13104841D02*
X15570182Y-13066746D01*
X15570182Y-13066746D02*
X15560658Y-13019127D01*
X15560658Y-13019127D02*
X15551134Y-12990555D01*
X15551134Y-12990555D02*
X15541611Y-12971508D01*
X15541611Y-12971508D02*
X15522563Y-12942936D01*
X15522563Y-12942936D02*
X15513039Y-12933412D01*
D12*
X10535785Y-13362784D02*
X10535785Y-13306215D01*
X10479216Y-13306215D01*
X10479216Y-13362784D01*
X10535785Y-13362784D01*
D11*
X10846372Y-13225984D02*
X10865420Y-13225984D01*
X10865420Y-13225984D02*
X10884467Y-13235508D01*
X10884467Y-13235508D02*
X10893991Y-13245031D01*
X10893991Y-13245031D02*
X10903515Y-13264079D01*
X10903515Y-13264079D02*
X10913039Y-13302174D01*
X10913039Y-13302174D02*
X10913039Y-13349793D01*
X10913039Y-13349793D02*
X10903515Y-13387888D01*
X10903515Y-13387888D02*
X10893991Y-13406936D01*
X10893991Y-13406936D02*
X10884467Y-13416460D01*
X10884467Y-13416460D02*
X10865420Y-13425984D01*
X10865420Y-13425984D02*
X10846372Y-13425984D01*
X10846372Y-13425984D02*
X10827324Y-13416460D01*
X10827324Y-13416460D02*
X10817801Y-13406936D01*
X10817801Y-13406936D02*
X10808277Y-13387888D01*
X10808277Y-13387888D02*
X10798753Y-13349793D01*
X10798753Y-13349793D02*
X10798753Y-13302174D01*
X10798753Y-13302174D02*
X10808277Y-13264079D01*
X10808277Y-13264079D02*
X10817801Y-13245031D01*
X10817801Y-13245031D02*
X10827324Y-13235508D01*
X10827324Y-13235508D02*
X10846372Y-13225984D01*
X10998753Y-13406936D02*
X11008277Y-13416460D01*
X11008277Y-13416460D02*
X10998753Y-13425984D01*
X10998753Y-13425984D02*
X10989229Y-13416460D01*
X10989229Y-13416460D02*
X10998753Y-13406936D01*
X10998753Y-13406936D02*
X10998753Y-13425984D01*
X11122563Y-13311698D02*
X11103515Y-13302174D01*
X11103515Y-13302174D02*
X11093991Y-13292650D01*
X11093991Y-13292650D02*
X11084467Y-13273603D01*
X11084467Y-13273603D02*
X11084467Y-13264079D01*
X11084467Y-13264079D02*
X11093991Y-13245031D01*
X11093991Y-13245031D02*
X11103515Y-13235508D01*
X11103515Y-13235508D02*
X11122563Y-13225984D01*
X11122563Y-13225984D02*
X11160658Y-13225984D01*
X11160658Y-13225984D02*
X11179705Y-13235508D01*
X11179705Y-13235508D02*
X11189229Y-13245031D01*
X11189229Y-13245031D02*
X11198753Y-13264079D01*
X11198753Y-13264079D02*
X11198753Y-13273603D01*
X11198753Y-13273603D02*
X11189229Y-13292650D01*
X11189229Y-13292650D02*
X11179705Y-13302174D01*
X11179705Y-13302174D02*
X11160658Y-13311698D01*
X11160658Y-13311698D02*
X11122563Y-13311698D01*
X11122563Y-13311698D02*
X11103515Y-13321222D01*
X11103515Y-13321222D02*
X11093991Y-13330746D01*
X11093991Y-13330746D02*
X11084467Y-13349793D01*
X11084467Y-13349793D02*
X11084467Y-13387888D01*
X11084467Y-13387888D02*
X11093991Y-13406936D01*
X11093991Y-13406936D02*
X11103515Y-13416460D01*
X11103515Y-13416460D02*
X11122563Y-13425984D01*
X11122563Y-13425984D02*
X11160658Y-13425984D01*
X11160658Y-13425984D02*
X11179705Y-13416460D01*
X11179705Y-13416460D02*
X11189229Y-13406936D01*
X11189229Y-13406936D02*
X11198753Y-13387888D01*
X11198753Y-13387888D02*
X11198753Y-13349793D01*
X11198753Y-13349793D02*
X11189229Y-13330746D01*
X11189229Y-13330746D02*
X11179705Y-13321222D01*
X11179705Y-13321222D02*
X11160658Y-13311698D01*
X11322562Y-13225984D02*
X11341610Y-13225984D01*
X11341610Y-13225984D02*
X11360658Y-13235508D01*
X11360658Y-13235508D02*
X11370182Y-13245031D01*
X11370182Y-13245031D02*
X11379705Y-13264079D01*
X11379705Y-13264079D02*
X11389229Y-13302174D01*
X11389229Y-13302174D02*
X11389229Y-13349793D01*
X11389229Y-13349793D02*
X11379705Y-13387888D01*
X11379705Y-13387888D02*
X11370182Y-13406936D01*
X11370182Y-13406936D02*
X11360658Y-13416460D01*
X11360658Y-13416460D02*
X11341610Y-13425984D01*
X11341610Y-13425984D02*
X11322562Y-13425984D01*
X11322562Y-13425984D02*
X11303515Y-13416460D01*
X11303515Y-13416460D02*
X11293991Y-13406936D01*
X11293991Y-13406936D02*
X11284467Y-13387888D01*
X11284467Y-13387888D02*
X11274943Y-13349793D01*
X11274943Y-13349793D02*
X11274943Y-13302174D01*
X11274943Y-13302174D02*
X11284467Y-13264079D01*
X11284467Y-13264079D02*
X11293991Y-13245031D01*
X11293991Y-13245031D02*
X11303515Y-13235508D01*
X11303515Y-13235508D02*
X11322562Y-13225984D01*
X11513039Y-13225984D02*
X11532086Y-13225984D01*
X11532086Y-13225984D02*
X11551134Y-13235508D01*
X11551134Y-13235508D02*
X11560658Y-13245031D01*
X11560658Y-13245031D02*
X11570182Y-13264079D01*
X11570182Y-13264079D02*
X11579705Y-13302174D01*
X11579705Y-13302174D02*
X11579705Y-13349793D01*
X11579705Y-13349793D02*
X11570182Y-13387888D01*
X11570182Y-13387888D02*
X11560658Y-13406936D01*
X11560658Y-13406936D02*
X11551134Y-13416460D01*
X11551134Y-13416460D02*
X11532086Y-13425984D01*
X11532086Y-13425984D02*
X11513039Y-13425984D01*
X11513039Y-13425984D02*
X11493991Y-13416460D01*
X11493991Y-13416460D02*
X11484467Y-13406936D01*
X11484467Y-13406936D02*
X11474943Y-13387888D01*
X11474943Y-13387888D02*
X11465420Y-13349793D01*
X11465420Y-13349793D02*
X11465420Y-13302174D01*
X11465420Y-13302174D02*
X11474943Y-13264079D01*
X11474943Y-13264079D02*
X11484467Y-13245031D01*
X11484467Y-13245031D02*
X11493991Y-13235508D01*
X11493991Y-13235508D02*
X11513039Y-13225984D01*
X11665420Y-13425984D02*
X11665420Y-13292650D01*
X11665420Y-13311698D02*
X11674943Y-13302174D01*
X11674943Y-13302174D02*
X11693991Y-13292650D01*
X11693991Y-13292650D02*
X11722563Y-13292650D01*
X11722563Y-13292650D02*
X11741610Y-13302174D01*
X11741610Y-13302174D02*
X11751134Y-13321222D01*
X11751134Y-13321222D02*
X11751134Y-13425984D01*
X11751134Y-13321222D02*
X11760658Y-13302174D01*
X11760658Y-13302174D02*
X11779705Y-13292650D01*
X11779705Y-13292650D02*
X11808277Y-13292650D01*
X11808277Y-13292650D02*
X11827324Y-13302174D01*
X11827324Y-13302174D02*
X11836848Y-13321222D01*
X11836848Y-13321222D02*
X11836848Y-13425984D01*
X11932086Y-13425984D02*
X11932086Y-13292650D01*
X11932086Y-13311698D02*
X11941610Y-13302174D01*
X11941610Y-13302174D02*
X11960658Y-13292650D01*
X11960658Y-13292650D02*
X11989229Y-13292650D01*
X11989229Y-13292650D02*
X12008277Y-13302174D01*
X12008277Y-13302174D02*
X12017801Y-13321222D01*
X12017801Y-13321222D02*
X12017801Y-13425984D01*
X12017801Y-13321222D02*
X12027324Y-13302174D01*
X12027324Y-13302174D02*
X12046372Y-13292650D01*
X12046372Y-13292650D02*
X12074943Y-13292650D01*
X12074943Y-13292650D02*
X12093991Y-13302174D01*
X12093991Y-13302174D02*
X12103515Y-13321222D01*
X12103515Y-13321222D02*
X12103515Y-13425984D01*
X12493991Y-13216460D02*
X12322563Y-13473603D01*
X12751134Y-13225984D02*
X12770182Y-13225984D01*
X12770182Y-13225984D02*
X12789229Y-13235508D01*
X12789229Y-13235508D02*
X12798753Y-13245031D01*
X12798753Y-13245031D02*
X12808277Y-13264079D01*
X12808277Y-13264079D02*
X12817801Y-13302174D01*
X12817801Y-13302174D02*
X12817801Y-13349793D01*
X12817801Y-13349793D02*
X12808277Y-13387888D01*
X12808277Y-13387888D02*
X12798753Y-13406936D01*
X12798753Y-13406936D02*
X12789229Y-13416460D01*
X12789229Y-13416460D02*
X12770182Y-13425984D01*
X12770182Y-13425984D02*
X12751134Y-13425984D01*
X12751134Y-13425984D02*
X12732086Y-13416460D01*
X12732086Y-13416460D02*
X12722563Y-13406936D01*
X12722563Y-13406936D02*
X12713039Y-13387888D01*
X12713039Y-13387888D02*
X12703515Y-13349793D01*
X12703515Y-13349793D02*
X12703515Y-13302174D01*
X12703515Y-13302174D02*
X12713039Y-13264079D01*
X12713039Y-13264079D02*
X12722563Y-13245031D01*
X12722563Y-13245031D02*
X12732086Y-13235508D01*
X12732086Y-13235508D02*
X12751134Y-13225984D01*
X12903515Y-13406936D02*
X12913039Y-13416460D01*
X12913039Y-13416460D02*
X12903515Y-13425984D01*
X12903515Y-13425984D02*
X12893991Y-13416460D01*
X12893991Y-13416460D02*
X12903515Y-13406936D01*
X12903515Y-13406936D02*
X12903515Y-13425984D01*
X13036848Y-13225984D02*
X13055896Y-13225984D01*
X13055896Y-13225984D02*
X13074944Y-13235508D01*
X13074944Y-13235508D02*
X13084467Y-13245031D01*
X13084467Y-13245031D02*
X13093991Y-13264079D01*
X13093991Y-13264079D02*
X13103515Y-13302174D01*
X13103515Y-13302174D02*
X13103515Y-13349793D01*
X13103515Y-13349793D02*
X13093991Y-13387888D01*
X13093991Y-13387888D02*
X13084467Y-13406936D01*
X13084467Y-13406936D02*
X13074944Y-13416460D01*
X13074944Y-13416460D02*
X13055896Y-13425984D01*
X13055896Y-13425984D02*
X13036848Y-13425984D01*
X13036848Y-13425984D02*
X13017801Y-13416460D01*
X13017801Y-13416460D02*
X13008277Y-13406936D01*
X13008277Y-13406936D02*
X12998753Y-13387888D01*
X12998753Y-13387888D02*
X12989229Y-13349793D01*
X12989229Y-13349793D02*
X12989229Y-13302174D01*
X12989229Y-13302174D02*
X12998753Y-13264079D01*
X12998753Y-13264079D02*
X13008277Y-13245031D01*
X13008277Y-13245031D02*
X13017801Y-13235508D01*
X13017801Y-13235508D02*
X13036848Y-13225984D01*
X13170182Y-13225984D02*
X13293991Y-13225984D01*
X13293991Y-13225984D02*
X13227325Y-13302174D01*
X13227325Y-13302174D02*
X13255896Y-13302174D01*
X13255896Y-13302174D02*
X13274944Y-13311698D01*
X13274944Y-13311698D02*
X13284467Y-13321222D01*
X13284467Y-13321222D02*
X13293991Y-13340269D01*
X13293991Y-13340269D02*
X13293991Y-13387888D01*
X13293991Y-13387888D02*
X13284467Y-13406936D01*
X13284467Y-13406936D02*
X13274944Y-13416460D01*
X13274944Y-13416460D02*
X13255896Y-13425984D01*
X13255896Y-13425984D02*
X13198753Y-13425984D01*
X13198753Y-13425984D02*
X13179706Y-13416460D01*
X13179706Y-13416460D02*
X13170182Y-13406936D01*
X13484467Y-13425984D02*
X13370182Y-13425984D01*
X13427325Y-13425984D02*
X13427325Y-13225984D01*
X13427325Y-13225984D02*
X13408277Y-13254555D01*
X13408277Y-13254555D02*
X13389229Y-13273603D01*
X13389229Y-13273603D02*
X13370182Y-13283127D01*
X13665420Y-13225984D02*
X13570182Y-13225984D01*
X13570182Y-13225984D02*
X13560658Y-13321222D01*
X13560658Y-13321222D02*
X13570182Y-13311698D01*
X13570182Y-13311698D02*
X13589229Y-13302174D01*
X13589229Y-13302174D02*
X13636848Y-13302174D01*
X13636848Y-13302174D02*
X13655896Y-13311698D01*
X13655896Y-13311698D02*
X13665420Y-13321222D01*
X13665420Y-13321222D02*
X13674944Y-13340269D01*
X13674944Y-13340269D02*
X13674944Y-13387888D01*
X13674944Y-13387888D02*
X13665420Y-13406936D01*
X13665420Y-13406936D02*
X13655896Y-13416460D01*
X13655896Y-13416460D02*
X13636848Y-13425984D01*
X13636848Y-13425984D02*
X13589229Y-13425984D01*
X13589229Y-13425984D02*
X13570182Y-13416460D01*
X13570182Y-13416460D02*
X13560658Y-13406936D01*
X13751134Y-13225984D02*
X13751134Y-13264079D01*
X13827325Y-13225984D02*
X13827325Y-13264079D01*
X14122563Y-13502174D02*
X14113039Y-13492650D01*
X14113039Y-13492650D02*
X14093991Y-13464079D01*
X14093991Y-13464079D02*
X14084468Y-13445031D01*
X14084468Y-13445031D02*
X14074944Y-13416460D01*
X14074944Y-13416460D02*
X14065420Y-13368841D01*
X14065420Y-13368841D02*
X14065420Y-13330746D01*
X14065420Y-13330746D02*
X14074944Y-13283127D01*
X14074944Y-13283127D02*
X14084468Y-13254555D01*
X14084468Y-13254555D02*
X14093991Y-13235508D01*
X14093991Y-13235508D02*
X14113039Y-13206936D01*
X14113039Y-13206936D02*
X14122563Y-13197412D01*
X14179706Y-13225984D02*
X14303515Y-13225984D01*
X14303515Y-13225984D02*
X14236848Y-13302174D01*
X14236848Y-13302174D02*
X14265420Y-13302174D01*
X14265420Y-13302174D02*
X14284468Y-13311698D01*
X14284468Y-13311698D02*
X14293991Y-13321222D01*
X14293991Y-13321222D02*
X14303515Y-13340269D01*
X14303515Y-13340269D02*
X14303515Y-13387888D01*
X14303515Y-13387888D02*
X14293991Y-13406936D01*
X14293991Y-13406936D02*
X14284468Y-13416460D01*
X14284468Y-13416460D02*
X14265420Y-13425984D01*
X14265420Y-13425984D02*
X14208277Y-13425984D01*
X14208277Y-13425984D02*
X14189229Y-13416460D01*
X14189229Y-13416460D02*
X14179706Y-13406936D01*
X14417801Y-13311698D02*
X14398753Y-13302174D01*
X14398753Y-13302174D02*
X14389229Y-13292650D01*
X14389229Y-13292650D02*
X14379706Y-13273603D01*
X14379706Y-13273603D02*
X14379706Y-13264079D01*
X14379706Y-13264079D02*
X14389229Y-13245031D01*
X14389229Y-13245031D02*
X14398753Y-13235508D01*
X14398753Y-13235508D02*
X14417801Y-13225984D01*
X14417801Y-13225984D02*
X14455896Y-13225984D01*
X14455896Y-13225984D02*
X14474944Y-13235508D01*
X14474944Y-13235508D02*
X14484468Y-13245031D01*
X14484468Y-13245031D02*
X14493991Y-13264079D01*
X14493991Y-13264079D02*
X14493991Y-13273603D01*
X14493991Y-13273603D02*
X14484468Y-13292650D01*
X14484468Y-13292650D02*
X14474944Y-13302174D01*
X14474944Y-13302174D02*
X14455896Y-13311698D01*
X14455896Y-13311698D02*
X14417801Y-13311698D01*
X14417801Y-13311698D02*
X14398753Y-13321222D01*
X14398753Y-13321222D02*
X14389229Y-13330746D01*
X14389229Y-13330746D02*
X14379706Y-13349793D01*
X14379706Y-13349793D02*
X14379706Y-13387888D01*
X14379706Y-13387888D02*
X14389229Y-13406936D01*
X14389229Y-13406936D02*
X14398753Y-13416460D01*
X14398753Y-13416460D02*
X14417801Y-13425984D01*
X14417801Y-13425984D02*
X14455896Y-13425984D01*
X14455896Y-13425984D02*
X14474944Y-13416460D01*
X14474944Y-13416460D02*
X14484468Y-13406936D01*
X14484468Y-13406936D02*
X14493991Y-13387888D01*
X14493991Y-13387888D02*
X14493991Y-13349793D01*
X14493991Y-13349793D02*
X14484468Y-13330746D01*
X14484468Y-13330746D02*
X14474944Y-13321222D01*
X14474944Y-13321222D02*
X14455896Y-13311698D01*
X14732087Y-13425984D02*
X14732087Y-13225984D01*
X14817801Y-13425984D02*
X14817801Y-13321222D01*
X14817801Y-13321222D02*
X14808277Y-13302174D01*
X14808277Y-13302174D02*
X14789230Y-13292650D01*
X14789230Y-13292650D02*
X14760658Y-13292650D01*
X14760658Y-13292650D02*
X14741610Y-13302174D01*
X14741610Y-13302174D02*
X14732087Y-13311698D01*
X14941610Y-13425984D02*
X14922563Y-13416460D01*
X14922563Y-13416460D02*
X14913039Y-13406936D01*
X14913039Y-13406936D02*
X14903515Y-13387888D01*
X14903515Y-13387888D02*
X14903515Y-13330746D01*
X14903515Y-13330746D02*
X14913039Y-13311698D01*
X14913039Y-13311698D02*
X14922563Y-13302174D01*
X14922563Y-13302174D02*
X14941610Y-13292650D01*
X14941610Y-13292650D02*
X14970182Y-13292650D01*
X14970182Y-13292650D02*
X14989230Y-13302174D01*
X14989230Y-13302174D02*
X14998753Y-13311698D01*
X14998753Y-13311698D02*
X15008277Y-13330746D01*
X15008277Y-13330746D02*
X15008277Y-13387888D01*
X15008277Y-13387888D02*
X14998753Y-13406936D01*
X14998753Y-13406936D02*
X14989230Y-13416460D01*
X14989230Y-13416460D02*
X14970182Y-13425984D01*
X14970182Y-13425984D02*
X14941610Y-13425984D01*
X15122563Y-13425984D02*
X15103515Y-13416460D01*
X15103515Y-13416460D02*
X15093991Y-13397412D01*
X15093991Y-13397412D02*
X15093991Y-13225984D01*
X15274944Y-13416460D02*
X15255896Y-13425984D01*
X15255896Y-13425984D02*
X15217801Y-13425984D01*
X15217801Y-13425984D02*
X15198753Y-13416460D01*
X15198753Y-13416460D02*
X15189230Y-13397412D01*
X15189230Y-13397412D02*
X15189230Y-13321222D01*
X15189230Y-13321222D02*
X15198753Y-13302174D01*
X15198753Y-13302174D02*
X15217801Y-13292650D01*
X15217801Y-13292650D02*
X15255896Y-13292650D01*
X15255896Y-13292650D02*
X15274944Y-13302174D01*
X15274944Y-13302174D02*
X15284468Y-13321222D01*
X15284468Y-13321222D02*
X15284468Y-13340269D01*
X15284468Y-13340269D02*
X15189230Y-13359317D01*
X15360658Y-13416460D02*
X15379706Y-13425984D01*
X15379706Y-13425984D02*
X15417801Y-13425984D01*
X15417801Y-13425984D02*
X15436849Y-13416460D01*
X15436849Y-13416460D02*
X15446372Y-13397412D01*
X15446372Y-13397412D02*
X15446372Y-13387888D01*
X15446372Y-13387888D02*
X15436849Y-13368841D01*
X15436849Y-13368841D02*
X15417801Y-13359317D01*
X15417801Y-13359317D02*
X15389230Y-13359317D01*
X15389230Y-13359317D02*
X15370182Y-13349793D01*
X15370182Y-13349793D02*
X15360658Y-13330746D01*
X15360658Y-13330746D02*
X15360658Y-13321222D01*
X15360658Y-13321222D02*
X15370182Y-13302174D01*
X15370182Y-13302174D02*
X15389230Y-13292650D01*
X15389230Y-13292650D02*
X15417801Y-13292650D01*
X15417801Y-13292650D02*
X15436849Y-13302174D01*
X15513039Y-13502174D02*
X15522563Y-13492650D01*
X15522563Y-13492650D02*
X15541611Y-13464079D01*
X15541611Y-13464079D02*
X15551134Y-13445031D01*
X15551134Y-13445031D02*
X15560658Y-13416460D01*
X15560658Y-13416460D02*
X15570182Y-13368841D01*
X15570182Y-13368841D02*
X15570182Y-13330746D01*
X15570182Y-13330746D02*
X15560658Y-13283127D01*
X15560658Y-13283127D02*
X15551134Y-13254555D01*
X15551134Y-13254555D02*
X15541611Y-13235508D01*
X15541611Y-13235508D02*
X15522563Y-13206936D01*
X15522563Y-13206936D02*
X15513039Y-13197412D01*
D12*
X10497500Y-13648500D02*
X10547500Y-13598500D01*
X10497500Y-13548500D01*
X10447500Y-13598500D01*
X10497500Y-13648500D01*
D11*
X10913039Y-13689984D02*
X10798753Y-13689984D01*
X10855896Y-13689984D02*
X10855896Y-13489984D01*
X10855896Y-13489984D02*
X10836848Y-13518555D01*
X10836848Y-13518555D02*
X10817801Y-13537603D01*
X10817801Y-13537603D02*
X10798753Y-13547127D01*
X10998753Y-13670936D02*
X11008277Y-13680460D01*
X11008277Y-13680460D02*
X10998753Y-13689984D01*
X10998753Y-13689984D02*
X10989229Y-13680460D01*
X10989229Y-13680460D02*
X10998753Y-13670936D01*
X10998753Y-13670936D02*
X10998753Y-13689984D01*
X11132086Y-13489984D02*
X11151134Y-13489984D01*
X11151134Y-13489984D02*
X11170182Y-13499508D01*
X11170182Y-13499508D02*
X11179705Y-13509031D01*
X11179705Y-13509031D02*
X11189229Y-13528079D01*
X11189229Y-13528079D02*
X11198753Y-13566174D01*
X11198753Y-13566174D02*
X11198753Y-13613793D01*
X11198753Y-13613793D02*
X11189229Y-13651888D01*
X11189229Y-13651888D02*
X11179705Y-13670936D01*
X11179705Y-13670936D02*
X11170182Y-13680460D01*
X11170182Y-13680460D02*
X11151134Y-13689984D01*
X11151134Y-13689984D02*
X11132086Y-13689984D01*
X11132086Y-13689984D02*
X11113039Y-13680460D01*
X11113039Y-13680460D02*
X11103515Y-13670936D01*
X11103515Y-13670936D02*
X11093991Y-13651888D01*
X11093991Y-13651888D02*
X11084467Y-13613793D01*
X11084467Y-13613793D02*
X11084467Y-13566174D01*
X11084467Y-13566174D02*
X11093991Y-13528079D01*
X11093991Y-13528079D02*
X11103515Y-13509031D01*
X11103515Y-13509031D02*
X11113039Y-13499508D01*
X11113039Y-13499508D02*
X11132086Y-13489984D01*
X11322562Y-13489984D02*
X11341610Y-13489984D01*
X11341610Y-13489984D02*
X11360658Y-13499508D01*
X11360658Y-13499508D02*
X11370182Y-13509031D01*
X11370182Y-13509031D02*
X11379705Y-13528079D01*
X11379705Y-13528079D02*
X11389229Y-13566174D01*
X11389229Y-13566174D02*
X11389229Y-13613793D01*
X11389229Y-13613793D02*
X11379705Y-13651888D01*
X11379705Y-13651888D02*
X11370182Y-13670936D01*
X11370182Y-13670936D02*
X11360658Y-13680460D01*
X11360658Y-13680460D02*
X11341610Y-13689984D01*
X11341610Y-13689984D02*
X11322562Y-13689984D01*
X11322562Y-13689984D02*
X11303515Y-13680460D01*
X11303515Y-13680460D02*
X11293991Y-13670936D01*
X11293991Y-13670936D02*
X11284467Y-13651888D01*
X11284467Y-13651888D02*
X11274943Y-13613793D01*
X11274943Y-13613793D02*
X11274943Y-13566174D01*
X11274943Y-13566174D02*
X11284467Y-13528079D01*
X11284467Y-13528079D02*
X11293991Y-13509031D01*
X11293991Y-13509031D02*
X11303515Y-13499508D01*
X11303515Y-13499508D02*
X11322562Y-13489984D01*
X11513039Y-13489984D02*
X11532086Y-13489984D01*
X11532086Y-13489984D02*
X11551134Y-13499508D01*
X11551134Y-13499508D02*
X11560658Y-13509031D01*
X11560658Y-13509031D02*
X11570182Y-13528079D01*
X11570182Y-13528079D02*
X11579705Y-13566174D01*
X11579705Y-13566174D02*
X11579705Y-13613793D01*
X11579705Y-13613793D02*
X11570182Y-13651888D01*
X11570182Y-13651888D02*
X11560658Y-13670936D01*
X11560658Y-13670936D02*
X11551134Y-13680460D01*
X11551134Y-13680460D02*
X11532086Y-13689984D01*
X11532086Y-13689984D02*
X11513039Y-13689984D01*
X11513039Y-13689984D02*
X11493991Y-13680460D01*
X11493991Y-13680460D02*
X11484467Y-13670936D01*
X11484467Y-13670936D02*
X11474943Y-13651888D01*
X11474943Y-13651888D02*
X11465420Y-13613793D01*
X11465420Y-13613793D02*
X11465420Y-13566174D01*
X11465420Y-13566174D02*
X11474943Y-13528079D01*
X11474943Y-13528079D02*
X11484467Y-13509031D01*
X11484467Y-13509031D02*
X11493991Y-13499508D01*
X11493991Y-13499508D02*
X11513039Y-13489984D01*
X11665420Y-13689984D02*
X11665420Y-13556650D01*
X11665420Y-13575698D02*
X11674943Y-13566174D01*
X11674943Y-13566174D02*
X11693991Y-13556650D01*
X11693991Y-13556650D02*
X11722563Y-13556650D01*
X11722563Y-13556650D02*
X11741610Y-13566174D01*
X11741610Y-13566174D02*
X11751134Y-13585222D01*
X11751134Y-13585222D02*
X11751134Y-13689984D01*
X11751134Y-13585222D02*
X11760658Y-13566174D01*
X11760658Y-13566174D02*
X11779705Y-13556650D01*
X11779705Y-13556650D02*
X11808277Y-13556650D01*
X11808277Y-13556650D02*
X11827324Y-13566174D01*
X11827324Y-13566174D02*
X11836848Y-13585222D01*
X11836848Y-13585222D02*
X11836848Y-13689984D01*
X11932086Y-13689984D02*
X11932086Y-13556650D01*
X11932086Y-13575698D02*
X11941610Y-13566174D01*
X11941610Y-13566174D02*
X11960658Y-13556650D01*
X11960658Y-13556650D02*
X11989229Y-13556650D01*
X11989229Y-13556650D02*
X12008277Y-13566174D01*
X12008277Y-13566174D02*
X12017801Y-13585222D01*
X12017801Y-13585222D02*
X12017801Y-13689984D01*
X12017801Y-13585222D02*
X12027324Y-13566174D01*
X12027324Y-13566174D02*
X12046372Y-13556650D01*
X12046372Y-13556650D02*
X12074943Y-13556650D01*
X12074943Y-13556650D02*
X12093991Y-13566174D01*
X12093991Y-13566174D02*
X12103515Y-13585222D01*
X12103515Y-13585222D02*
X12103515Y-13689984D01*
X12493991Y-13480460D02*
X12322563Y-13737603D01*
X12751134Y-13489984D02*
X12770182Y-13489984D01*
X12770182Y-13489984D02*
X12789229Y-13499508D01*
X12789229Y-13499508D02*
X12798753Y-13509031D01*
X12798753Y-13509031D02*
X12808277Y-13528079D01*
X12808277Y-13528079D02*
X12817801Y-13566174D01*
X12817801Y-13566174D02*
X12817801Y-13613793D01*
X12817801Y-13613793D02*
X12808277Y-13651888D01*
X12808277Y-13651888D02*
X12798753Y-13670936D01*
X12798753Y-13670936D02*
X12789229Y-13680460D01*
X12789229Y-13680460D02*
X12770182Y-13689984D01*
X12770182Y-13689984D02*
X12751134Y-13689984D01*
X12751134Y-13689984D02*
X12732086Y-13680460D01*
X12732086Y-13680460D02*
X12722563Y-13670936D01*
X12722563Y-13670936D02*
X12713039Y-13651888D01*
X12713039Y-13651888D02*
X12703515Y-13613793D01*
X12703515Y-13613793D02*
X12703515Y-13566174D01*
X12703515Y-13566174D02*
X12713039Y-13528079D01*
X12713039Y-13528079D02*
X12722563Y-13509031D01*
X12722563Y-13509031D02*
X12732086Y-13499508D01*
X12732086Y-13499508D02*
X12751134Y-13489984D01*
X12903515Y-13670936D02*
X12913039Y-13680460D01*
X12913039Y-13680460D02*
X12903515Y-13689984D01*
X12903515Y-13689984D02*
X12893991Y-13680460D01*
X12893991Y-13680460D02*
X12903515Y-13670936D01*
X12903515Y-13670936D02*
X12903515Y-13689984D01*
X13036848Y-13489984D02*
X13055896Y-13489984D01*
X13055896Y-13489984D02*
X13074944Y-13499508D01*
X13074944Y-13499508D02*
X13084467Y-13509031D01*
X13084467Y-13509031D02*
X13093991Y-13528079D01*
X13093991Y-13528079D02*
X13103515Y-13566174D01*
X13103515Y-13566174D02*
X13103515Y-13613793D01*
X13103515Y-13613793D02*
X13093991Y-13651888D01*
X13093991Y-13651888D02*
X13084467Y-13670936D01*
X13084467Y-13670936D02*
X13074944Y-13680460D01*
X13074944Y-13680460D02*
X13055896Y-13689984D01*
X13055896Y-13689984D02*
X13036848Y-13689984D01*
X13036848Y-13689984D02*
X13017801Y-13680460D01*
X13017801Y-13680460D02*
X13008277Y-13670936D01*
X13008277Y-13670936D02*
X12998753Y-13651888D01*
X12998753Y-13651888D02*
X12989229Y-13613793D01*
X12989229Y-13613793D02*
X12989229Y-13566174D01*
X12989229Y-13566174D02*
X12998753Y-13528079D01*
X12998753Y-13528079D02*
X13008277Y-13509031D01*
X13008277Y-13509031D02*
X13017801Y-13499508D01*
X13017801Y-13499508D02*
X13036848Y-13489984D01*
X13170182Y-13489984D02*
X13293991Y-13489984D01*
X13293991Y-13489984D02*
X13227325Y-13566174D01*
X13227325Y-13566174D02*
X13255896Y-13566174D01*
X13255896Y-13566174D02*
X13274944Y-13575698D01*
X13274944Y-13575698D02*
X13284467Y-13585222D01*
X13284467Y-13585222D02*
X13293991Y-13604269D01*
X13293991Y-13604269D02*
X13293991Y-13651888D01*
X13293991Y-13651888D02*
X13284467Y-13670936D01*
X13284467Y-13670936D02*
X13274944Y-13680460D01*
X13274944Y-13680460D02*
X13255896Y-13689984D01*
X13255896Y-13689984D02*
X13198753Y-13689984D01*
X13198753Y-13689984D02*
X13179706Y-13680460D01*
X13179706Y-13680460D02*
X13170182Y-13670936D01*
X13389229Y-13689984D02*
X13427325Y-13689984D01*
X13427325Y-13689984D02*
X13446372Y-13680460D01*
X13446372Y-13680460D02*
X13455896Y-13670936D01*
X13455896Y-13670936D02*
X13474944Y-13642365D01*
X13474944Y-13642365D02*
X13484467Y-13604269D01*
X13484467Y-13604269D02*
X13484467Y-13528079D01*
X13484467Y-13528079D02*
X13474944Y-13509031D01*
X13474944Y-13509031D02*
X13465420Y-13499508D01*
X13465420Y-13499508D02*
X13446372Y-13489984D01*
X13446372Y-13489984D02*
X13408277Y-13489984D01*
X13408277Y-13489984D02*
X13389229Y-13499508D01*
X13389229Y-13499508D02*
X13379706Y-13509031D01*
X13379706Y-13509031D02*
X13370182Y-13528079D01*
X13370182Y-13528079D02*
X13370182Y-13575698D01*
X13370182Y-13575698D02*
X13379706Y-13594746D01*
X13379706Y-13594746D02*
X13389229Y-13604269D01*
X13389229Y-13604269D02*
X13408277Y-13613793D01*
X13408277Y-13613793D02*
X13446372Y-13613793D01*
X13446372Y-13613793D02*
X13465420Y-13604269D01*
X13465420Y-13604269D02*
X13474944Y-13594746D01*
X13474944Y-13594746D02*
X13484467Y-13575698D01*
X13655896Y-13556650D02*
X13655896Y-13689984D01*
X13608277Y-13480460D02*
X13560658Y-13623317D01*
X13560658Y-13623317D02*
X13684467Y-13623317D01*
X13751134Y-13489984D02*
X13751134Y-13528079D01*
X13827325Y-13489984D02*
X13827325Y-13528079D01*
X14122563Y-13766174D02*
X14113039Y-13756650D01*
X14113039Y-13756650D02*
X14093991Y-13728079D01*
X14093991Y-13728079D02*
X14084468Y-13709031D01*
X14084468Y-13709031D02*
X14074944Y-13680460D01*
X14074944Y-13680460D02*
X14065420Y-13632841D01*
X14065420Y-13632841D02*
X14065420Y-13594746D01*
X14065420Y-13594746D02*
X14074944Y-13547127D01*
X14074944Y-13547127D02*
X14084468Y-13518555D01*
X14084468Y-13518555D02*
X14093991Y-13499508D01*
X14093991Y-13499508D02*
X14113039Y-13470936D01*
X14113039Y-13470936D02*
X14122563Y-13461412D01*
X14179706Y-13489984D02*
X14303515Y-13489984D01*
X14303515Y-13489984D02*
X14236848Y-13566174D01*
X14236848Y-13566174D02*
X14265420Y-13566174D01*
X14265420Y-13566174D02*
X14284468Y-13575698D01*
X14284468Y-13575698D02*
X14293991Y-13585222D01*
X14293991Y-13585222D02*
X14303515Y-13604269D01*
X14303515Y-13604269D02*
X14303515Y-13651888D01*
X14303515Y-13651888D02*
X14293991Y-13670936D01*
X14293991Y-13670936D02*
X14284468Y-13680460D01*
X14284468Y-13680460D02*
X14265420Y-13689984D01*
X14265420Y-13689984D02*
X14208277Y-13689984D01*
X14208277Y-13689984D02*
X14189229Y-13680460D01*
X14189229Y-13680460D02*
X14179706Y-13670936D01*
X14398753Y-13689984D02*
X14436848Y-13689984D01*
X14436848Y-13689984D02*
X14455896Y-13680460D01*
X14455896Y-13680460D02*
X14465420Y-13670936D01*
X14465420Y-13670936D02*
X14484468Y-13642365D01*
X14484468Y-13642365D02*
X14493991Y-13604269D01*
X14493991Y-13604269D02*
X14493991Y-13528079D01*
X14493991Y-13528079D02*
X14484468Y-13509031D01*
X14484468Y-13509031D02*
X14474944Y-13499508D01*
X14474944Y-13499508D02*
X14455896Y-13489984D01*
X14455896Y-13489984D02*
X14417801Y-13489984D01*
X14417801Y-13489984D02*
X14398753Y-13499508D01*
X14398753Y-13499508D02*
X14389229Y-13509031D01*
X14389229Y-13509031D02*
X14379706Y-13528079D01*
X14379706Y-13528079D02*
X14379706Y-13575698D01*
X14379706Y-13575698D02*
X14389229Y-13594746D01*
X14389229Y-13594746D02*
X14398753Y-13604269D01*
X14398753Y-13604269D02*
X14417801Y-13613793D01*
X14417801Y-13613793D02*
X14455896Y-13613793D01*
X14455896Y-13613793D02*
X14474944Y-13604269D01*
X14474944Y-13604269D02*
X14484468Y-13594746D01*
X14484468Y-13594746D02*
X14493991Y-13575698D01*
X14732087Y-13689984D02*
X14732087Y-13489984D01*
X14817801Y-13689984D02*
X14817801Y-13585222D01*
X14817801Y-13585222D02*
X14808277Y-13566174D01*
X14808277Y-13566174D02*
X14789230Y-13556650D01*
X14789230Y-13556650D02*
X14760658Y-13556650D01*
X14760658Y-13556650D02*
X14741610Y-13566174D01*
X14741610Y-13566174D02*
X14732087Y-13575698D01*
X14941610Y-13689984D02*
X14922563Y-13680460D01*
X14922563Y-13680460D02*
X14913039Y-13670936D01*
X14913039Y-13670936D02*
X14903515Y-13651888D01*
X14903515Y-13651888D02*
X14903515Y-13594746D01*
X14903515Y-13594746D02*
X14913039Y-13575698D01*
X14913039Y-13575698D02*
X14922563Y-13566174D01*
X14922563Y-13566174D02*
X14941610Y-13556650D01*
X14941610Y-13556650D02*
X14970182Y-13556650D01*
X14970182Y-13556650D02*
X14989230Y-13566174D01*
X14989230Y-13566174D02*
X14998753Y-13575698D01*
X14998753Y-13575698D02*
X15008277Y-13594746D01*
X15008277Y-13594746D02*
X15008277Y-13651888D01*
X15008277Y-13651888D02*
X14998753Y-13670936D01*
X14998753Y-13670936D02*
X14989230Y-13680460D01*
X14989230Y-13680460D02*
X14970182Y-13689984D01*
X14970182Y-13689984D02*
X14941610Y-13689984D01*
X15122563Y-13689984D02*
X15103515Y-13680460D01*
X15103515Y-13680460D02*
X15093991Y-13661412D01*
X15093991Y-13661412D02*
X15093991Y-13489984D01*
X15274944Y-13680460D02*
X15255896Y-13689984D01*
X15255896Y-13689984D02*
X15217801Y-13689984D01*
X15217801Y-13689984D02*
X15198753Y-13680460D01*
X15198753Y-13680460D02*
X15189230Y-13661412D01*
X15189230Y-13661412D02*
X15189230Y-13585222D01*
X15189230Y-13585222D02*
X15198753Y-13566174D01*
X15198753Y-13566174D02*
X15217801Y-13556650D01*
X15217801Y-13556650D02*
X15255896Y-13556650D01*
X15255896Y-13556650D02*
X15274944Y-13566174D01*
X15274944Y-13566174D02*
X15284468Y-13585222D01*
X15284468Y-13585222D02*
X15284468Y-13604269D01*
X15284468Y-13604269D02*
X15189230Y-13623317D01*
X15360658Y-13680460D02*
X15379706Y-13689984D01*
X15379706Y-13689984D02*
X15417801Y-13689984D01*
X15417801Y-13689984D02*
X15436849Y-13680460D01*
X15436849Y-13680460D02*
X15446372Y-13661412D01*
X15446372Y-13661412D02*
X15446372Y-13651888D01*
X15446372Y-13651888D02*
X15436849Y-13632841D01*
X15436849Y-13632841D02*
X15417801Y-13623317D01*
X15417801Y-13623317D02*
X15389230Y-13623317D01*
X15389230Y-13623317D02*
X15370182Y-13613793D01*
X15370182Y-13613793D02*
X15360658Y-13594746D01*
X15360658Y-13594746D02*
X15360658Y-13585222D01*
X15360658Y-13585222D02*
X15370182Y-13566174D01*
X15370182Y-13566174D02*
X15389230Y-13556650D01*
X15389230Y-13556650D02*
X15417801Y-13556650D01*
X15417801Y-13556650D02*
X15436849Y-13566174D01*
X15513039Y-13766174D02*
X15522563Y-13756650D01*
X15522563Y-13756650D02*
X15541611Y-13728079D01*
X15541611Y-13728079D02*
X15551134Y-13709031D01*
X15551134Y-13709031D02*
X15560658Y-13680460D01*
X15560658Y-13680460D02*
X15570182Y-13632841D01*
X15570182Y-13632841D02*
X15570182Y-13594746D01*
X15570182Y-13594746D02*
X15560658Y-13547127D01*
X15560658Y-13547127D02*
X15551134Y-13518555D01*
X15551134Y-13518555D02*
X15541611Y-13499508D01*
X15541611Y-13499508D02*
X15522563Y-13470936D01*
X15522563Y-13470936D02*
X15513039Y-13461412D01*
D13*
X10442500Y-13810000D02*
X10547500Y-13915000D01*
X10547500Y-13810000D02*
X10442500Y-13915000D01*
X10547500Y-13862500D02*
G75*
G02*
X10442500Y-13862500I-52500J0D01*
G01*
X10442500Y-13862500D02*
G75*
G02*
X10547500Y-13862500I52500J0D01*
G01*
D11*
X10913039Y-13953984D02*
X10798753Y-13953984D01*
X10855896Y-13953984D02*
X10855896Y-13753984D01*
X10855896Y-13753984D02*
X10836848Y-13782555D01*
X10836848Y-13782555D02*
X10817801Y-13801603D01*
X10817801Y-13801603D02*
X10798753Y-13811127D01*
X10998753Y-13934936D02*
X11008277Y-13944460D01*
X11008277Y-13944460D02*
X10998753Y-13953984D01*
X10998753Y-13953984D02*
X10989229Y-13944460D01*
X10989229Y-13944460D02*
X10998753Y-13934936D01*
X10998753Y-13934936D02*
X10998753Y-13953984D01*
X11132086Y-13753984D02*
X11151134Y-13753984D01*
X11151134Y-13753984D02*
X11170182Y-13763508D01*
X11170182Y-13763508D02*
X11179705Y-13773031D01*
X11179705Y-13773031D02*
X11189229Y-13792079D01*
X11189229Y-13792079D02*
X11198753Y-13830174D01*
X11198753Y-13830174D02*
X11198753Y-13877793D01*
X11198753Y-13877793D02*
X11189229Y-13915888D01*
X11189229Y-13915888D02*
X11179705Y-13934936D01*
X11179705Y-13934936D02*
X11170182Y-13944460D01*
X11170182Y-13944460D02*
X11151134Y-13953984D01*
X11151134Y-13953984D02*
X11132086Y-13953984D01*
X11132086Y-13953984D02*
X11113039Y-13944460D01*
X11113039Y-13944460D02*
X11103515Y-13934936D01*
X11103515Y-13934936D02*
X11093991Y-13915888D01*
X11093991Y-13915888D02*
X11084467Y-13877793D01*
X11084467Y-13877793D02*
X11084467Y-13830174D01*
X11084467Y-13830174D02*
X11093991Y-13792079D01*
X11093991Y-13792079D02*
X11103515Y-13773031D01*
X11103515Y-13773031D02*
X11113039Y-13763508D01*
X11113039Y-13763508D02*
X11132086Y-13753984D01*
X11379705Y-13753984D02*
X11284467Y-13753984D01*
X11284467Y-13753984D02*
X11274943Y-13849222D01*
X11274943Y-13849222D02*
X11284467Y-13839698D01*
X11284467Y-13839698D02*
X11303515Y-13830174D01*
X11303515Y-13830174D02*
X11351134Y-13830174D01*
X11351134Y-13830174D02*
X11370182Y-13839698D01*
X11370182Y-13839698D02*
X11379705Y-13849222D01*
X11379705Y-13849222D02*
X11389229Y-13868269D01*
X11389229Y-13868269D02*
X11389229Y-13915888D01*
X11389229Y-13915888D02*
X11379705Y-13934936D01*
X11379705Y-13934936D02*
X11370182Y-13944460D01*
X11370182Y-13944460D02*
X11351134Y-13953984D01*
X11351134Y-13953984D02*
X11303515Y-13953984D01*
X11303515Y-13953984D02*
X11284467Y-13944460D01*
X11284467Y-13944460D02*
X11274943Y-13934936D01*
X11513039Y-13753984D02*
X11532086Y-13753984D01*
X11532086Y-13753984D02*
X11551134Y-13763508D01*
X11551134Y-13763508D02*
X11560658Y-13773031D01*
X11560658Y-13773031D02*
X11570182Y-13792079D01*
X11570182Y-13792079D02*
X11579705Y-13830174D01*
X11579705Y-13830174D02*
X11579705Y-13877793D01*
X11579705Y-13877793D02*
X11570182Y-13915888D01*
X11570182Y-13915888D02*
X11560658Y-13934936D01*
X11560658Y-13934936D02*
X11551134Y-13944460D01*
X11551134Y-13944460D02*
X11532086Y-13953984D01*
X11532086Y-13953984D02*
X11513039Y-13953984D01*
X11513039Y-13953984D02*
X11493991Y-13944460D01*
X11493991Y-13944460D02*
X11484467Y-13934936D01*
X11484467Y-13934936D02*
X11474943Y-13915888D01*
X11474943Y-13915888D02*
X11465420Y-13877793D01*
X11465420Y-13877793D02*
X11465420Y-13830174D01*
X11465420Y-13830174D02*
X11474943Y-13792079D01*
X11474943Y-13792079D02*
X11484467Y-13773031D01*
X11484467Y-13773031D02*
X11493991Y-13763508D01*
X11493991Y-13763508D02*
X11513039Y-13753984D01*
X11665420Y-13953984D02*
X11665420Y-13820650D01*
X11665420Y-13839698D02*
X11674943Y-13830174D01*
X11674943Y-13830174D02*
X11693991Y-13820650D01*
X11693991Y-13820650D02*
X11722563Y-13820650D01*
X11722563Y-13820650D02*
X11741610Y-13830174D01*
X11741610Y-13830174D02*
X11751134Y-13849222D01*
X11751134Y-13849222D02*
X11751134Y-13953984D01*
X11751134Y-13849222D02*
X11760658Y-13830174D01*
X11760658Y-13830174D02*
X11779705Y-13820650D01*
X11779705Y-13820650D02*
X11808277Y-13820650D01*
X11808277Y-13820650D02*
X11827324Y-13830174D01*
X11827324Y-13830174D02*
X11836848Y-13849222D01*
X11836848Y-13849222D02*
X11836848Y-13953984D01*
X11932086Y-13953984D02*
X11932086Y-13820650D01*
X11932086Y-13839698D02*
X11941610Y-13830174D01*
X11941610Y-13830174D02*
X11960658Y-13820650D01*
X11960658Y-13820650D02*
X11989229Y-13820650D01*
X11989229Y-13820650D02*
X12008277Y-13830174D01*
X12008277Y-13830174D02*
X12017801Y-13849222D01*
X12017801Y-13849222D02*
X12017801Y-13953984D01*
X12017801Y-13849222D02*
X12027324Y-13830174D01*
X12027324Y-13830174D02*
X12046372Y-13820650D01*
X12046372Y-13820650D02*
X12074943Y-13820650D01*
X12074943Y-13820650D02*
X12093991Y-13830174D01*
X12093991Y-13830174D02*
X12103515Y-13849222D01*
X12103515Y-13849222D02*
X12103515Y-13953984D01*
X12493991Y-13744460D02*
X12322563Y-14001603D01*
X12751134Y-13753984D02*
X12770182Y-13753984D01*
X12770182Y-13753984D02*
X12789229Y-13763508D01*
X12789229Y-13763508D02*
X12798753Y-13773031D01*
X12798753Y-13773031D02*
X12808277Y-13792079D01*
X12808277Y-13792079D02*
X12817801Y-13830174D01*
X12817801Y-13830174D02*
X12817801Y-13877793D01*
X12817801Y-13877793D02*
X12808277Y-13915888D01*
X12808277Y-13915888D02*
X12798753Y-13934936D01*
X12798753Y-13934936D02*
X12789229Y-13944460D01*
X12789229Y-13944460D02*
X12770182Y-13953984D01*
X12770182Y-13953984D02*
X12751134Y-13953984D01*
X12751134Y-13953984D02*
X12732086Y-13944460D01*
X12732086Y-13944460D02*
X12722563Y-13934936D01*
X12722563Y-13934936D02*
X12713039Y-13915888D01*
X12713039Y-13915888D02*
X12703515Y-13877793D01*
X12703515Y-13877793D02*
X12703515Y-13830174D01*
X12703515Y-13830174D02*
X12713039Y-13792079D01*
X12713039Y-13792079D02*
X12722563Y-13773031D01*
X12722563Y-13773031D02*
X12732086Y-13763508D01*
X12732086Y-13763508D02*
X12751134Y-13753984D01*
X12903515Y-13934936D02*
X12913039Y-13944460D01*
X12913039Y-13944460D02*
X12903515Y-13953984D01*
X12903515Y-13953984D02*
X12893991Y-13944460D01*
X12893991Y-13944460D02*
X12903515Y-13934936D01*
X12903515Y-13934936D02*
X12903515Y-13953984D01*
X13036848Y-13753984D02*
X13055896Y-13753984D01*
X13055896Y-13753984D02*
X13074944Y-13763508D01*
X13074944Y-13763508D02*
X13084467Y-13773031D01*
X13084467Y-13773031D02*
X13093991Y-13792079D01*
X13093991Y-13792079D02*
X13103515Y-13830174D01*
X13103515Y-13830174D02*
X13103515Y-13877793D01*
X13103515Y-13877793D02*
X13093991Y-13915888D01*
X13093991Y-13915888D02*
X13084467Y-13934936D01*
X13084467Y-13934936D02*
X13074944Y-13944460D01*
X13074944Y-13944460D02*
X13055896Y-13953984D01*
X13055896Y-13953984D02*
X13036848Y-13953984D01*
X13036848Y-13953984D02*
X13017801Y-13944460D01*
X13017801Y-13944460D02*
X13008277Y-13934936D01*
X13008277Y-13934936D02*
X12998753Y-13915888D01*
X12998753Y-13915888D02*
X12989229Y-13877793D01*
X12989229Y-13877793D02*
X12989229Y-13830174D01*
X12989229Y-13830174D02*
X12998753Y-13792079D01*
X12998753Y-13792079D02*
X13008277Y-13773031D01*
X13008277Y-13773031D02*
X13017801Y-13763508D01*
X13017801Y-13763508D02*
X13036848Y-13753984D01*
X13274944Y-13820650D02*
X13274944Y-13953984D01*
X13227325Y-13744460D02*
X13179706Y-13887317D01*
X13179706Y-13887317D02*
X13303515Y-13887317D01*
X13484467Y-13953984D02*
X13370182Y-13953984D01*
X13427325Y-13953984D02*
X13427325Y-13753984D01*
X13427325Y-13753984D02*
X13408277Y-13782555D01*
X13408277Y-13782555D02*
X13389229Y-13801603D01*
X13389229Y-13801603D02*
X13370182Y-13811127D01*
X13551134Y-13753984D02*
X13674944Y-13753984D01*
X13674944Y-13753984D02*
X13608277Y-13830174D01*
X13608277Y-13830174D02*
X13636848Y-13830174D01*
X13636848Y-13830174D02*
X13655896Y-13839698D01*
X13655896Y-13839698D02*
X13665420Y-13849222D01*
X13665420Y-13849222D02*
X13674944Y-13868269D01*
X13674944Y-13868269D02*
X13674944Y-13915888D01*
X13674944Y-13915888D02*
X13665420Y-13934936D01*
X13665420Y-13934936D02*
X13655896Y-13944460D01*
X13655896Y-13944460D02*
X13636848Y-13953984D01*
X13636848Y-13953984D02*
X13579706Y-13953984D01*
X13579706Y-13953984D02*
X13560658Y-13944460D01*
X13560658Y-13944460D02*
X13551134Y-13934936D01*
X13751134Y-13753984D02*
X13751134Y-13792079D01*
X13827325Y-13753984D02*
X13827325Y-13792079D01*
X14122563Y-14030174D02*
X14113039Y-14020650D01*
X14113039Y-14020650D02*
X14093991Y-13992079D01*
X14093991Y-13992079D02*
X14084468Y-13973031D01*
X14084468Y-13973031D02*
X14074944Y-13944460D01*
X14074944Y-13944460D02*
X14065420Y-13896841D01*
X14065420Y-13896841D02*
X14065420Y-13858746D01*
X14065420Y-13858746D02*
X14074944Y-13811127D01*
X14074944Y-13811127D02*
X14084468Y-13782555D01*
X14084468Y-13782555D02*
X14093991Y-13763508D01*
X14093991Y-13763508D02*
X14113039Y-13734936D01*
X14113039Y-13734936D02*
X14122563Y-13725412D01*
X14284468Y-13820650D02*
X14284468Y-13953984D01*
X14236848Y-13744460D02*
X14189229Y-13887317D01*
X14189229Y-13887317D02*
X14313039Y-13887317D01*
X14541610Y-13953984D02*
X14541610Y-13753984D01*
X14627325Y-13953984D02*
X14627325Y-13849222D01*
X14627325Y-13849222D02*
X14617801Y-13830174D01*
X14617801Y-13830174D02*
X14598753Y-13820650D01*
X14598753Y-13820650D02*
X14570182Y-13820650D01*
X14570182Y-13820650D02*
X14551134Y-13830174D01*
X14551134Y-13830174D02*
X14541610Y-13839698D01*
X14751134Y-13953984D02*
X14732087Y-13944460D01*
X14732087Y-13944460D02*
X14722563Y-13934936D01*
X14722563Y-13934936D02*
X14713039Y-13915888D01*
X14713039Y-13915888D02*
X14713039Y-13858746D01*
X14713039Y-13858746D02*
X14722563Y-13839698D01*
X14722563Y-13839698D02*
X14732087Y-13830174D01*
X14732087Y-13830174D02*
X14751134Y-13820650D01*
X14751134Y-13820650D02*
X14779706Y-13820650D01*
X14779706Y-13820650D02*
X14798753Y-13830174D01*
X14798753Y-13830174D02*
X14808277Y-13839698D01*
X14808277Y-13839698D02*
X14817801Y-13858746D01*
X14817801Y-13858746D02*
X14817801Y-13915888D01*
X14817801Y-13915888D02*
X14808277Y-13934936D01*
X14808277Y-13934936D02*
X14798753Y-13944460D01*
X14798753Y-13944460D02*
X14779706Y-13953984D01*
X14779706Y-13953984D02*
X14751134Y-13953984D01*
X14932087Y-13953984D02*
X14913039Y-13944460D01*
X14913039Y-13944460D02*
X14903515Y-13925412D01*
X14903515Y-13925412D02*
X14903515Y-13753984D01*
X15084468Y-13944460D02*
X15065420Y-13953984D01*
X15065420Y-13953984D02*
X15027325Y-13953984D01*
X15027325Y-13953984D02*
X15008277Y-13944460D01*
X15008277Y-13944460D02*
X14998753Y-13925412D01*
X14998753Y-13925412D02*
X14998753Y-13849222D01*
X14998753Y-13849222D02*
X15008277Y-13830174D01*
X15008277Y-13830174D02*
X15027325Y-13820650D01*
X15027325Y-13820650D02*
X15065420Y-13820650D01*
X15065420Y-13820650D02*
X15084468Y-13830174D01*
X15084468Y-13830174D02*
X15093991Y-13849222D01*
X15093991Y-13849222D02*
X15093991Y-13868269D01*
X15093991Y-13868269D02*
X14998753Y-13887317D01*
X15170182Y-13944460D02*
X15189230Y-13953984D01*
X15189230Y-13953984D02*
X15227325Y-13953984D01*
X15227325Y-13953984D02*
X15246372Y-13944460D01*
X15246372Y-13944460D02*
X15255896Y-13925412D01*
X15255896Y-13925412D02*
X15255896Y-13915888D01*
X15255896Y-13915888D02*
X15246372Y-13896841D01*
X15246372Y-13896841D02*
X15227325Y-13887317D01*
X15227325Y-13887317D02*
X15198753Y-13887317D01*
X15198753Y-13887317D02*
X15179706Y-13877793D01*
X15179706Y-13877793D02*
X15170182Y-13858746D01*
X15170182Y-13858746D02*
X15170182Y-13849222D01*
X15170182Y-13849222D02*
X15179706Y-13830174D01*
X15179706Y-13830174D02*
X15198753Y-13820650D01*
X15198753Y-13820650D02*
X15227325Y-13820650D01*
X15227325Y-13820650D02*
X15246372Y-13830174D01*
X15322563Y-14030174D02*
X15332087Y-14020650D01*
X15332087Y-14020650D02*
X15351134Y-13992079D01*
X15351134Y-13992079D02*
X15360658Y-13973031D01*
X15360658Y-13973031D02*
X15370182Y-13944460D01*
X15370182Y-13944460D02*
X15379706Y-13896841D01*
X15379706Y-13896841D02*
X15379706Y-13858746D01*
X15379706Y-13858746D02*
X15370182Y-13811127D01*
X15370182Y-13811127D02*
X15360658Y-13782555D01*
X15360658Y-13782555D02*
X15351134Y-13763508D01*
X15351134Y-13763508D02*
X15332087Y-13734936D01*
X15332087Y-13734936D02*
X15322563Y-13725412D01*
D14*
X10397500Y-14051500D02*
X10547500Y-14201500D01*
X10547500Y-14051500D02*
X10397500Y-14201500D01*
X10472500Y-14051500D02*
X10472500Y-14201500D01*
X10397500Y-14126500D02*
X10547500Y-14126500D01*
D11*
X10913039Y-14217984D02*
X10798753Y-14217984D01*
X10855896Y-14217984D02*
X10855896Y-14017984D01*
X10855896Y-14017984D02*
X10836848Y-14046555D01*
X10836848Y-14046555D02*
X10817801Y-14065603D01*
X10817801Y-14065603D02*
X10798753Y-14075127D01*
X10998753Y-14198936D02*
X11008277Y-14208460D01*
X11008277Y-14208460D02*
X10998753Y-14217984D01*
X10998753Y-14217984D02*
X10989229Y-14208460D01*
X10989229Y-14208460D02*
X10998753Y-14198936D01*
X10998753Y-14198936D02*
X10998753Y-14217984D01*
X11189229Y-14017984D02*
X11093991Y-14017984D01*
X11093991Y-14017984D02*
X11084467Y-14113222D01*
X11084467Y-14113222D02*
X11093991Y-14103698D01*
X11093991Y-14103698D02*
X11113039Y-14094174D01*
X11113039Y-14094174D02*
X11160658Y-14094174D01*
X11160658Y-14094174D02*
X11179705Y-14103698D01*
X11179705Y-14103698D02*
X11189229Y-14113222D01*
X11189229Y-14113222D02*
X11198753Y-14132269D01*
X11198753Y-14132269D02*
X11198753Y-14179888D01*
X11198753Y-14179888D02*
X11189229Y-14198936D01*
X11189229Y-14198936D02*
X11179705Y-14208460D01*
X11179705Y-14208460D02*
X11160658Y-14217984D01*
X11160658Y-14217984D02*
X11113039Y-14217984D01*
X11113039Y-14217984D02*
X11093991Y-14208460D01*
X11093991Y-14208460D02*
X11084467Y-14198936D01*
X11322562Y-14017984D02*
X11341610Y-14017984D01*
X11341610Y-14017984D02*
X11360658Y-14027508D01*
X11360658Y-14027508D02*
X11370182Y-14037031D01*
X11370182Y-14037031D02*
X11379705Y-14056079D01*
X11379705Y-14056079D02*
X11389229Y-14094174D01*
X11389229Y-14094174D02*
X11389229Y-14141793D01*
X11389229Y-14141793D02*
X11379705Y-14179888D01*
X11379705Y-14179888D02*
X11370182Y-14198936D01*
X11370182Y-14198936D02*
X11360658Y-14208460D01*
X11360658Y-14208460D02*
X11341610Y-14217984D01*
X11341610Y-14217984D02*
X11322562Y-14217984D01*
X11322562Y-14217984D02*
X11303515Y-14208460D01*
X11303515Y-14208460D02*
X11293991Y-14198936D01*
X11293991Y-14198936D02*
X11284467Y-14179888D01*
X11284467Y-14179888D02*
X11274943Y-14141793D01*
X11274943Y-14141793D02*
X11274943Y-14094174D01*
X11274943Y-14094174D02*
X11284467Y-14056079D01*
X11284467Y-14056079D02*
X11293991Y-14037031D01*
X11293991Y-14037031D02*
X11303515Y-14027508D01*
X11303515Y-14027508D02*
X11322562Y-14017984D01*
X11513039Y-14017984D02*
X11532086Y-14017984D01*
X11532086Y-14017984D02*
X11551134Y-14027508D01*
X11551134Y-14027508D02*
X11560658Y-14037031D01*
X11560658Y-14037031D02*
X11570182Y-14056079D01*
X11570182Y-14056079D02*
X11579705Y-14094174D01*
X11579705Y-14094174D02*
X11579705Y-14141793D01*
X11579705Y-14141793D02*
X11570182Y-14179888D01*
X11570182Y-14179888D02*
X11560658Y-14198936D01*
X11560658Y-14198936D02*
X11551134Y-14208460D01*
X11551134Y-14208460D02*
X11532086Y-14217984D01*
X11532086Y-14217984D02*
X11513039Y-14217984D01*
X11513039Y-14217984D02*
X11493991Y-14208460D01*
X11493991Y-14208460D02*
X11484467Y-14198936D01*
X11484467Y-14198936D02*
X11474943Y-14179888D01*
X11474943Y-14179888D02*
X11465420Y-14141793D01*
X11465420Y-14141793D02*
X11465420Y-14094174D01*
X11465420Y-14094174D02*
X11474943Y-14056079D01*
X11474943Y-14056079D02*
X11484467Y-14037031D01*
X11484467Y-14037031D02*
X11493991Y-14027508D01*
X11493991Y-14027508D02*
X11513039Y-14017984D01*
X11665420Y-14217984D02*
X11665420Y-14084650D01*
X11665420Y-14103698D02*
X11674943Y-14094174D01*
X11674943Y-14094174D02*
X11693991Y-14084650D01*
X11693991Y-14084650D02*
X11722563Y-14084650D01*
X11722563Y-14084650D02*
X11741610Y-14094174D01*
X11741610Y-14094174D02*
X11751134Y-14113222D01*
X11751134Y-14113222D02*
X11751134Y-14217984D01*
X11751134Y-14113222D02*
X11760658Y-14094174D01*
X11760658Y-14094174D02*
X11779705Y-14084650D01*
X11779705Y-14084650D02*
X11808277Y-14084650D01*
X11808277Y-14084650D02*
X11827324Y-14094174D01*
X11827324Y-14094174D02*
X11836848Y-14113222D01*
X11836848Y-14113222D02*
X11836848Y-14217984D01*
X11932086Y-14217984D02*
X11932086Y-14084650D01*
X11932086Y-14103698D02*
X11941610Y-14094174D01*
X11941610Y-14094174D02*
X11960658Y-14084650D01*
X11960658Y-14084650D02*
X11989229Y-14084650D01*
X11989229Y-14084650D02*
X12008277Y-14094174D01*
X12008277Y-14094174D02*
X12017801Y-14113222D01*
X12017801Y-14113222D02*
X12017801Y-14217984D01*
X12017801Y-14113222D02*
X12027324Y-14094174D01*
X12027324Y-14094174D02*
X12046372Y-14084650D01*
X12046372Y-14084650D02*
X12074943Y-14084650D01*
X12074943Y-14084650D02*
X12093991Y-14094174D01*
X12093991Y-14094174D02*
X12103515Y-14113222D01*
X12103515Y-14113222D02*
X12103515Y-14217984D01*
X12493991Y-14008460D02*
X12322563Y-14265603D01*
X12751134Y-14017984D02*
X12770182Y-14017984D01*
X12770182Y-14017984D02*
X12789229Y-14027508D01*
X12789229Y-14027508D02*
X12798753Y-14037031D01*
X12798753Y-14037031D02*
X12808277Y-14056079D01*
X12808277Y-14056079D02*
X12817801Y-14094174D01*
X12817801Y-14094174D02*
X12817801Y-14141793D01*
X12817801Y-14141793D02*
X12808277Y-14179888D01*
X12808277Y-14179888D02*
X12798753Y-14198936D01*
X12798753Y-14198936D02*
X12789229Y-14208460D01*
X12789229Y-14208460D02*
X12770182Y-14217984D01*
X12770182Y-14217984D02*
X12751134Y-14217984D01*
X12751134Y-14217984D02*
X12732086Y-14208460D01*
X12732086Y-14208460D02*
X12722563Y-14198936D01*
X12722563Y-14198936D02*
X12713039Y-14179888D01*
X12713039Y-14179888D02*
X12703515Y-14141793D01*
X12703515Y-14141793D02*
X12703515Y-14094174D01*
X12703515Y-14094174D02*
X12713039Y-14056079D01*
X12713039Y-14056079D02*
X12722563Y-14037031D01*
X12722563Y-14037031D02*
X12732086Y-14027508D01*
X12732086Y-14027508D02*
X12751134Y-14017984D01*
X12903515Y-14198936D02*
X12913039Y-14208460D01*
X12913039Y-14208460D02*
X12903515Y-14217984D01*
X12903515Y-14217984D02*
X12893991Y-14208460D01*
X12893991Y-14208460D02*
X12903515Y-14198936D01*
X12903515Y-14198936D02*
X12903515Y-14217984D01*
X13036848Y-14017984D02*
X13055896Y-14017984D01*
X13055896Y-14017984D02*
X13074944Y-14027508D01*
X13074944Y-14027508D02*
X13084467Y-14037031D01*
X13084467Y-14037031D02*
X13093991Y-14056079D01*
X13093991Y-14056079D02*
X13103515Y-14094174D01*
X13103515Y-14094174D02*
X13103515Y-14141793D01*
X13103515Y-14141793D02*
X13093991Y-14179888D01*
X13093991Y-14179888D02*
X13084467Y-14198936D01*
X13084467Y-14198936D02*
X13074944Y-14208460D01*
X13074944Y-14208460D02*
X13055896Y-14217984D01*
X13055896Y-14217984D02*
X13036848Y-14217984D01*
X13036848Y-14217984D02*
X13017801Y-14208460D01*
X13017801Y-14208460D02*
X13008277Y-14198936D01*
X13008277Y-14198936D02*
X12998753Y-14179888D01*
X12998753Y-14179888D02*
X12989229Y-14141793D01*
X12989229Y-14141793D02*
X12989229Y-14094174D01*
X12989229Y-14094174D02*
X12998753Y-14056079D01*
X12998753Y-14056079D02*
X13008277Y-14037031D01*
X13008277Y-14037031D02*
X13017801Y-14027508D01*
X13017801Y-14027508D02*
X13036848Y-14017984D01*
X13284467Y-14017984D02*
X13189229Y-14017984D01*
X13189229Y-14017984D02*
X13179706Y-14113222D01*
X13179706Y-14113222D02*
X13189229Y-14103698D01*
X13189229Y-14103698D02*
X13208277Y-14094174D01*
X13208277Y-14094174D02*
X13255896Y-14094174D01*
X13255896Y-14094174D02*
X13274944Y-14103698D01*
X13274944Y-14103698D02*
X13284467Y-14113222D01*
X13284467Y-14113222D02*
X13293991Y-14132269D01*
X13293991Y-14132269D02*
X13293991Y-14179888D01*
X13293991Y-14179888D02*
X13284467Y-14198936D01*
X13284467Y-14198936D02*
X13274944Y-14208460D01*
X13274944Y-14208460D02*
X13255896Y-14217984D01*
X13255896Y-14217984D02*
X13208277Y-14217984D01*
X13208277Y-14217984D02*
X13189229Y-14208460D01*
X13189229Y-14208460D02*
X13179706Y-14198936D01*
X13389229Y-14217984D02*
X13427325Y-14217984D01*
X13427325Y-14217984D02*
X13446372Y-14208460D01*
X13446372Y-14208460D02*
X13455896Y-14198936D01*
X13455896Y-14198936D02*
X13474944Y-14170365D01*
X13474944Y-14170365D02*
X13484467Y-14132269D01*
X13484467Y-14132269D02*
X13484467Y-14056079D01*
X13484467Y-14056079D02*
X13474944Y-14037031D01*
X13474944Y-14037031D02*
X13465420Y-14027508D01*
X13465420Y-14027508D02*
X13446372Y-14017984D01*
X13446372Y-14017984D02*
X13408277Y-14017984D01*
X13408277Y-14017984D02*
X13389229Y-14027508D01*
X13389229Y-14027508D02*
X13379706Y-14037031D01*
X13379706Y-14037031D02*
X13370182Y-14056079D01*
X13370182Y-14056079D02*
X13370182Y-14103698D01*
X13370182Y-14103698D02*
X13379706Y-14122746D01*
X13379706Y-14122746D02*
X13389229Y-14132269D01*
X13389229Y-14132269D02*
X13408277Y-14141793D01*
X13408277Y-14141793D02*
X13446372Y-14141793D01*
X13446372Y-14141793D02*
X13465420Y-14132269D01*
X13465420Y-14132269D02*
X13474944Y-14122746D01*
X13474944Y-14122746D02*
X13484467Y-14103698D01*
X13674944Y-14217984D02*
X13560658Y-14217984D01*
X13617801Y-14217984D02*
X13617801Y-14017984D01*
X13617801Y-14017984D02*
X13598753Y-14046555D01*
X13598753Y-14046555D02*
X13579706Y-14065603D01*
X13579706Y-14065603D02*
X13560658Y-14075127D01*
X13751134Y-14017984D02*
X13751134Y-14056079D01*
X13827325Y-14017984D02*
X13827325Y-14056079D01*
X14122563Y-14294174D02*
X14113039Y-14284650D01*
X14113039Y-14284650D02*
X14093991Y-14256079D01*
X14093991Y-14256079D02*
X14084468Y-14237031D01*
X14084468Y-14237031D02*
X14074944Y-14208460D01*
X14074944Y-14208460D02*
X14065420Y-14160841D01*
X14065420Y-14160841D02*
X14065420Y-14122746D01*
X14065420Y-14122746D02*
X14074944Y-14075127D01*
X14074944Y-14075127D02*
X14084468Y-14046555D01*
X14084468Y-14046555D02*
X14093991Y-14027508D01*
X14093991Y-14027508D02*
X14113039Y-13998936D01*
X14113039Y-13998936D02*
X14122563Y-13989412D01*
X14227325Y-14103698D02*
X14208277Y-14094174D01*
X14208277Y-14094174D02*
X14198753Y-14084650D01*
X14198753Y-14084650D02*
X14189229Y-14065603D01*
X14189229Y-14065603D02*
X14189229Y-14056079D01*
X14189229Y-14056079D02*
X14198753Y-14037031D01*
X14198753Y-14037031D02*
X14208277Y-14027508D01*
X14208277Y-14027508D02*
X14227325Y-14017984D01*
X14227325Y-14017984D02*
X14265420Y-14017984D01*
X14265420Y-14017984D02*
X14284468Y-14027508D01*
X14284468Y-14027508D02*
X14293991Y-14037031D01*
X14293991Y-14037031D02*
X14303515Y-14056079D01*
X14303515Y-14056079D02*
X14303515Y-14065603D01*
X14303515Y-14065603D02*
X14293991Y-14084650D01*
X14293991Y-14084650D02*
X14284468Y-14094174D01*
X14284468Y-14094174D02*
X14265420Y-14103698D01*
X14265420Y-14103698D02*
X14227325Y-14103698D01*
X14227325Y-14103698D02*
X14208277Y-14113222D01*
X14208277Y-14113222D02*
X14198753Y-14122746D01*
X14198753Y-14122746D02*
X14189229Y-14141793D01*
X14189229Y-14141793D02*
X14189229Y-14179888D01*
X14189229Y-14179888D02*
X14198753Y-14198936D01*
X14198753Y-14198936D02*
X14208277Y-14208460D01*
X14208277Y-14208460D02*
X14227325Y-14217984D01*
X14227325Y-14217984D02*
X14265420Y-14217984D01*
X14265420Y-14217984D02*
X14284468Y-14208460D01*
X14284468Y-14208460D02*
X14293991Y-14198936D01*
X14293991Y-14198936D02*
X14303515Y-14179888D01*
X14303515Y-14179888D02*
X14303515Y-14141793D01*
X14303515Y-14141793D02*
X14293991Y-14122746D01*
X14293991Y-14122746D02*
X14284468Y-14113222D01*
X14284468Y-14113222D02*
X14265420Y-14103698D01*
X14541610Y-14217984D02*
X14541610Y-14017984D01*
X14627325Y-14217984D02*
X14627325Y-14113222D01*
X14627325Y-14113222D02*
X14617801Y-14094174D01*
X14617801Y-14094174D02*
X14598753Y-14084650D01*
X14598753Y-14084650D02*
X14570182Y-14084650D01*
X14570182Y-14084650D02*
X14551134Y-14094174D01*
X14551134Y-14094174D02*
X14541610Y-14103698D01*
X14751134Y-14217984D02*
X14732087Y-14208460D01*
X14732087Y-14208460D02*
X14722563Y-14198936D01*
X14722563Y-14198936D02*
X14713039Y-14179888D01*
X14713039Y-14179888D02*
X14713039Y-14122746D01*
X14713039Y-14122746D02*
X14722563Y-14103698D01*
X14722563Y-14103698D02*
X14732087Y-14094174D01*
X14732087Y-14094174D02*
X14751134Y-14084650D01*
X14751134Y-14084650D02*
X14779706Y-14084650D01*
X14779706Y-14084650D02*
X14798753Y-14094174D01*
X14798753Y-14094174D02*
X14808277Y-14103698D01*
X14808277Y-14103698D02*
X14817801Y-14122746D01*
X14817801Y-14122746D02*
X14817801Y-14179888D01*
X14817801Y-14179888D02*
X14808277Y-14198936D01*
X14808277Y-14198936D02*
X14798753Y-14208460D01*
X14798753Y-14208460D02*
X14779706Y-14217984D01*
X14779706Y-14217984D02*
X14751134Y-14217984D01*
X14932087Y-14217984D02*
X14913039Y-14208460D01*
X14913039Y-14208460D02*
X14903515Y-14189412D01*
X14903515Y-14189412D02*
X14903515Y-14017984D01*
X15084468Y-14208460D02*
X15065420Y-14217984D01*
X15065420Y-14217984D02*
X15027325Y-14217984D01*
X15027325Y-14217984D02*
X15008277Y-14208460D01*
X15008277Y-14208460D02*
X14998753Y-14189412D01*
X14998753Y-14189412D02*
X14998753Y-14113222D01*
X14998753Y-14113222D02*
X15008277Y-14094174D01*
X15008277Y-14094174D02*
X15027325Y-14084650D01*
X15027325Y-14084650D02*
X15065420Y-14084650D01*
X15065420Y-14084650D02*
X15084468Y-14094174D01*
X15084468Y-14094174D02*
X15093991Y-14113222D01*
X15093991Y-14113222D02*
X15093991Y-14132269D01*
X15093991Y-14132269D02*
X14998753Y-14151317D01*
X15170182Y-14208460D02*
X15189230Y-14217984D01*
X15189230Y-14217984D02*
X15227325Y-14217984D01*
X15227325Y-14217984D02*
X15246372Y-14208460D01*
X15246372Y-14208460D02*
X15255896Y-14189412D01*
X15255896Y-14189412D02*
X15255896Y-14179888D01*
X15255896Y-14179888D02*
X15246372Y-14160841D01*
X15246372Y-14160841D02*
X15227325Y-14151317D01*
X15227325Y-14151317D02*
X15198753Y-14151317D01*
X15198753Y-14151317D02*
X15179706Y-14141793D01*
X15179706Y-14141793D02*
X15170182Y-14122746D01*
X15170182Y-14122746D02*
X15170182Y-14113222D01*
X15170182Y-14113222D02*
X15179706Y-14094174D01*
X15179706Y-14094174D02*
X15198753Y-14084650D01*
X15198753Y-14084650D02*
X15227325Y-14084650D01*
X15227325Y-14084650D02*
X15246372Y-14094174D01*
X15322563Y-14294174D02*
X15332087Y-14284650D01*
X15332087Y-14284650D02*
X15351134Y-14256079D01*
X15351134Y-14256079D02*
X15360658Y-14237031D01*
X15360658Y-14237031D02*
X15370182Y-14208460D01*
X15370182Y-14208460D02*
X15379706Y-14160841D01*
X15379706Y-14160841D02*
X15379706Y-14122746D01*
X15379706Y-14122746D02*
X15370182Y-14075127D01*
X15370182Y-14075127D02*
X15360658Y-14046555D01*
X15360658Y-14046555D02*
X15351134Y-14027508D01*
X15351134Y-14027508D02*
X15332087Y-13998936D01*
X15332087Y-13998936D02*
X15322563Y-13989412D01*
D15*
X10387500Y-14316500D02*
X10547500Y-14476500D01*
X10547500Y-14316500D02*
X10387500Y-14476500D01*
X10524069Y-14453069D02*
X10524069Y-14339931D01*
X10410931Y-14339931D01*
X10410931Y-14453069D01*
X10524069Y-14453069D01*
D11*
X10913039Y-14487984D02*
X10798753Y-14487984D01*
X10855896Y-14487984D02*
X10855896Y-14287984D01*
X10855896Y-14287984D02*
X10836848Y-14316555D01*
X10836848Y-14316555D02*
X10817801Y-14335603D01*
X10817801Y-14335603D02*
X10798753Y-14345127D01*
X10998753Y-14468936D02*
X11008277Y-14478460D01*
X11008277Y-14478460D02*
X10998753Y-14487984D01*
X10998753Y-14487984D02*
X10989229Y-14478460D01*
X10989229Y-14478460D02*
X10998753Y-14468936D01*
X10998753Y-14468936D02*
X10998753Y-14487984D01*
X11179705Y-14287984D02*
X11141610Y-14287984D01*
X11141610Y-14287984D02*
X11122563Y-14297508D01*
X11122563Y-14297508D02*
X11113039Y-14307031D01*
X11113039Y-14307031D02*
X11093991Y-14335603D01*
X11093991Y-14335603D02*
X11084467Y-14373698D01*
X11084467Y-14373698D02*
X11084467Y-14449888D01*
X11084467Y-14449888D02*
X11093991Y-14468936D01*
X11093991Y-14468936D02*
X11103515Y-14478460D01*
X11103515Y-14478460D02*
X11122563Y-14487984D01*
X11122563Y-14487984D02*
X11160658Y-14487984D01*
X11160658Y-14487984D02*
X11179705Y-14478460D01*
X11179705Y-14478460D02*
X11189229Y-14468936D01*
X11189229Y-14468936D02*
X11198753Y-14449888D01*
X11198753Y-14449888D02*
X11198753Y-14402269D01*
X11198753Y-14402269D02*
X11189229Y-14383222D01*
X11189229Y-14383222D02*
X11179705Y-14373698D01*
X11179705Y-14373698D02*
X11160658Y-14364174D01*
X11160658Y-14364174D02*
X11122563Y-14364174D01*
X11122563Y-14364174D02*
X11103515Y-14373698D01*
X11103515Y-14373698D02*
X11093991Y-14383222D01*
X11093991Y-14383222D02*
X11084467Y-14402269D01*
X11322562Y-14287984D02*
X11341610Y-14287984D01*
X11341610Y-14287984D02*
X11360658Y-14297508D01*
X11360658Y-14297508D02*
X11370182Y-14307031D01*
X11370182Y-14307031D02*
X11379705Y-14326079D01*
X11379705Y-14326079D02*
X11389229Y-14364174D01*
X11389229Y-14364174D02*
X11389229Y-14411793D01*
X11389229Y-14411793D02*
X11379705Y-14449888D01*
X11379705Y-14449888D02*
X11370182Y-14468936D01*
X11370182Y-14468936D02*
X11360658Y-14478460D01*
X11360658Y-14478460D02*
X11341610Y-14487984D01*
X11341610Y-14487984D02*
X11322562Y-14487984D01*
X11322562Y-14487984D02*
X11303515Y-14478460D01*
X11303515Y-14478460D02*
X11293991Y-14468936D01*
X11293991Y-14468936D02*
X11284467Y-14449888D01*
X11284467Y-14449888D02*
X11274943Y-14411793D01*
X11274943Y-14411793D02*
X11274943Y-14364174D01*
X11274943Y-14364174D02*
X11284467Y-14326079D01*
X11284467Y-14326079D02*
X11293991Y-14307031D01*
X11293991Y-14307031D02*
X11303515Y-14297508D01*
X11303515Y-14297508D02*
X11322562Y-14287984D01*
X11513039Y-14287984D02*
X11532086Y-14287984D01*
X11532086Y-14287984D02*
X11551134Y-14297508D01*
X11551134Y-14297508D02*
X11560658Y-14307031D01*
X11560658Y-14307031D02*
X11570182Y-14326079D01*
X11570182Y-14326079D02*
X11579705Y-14364174D01*
X11579705Y-14364174D02*
X11579705Y-14411793D01*
X11579705Y-14411793D02*
X11570182Y-14449888D01*
X11570182Y-14449888D02*
X11560658Y-14468936D01*
X11560658Y-14468936D02*
X11551134Y-14478460D01*
X11551134Y-14478460D02*
X11532086Y-14487984D01*
X11532086Y-14487984D02*
X11513039Y-14487984D01*
X11513039Y-14487984D02*
X11493991Y-14478460D01*
X11493991Y-14478460D02*
X11484467Y-14468936D01*
X11484467Y-14468936D02*
X11474943Y-14449888D01*
X11474943Y-14449888D02*
X11465420Y-14411793D01*
X11465420Y-14411793D02*
X11465420Y-14364174D01*
X11465420Y-14364174D02*
X11474943Y-14326079D01*
X11474943Y-14326079D02*
X11484467Y-14307031D01*
X11484467Y-14307031D02*
X11493991Y-14297508D01*
X11493991Y-14297508D02*
X11513039Y-14287984D01*
X11665420Y-14487984D02*
X11665420Y-14354650D01*
X11665420Y-14373698D02*
X11674943Y-14364174D01*
X11674943Y-14364174D02*
X11693991Y-14354650D01*
X11693991Y-14354650D02*
X11722563Y-14354650D01*
X11722563Y-14354650D02*
X11741610Y-14364174D01*
X11741610Y-14364174D02*
X11751134Y-14383222D01*
X11751134Y-14383222D02*
X11751134Y-14487984D01*
X11751134Y-14383222D02*
X11760658Y-14364174D01*
X11760658Y-14364174D02*
X11779705Y-14354650D01*
X11779705Y-14354650D02*
X11808277Y-14354650D01*
X11808277Y-14354650D02*
X11827324Y-14364174D01*
X11827324Y-14364174D02*
X11836848Y-14383222D01*
X11836848Y-14383222D02*
X11836848Y-14487984D01*
X11932086Y-14487984D02*
X11932086Y-14354650D01*
X11932086Y-14373698D02*
X11941610Y-14364174D01*
X11941610Y-14364174D02*
X11960658Y-14354650D01*
X11960658Y-14354650D02*
X11989229Y-14354650D01*
X11989229Y-14354650D02*
X12008277Y-14364174D01*
X12008277Y-14364174D02*
X12017801Y-14383222D01*
X12017801Y-14383222D02*
X12017801Y-14487984D01*
X12017801Y-14383222D02*
X12027324Y-14364174D01*
X12027324Y-14364174D02*
X12046372Y-14354650D01*
X12046372Y-14354650D02*
X12074943Y-14354650D01*
X12074943Y-14354650D02*
X12093991Y-14364174D01*
X12093991Y-14364174D02*
X12103515Y-14383222D01*
X12103515Y-14383222D02*
X12103515Y-14487984D01*
X12493991Y-14278460D02*
X12322563Y-14535603D01*
X12751134Y-14287984D02*
X12770182Y-14287984D01*
X12770182Y-14287984D02*
X12789229Y-14297508D01*
X12789229Y-14297508D02*
X12798753Y-14307031D01*
X12798753Y-14307031D02*
X12808277Y-14326079D01*
X12808277Y-14326079D02*
X12817801Y-14364174D01*
X12817801Y-14364174D02*
X12817801Y-14411793D01*
X12817801Y-14411793D02*
X12808277Y-14449888D01*
X12808277Y-14449888D02*
X12798753Y-14468936D01*
X12798753Y-14468936D02*
X12789229Y-14478460D01*
X12789229Y-14478460D02*
X12770182Y-14487984D01*
X12770182Y-14487984D02*
X12751134Y-14487984D01*
X12751134Y-14487984D02*
X12732086Y-14478460D01*
X12732086Y-14478460D02*
X12722563Y-14468936D01*
X12722563Y-14468936D02*
X12713039Y-14449888D01*
X12713039Y-14449888D02*
X12703515Y-14411793D01*
X12703515Y-14411793D02*
X12703515Y-14364174D01*
X12703515Y-14364174D02*
X12713039Y-14326079D01*
X12713039Y-14326079D02*
X12722563Y-14307031D01*
X12722563Y-14307031D02*
X12732086Y-14297508D01*
X12732086Y-14297508D02*
X12751134Y-14287984D01*
X12903515Y-14468936D02*
X12913039Y-14478460D01*
X12913039Y-14478460D02*
X12903515Y-14487984D01*
X12903515Y-14487984D02*
X12893991Y-14478460D01*
X12893991Y-14478460D02*
X12903515Y-14468936D01*
X12903515Y-14468936D02*
X12903515Y-14487984D01*
X13036848Y-14287984D02*
X13055896Y-14287984D01*
X13055896Y-14287984D02*
X13074944Y-14297508D01*
X13074944Y-14297508D02*
X13084467Y-14307031D01*
X13084467Y-14307031D02*
X13093991Y-14326079D01*
X13093991Y-14326079D02*
X13103515Y-14364174D01*
X13103515Y-14364174D02*
X13103515Y-14411793D01*
X13103515Y-14411793D02*
X13093991Y-14449888D01*
X13093991Y-14449888D02*
X13084467Y-14468936D01*
X13084467Y-14468936D02*
X13074944Y-14478460D01*
X13074944Y-14478460D02*
X13055896Y-14487984D01*
X13055896Y-14487984D02*
X13036848Y-14487984D01*
X13036848Y-14487984D02*
X13017801Y-14478460D01*
X13017801Y-14478460D02*
X13008277Y-14468936D01*
X13008277Y-14468936D02*
X12998753Y-14449888D01*
X12998753Y-14449888D02*
X12989229Y-14411793D01*
X12989229Y-14411793D02*
X12989229Y-14364174D01*
X12989229Y-14364174D02*
X12998753Y-14326079D01*
X12998753Y-14326079D02*
X13008277Y-14307031D01*
X13008277Y-14307031D02*
X13017801Y-14297508D01*
X13017801Y-14297508D02*
X13036848Y-14287984D01*
X13274944Y-14287984D02*
X13236848Y-14287984D01*
X13236848Y-14287984D02*
X13217801Y-14297508D01*
X13217801Y-14297508D02*
X13208277Y-14307031D01*
X13208277Y-14307031D02*
X13189229Y-14335603D01*
X13189229Y-14335603D02*
X13179706Y-14373698D01*
X13179706Y-14373698D02*
X13179706Y-14449888D01*
X13179706Y-14449888D02*
X13189229Y-14468936D01*
X13189229Y-14468936D02*
X13198753Y-14478460D01*
X13198753Y-14478460D02*
X13217801Y-14487984D01*
X13217801Y-14487984D02*
X13255896Y-14487984D01*
X13255896Y-14487984D02*
X13274944Y-14478460D01*
X13274944Y-14478460D02*
X13284467Y-14468936D01*
X13284467Y-14468936D02*
X13293991Y-14449888D01*
X13293991Y-14449888D02*
X13293991Y-14402269D01*
X13293991Y-14402269D02*
X13284467Y-14383222D01*
X13284467Y-14383222D02*
X13274944Y-14373698D01*
X13274944Y-14373698D02*
X13255896Y-14364174D01*
X13255896Y-14364174D02*
X13217801Y-14364174D01*
X13217801Y-14364174D02*
X13198753Y-14373698D01*
X13198753Y-14373698D02*
X13189229Y-14383222D01*
X13189229Y-14383222D02*
X13179706Y-14402269D01*
X13360658Y-14287984D02*
X13484467Y-14287984D01*
X13484467Y-14287984D02*
X13417801Y-14364174D01*
X13417801Y-14364174D02*
X13446372Y-14364174D01*
X13446372Y-14364174D02*
X13465420Y-14373698D01*
X13465420Y-14373698D02*
X13474944Y-14383222D01*
X13474944Y-14383222D02*
X13484467Y-14402269D01*
X13484467Y-14402269D02*
X13484467Y-14449888D01*
X13484467Y-14449888D02*
X13474944Y-14468936D01*
X13474944Y-14468936D02*
X13465420Y-14478460D01*
X13465420Y-14478460D02*
X13446372Y-14487984D01*
X13446372Y-14487984D02*
X13389229Y-14487984D01*
X13389229Y-14487984D02*
X13370182Y-14478460D01*
X13370182Y-14478460D02*
X13360658Y-14468936D01*
X13608277Y-14287984D02*
X13627325Y-14287984D01*
X13627325Y-14287984D02*
X13646372Y-14297508D01*
X13646372Y-14297508D02*
X13655896Y-14307031D01*
X13655896Y-14307031D02*
X13665420Y-14326079D01*
X13665420Y-14326079D02*
X13674944Y-14364174D01*
X13674944Y-14364174D02*
X13674944Y-14411793D01*
X13674944Y-14411793D02*
X13665420Y-14449888D01*
X13665420Y-14449888D02*
X13655896Y-14468936D01*
X13655896Y-14468936D02*
X13646372Y-14478460D01*
X13646372Y-14478460D02*
X13627325Y-14487984D01*
X13627325Y-14487984D02*
X13608277Y-14487984D01*
X13608277Y-14487984D02*
X13589229Y-14478460D01*
X13589229Y-14478460D02*
X13579706Y-14468936D01*
X13579706Y-14468936D02*
X13570182Y-14449888D01*
X13570182Y-14449888D02*
X13560658Y-14411793D01*
X13560658Y-14411793D02*
X13560658Y-14364174D01*
X13560658Y-14364174D02*
X13570182Y-14326079D01*
X13570182Y-14326079D02*
X13579706Y-14307031D01*
X13579706Y-14307031D02*
X13589229Y-14297508D01*
X13589229Y-14297508D02*
X13608277Y-14287984D01*
X13751134Y-14287984D02*
X13751134Y-14326079D01*
X13827325Y-14287984D02*
X13827325Y-14326079D01*
X14122563Y-14564174D02*
X14113039Y-14554650D01*
X14113039Y-14554650D02*
X14093991Y-14526079D01*
X14093991Y-14526079D02*
X14084468Y-14507031D01*
X14084468Y-14507031D02*
X14074944Y-14478460D01*
X14074944Y-14478460D02*
X14065420Y-14430841D01*
X14065420Y-14430841D02*
X14065420Y-14392746D01*
X14065420Y-14392746D02*
X14074944Y-14345127D01*
X14074944Y-14345127D02*
X14084468Y-14316555D01*
X14084468Y-14316555D02*
X14093991Y-14297508D01*
X14093991Y-14297508D02*
X14113039Y-14268936D01*
X14113039Y-14268936D02*
X14122563Y-14259412D01*
X14284468Y-14354650D02*
X14284468Y-14487984D01*
X14236848Y-14278460D02*
X14189229Y-14421317D01*
X14189229Y-14421317D02*
X14313039Y-14421317D01*
X14541610Y-14487984D02*
X14541610Y-14287984D01*
X14627325Y-14487984D02*
X14627325Y-14383222D01*
X14627325Y-14383222D02*
X14617801Y-14364174D01*
X14617801Y-14364174D02*
X14598753Y-14354650D01*
X14598753Y-14354650D02*
X14570182Y-14354650D01*
X14570182Y-14354650D02*
X14551134Y-14364174D01*
X14551134Y-14364174D02*
X14541610Y-14373698D01*
X14751134Y-14487984D02*
X14732087Y-14478460D01*
X14732087Y-14478460D02*
X14722563Y-14468936D01*
X14722563Y-14468936D02*
X14713039Y-14449888D01*
X14713039Y-14449888D02*
X14713039Y-14392746D01*
X14713039Y-14392746D02*
X14722563Y-14373698D01*
X14722563Y-14373698D02*
X14732087Y-14364174D01*
X14732087Y-14364174D02*
X14751134Y-14354650D01*
X14751134Y-14354650D02*
X14779706Y-14354650D01*
X14779706Y-14354650D02*
X14798753Y-14364174D01*
X14798753Y-14364174D02*
X14808277Y-14373698D01*
X14808277Y-14373698D02*
X14817801Y-14392746D01*
X14817801Y-14392746D02*
X14817801Y-14449888D01*
X14817801Y-14449888D02*
X14808277Y-14468936D01*
X14808277Y-14468936D02*
X14798753Y-14478460D01*
X14798753Y-14478460D02*
X14779706Y-14487984D01*
X14779706Y-14487984D02*
X14751134Y-14487984D01*
X14932087Y-14487984D02*
X14913039Y-14478460D01*
X14913039Y-14478460D02*
X14903515Y-14459412D01*
X14903515Y-14459412D02*
X14903515Y-14287984D01*
X15084468Y-14478460D02*
X15065420Y-14487984D01*
X15065420Y-14487984D02*
X15027325Y-14487984D01*
X15027325Y-14487984D02*
X15008277Y-14478460D01*
X15008277Y-14478460D02*
X14998753Y-14459412D01*
X14998753Y-14459412D02*
X14998753Y-14383222D01*
X14998753Y-14383222D02*
X15008277Y-14364174D01*
X15008277Y-14364174D02*
X15027325Y-14354650D01*
X15027325Y-14354650D02*
X15065420Y-14354650D01*
X15065420Y-14354650D02*
X15084468Y-14364174D01*
X15084468Y-14364174D02*
X15093991Y-14383222D01*
X15093991Y-14383222D02*
X15093991Y-14402269D01*
X15093991Y-14402269D02*
X14998753Y-14421317D01*
X15170182Y-14478460D02*
X15189230Y-14487984D01*
X15189230Y-14487984D02*
X15227325Y-14487984D01*
X15227325Y-14487984D02*
X15246372Y-14478460D01*
X15246372Y-14478460D02*
X15255896Y-14459412D01*
X15255896Y-14459412D02*
X15255896Y-14449888D01*
X15255896Y-14449888D02*
X15246372Y-14430841D01*
X15246372Y-14430841D02*
X15227325Y-14421317D01*
X15227325Y-14421317D02*
X15198753Y-14421317D01*
X15198753Y-14421317D02*
X15179706Y-14411793D01*
X15179706Y-14411793D02*
X15170182Y-14392746D01*
X15170182Y-14392746D02*
X15170182Y-14383222D01*
X15170182Y-14383222D02*
X15179706Y-14364174D01*
X15179706Y-14364174D02*
X15198753Y-14354650D01*
X15198753Y-14354650D02*
X15227325Y-14354650D01*
X15227325Y-14354650D02*
X15246372Y-14364174D01*
X15322563Y-14564174D02*
X15332087Y-14554650D01*
X15332087Y-14554650D02*
X15351134Y-14526079D01*
X15351134Y-14526079D02*
X15360658Y-14507031D01*
X15360658Y-14507031D02*
X15370182Y-14478460D01*
X15370182Y-14478460D02*
X15379706Y-14430841D01*
X15379706Y-14430841D02*
X15379706Y-14392746D01*
X15379706Y-14392746D02*
X15370182Y-14345127D01*
X15370182Y-14345127D02*
X15360658Y-14316555D01*
X15360658Y-14316555D02*
X15351134Y-14297508D01*
X15351134Y-14297508D02*
X15332087Y-14268936D01*
X15332087Y-14268936D02*
X15322563Y-14259412D01*
M02*
