M48
; DRILL file {KiCad 8.0.8} date 2025-02-25T19:57:53-0500
; FORMAT={-:-/ absolute / inch / decimal}
; #@! TF.CreationDate,2025-02-25T19:57:53-05:00
; #@! TF.GenerationSoftware,Kicad,Pcbnew,8.0.8
; #@! TF.FileFunction,Plated,1,2,PTH
FMAT,2
INCH
; #@! TA.AperFunction,Plated,PTH,ViaDrill
T1C0.0118
; #@! TA.AperFunction,Plated,PTH,ViaDrill
T2C0.0157
; #@! TA.AperFunction,Plated,PTH,ComponentDrill
T3C0.0276
; #@! TA.AperFunction,Plated,PTH,ComponentDrill
T4C0.0315
; #@! TA.AperFunction,Plated,PTH,ComponentDrill
T5C0.0394
; #@! TA.AperFunction,Plated,PTH,ComponentDrill
T6C0.0413
; #@! TA.AperFunction,Plated,PTH,ComponentDrill
T7C0.0591
; #@! TA.AperFunction,Plated,PTH,ComponentDrill
T8C0.0630
%
G90
G05
T1
X5.0394Y-4.252
X5.3937Y-3.7944
X5.3937Y-3.8434
X5.3937Y-3.9567
X5.3937Y-4.0057
X5.4528Y-3.5729
X5.4646Y-3.8071
X5.4646Y-3.8386
X5.4646Y-3.9015
X5.4921Y-4.2028
X5.5512Y-3.5582
X5.5512Y-3.6072
X5.5906Y-3.0906
X5.5906Y-3.3071
X5.6142Y-3.7205
X5.6299Y-4.252
X5.7402Y-4.0511
X5.7952Y-3.87
X5.8858Y-3.7944
X5.8858Y-3.9322
X6.6044Y-3.7795
X7.2441Y-4.2741
X7.2835Y-4.2741
X7.3228Y-4.2741
T2
X4.4094Y-2.5354
X4.4094Y-2.6024
X4.4094Y-2.6693
X4.4094Y-3.1654
X4.4094Y-3.2323
X4.4094Y-3.2992
X4.6654Y-2.5394
X4.673Y-3.1759
X4.6742Y-2.4262
X4.6742Y-2.6447
X4.6742Y-3.0561
X4.6742Y-3.2746
X4.7638Y-2.4409
X4.7638Y-2.6575
X4.7697Y-2.5354
X4.7697Y-3.1654
X4.7835Y-3.7992
X4.8622Y-2.4213
X4.8622Y-2.5394
X4.8622Y-2.6575
X4.8622Y-3.0512
X4.8622Y-3.2874
X4.8645Y-3.1711
X4.9488Y-2.1063
X5.1752Y-2.2618
X5.2559Y-3.1102
X5.2953Y-3.6614
X5.5709Y-2.2638
X5.8268Y-3.248
X5.8657Y-4.0556
X6.0236Y-3.9783
X6.2402Y-4.1535
X6.3297Y-2.4016
X6.5551Y-2.0732
X6.6221Y-2.7362
X6.6319Y-2.9724
X6.6427Y-3.1299
X6.7323Y-2.0732
X6.938Y-4.1732
X6.999Y-4.1732
X7.6024Y-4.3567
X7.7756Y-4.3567
X7.9656Y-2.185
T3
X5.9252Y-2.1161
X5.9252Y-2.2146
X6.0827Y-2.1161
X6.0827Y-2.2146
X6.2402Y-2.1161
X6.2402Y-2.2146
X6.3583Y-3.5433
X6.3583Y-3.7008
X6.3583Y-3.8583
X6.4567Y-3.5433
X6.4567Y-3.7008
X6.4567Y-3.8583
T4
X6.7756Y-2.2858
X6.7756Y-2.3858
X6.7756Y-2.4858
X6.7756Y-2.5858
X6.7756Y-2.6858
X6.7756Y-2.7858
X6.7756Y-2.8858
X6.7756Y-2.9858
X6.7756Y-3.0858
X6.7756Y-3.1858
X6.7756Y-3.2858
X6.7756Y-3.3858
X6.7756Y-3.4858
X6.7756Y-3.5858
X6.7756Y-3.6858
X6.7756Y-3.7858
X6.7756Y-3.8858
X6.7756Y-3.9858
X6.7756Y-4.0858
X7.7754Y-3.9857
X7.7754Y-4.0857
X7.7756Y-2.2858
X7.7756Y-2.3858
X7.7756Y-2.4858
X7.7756Y-2.5858
X7.7756Y-2.6858
X7.7756Y-2.7858
X7.7756Y-2.8858
X7.7756Y-2.9858
X7.7756Y-3.0858
X7.7756Y-3.1858
X7.7756Y-3.2858
X7.7756Y-3.3858
X7.7756Y-3.4858
X7.7756Y-3.5858
X7.7756Y-3.6858
X7.7756Y-3.7858
X7.7756Y-3.8858
T5
X4.3457Y-4.3898
X4.4457Y-4.3898
X4.5457Y-4.3898
X4.6457Y-4.3898
X4.9094Y-4.3799
X5.0094Y-4.3799
X5.1094Y-4.3799
X5.2094Y-4.3799
X5.4803Y-4.3799
X5.5803Y-4.3799
X5.6803Y-4.3799
X5.7803Y-4.3799
X6.237Y-4.3094
X6.237Y-4.4094
X6.337Y-4.3094
X6.337Y-4.4094
X6.437Y-4.3094
X6.437Y-4.4094
X6.9291Y-4.2945
X6.9291Y-4.3945
X6.9291Y-4.4945
X8.0906Y-2.3543
X8.0906Y-2.4543
X8.0906Y-2.5543
X8.0906Y-2.6543
X8.0906Y-2.7543
X8.0906Y-2.8543
X8.0906Y-2.9543
X8.0906Y-3.0543
X8.0906Y-3.1543
X8.0906Y-3.2543
X8.0906Y-3.3543
X8.0906Y-3.4543
X8.0906Y-3.5543
X8.0906Y-3.6543
X8.0906Y-3.7543
X8.0906Y-3.8543
X8.0906Y-3.9543
X8.0906Y-4.0543
T6
X4.4291Y-2.1457
X4.5276Y-2.1457
X8.0118Y-4.3764
X8.1102Y-4.3764
T7
X5.7874Y-2.0472
X5.7874Y-2.2835
X6.2894Y-3.4055
X6.2894Y-3.9961
X6.378Y-2.0472
X6.378Y-2.2835
X6.5256Y-3.4055
X6.5256Y-3.9961
T8
X5.1087Y-2.7953
X5.1575Y-3.4205
X5.1575Y-4.0205
X5.7087Y-2.7953
M30
