%TF.GenerationSoftware,KiCad,Pcbnew,8.0.8*%
%TF.CreationDate,2025-02-25T19:57:37-05:00*%
%TF.ProjectId,draft,64726166-742e-46b6-9963-61645f706362,rev?*%
%TF.SameCoordinates,Original*%
%TF.FileFunction,Paste,Top*%
%TF.FilePolarity,Positive*%
%FSLAX46Y46*%
G04 Gerber Fmt 4.6, Leading zero omitted, Abs format (unit mm)*
G04 Created by KiCad (PCBNEW 8.0.8) date 2025-02-25 19:57:37*
%MOMM*%
%LPD*%
G01*
G04 APERTURE LIST*
G04 Aperture macros list*
%AMRoundRect*
0 Rectangle with rounded corners*
0 $1 Rounding radius*
0 $2 $3 $4 $5 $6 $7 $8 $9 X,Y pos of 4 corners*
0 Add a 4 corners polygon primitive as box body*
4,1,4,$2,$3,$4,$5,$6,$7,$8,$9,$2,$3,0*
0 Add four circle primitives for the rounded corners*
1,1,$1+$1,$2,$3*
1,1,$1+$1,$4,$5*
1,1,$1+$1,$6,$7*
1,1,$1+$1,$8,$9*
0 Add four rect primitives between the rounded corners*
20,1,$1+$1,$2,$3,$4,$5,0*
20,1,$1+$1,$4,$5,$6,$7,0*
20,1,$1+$1,$6,$7,$8,$9,0*
20,1,$1+$1,$8,$9,$2,$3,0*%
G04 Aperture macros list end*
%ADD10R,0.609600X1.371600*%
%ADD11R,0.660400X1.549400*%
%ADD12R,1.295400X1.905000*%
%ADD13R,1.371600X0.609600*%
%ADD14R,0.762000X0.660400*%
%ADD15R,0.863600X1.295400*%
%ADD16RoundRect,0.250000X-2.050000X-0.300000X2.050000X-0.300000X2.050000X0.300000X-2.050000X0.300000X0*%
%ADD17RoundRect,0.250000X-2.025000X-2.375000X2.025000X-2.375000X2.025000X2.375000X-2.025000X2.375000X0*%
%ADD18R,1.100000X1.650000*%
%ADD19R,1.156400X0.450000*%
%ADD20R,0.450000X1.156400*%
%ADD21R,1.250000X1.500000*%
%ADD22R,3.000000X1.600000*%
%ADD23R,2.900000X5.400000*%
%ADD24R,5.800000X2.500000*%
%ADD25R,0.902399X1.549197*%
%ADD26R,1.500000X1.250000*%
%ADD27R,1.650000X1.100000*%
G04 APERTURE END LIST*
D10*
%TO.C,R6*%
X167750700Y-92828800D03*
X169249300Y-92828800D03*
%TD*%
%TO.C,R5*%
X167750700Y-90000000D03*
X169249300Y-90000000D03*
%TD*%
%TO.C,R2*%
X167750700Y-98828800D03*
X169249300Y-98828800D03*
%TD*%
%TO.C,R1*%
X167750700Y-96000000D03*
X169249300Y-96000000D03*
%TD*%
D11*
%TO.C,J6*%
X184000000Y-108561500D03*
X185000001Y-108561500D03*
X185999999Y-108561500D03*
X187000000Y-108561500D03*
D12*
X188299999Y-112436501D03*
X182700001Y-112436501D03*
%TD*%
D13*
%TO.C,R11*%
X167750700Y-58250700D03*
X167750700Y-59749300D03*
%TD*%
D14*
%TO.C,C2*%
X137000000Y-100500000D03*
X137000000Y-101744600D03*
%TD*%
D15*
%TO.C,C4*%
X159225300Y-61000000D03*
X160774700Y-61000000D03*
%TD*%
D13*
%TO.C,R16*%
X162000000Y-82250700D03*
X162000000Y-83749300D03*
%TD*%
D16*
%TO.C,U2*%
X112000000Y-61000000D03*
X112000000Y-62700000D03*
X112000000Y-64400000D03*
D17*
X118725000Y-61625000D03*
X118725000Y-67175000D03*
X123575000Y-61625000D03*
X123575000Y-67175000D03*
D16*
X112000000Y-66100000D03*
X112000000Y-67800000D03*
%TD*%
D15*
%TO.C,C8*%
X177774700Y-106000000D03*
X176225300Y-106000000D03*
%TD*%
D18*
%TO.C,LED2*%
X165600000Y-65000000D03*
X168500000Y-65000000D03*
%TD*%
D19*
%TO.C,U5*%
X138800800Y-95899200D03*
X138800800Y-96699198D03*
X138800800Y-97499199D03*
X138800800Y-98299200D03*
X138800800Y-99099198D03*
X138800800Y-99899199D03*
X138800800Y-100699198D03*
X138800800Y-101499198D03*
D20*
X140200000Y-102898398D03*
X140999998Y-102898398D03*
X141799999Y-102898398D03*
X142600000Y-102898398D03*
X143399998Y-102898398D03*
X144199999Y-102898398D03*
X144999998Y-102898398D03*
X145799998Y-102898398D03*
D19*
X147199198Y-101499198D03*
X147199198Y-100699200D03*
X147199198Y-99899199D03*
X147199198Y-99099198D03*
X147199198Y-98299200D03*
X147199198Y-97499199D03*
X147199198Y-96699200D03*
X147199198Y-95899200D03*
D20*
X145799998Y-94500000D03*
X145000000Y-94500000D03*
X144199999Y-94500000D03*
X143399998Y-94500000D03*
X142600000Y-94500000D03*
X141799999Y-94500000D03*
X141000000Y-94500000D03*
X140200000Y-94500000D03*
%TD*%
D14*
%TO.C,C1*%
X137000000Y-97622300D03*
X137000000Y-96377700D03*
%TD*%
%TO.C,C7*%
X149500000Y-97622300D03*
X149500000Y-96377700D03*
%TD*%
%TO.C,C6*%
X141000000Y-91622300D03*
X141000000Y-90377700D03*
%TD*%
D18*
%TO.C,LED3*%
X165550000Y-75500000D03*
X168450000Y-75500000D03*
%TD*%
D21*
%TO.C,R12*%
X202325000Y-55500000D03*
X205775000Y-55500000D03*
%TD*%
D22*
%TO.C,CP2*%
X129100000Y-79000000D03*
X133500000Y-79000000D03*
%TD*%
D16*
%TO.C,U3*%
X112000000Y-77000000D03*
X112000000Y-78700000D03*
X112000000Y-80400000D03*
D17*
X118725000Y-77625000D03*
X118725000Y-83175000D03*
X123575000Y-77625000D03*
X123575000Y-83175000D03*
D16*
X112000000Y-82100000D03*
X112000000Y-83800000D03*
%TD*%
D13*
%TO.C,R9*%
X124500000Y-108249300D03*
X124500000Y-106750700D03*
%TD*%
D23*
%TO.C,L2*%
X138100000Y-82500000D03*
X148000000Y-82500000D03*
%TD*%
D22*
%TO.C,CP6*%
X166600000Y-52660000D03*
X171000000Y-52660000D03*
%TD*%
D24*
%TO.C,CP4*%
X111400000Y-96500000D03*
X121500000Y-96500000D03*
%TD*%
D14*
%TO.C,C5*%
X169000000Y-102877700D03*
X169000000Y-104122300D03*
%TD*%
D25*
%TO.C,R13*%
X165600000Y-69500000D03*
X168202396Y-69500000D03*
%TD*%
D13*
%TO.C,R10*%
X139500000Y-108249300D03*
X139500000Y-106750700D03*
%TD*%
%TO.C,R7*%
X138500000Y-92249300D03*
X138500000Y-90750700D03*
%TD*%
D26*
%TO.C,R15*%
X153000000Y-104500000D03*
X153000000Y-101050000D03*
%TD*%
D23*
%TO.C,L1*%
X150050000Y-68500000D03*
X159950000Y-68500000D03*
%TD*%
D13*
%TO.C,R17*%
X164500000Y-82250700D03*
X164500000Y-83749300D03*
%TD*%
D14*
%TO.C,C3*%
X149500000Y-101122300D03*
X149500000Y-99877700D03*
%TD*%
D24*
%TO.C,CP3*%
X131400000Y-57500000D03*
X141500000Y-57500000D03*
%TD*%
D21*
%TO.C,R14*%
X165275000Y-79500000D03*
X168725000Y-79500000D03*
%TD*%
D18*
%TO.C,LED1*%
X202600000Y-51500000D03*
X205500000Y-51500000D03*
%TD*%
D13*
%TO.C,R8*%
X110500000Y-108249300D03*
X110500000Y-106750700D03*
%TD*%
D22*
%TO.C,CP1*%
X121300000Y-53500000D03*
X125700000Y-53500000D03*
%TD*%
D27*
%TO.C,LED4*%
X155000000Y-97950000D03*
X155000000Y-95050000D03*
%TD*%
D22*
%TO.C,CP5*%
X193100000Y-110660000D03*
X197500000Y-110660000D03*
%TD*%
M02*
