%TF.GenerationSoftware,KiCad,Pcbnew,8.0.8*%
%TF.CreationDate,2025-02-25T19:57:37-05:00*%
%TF.ProjectId,draft,64726166-742e-46b6-9963-61645f706362,rev?*%
%TF.SameCoordinates,Original*%
%TF.FileFunction,Soldermask,Bot*%
%TF.FilePolarity,Negative*%
%FSLAX46Y46*%
G04 Gerber Fmt 4.6, Leading zero omitted, Abs format (unit mm)*
G04 Created by KiCad (PCBNEW 8.0.8) date 2025-02-25 19:57:38*
%MOMM*%
%LPD*%
G01*
G04 APERTURE LIST*
G04 Aperture macros list*
%AMRoundRect*
0 Rectangle with rounded corners*
0 $1 Rounding radius*
0 $2 $3 $4 $5 $6 $7 $8 $9 X,Y pos of 4 corners*
0 Add a 4 corners polygon primitive as box body*
4,1,4,$2,$3,$4,$5,$6,$7,$8,$9,$2,$3,0*
0 Add four circle primitives for the rounded corners*
1,1,$1+$1,$2,$3*
1,1,$1+$1,$4,$5*
1,1,$1+$1,$6,$7*
1,1,$1+$1,$8,$9*
0 Add four rect primitives between the rounded corners*
20,1,$1+$1,$2,$3,$4,$5,0*
20,1,$1+$1,$4,$5,$6,$7,0*
20,1,$1+$1,$6,$7,$8,$9,0*
20,1,$1+$1,$8,$9,$2,$3,0*%
G04 Aperture macros list end*
%ADD10R,1.700000X1.700000*%
%ADD11O,1.700000X1.700000*%
%ADD12O,2.800000X1.800000*%
%ADD13RoundRect,0.102000X-0.604000X-0.604000X0.604000X-0.604000X0.604000X0.604000X-0.604000X0.604000X0*%
%ADD14C,1.412000*%
%ADD15C,2.454000*%
%ADD16RoundRect,0.250000X0.600000X-0.600000X0.600000X0.600000X-0.600000X0.600000X-0.600000X-0.600000X0*%
%ADD17C,1.700000*%
%ADD18RoundRect,0.102000X-0.787500X-0.787500X0.787500X-0.787500X0.787500X0.787500X-0.787500X0.787500X0*%
%ADD19C,1.779000*%
%ADD20R,3.200000X3.200000*%
%ADD21O,3.200000X3.200000*%
%ADD22R,2.000000X1.200000*%
%ADD23O,2.000000X1.200000*%
%ADD24RoundRect,0.102000X0.604000X-0.604000X0.604000X0.604000X-0.604000X0.604000X-0.604000X-0.604000X0*%
G04 APERTURE END LIST*
D10*
%TO.C,J4*%
X124700000Y-111250700D03*
D11*
X127240000Y-111250700D03*
X129780000Y-111250700D03*
X132320000Y-111250700D03*
%TD*%
D12*
%TO.C,U4*%
X205500000Y-102980000D03*
X205500000Y-100440000D03*
X205500000Y-97900000D03*
X205500000Y-95360000D03*
X205500000Y-92820000D03*
X205500000Y-90280000D03*
X205500000Y-87740000D03*
X205500000Y-85200000D03*
X205500000Y-82660000D03*
X205500000Y-80120000D03*
X205500000Y-77580000D03*
X205500000Y-75040000D03*
X205500000Y-72500000D03*
X205500000Y-69960000D03*
X205500000Y-67420000D03*
X205500000Y-64880000D03*
X205500000Y-62340000D03*
X205500000Y-59800000D03*
%TD*%
D13*
%TO.C,S3*%
X150500000Y-53750000D03*
D14*
X154500000Y-53750000D03*
X158500000Y-53750000D03*
X150500000Y-56250000D03*
X154500000Y-56250000D03*
X158500000Y-56250000D03*
D15*
X147000000Y-52000000D03*
X162000000Y-52000000D03*
X162000000Y-58000000D03*
X147000000Y-58000000D03*
%TD*%
D16*
%TO.C,J7*%
X158420000Y-112000000D03*
D17*
X158420000Y-109460000D03*
X160960000Y-112000000D03*
X160960000Y-109460000D03*
X163500000Y-112000000D03*
X163500000Y-109460000D03*
%TD*%
D18*
%TO.C,J1*%
X115000000Y-54500000D03*
D19*
X112500000Y-54500000D03*
%TD*%
D10*
%TO.C,J3*%
X110380000Y-111500000D03*
D11*
X112920000Y-111500000D03*
X115460000Y-111500000D03*
X118000000Y-111500000D03*
%TD*%
D10*
%TO.C,J5*%
X139200000Y-111250700D03*
D11*
X141740000Y-111250700D03*
X144280000Y-111250700D03*
X146820000Y-111250700D03*
%TD*%
D18*
%TO.C,J8*%
X206000000Y-111160000D03*
D19*
X203500000Y-111160000D03*
%TD*%
D20*
%TO.C,D1*%
X129760000Y-71000000D03*
D21*
X145000000Y-71000000D03*
%TD*%
D22*
%TO.C,U1*%
X172100000Y-58060000D03*
D23*
X172100000Y-60600000D03*
X172100000Y-63140000D03*
X172100000Y-65680000D03*
X172100000Y-68220000D03*
X172100000Y-70760000D03*
X172100000Y-73300000D03*
X172100000Y-75840000D03*
X172100000Y-78380000D03*
X172100000Y-80920000D03*
X172100000Y-83460000D03*
X172100000Y-86000000D03*
X172100000Y-88540000D03*
X172100000Y-91080000D03*
X172100000Y-93620000D03*
X172100000Y-96160000D03*
X172100000Y-98700000D03*
X172100000Y-101240000D03*
X172100000Y-103780000D03*
X197496320Y-103777280D03*
X197496320Y-101237280D03*
X197500000Y-98700000D03*
X197500000Y-96160000D03*
X197500000Y-93620000D03*
X197500000Y-91080000D03*
X197500000Y-88540000D03*
X197500000Y-86000000D03*
X197500000Y-83460000D03*
X197500000Y-80920000D03*
X197500000Y-78380000D03*
X197500000Y-75840000D03*
X197500000Y-73300000D03*
X197500000Y-70760000D03*
X197500000Y-68220000D03*
X197500000Y-65680000D03*
X197500000Y-63140000D03*
X197500000Y-60600000D03*
X197500000Y-58060000D03*
%TD*%
D20*
%TO.C,D2*%
X131000000Y-86880000D03*
D21*
X131000000Y-102120000D03*
%TD*%
D10*
%TO.C,J2*%
X176000000Y-114160000D03*
D11*
X176000000Y-111620000D03*
X176000000Y-109080000D03*
%TD*%
D24*
%TO.C,S2*%
X161500000Y-98000000D03*
D14*
X161500000Y-94000000D03*
X161500000Y-90000000D03*
X164000000Y-98000000D03*
X164000000Y-94000000D03*
X164000000Y-90000000D03*
D15*
X159750000Y-101500000D03*
X159750000Y-86500000D03*
X165750000Y-86500000D03*
X165750000Y-101500000D03*
%TD*%
M02*
