%TF.GenerationSoftware,KiCad,Pcbnew,8.0.8*%
%TF.CreationDate,2025-02-10T18:39:17-05:00*%
%TF.ProjectId,draft,64726166-742e-46b6-9963-61645f706362,rev?*%
%TF.SameCoordinates,Original*%
%TF.FileFunction,Legend,Top*%
%TF.FilePolarity,Positive*%
%FSLAX46Y46*%
G04 Gerber Fmt 4.6, Leading zero omitted, Abs format (unit mm)*
G04 Created by KiCad (PCBNEW 8.0.8) date 2025-02-10 18:39:17*
%MOMM*%
%LPD*%
G01*
G04 APERTURE LIST*
%ADD10C,0.100000*%
%ADD11C,0.150000*%
%ADD12C,0.175000*%
%ADD13C,0.254000*%
%ADD14C,0.120000*%
%ADD15C,0.152400*%
%ADD16C,0.508000*%
%ADD17C,0.127000*%
%ADD18C,0.200000*%
%ADD19C,0.000000*%
G04 APERTURE END LIST*
D10*
X110803884Y-54991466D02*
X111565789Y-54991466D01*
X111184836Y-55372419D02*
X111184836Y-54610514D01*
D11*
X122036666Y-110705519D02*
X122036666Y-111419804D01*
X122036666Y-111419804D02*
X121989047Y-111562661D01*
X121989047Y-111562661D02*
X121893809Y-111657900D01*
X121893809Y-111657900D02*
X121750952Y-111705519D01*
X121750952Y-111705519D02*
X121655714Y-111705519D01*
X122941428Y-111038852D02*
X122941428Y-111705519D01*
X122703333Y-110657900D02*
X122465238Y-111372185D01*
X122465238Y-111372185D02*
X123084285Y-111372185D01*
X185166666Y-105954819D02*
X185166666Y-106669104D01*
X185166666Y-106669104D02*
X185119047Y-106811961D01*
X185119047Y-106811961D02*
X185023809Y-106907200D01*
X185023809Y-106907200D02*
X184880952Y-106954819D01*
X184880952Y-106954819D02*
X184785714Y-106954819D01*
X186071428Y-105954819D02*
X185880952Y-105954819D01*
X185880952Y-105954819D02*
X185785714Y-106002438D01*
X185785714Y-106002438D02*
X185738095Y-106050057D01*
X185738095Y-106050057D02*
X185642857Y-106192914D01*
X185642857Y-106192914D02*
X185595238Y-106383390D01*
X185595238Y-106383390D02*
X185595238Y-106764342D01*
X185595238Y-106764342D02*
X185642857Y-106859580D01*
X185642857Y-106859580D02*
X185690476Y-106907200D01*
X185690476Y-106907200D02*
X185785714Y-106954819D01*
X185785714Y-106954819D02*
X185976190Y-106954819D01*
X185976190Y-106954819D02*
X186071428Y-106907200D01*
X186071428Y-106907200D02*
X186119047Y-106859580D01*
X186119047Y-106859580D02*
X186166666Y-106764342D01*
X186166666Y-106764342D02*
X186166666Y-106526247D01*
X186166666Y-106526247D02*
X186119047Y-106431009D01*
X186119047Y-106431009D02*
X186071428Y-106383390D01*
X186071428Y-106383390D02*
X185976190Y-106335771D01*
X185976190Y-106335771D02*
X185785714Y-106335771D01*
X185785714Y-106335771D02*
X185690476Y-106383390D01*
X185690476Y-106383390D02*
X185642857Y-106431009D01*
X185642857Y-106431009D02*
X185595238Y-106526247D01*
X146333333Y-105954819D02*
X146000000Y-105478628D01*
X145761905Y-105954819D02*
X145761905Y-104954819D01*
X145761905Y-104954819D02*
X146142857Y-104954819D01*
X146142857Y-104954819D02*
X146238095Y-105002438D01*
X146238095Y-105002438D02*
X146285714Y-105050057D01*
X146285714Y-105050057D02*
X146333333Y-105145295D01*
X146333333Y-105145295D02*
X146333333Y-105288152D01*
X146333333Y-105288152D02*
X146285714Y-105383390D01*
X146285714Y-105383390D02*
X146238095Y-105431009D01*
X146238095Y-105431009D02*
X146142857Y-105478628D01*
X146142857Y-105478628D02*
X145761905Y-105478628D01*
X147190476Y-105288152D02*
X147190476Y-105954819D01*
X146952381Y-104907200D02*
X146714286Y-105621485D01*
X146714286Y-105621485D02*
X147333333Y-105621485D01*
X167357142Y-56954819D02*
X167023809Y-56478628D01*
X166785714Y-56954819D02*
X166785714Y-55954819D01*
X166785714Y-55954819D02*
X167166666Y-55954819D01*
X167166666Y-55954819D02*
X167261904Y-56002438D01*
X167261904Y-56002438D02*
X167309523Y-56050057D01*
X167309523Y-56050057D02*
X167357142Y-56145295D01*
X167357142Y-56145295D02*
X167357142Y-56288152D01*
X167357142Y-56288152D02*
X167309523Y-56383390D01*
X167309523Y-56383390D02*
X167261904Y-56431009D01*
X167261904Y-56431009D02*
X167166666Y-56478628D01*
X167166666Y-56478628D02*
X166785714Y-56478628D01*
X168309523Y-56954819D02*
X167738095Y-56954819D01*
X168023809Y-56954819D02*
X168023809Y-55954819D01*
X168023809Y-55954819D02*
X167928571Y-56097676D01*
X167928571Y-56097676D02*
X167833333Y-56192914D01*
X167833333Y-56192914D02*
X167738095Y-56240533D01*
X169261904Y-56954819D02*
X168690476Y-56954819D01*
X168976190Y-56954819D02*
X168976190Y-55954819D01*
X168976190Y-55954819D02*
X168880952Y-56097676D01*
X168880952Y-56097676D02*
X168785714Y-56192914D01*
X168785714Y-56192914D02*
X168690476Y-56240533D01*
X135859580Y-101288966D02*
X135907200Y-101336585D01*
X135907200Y-101336585D02*
X135954819Y-101479442D01*
X135954819Y-101479442D02*
X135954819Y-101574680D01*
X135954819Y-101574680D02*
X135907200Y-101717537D01*
X135907200Y-101717537D02*
X135811961Y-101812775D01*
X135811961Y-101812775D02*
X135716723Y-101860394D01*
X135716723Y-101860394D02*
X135526247Y-101908013D01*
X135526247Y-101908013D02*
X135383390Y-101908013D01*
X135383390Y-101908013D02*
X135192914Y-101860394D01*
X135192914Y-101860394D02*
X135097676Y-101812775D01*
X135097676Y-101812775D02*
X135002438Y-101717537D01*
X135002438Y-101717537D02*
X134954819Y-101574680D01*
X134954819Y-101574680D02*
X134954819Y-101479442D01*
X134954819Y-101479442D02*
X135002438Y-101336585D01*
X135002438Y-101336585D02*
X135050057Y-101288966D01*
X135050057Y-100908013D02*
X135002438Y-100860394D01*
X135002438Y-100860394D02*
X134954819Y-100765156D01*
X134954819Y-100765156D02*
X134954819Y-100527061D01*
X134954819Y-100527061D02*
X135002438Y-100431823D01*
X135002438Y-100431823D02*
X135050057Y-100384204D01*
X135050057Y-100384204D02*
X135145295Y-100336585D01*
X135145295Y-100336585D02*
X135240533Y-100336585D01*
X135240533Y-100336585D02*
X135383390Y-100384204D01*
X135383390Y-100384204D02*
X135954819Y-100955632D01*
X135954819Y-100955632D02*
X135954819Y-100336585D01*
D10*
X200738095Y-58457419D02*
X200738095Y-59266942D01*
X200738095Y-59266942D02*
X200785714Y-59362180D01*
X200785714Y-59362180D02*
X200833333Y-59409800D01*
X200833333Y-59409800D02*
X200928571Y-59457419D01*
X200928571Y-59457419D02*
X201119047Y-59457419D01*
X201119047Y-59457419D02*
X201214285Y-59409800D01*
X201214285Y-59409800D02*
X201261904Y-59362180D01*
X201261904Y-59362180D02*
X201309523Y-59266942D01*
X201309523Y-59266942D02*
X201309523Y-58457419D01*
X202214285Y-58790752D02*
X202214285Y-59457419D01*
X201976190Y-58409800D02*
X201738095Y-59124085D01*
X201738095Y-59124085D02*
X202357142Y-59124085D01*
D11*
X148038095Y-49397200D02*
X148180952Y-49444819D01*
X148180952Y-49444819D02*
X148419047Y-49444819D01*
X148419047Y-49444819D02*
X148514285Y-49397200D01*
X148514285Y-49397200D02*
X148561904Y-49349580D01*
X148561904Y-49349580D02*
X148609523Y-49254342D01*
X148609523Y-49254342D02*
X148609523Y-49159104D01*
X148609523Y-49159104D02*
X148561904Y-49063866D01*
X148561904Y-49063866D02*
X148514285Y-49016247D01*
X148514285Y-49016247D02*
X148419047Y-48968628D01*
X148419047Y-48968628D02*
X148228571Y-48921009D01*
X148228571Y-48921009D02*
X148133333Y-48873390D01*
X148133333Y-48873390D02*
X148085714Y-48825771D01*
X148085714Y-48825771D02*
X148038095Y-48730533D01*
X148038095Y-48730533D02*
X148038095Y-48635295D01*
X148038095Y-48635295D02*
X148085714Y-48540057D01*
X148085714Y-48540057D02*
X148133333Y-48492438D01*
X148133333Y-48492438D02*
X148228571Y-48444819D01*
X148228571Y-48444819D02*
X148466666Y-48444819D01*
X148466666Y-48444819D02*
X148609523Y-48492438D01*
X148942857Y-48444819D02*
X149561904Y-48444819D01*
X149561904Y-48444819D02*
X149228571Y-48825771D01*
X149228571Y-48825771D02*
X149371428Y-48825771D01*
X149371428Y-48825771D02*
X149466666Y-48873390D01*
X149466666Y-48873390D02*
X149514285Y-48921009D01*
X149514285Y-48921009D02*
X149561904Y-49016247D01*
X149561904Y-49016247D02*
X149561904Y-49254342D01*
X149561904Y-49254342D02*
X149514285Y-49349580D01*
X149514285Y-49349580D02*
X149466666Y-49397200D01*
X149466666Y-49397200D02*
X149371428Y-49444819D01*
X149371428Y-49444819D02*
X149085714Y-49444819D01*
X149085714Y-49444819D02*
X148990476Y-49397200D01*
X148990476Y-49397200D02*
X148942857Y-49349580D01*
X151986666Y-110184819D02*
X151986666Y-110899104D01*
X151986666Y-110899104D02*
X151939047Y-111041961D01*
X151939047Y-111041961D02*
X151843809Y-111137200D01*
X151843809Y-111137200D02*
X151700952Y-111184819D01*
X151700952Y-111184819D02*
X151605714Y-111184819D01*
X152367619Y-110184819D02*
X153034285Y-110184819D01*
X153034285Y-110184819D02*
X152605714Y-111184819D01*
X157833333Y-60359580D02*
X157785714Y-60407200D01*
X157785714Y-60407200D02*
X157642857Y-60454819D01*
X157642857Y-60454819D02*
X157547619Y-60454819D01*
X157547619Y-60454819D02*
X157404762Y-60407200D01*
X157404762Y-60407200D02*
X157309524Y-60311961D01*
X157309524Y-60311961D02*
X157261905Y-60216723D01*
X157261905Y-60216723D02*
X157214286Y-60026247D01*
X157214286Y-60026247D02*
X157214286Y-59883390D01*
X157214286Y-59883390D02*
X157261905Y-59692914D01*
X157261905Y-59692914D02*
X157309524Y-59597676D01*
X157309524Y-59597676D02*
X157404762Y-59502438D01*
X157404762Y-59502438D02*
X157547619Y-59454819D01*
X157547619Y-59454819D02*
X157642857Y-59454819D01*
X157642857Y-59454819D02*
X157785714Y-59502438D01*
X157785714Y-59502438D02*
X157833333Y-59550057D01*
X158690476Y-59788152D02*
X158690476Y-60454819D01*
X158452381Y-59407200D02*
X158214286Y-60121485D01*
X158214286Y-60121485D02*
X158833333Y-60121485D01*
X159045180Y-82357142D02*
X159521371Y-82023809D01*
X159045180Y-81785714D02*
X160045180Y-81785714D01*
X160045180Y-81785714D02*
X160045180Y-82166666D01*
X160045180Y-82166666D02*
X159997561Y-82261904D01*
X159997561Y-82261904D02*
X159949942Y-82309523D01*
X159949942Y-82309523D02*
X159854704Y-82357142D01*
X159854704Y-82357142D02*
X159711847Y-82357142D01*
X159711847Y-82357142D02*
X159616609Y-82309523D01*
X159616609Y-82309523D02*
X159568990Y-82261904D01*
X159568990Y-82261904D02*
X159521371Y-82166666D01*
X159521371Y-82166666D02*
X159521371Y-81785714D01*
X159045180Y-83309523D02*
X159045180Y-82738095D01*
X159045180Y-83023809D02*
X160045180Y-83023809D01*
X160045180Y-83023809D02*
X159902323Y-82928571D01*
X159902323Y-82928571D02*
X159807085Y-82833333D01*
X159807085Y-82833333D02*
X159759466Y-82738095D01*
X160045180Y-84166666D02*
X160045180Y-83976190D01*
X160045180Y-83976190D02*
X159997561Y-83880952D01*
X159997561Y-83880952D02*
X159949942Y-83833333D01*
X159949942Y-83833333D02*
X159807085Y-83738095D01*
X159807085Y-83738095D02*
X159616609Y-83690476D01*
X159616609Y-83690476D02*
X159235657Y-83690476D01*
X159235657Y-83690476D02*
X159140419Y-83738095D01*
X159140419Y-83738095D02*
X159092800Y-83785714D01*
X159092800Y-83785714D02*
X159045180Y-83880952D01*
X159045180Y-83880952D02*
X159045180Y-84071428D01*
X159045180Y-84071428D02*
X159092800Y-84166666D01*
X159092800Y-84166666D02*
X159140419Y-84214285D01*
X159140419Y-84214285D02*
X159235657Y-84261904D01*
X159235657Y-84261904D02*
X159473752Y-84261904D01*
X159473752Y-84261904D02*
X159568990Y-84214285D01*
X159568990Y-84214285D02*
X159616609Y-84166666D01*
X159616609Y-84166666D02*
X159664228Y-84071428D01*
X159664228Y-84071428D02*
X159664228Y-83880952D01*
X159664228Y-83880952D02*
X159616609Y-83785714D01*
X159616609Y-83785714D02*
X159568990Y-83738095D01*
X159568990Y-83738095D02*
X159473752Y-83690476D01*
X118888095Y-57204819D02*
X118888095Y-58014342D01*
X118888095Y-58014342D02*
X118935714Y-58109580D01*
X118935714Y-58109580D02*
X118983333Y-58157200D01*
X118983333Y-58157200D02*
X119078571Y-58204819D01*
X119078571Y-58204819D02*
X119269047Y-58204819D01*
X119269047Y-58204819D02*
X119364285Y-58157200D01*
X119364285Y-58157200D02*
X119411904Y-58109580D01*
X119411904Y-58109580D02*
X119459523Y-58014342D01*
X119459523Y-58014342D02*
X119459523Y-57204819D01*
X119888095Y-57300057D02*
X119935714Y-57252438D01*
X119935714Y-57252438D02*
X120030952Y-57204819D01*
X120030952Y-57204819D02*
X120269047Y-57204819D01*
X120269047Y-57204819D02*
X120364285Y-57252438D01*
X120364285Y-57252438D02*
X120411904Y-57300057D01*
X120411904Y-57300057D02*
X120459523Y-57395295D01*
X120459523Y-57395295D02*
X120459523Y-57490533D01*
X120459523Y-57490533D02*
X120411904Y-57633390D01*
X120411904Y-57633390D02*
X119840476Y-58204819D01*
X119840476Y-58204819D02*
X120459523Y-58204819D01*
X152833333Y-77359580D02*
X152785714Y-77407200D01*
X152785714Y-77407200D02*
X152642857Y-77454819D01*
X152642857Y-77454819D02*
X152547619Y-77454819D01*
X152547619Y-77454819D02*
X152404762Y-77407200D01*
X152404762Y-77407200D02*
X152309524Y-77311961D01*
X152309524Y-77311961D02*
X152261905Y-77216723D01*
X152261905Y-77216723D02*
X152214286Y-77026247D01*
X152214286Y-77026247D02*
X152214286Y-76883390D01*
X152214286Y-76883390D02*
X152261905Y-76692914D01*
X152261905Y-76692914D02*
X152309524Y-76597676D01*
X152309524Y-76597676D02*
X152404762Y-76502438D01*
X152404762Y-76502438D02*
X152547619Y-76454819D01*
X152547619Y-76454819D02*
X152642857Y-76454819D01*
X152642857Y-76454819D02*
X152785714Y-76502438D01*
X152785714Y-76502438D02*
X152833333Y-76550057D01*
X153404762Y-76883390D02*
X153309524Y-76835771D01*
X153309524Y-76835771D02*
X153261905Y-76788152D01*
X153261905Y-76788152D02*
X153214286Y-76692914D01*
X153214286Y-76692914D02*
X153214286Y-76645295D01*
X153214286Y-76645295D02*
X153261905Y-76550057D01*
X153261905Y-76550057D02*
X153309524Y-76502438D01*
X153309524Y-76502438D02*
X153404762Y-76454819D01*
X153404762Y-76454819D02*
X153595238Y-76454819D01*
X153595238Y-76454819D02*
X153690476Y-76502438D01*
X153690476Y-76502438D02*
X153738095Y-76550057D01*
X153738095Y-76550057D02*
X153785714Y-76645295D01*
X153785714Y-76645295D02*
X153785714Y-76692914D01*
X153785714Y-76692914D02*
X153738095Y-76788152D01*
X153738095Y-76788152D02*
X153690476Y-76835771D01*
X153690476Y-76835771D02*
X153595238Y-76883390D01*
X153595238Y-76883390D02*
X153404762Y-76883390D01*
X153404762Y-76883390D02*
X153309524Y-76931009D01*
X153309524Y-76931009D02*
X153261905Y-76978628D01*
X153261905Y-76978628D02*
X153214286Y-77073866D01*
X153214286Y-77073866D02*
X153214286Y-77264342D01*
X153214286Y-77264342D02*
X153261905Y-77359580D01*
X153261905Y-77359580D02*
X153309524Y-77407200D01*
X153309524Y-77407200D02*
X153404762Y-77454819D01*
X153404762Y-77454819D02*
X153595238Y-77454819D01*
X153595238Y-77454819D02*
X153690476Y-77407200D01*
X153690476Y-77407200D02*
X153738095Y-77359580D01*
X153738095Y-77359580D02*
X153785714Y-77264342D01*
X153785714Y-77264342D02*
X153785714Y-77073866D01*
X153785714Y-77073866D02*
X153738095Y-76978628D01*
X153738095Y-76978628D02*
X153690476Y-76931009D01*
X153690476Y-76931009D02*
X153595238Y-76883390D01*
D12*
X165716667Y-62860995D02*
X165383333Y-62860995D01*
X165383333Y-62860995D02*
X165383333Y-62060995D01*
X165950000Y-62441947D02*
X166183334Y-62441947D01*
X166283334Y-62860995D02*
X165950000Y-62860995D01*
X165950000Y-62860995D02*
X165950000Y-62060995D01*
X165950000Y-62060995D02*
X166283334Y-62060995D01*
X166583333Y-62860995D02*
X166583333Y-62060995D01*
X166583333Y-62060995D02*
X166750000Y-62060995D01*
X166750000Y-62060995D02*
X166850000Y-62099090D01*
X166850000Y-62099090D02*
X166916667Y-62175280D01*
X166916667Y-62175280D02*
X166950000Y-62251471D01*
X166950000Y-62251471D02*
X166983333Y-62403852D01*
X166983333Y-62403852D02*
X166983333Y-62518138D01*
X166983333Y-62518138D02*
X166950000Y-62670519D01*
X166950000Y-62670519D02*
X166916667Y-62746709D01*
X166916667Y-62746709D02*
X166850000Y-62822900D01*
X166850000Y-62822900D02*
X166750000Y-62860995D01*
X166750000Y-62860995D02*
X166583333Y-62860995D01*
X167250000Y-62137185D02*
X167283333Y-62099090D01*
X167283333Y-62099090D02*
X167350000Y-62060995D01*
X167350000Y-62060995D02*
X167516667Y-62060995D01*
X167516667Y-62060995D02*
X167583333Y-62099090D01*
X167583333Y-62099090D02*
X167616667Y-62137185D01*
X167616667Y-62137185D02*
X167650000Y-62213376D01*
X167650000Y-62213376D02*
X167650000Y-62289566D01*
X167650000Y-62289566D02*
X167616667Y-62403852D01*
X167616667Y-62403852D02*
X167216667Y-62860995D01*
X167216667Y-62860995D02*
X167650000Y-62860995D01*
D11*
X127833333Y-105954819D02*
X127500000Y-105478628D01*
X127261905Y-105954819D02*
X127261905Y-104954819D01*
X127261905Y-104954819D02*
X127642857Y-104954819D01*
X127642857Y-104954819D02*
X127738095Y-105002438D01*
X127738095Y-105002438D02*
X127785714Y-105050057D01*
X127785714Y-105050057D02*
X127833333Y-105145295D01*
X127833333Y-105145295D02*
X127833333Y-105288152D01*
X127833333Y-105288152D02*
X127785714Y-105383390D01*
X127785714Y-105383390D02*
X127738095Y-105431009D01*
X127738095Y-105431009D02*
X127642857Y-105478628D01*
X127642857Y-105478628D02*
X127261905Y-105478628D01*
X128785714Y-105954819D02*
X128214286Y-105954819D01*
X128500000Y-105954819D02*
X128500000Y-104954819D01*
X128500000Y-104954819D02*
X128404762Y-105097676D01*
X128404762Y-105097676D02*
X128309524Y-105192914D01*
X128309524Y-105192914D02*
X128214286Y-105240533D01*
X142238094Y-98154018D02*
X142238094Y-98963541D01*
X142238094Y-98963541D02*
X142285713Y-99058779D01*
X142285713Y-99058779D02*
X142333332Y-99106399D01*
X142333332Y-99106399D02*
X142428570Y-99154018D01*
X142428570Y-99154018D02*
X142619046Y-99154018D01*
X142619046Y-99154018D02*
X142714284Y-99106399D01*
X142714284Y-99106399D02*
X142761903Y-99058779D01*
X142761903Y-99058779D02*
X142809522Y-98963541D01*
X142809522Y-98963541D02*
X142809522Y-98154018D01*
X143761903Y-98154018D02*
X143285713Y-98154018D01*
X143285713Y-98154018D02*
X143238094Y-98630208D01*
X143238094Y-98630208D02*
X143285713Y-98582589D01*
X143285713Y-98582589D02*
X143380951Y-98534970D01*
X143380951Y-98534970D02*
X143619046Y-98534970D01*
X143619046Y-98534970D02*
X143714284Y-98582589D01*
X143714284Y-98582589D02*
X143761903Y-98630208D01*
X143761903Y-98630208D02*
X143809522Y-98725446D01*
X143809522Y-98725446D02*
X143809522Y-98963541D01*
X143809522Y-98963541D02*
X143761903Y-99058779D01*
X143761903Y-99058779D02*
X143714284Y-99106399D01*
X143714284Y-99106399D02*
X143619046Y-99154018D01*
X143619046Y-99154018D02*
X143380951Y-99154018D01*
X143380951Y-99154018D02*
X143285713Y-99106399D01*
X143285713Y-99106399D02*
X143238094Y-99058779D01*
X137587600Y-94573018D02*
X137587600Y-94811113D01*
X137349505Y-94715875D02*
X137587600Y-94811113D01*
X137587600Y-94811113D02*
X137825695Y-94715875D01*
X137444743Y-95001589D02*
X137587600Y-94811113D01*
X137587600Y-94811113D02*
X137730457Y-95001589D01*
X135859580Y-97166666D02*
X135907200Y-97214285D01*
X135907200Y-97214285D02*
X135954819Y-97357142D01*
X135954819Y-97357142D02*
X135954819Y-97452380D01*
X135954819Y-97452380D02*
X135907200Y-97595237D01*
X135907200Y-97595237D02*
X135811961Y-97690475D01*
X135811961Y-97690475D02*
X135716723Y-97738094D01*
X135716723Y-97738094D02*
X135526247Y-97785713D01*
X135526247Y-97785713D02*
X135383390Y-97785713D01*
X135383390Y-97785713D02*
X135192914Y-97738094D01*
X135192914Y-97738094D02*
X135097676Y-97690475D01*
X135097676Y-97690475D02*
X135002438Y-97595237D01*
X135002438Y-97595237D02*
X134954819Y-97452380D01*
X134954819Y-97452380D02*
X134954819Y-97357142D01*
X134954819Y-97357142D02*
X135002438Y-97214285D01*
X135002438Y-97214285D02*
X135050057Y-97166666D01*
X135954819Y-96214285D02*
X135954819Y-96785713D01*
X135954819Y-96499999D02*
X134954819Y-96499999D01*
X134954819Y-96499999D02*
X135097676Y-96595237D01*
X135097676Y-96595237D02*
X135192914Y-96690475D01*
X135192914Y-96690475D02*
X135240533Y-96785713D01*
X151359580Y-97166666D02*
X151407200Y-97214285D01*
X151407200Y-97214285D02*
X151454819Y-97357142D01*
X151454819Y-97357142D02*
X151454819Y-97452380D01*
X151454819Y-97452380D02*
X151407200Y-97595237D01*
X151407200Y-97595237D02*
X151311961Y-97690475D01*
X151311961Y-97690475D02*
X151216723Y-97738094D01*
X151216723Y-97738094D02*
X151026247Y-97785713D01*
X151026247Y-97785713D02*
X150883390Y-97785713D01*
X150883390Y-97785713D02*
X150692914Y-97738094D01*
X150692914Y-97738094D02*
X150597676Y-97690475D01*
X150597676Y-97690475D02*
X150502438Y-97595237D01*
X150502438Y-97595237D02*
X150454819Y-97452380D01*
X150454819Y-97452380D02*
X150454819Y-97357142D01*
X150454819Y-97357142D02*
X150502438Y-97214285D01*
X150502438Y-97214285D02*
X150550057Y-97166666D01*
X150454819Y-96833332D02*
X150454819Y-96166666D01*
X150454819Y-96166666D02*
X151454819Y-96595237D01*
X142859580Y-91166666D02*
X142907200Y-91214285D01*
X142907200Y-91214285D02*
X142954819Y-91357142D01*
X142954819Y-91357142D02*
X142954819Y-91452380D01*
X142954819Y-91452380D02*
X142907200Y-91595237D01*
X142907200Y-91595237D02*
X142811961Y-91690475D01*
X142811961Y-91690475D02*
X142716723Y-91738094D01*
X142716723Y-91738094D02*
X142526247Y-91785713D01*
X142526247Y-91785713D02*
X142383390Y-91785713D01*
X142383390Y-91785713D02*
X142192914Y-91738094D01*
X142192914Y-91738094D02*
X142097676Y-91690475D01*
X142097676Y-91690475D02*
X142002438Y-91595237D01*
X142002438Y-91595237D02*
X141954819Y-91452380D01*
X141954819Y-91452380D02*
X141954819Y-91357142D01*
X141954819Y-91357142D02*
X142002438Y-91214285D01*
X142002438Y-91214285D02*
X142050057Y-91166666D01*
X141954819Y-90309523D02*
X141954819Y-90499999D01*
X141954819Y-90499999D02*
X142002438Y-90595237D01*
X142002438Y-90595237D02*
X142050057Y-90642856D01*
X142050057Y-90642856D02*
X142192914Y-90738094D01*
X142192914Y-90738094D02*
X142383390Y-90785713D01*
X142383390Y-90785713D02*
X142764342Y-90785713D01*
X142764342Y-90785713D02*
X142859580Y-90738094D01*
X142859580Y-90738094D02*
X142907200Y-90690475D01*
X142907200Y-90690475D02*
X142954819Y-90595237D01*
X142954819Y-90595237D02*
X142954819Y-90404761D01*
X142954819Y-90404761D02*
X142907200Y-90309523D01*
X142907200Y-90309523D02*
X142859580Y-90261904D01*
X142859580Y-90261904D02*
X142764342Y-90214285D01*
X142764342Y-90214285D02*
X142526247Y-90214285D01*
X142526247Y-90214285D02*
X142431009Y-90261904D01*
X142431009Y-90261904D02*
X142383390Y-90309523D01*
X142383390Y-90309523D02*
X142335771Y-90404761D01*
X142335771Y-90404761D02*
X142335771Y-90595237D01*
X142335771Y-90595237D02*
X142383390Y-90690475D01*
X142383390Y-90690475D02*
X142431009Y-90738094D01*
X142431009Y-90738094D02*
X142526247Y-90785713D01*
D12*
X166216667Y-73360995D02*
X165883333Y-73360995D01*
X165883333Y-73360995D02*
X165883333Y-72560995D01*
X166450000Y-72941947D02*
X166683334Y-72941947D01*
X166783334Y-73360995D02*
X166450000Y-73360995D01*
X166450000Y-73360995D02*
X166450000Y-72560995D01*
X166450000Y-72560995D02*
X166783334Y-72560995D01*
X167083333Y-73360995D02*
X167083333Y-72560995D01*
X167083333Y-72560995D02*
X167250000Y-72560995D01*
X167250000Y-72560995D02*
X167350000Y-72599090D01*
X167350000Y-72599090D02*
X167416667Y-72675280D01*
X167416667Y-72675280D02*
X167450000Y-72751471D01*
X167450000Y-72751471D02*
X167483333Y-72903852D01*
X167483333Y-72903852D02*
X167483333Y-73018138D01*
X167483333Y-73018138D02*
X167450000Y-73170519D01*
X167450000Y-73170519D02*
X167416667Y-73246709D01*
X167416667Y-73246709D02*
X167350000Y-73322900D01*
X167350000Y-73322900D02*
X167250000Y-73360995D01*
X167250000Y-73360995D02*
X167083333Y-73360995D01*
X167716667Y-72560995D02*
X168150000Y-72560995D01*
X168150000Y-72560995D02*
X167916667Y-72865757D01*
X167916667Y-72865757D02*
X168016667Y-72865757D01*
X168016667Y-72865757D02*
X168083333Y-72903852D01*
X168083333Y-72903852D02*
X168116667Y-72941947D01*
X168116667Y-72941947D02*
X168150000Y-73018138D01*
X168150000Y-73018138D02*
X168150000Y-73208614D01*
X168150000Y-73208614D02*
X168116667Y-73284804D01*
X168116667Y-73284804D02*
X168083333Y-73322900D01*
X168083333Y-73322900D02*
X168016667Y-73360995D01*
X168016667Y-73360995D02*
X167816667Y-73360995D01*
X167816667Y-73360995D02*
X167750000Y-73322900D01*
X167750000Y-73322900D02*
X167716667Y-73284804D01*
D11*
X203070571Y-54155895D02*
X202857237Y-53774942D01*
X202704856Y-54155895D02*
X202704856Y-53355895D01*
X202704856Y-53355895D02*
X202948666Y-53355895D01*
X202948666Y-53355895D02*
X203009618Y-53393990D01*
X203009618Y-53393990D02*
X203040095Y-53432085D01*
X203040095Y-53432085D02*
X203070571Y-53508276D01*
X203070571Y-53508276D02*
X203070571Y-53622561D01*
X203070571Y-53622561D02*
X203040095Y-53698752D01*
X203040095Y-53698752D02*
X203009618Y-53736847D01*
X203009618Y-53736847D02*
X202948666Y-53774942D01*
X202948666Y-53774942D02*
X202704856Y-53774942D01*
X203680095Y-54155895D02*
X203314380Y-54155895D01*
X203497237Y-54155895D02*
X203497237Y-53355895D01*
X203497237Y-53355895D02*
X203436285Y-53470180D01*
X203436285Y-53470180D02*
X203375333Y-53546371D01*
X203375333Y-53546371D02*
X203314380Y-53584466D01*
X203923904Y-53432085D02*
X203954380Y-53393990D01*
X203954380Y-53393990D02*
X204015333Y-53355895D01*
X204015333Y-53355895D02*
X204167714Y-53355895D01*
X204167714Y-53355895D02*
X204228666Y-53393990D01*
X204228666Y-53393990D02*
X204259142Y-53432085D01*
X204259142Y-53432085D02*
X204289619Y-53508276D01*
X204289619Y-53508276D02*
X204289619Y-53584466D01*
X204289619Y-53584466D02*
X204259142Y-53698752D01*
X204259142Y-53698752D02*
X203893428Y-54155895D01*
X203893428Y-54155895D02*
X204289619Y-54155895D01*
X130633333Y-75209580D02*
X130585714Y-75257200D01*
X130585714Y-75257200D02*
X130442857Y-75304819D01*
X130442857Y-75304819D02*
X130347619Y-75304819D01*
X130347619Y-75304819D02*
X130204762Y-75257200D01*
X130204762Y-75257200D02*
X130109524Y-75161961D01*
X130109524Y-75161961D02*
X130061905Y-75066723D01*
X130061905Y-75066723D02*
X130014286Y-74876247D01*
X130014286Y-74876247D02*
X130014286Y-74733390D01*
X130014286Y-74733390D02*
X130061905Y-74542914D01*
X130061905Y-74542914D02*
X130109524Y-74447676D01*
X130109524Y-74447676D02*
X130204762Y-74352438D01*
X130204762Y-74352438D02*
X130347619Y-74304819D01*
X130347619Y-74304819D02*
X130442857Y-74304819D01*
X130442857Y-74304819D02*
X130585714Y-74352438D01*
X130585714Y-74352438D02*
X130633333Y-74400057D01*
X131061905Y-75304819D02*
X131061905Y-74304819D01*
X131061905Y-74304819D02*
X131442857Y-74304819D01*
X131442857Y-74304819D02*
X131538095Y-74352438D01*
X131538095Y-74352438D02*
X131585714Y-74400057D01*
X131585714Y-74400057D02*
X131633333Y-74495295D01*
X131633333Y-74495295D02*
X131633333Y-74638152D01*
X131633333Y-74638152D02*
X131585714Y-74733390D01*
X131585714Y-74733390D02*
X131538095Y-74781009D01*
X131538095Y-74781009D02*
X131442857Y-74828628D01*
X131442857Y-74828628D02*
X131061905Y-74828628D01*
X132014286Y-74400057D02*
X132061905Y-74352438D01*
X132061905Y-74352438D02*
X132157143Y-74304819D01*
X132157143Y-74304819D02*
X132395238Y-74304819D01*
X132395238Y-74304819D02*
X132490476Y-74352438D01*
X132490476Y-74352438D02*
X132538095Y-74400057D01*
X132538095Y-74400057D02*
X132585714Y-74495295D01*
X132585714Y-74495295D02*
X132585714Y-74590533D01*
X132585714Y-74590533D02*
X132538095Y-74733390D01*
X132538095Y-74733390D02*
X131966667Y-75304819D01*
X131966667Y-75304819D02*
X132585714Y-75304819D01*
X118888095Y-73204819D02*
X118888095Y-74014342D01*
X118888095Y-74014342D02*
X118935714Y-74109580D01*
X118935714Y-74109580D02*
X118983333Y-74157200D01*
X118983333Y-74157200D02*
X119078571Y-74204819D01*
X119078571Y-74204819D02*
X119269047Y-74204819D01*
X119269047Y-74204819D02*
X119364285Y-74157200D01*
X119364285Y-74157200D02*
X119411904Y-74109580D01*
X119411904Y-74109580D02*
X119459523Y-74014342D01*
X119459523Y-74014342D02*
X119459523Y-73204819D01*
X119840476Y-73204819D02*
X120459523Y-73204819D01*
X120459523Y-73204819D02*
X120126190Y-73585771D01*
X120126190Y-73585771D02*
X120269047Y-73585771D01*
X120269047Y-73585771D02*
X120364285Y-73633390D01*
X120364285Y-73633390D02*
X120411904Y-73681009D01*
X120411904Y-73681009D02*
X120459523Y-73776247D01*
X120459523Y-73776247D02*
X120459523Y-74014342D01*
X120459523Y-74014342D02*
X120411904Y-74109580D01*
X120411904Y-74109580D02*
X120364285Y-74157200D01*
X120364285Y-74157200D02*
X120269047Y-74204819D01*
X120269047Y-74204819D02*
X119983333Y-74204819D01*
X119983333Y-74204819D02*
X119888095Y-74157200D01*
X119888095Y-74157200D02*
X119840476Y-74109580D01*
X112641666Y-48669819D02*
X112641666Y-49384104D01*
X112641666Y-49384104D02*
X112594047Y-49526961D01*
X112594047Y-49526961D02*
X112498809Y-49622200D01*
X112498809Y-49622200D02*
X112355952Y-49669819D01*
X112355952Y-49669819D02*
X112260714Y-49669819D01*
X113641666Y-49669819D02*
X113070238Y-49669819D01*
X113355952Y-49669819D02*
X113355952Y-48669819D01*
X113355952Y-48669819D02*
X113260714Y-48812676D01*
X113260714Y-48812676D02*
X113165476Y-48907914D01*
X113165476Y-48907914D02*
X113070238Y-48955533D01*
X124333333Y-105954819D02*
X124000000Y-105478628D01*
X123761905Y-105954819D02*
X123761905Y-104954819D01*
X123761905Y-104954819D02*
X124142857Y-104954819D01*
X124142857Y-104954819D02*
X124238095Y-105002438D01*
X124238095Y-105002438D02*
X124285714Y-105050057D01*
X124285714Y-105050057D02*
X124333333Y-105145295D01*
X124333333Y-105145295D02*
X124333333Y-105288152D01*
X124333333Y-105288152D02*
X124285714Y-105383390D01*
X124285714Y-105383390D02*
X124238095Y-105431009D01*
X124238095Y-105431009D02*
X124142857Y-105478628D01*
X124142857Y-105478628D02*
X123761905Y-105478628D01*
X124809524Y-105954819D02*
X125000000Y-105954819D01*
X125000000Y-105954819D02*
X125095238Y-105907200D01*
X125095238Y-105907200D02*
X125142857Y-105859580D01*
X125142857Y-105859580D02*
X125238095Y-105716723D01*
X125238095Y-105716723D02*
X125285714Y-105526247D01*
X125285714Y-105526247D02*
X125285714Y-105145295D01*
X125285714Y-105145295D02*
X125238095Y-105050057D01*
X125238095Y-105050057D02*
X125190476Y-105002438D01*
X125190476Y-105002438D02*
X125095238Y-104954819D01*
X125095238Y-104954819D02*
X124904762Y-104954819D01*
X124904762Y-104954819D02*
X124809524Y-105002438D01*
X124809524Y-105002438D02*
X124761905Y-105050057D01*
X124761905Y-105050057D02*
X124714286Y-105145295D01*
X124714286Y-105145295D02*
X124714286Y-105383390D01*
X124714286Y-105383390D02*
X124761905Y-105478628D01*
X124761905Y-105478628D02*
X124809524Y-105526247D01*
X124809524Y-105526247D02*
X124904762Y-105573866D01*
X124904762Y-105573866D02*
X125095238Y-105573866D01*
X125095238Y-105573866D02*
X125190476Y-105526247D01*
X125190476Y-105526247D02*
X125238095Y-105478628D01*
X125238095Y-105478628D02*
X125285714Y-105383390D01*
X142883333Y-75954819D02*
X142407143Y-75954819D01*
X142407143Y-75954819D02*
X142407143Y-74954819D01*
X143169048Y-75050057D02*
X143216667Y-75002438D01*
X143216667Y-75002438D02*
X143311905Y-74954819D01*
X143311905Y-74954819D02*
X143550000Y-74954819D01*
X143550000Y-74954819D02*
X143645238Y-75002438D01*
X143645238Y-75002438D02*
X143692857Y-75050057D01*
X143692857Y-75050057D02*
X143740476Y-75145295D01*
X143740476Y-75145295D02*
X143740476Y-75240533D01*
X143740476Y-75240533D02*
X143692857Y-75383390D01*
X143692857Y-75383390D02*
X143121429Y-75954819D01*
X143121429Y-75954819D02*
X143740476Y-75954819D01*
X107716666Y-110954819D02*
X107716666Y-111669104D01*
X107716666Y-111669104D02*
X107669047Y-111811961D01*
X107669047Y-111811961D02*
X107573809Y-111907200D01*
X107573809Y-111907200D02*
X107430952Y-111954819D01*
X107430952Y-111954819D02*
X107335714Y-111954819D01*
X108097619Y-110954819D02*
X108716666Y-110954819D01*
X108716666Y-110954819D02*
X108383333Y-111335771D01*
X108383333Y-111335771D02*
X108526190Y-111335771D01*
X108526190Y-111335771D02*
X108621428Y-111383390D01*
X108621428Y-111383390D02*
X108669047Y-111431009D01*
X108669047Y-111431009D02*
X108716666Y-111526247D01*
X108716666Y-111526247D02*
X108716666Y-111764342D01*
X108716666Y-111764342D02*
X108669047Y-111859580D01*
X108669047Y-111859580D02*
X108621428Y-111907200D01*
X108621428Y-111907200D02*
X108526190Y-111954819D01*
X108526190Y-111954819D02*
X108240476Y-111954819D01*
X108240476Y-111954819D02*
X108145238Y-111907200D01*
X108145238Y-111907200D02*
X108097619Y-111859580D01*
X136536666Y-110705519D02*
X136536666Y-111419804D01*
X136536666Y-111419804D02*
X136489047Y-111562661D01*
X136489047Y-111562661D02*
X136393809Y-111657900D01*
X136393809Y-111657900D02*
X136250952Y-111705519D01*
X136250952Y-111705519D02*
X136155714Y-111705519D01*
X137489047Y-110705519D02*
X137012857Y-110705519D01*
X137012857Y-110705519D02*
X136965238Y-111181709D01*
X136965238Y-111181709D02*
X137012857Y-111134090D01*
X137012857Y-111134090D02*
X137108095Y-111086471D01*
X137108095Y-111086471D02*
X137346190Y-111086471D01*
X137346190Y-111086471D02*
X137441428Y-111134090D01*
X137441428Y-111134090D02*
X137489047Y-111181709D01*
X137489047Y-111181709D02*
X137536666Y-111276947D01*
X137536666Y-111276947D02*
X137536666Y-111515042D01*
X137536666Y-111515042D02*
X137489047Y-111610280D01*
X137489047Y-111610280D02*
X137441428Y-111657900D01*
X137441428Y-111657900D02*
X137346190Y-111705519D01*
X137346190Y-111705519D02*
X137108095Y-111705519D01*
X137108095Y-111705519D02*
X137012857Y-111657900D01*
X137012857Y-111657900D02*
X136965238Y-111610280D01*
X204166666Y-106454819D02*
X204166666Y-107169104D01*
X204166666Y-107169104D02*
X204119047Y-107311961D01*
X204119047Y-107311961D02*
X204023809Y-107407200D01*
X204023809Y-107407200D02*
X203880952Y-107454819D01*
X203880952Y-107454819D02*
X203785714Y-107454819D01*
X204785714Y-106883390D02*
X204690476Y-106835771D01*
X204690476Y-106835771D02*
X204642857Y-106788152D01*
X204642857Y-106788152D02*
X204595238Y-106692914D01*
X204595238Y-106692914D02*
X204595238Y-106645295D01*
X204595238Y-106645295D02*
X204642857Y-106550057D01*
X204642857Y-106550057D02*
X204690476Y-106502438D01*
X204690476Y-106502438D02*
X204785714Y-106454819D01*
X204785714Y-106454819D02*
X204976190Y-106454819D01*
X204976190Y-106454819D02*
X205071428Y-106502438D01*
X205071428Y-106502438D02*
X205119047Y-106550057D01*
X205119047Y-106550057D02*
X205166666Y-106645295D01*
X205166666Y-106645295D02*
X205166666Y-106692914D01*
X205166666Y-106692914D02*
X205119047Y-106788152D01*
X205119047Y-106788152D02*
X205071428Y-106835771D01*
X205071428Y-106835771D02*
X204976190Y-106883390D01*
X204976190Y-106883390D02*
X204785714Y-106883390D01*
X204785714Y-106883390D02*
X204690476Y-106931009D01*
X204690476Y-106931009D02*
X204642857Y-106978628D01*
X204642857Y-106978628D02*
X204595238Y-107073866D01*
X204595238Y-107073866D02*
X204595238Y-107264342D01*
X204595238Y-107264342D02*
X204642857Y-107359580D01*
X204642857Y-107359580D02*
X204690476Y-107407200D01*
X204690476Y-107407200D02*
X204785714Y-107454819D01*
X204785714Y-107454819D02*
X204976190Y-107454819D01*
X204976190Y-107454819D02*
X205071428Y-107407200D01*
X205071428Y-107407200D02*
X205119047Y-107359580D01*
X205119047Y-107359580D02*
X205166666Y-107264342D01*
X205166666Y-107264342D02*
X205166666Y-107073866D01*
X205166666Y-107073866D02*
X205119047Y-106978628D01*
X205119047Y-106978628D02*
X205071428Y-106931009D01*
X205071428Y-106931009D02*
X204976190Y-106883390D01*
X168133333Y-48869580D02*
X168085714Y-48917200D01*
X168085714Y-48917200D02*
X167942857Y-48964819D01*
X167942857Y-48964819D02*
X167847619Y-48964819D01*
X167847619Y-48964819D02*
X167704762Y-48917200D01*
X167704762Y-48917200D02*
X167609524Y-48821961D01*
X167609524Y-48821961D02*
X167561905Y-48726723D01*
X167561905Y-48726723D02*
X167514286Y-48536247D01*
X167514286Y-48536247D02*
X167514286Y-48393390D01*
X167514286Y-48393390D02*
X167561905Y-48202914D01*
X167561905Y-48202914D02*
X167609524Y-48107676D01*
X167609524Y-48107676D02*
X167704762Y-48012438D01*
X167704762Y-48012438D02*
X167847619Y-47964819D01*
X167847619Y-47964819D02*
X167942857Y-47964819D01*
X167942857Y-47964819D02*
X168085714Y-48012438D01*
X168085714Y-48012438D02*
X168133333Y-48060057D01*
X168561905Y-48964819D02*
X168561905Y-47964819D01*
X168561905Y-47964819D02*
X168942857Y-47964819D01*
X168942857Y-47964819D02*
X169038095Y-48012438D01*
X169038095Y-48012438D02*
X169085714Y-48060057D01*
X169085714Y-48060057D02*
X169133333Y-48155295D01*
X169133333Y-48155295D02*
X169133333Y-48298152D01*
X169133333Y-48298152D02*
X169085714Y-48393390D01*
X169085714Y-48393390D02*
X169038095Y-48441009D01*
X169038095Y-48441009D02*
X168942857Y-48488628D01*
X168942857Y-48488628D02*
X168561905Y-48488628D01*
X169990476Y-47964819D02*
X169800000Y-47964819D01*
X169800000Y-47964819D02*
X169704762Y-48012438D01*
X169704762Y-48012438D02*
X169657143Y-48060057D01*
X169657143Y-48060057D02*
X169561905Y-48202914D01*
X169561905Y-48202914D02*
X169514286Y-48393390D01*
X169514286Y-48393390D02*
X169514286Y-48774342D01*
X169514286Y-48774342D02*
X169561905Y-48869580D01*
X169561905Y-48869580D02*
X169609524Y-48917200D01*
X169609524Y-48917200D02*
X169704762Y-48964819D01*
X169704762Y-48964819D02*
X169895238Y-48964819D01*
X169895238Y-48964819D02*
X169990476Y-48917200D01*
X169990476Y-48917200D02*
X170038095Y-48869580D01*
X170038095Y-48869580D02*
X170085714Y-48774342D01*
X170085714Y-48774342D02*
X170085714Y-48536247D01*
X170085714Y-48536247D02*
X170038095Y-48441009D01*
X170038095Y-48441009D02*
X169990476Y-48393390D01*
X169990476Y-48393390D02*
X169895238Y-48345771D01*
X169895238Y-48345771D02*
X169704762Y-48345771D01*
X169704762Y-48345771D02*
X169609524Y-48393390D01*
X169609524Y-48393390D02*
X169561905Y-48441009D01*
X169561905Y-48441009D02*
X169514286Y-48536247D01*
X115783333Y-88859580D02*
X115735714Y-88907200D01*
X115735714Y-88907200D02*
X115592857Y-88954819D01*
X115592857Y-88954819D02*
X115497619Y-88954819D01*
X115497619Y-88954819D02*
X115354762Y-88907200D01*
X115354762Y-88907200D02*
X115259524Y-88811961D01*
X115259524Y-88811961D02*
X115211905Y-88716723D01*
X115211905Y-88716723D02*
X115164286Y-88526247D01*
X115164286Y-88526247D02*
X115164286Y-88383390D01*
X115164286Y-88383390D02*
X115211905Y-88192914D01*
X115211905Y-88192914D02*
X115259524Y-88097676D01*
X115259524Y-88097676D02*
X115354762Y-88002438D01*
X115354762Y-88002438D02*
X115497619Y-87954819D01*
X115497619Y-87954819D02*
X115592857Y-87954819D01*
X115592857Y-87954819D02*
X115735714Y-88002438D01*
X115735714Y-88002438D02*
X115783333Y-88050057D01*
X116211905Y-88954819D02*
X116211905Y-87954819D01*
X116211905Y-87954819D02*
X116592857Y-87954819D01*
X116592857Y-87954819D02*
X116688095Y-88002438D01*
X116688095Y-88002438D02*
X116735714Y-88050057D01*
X116735714Y-88050057D02*
X116783333Y-88145295D01*
X116783333Y-88145295D02*
X116783333Y-88288152D01*
X116783333Y-88288152D02*
X116735714Y-88383390D01*
X116735714Y-88383390D02*
X116688095Y-88431009D01*
X116688095Y-88431009D02*
X116592857Y-88478628D01*
X116592857Y-88478628D02*
X116211905Y-88478628D01*
X117640476Y-88288152D02*
X117640476Y-88954819D01*
X117402381Y-87907200D02*
X117164286Y-88621485D01*
X117164286Y-88621485D02*
X117783333Y-88621485D01*
X136641905Y-67734819D02*
X136641905Y-66734819D01*
X136641905Y-66734819D02*
X136880000Y-66734819D01*
X136880000Y-66734819D02*
X137022857Y-66782438D01*
X137022857Y-66782438D02*
X137118095Y-66877676D01*
X137118095Y-66877676D02*
X137165714Y-66972914D01*
X137165714Y-66972914D02*
X137213333Y-67163390D01*
X137213333Y-67163390D02*
X137213333Y-67306247D01*
X137213333Y-67306247D02*
X137165714Y-67496723D01*
X137165714Y-67496723D02*
X137118095Y-67591961D01*
X137118095Y-67591961D02*
X137022857Y-67687200D01*
X137022857Y-67687200D02*
X136880000Y-67734819D01*
X136880000Y-67734819D02*
X136641905Y-67734819D01*
X138165714Y-67734819D02*
X137594286Y-67734819D01*
X137880000Y-67734819D02*
X137880000Y-66734819D01*
X137880000Y-66734819D02*
X137784762Y-66877676D01*
X137784762Y-66877676D02*
X137689524Y-66972914D01*
X137689524Y-66972914D02*
X137594286Y-67020533D01*
X129498095Y-68854819D02*
X129498095Y-67854819D01*
X130069523Y-68854819D02*
X129640952Y-68283390D01*
X130069523Y-67854819D02*
X129498095Y-68426247D01*
X168833333Y-100859580D02*
X168785714Y-100907200D01*
X168785714Y-100907200D02*
X168642857Y-100954819D01*
X168642857Y-100954819D02*
X168547619Y-100954819D01*
X168547619Y-100954819D02*
X168404762Y-100907200D01*
X168404762Y-100907200D02*
X168309524Y-100811961D01*
X168309524Y-100811961D02*
X168261905Y-100716723D01*
X168261905Y-100716723D02*
X168214286Y-100526247D01*
X168214286Y-100526247D02*
X168214286Y-100383390D01*
X168214286Y-100383390D02*
X168261905Y-100192914D01*
X168261905Y-100192914D02*
X168309524Y-100097676D01*
X168309524Y-100097676D02*
X168404762Y-100002438D01*
X168404762Y-100002438D02*
X168547619Y-99954819D01*
X168547619Y-99954819D02*
X168642857Y-99954819D01*
X168642857Y-99954819D02*
X168785714Y-100002438D01*
X168785714Y-100002438D02*
X168833333Y-100050057D01*
X169738095Y-99954819D02*
X169261905Y-99954819D01*
X169261905Y-99954819D02*
X169214286Y-100431009D01*
X169214286Y-100431009D02*
X169261905Y-100383390D01*
X169261905Y-100383390D02*
X169357143Y-100335771D01*
X169357143Y-100335771D02*
X169595238Y-100335771D01*
X169595238Y-100335771D02*
X169690476Y-100383390D01*
X169690476Y-100383390D02*
X169738095Y-100431009D01*
X169738095Y-100431009D02*
X169785714Y-100526247D01*
X169785714Y-100526247D02*
X169785714Y-100764342D01*
X169785714Y-100764342D02*
X169738095Y-100859580D01*
X169738095Y-100859580D02*
X169690476Y-100907200D01*
X169690476Y-100907200D02*
X169595238Y-100954819D01*
X169595238Y-100954819D02*
X169357143Y-100954819D01*
X169357143Y-100954819D02*
X169261905Y-100907200D01*
X169261905Y-100907200D02*
X169214286Y-100859580D01*
X166258340Y-67954819D02*
X165925007Y-67478628D01*
X165686912Y-67954819D02*
X165686912Y-66954819D01*
X165686912Y-66954819D02*
X166067864Y-66954819D01*
X166067864Y-66954819D02*
X166163102Y-67002438D01*
X166163102Y-67002438D02*
X166210721Y-67050057D01*
X166210721Y-67050057D02*
X166258340Y-67145295D01*
X166258340Y-67145295D02*
X166258340Y-67288152D01*
X166258340Y-67288152D02*
X166210721Y-67383390D01*
X166210721Y-67383390D02*
X166163102Y-67431009D01*
X166163102Y-67431009D02*
X166067864Y-67478628D01*
X166067864Y-67478628D02*
X165686912Y-67478628D01*
X167210721Y-67954819D02*
X166639293Y-67954819D01*
X166925007Y-67954819D02*
X166925007Y-66954819D01*
X166925007Y-66954819D02*
X166829769Y-67097676D01*
X166829769Y-67097676D02*
X166734531Y-67192914D01*
X166734531Y-67192914D02*
X166639293Y-67240533D01*
X167544055Y-66954819D02*
X168163102Y-66954819D01*
X168163102Y-66954819D02*
X167829769Y-67335771D01*
X167829769Y-67335771D02*
X167972626Y-67335771D01*
X167972626Y-67335771D02*
X168067864Y-67383390D01*
X168067864Y-67383390D02*
X168115483Y-67431009D01*
X168115483Y-67431009D02*
X168163102Y-67526247D01*
X168163102Y-67526247D02*
X168163102Y-67764342D01*
X168163102Y-67764342D02*
X168115483Y-67859580D01*
X168115483Y-67859580D02*
X168067864Y-67907200D01*
X168067864Y-67907200D02*
X167972626Y-67954819D01*
X167972626Y-67954819D02*
X167686912Y-67954819D01*
X167686912Y-67954819D02*
X167591674Y-67907200D01*
X167591674Y-67907200D02*
X167544055Y-67859580D01*
X162238095Y-103907200D02*
X162380952Y-103954819D01*
X162380952Y-103954819D02*
X162619047Y-103954819D01*
X162619047Y-103954819D02*
X162714285Y-103907200D01*
X162714285Y-103907200D02*
X162761904Y-103859580D01*
X162761904Y-103859580D02*
X162809523Y-103764342D01*
X162809523Y-103764342D02*
X162809523Y-103669104D01*
X162809523Y-103669104D02*
X162761904Y-103573866D01*
X162761904Y-103573866D02*
X162714285Y-103526247D01*
X162714285Y-103526247D02*
X162619047Y-103478628D01*
X162619047Y-103478628D02*
X162428571Y-103431009D01*
X162428571Y-103431009D02*
X162333333Y-103383390D01*
X162333333Y-103383390D02*
X162285714Y-103335771D01*
X162285714Y-103335771D02*
X162238095Y-103240533D01*
X162238095Y-103240533D02*
X162238095Y-103145295D01*
X162238095Y-103145295D02*
X162285714Y-103050057D01*
X162285714Y-103050057D02*
X162333333Y-103002438D01*
X162333333Y-103002438D02*
X162428571Y-102954819D01*
X162428571Y-102954819D02*
X162666666Y-102954819D01*
X162666666Y-102954819D02*
X162809523Y-103002438D01*
X163190476Y-103050057D02*
X163238095Y-103002438D01*
X163238095Y-103002438D02*
X163333333Y-102954819D01*
X163333333Y-102954819D02*
X163571428Y-102954819D01*
X163571428Y-102954819D02*
X163666666Y-103002438D01*
X163666666Y-103002438D02*
X163714285Y-103050057D01*
X163714285Y-103050057D02*
X163761904Y-103145295D01*
X163761904Y-103145295D02*
X163761904Y-103240533D01*
X163761904Y-103240533D02*
X163714285Y-103383390D01*
X163714285Y-103383390D02*
X163142857Y-103954819D01*
X163142857Y-103954819D02*
X163761904Y-103954819D01*
X138857142Y-105954819D02*
X138523809Y-105478628D01*
X138285714Y-105954819D02*
X138285714Y-104954819D01*
X138285714Y-104954819D02*
X138666666Y-104954819D01*
X138666666Y-104954819D02*
X138761904Y-105002438D01*
X138761904Y-105002438D02*
X138809523Y-105050057D01*
X138809523Y-105050057D02*
X138857142Y-105145295D01*
X138857142Y-105145295D02*
X138857142Y-105288152D01*
X138857142Y-105288152D02*
X138809523Y-105383390D01*
X138809523Y-105383390D02*
X138761904Y-105431009D01*
X138761904Y-105431009D02*
X138666666Y-105478628D01*
X138666666Y-105478628D02*
X138285714Y-105478628D01*
X139809523Y-105954819D02*
X139238095Y-105954819D01*
X139523809Y-105954819D02*
X139523809Y-104954819D01*
X139523809Y-104954819D02*
X139428571Y-105097676D01*
X139428571Y-105097676D02*
X139333333Y-105192914D01*
X139333333Y-105192914D02*
X139238095Y-105240533D01*
X140428571Y-104954819D02*
X140523809Y-104954819D01*
X140523809Y-104954819D02*
X140619047Y-105002438D01*
X140619047Y-105002438D02*
X140666666Y-105050057D01*
X140666666Y-105050057D02*
X140714285Y-105145295D01*
X140714285Y-105145295D02*
X140761904Y-105335771D01*
X140761904Y-105335771D02*
X140761904Y-105573866D01*
X140761904Y-105573866D02*
X140714285Y-105764342D01*
X140714285Y-105764342D02*
X140666666Y-105859580D01*
X140666666Y-105859580D02*
X140619047Y-105907200D01*
X140619047Y-105907200D02*
X140523809Y-105954819D01*
X140523809Y-105954819D02*
X140428571Y-105954819D01*
X140428571Y-105954819D02*
X140333333Y-105907200D01*
X140333333Y-105907200D02*
X140285714Y-105859580D01*
X140285714Y-105859580D02*
X140238095Y-105764342D01*
X140238095Y-105764342D02*
X140190476Y-105573866D01*
X140190476Y-105573866D02*
X140190476Y-105335771D01*
X140190476Y-105335771D02*
X140238095Y-105145295D01*
X140238095Y-105145295D02*
X140285714Y-105050057D01*
X140285714Y-105050057D02*
X140333333Y-105002438D01*
X140333333Y-105002438D02*
X140428571Y-104954819D01*
X136954819Y-91666666D02*
X136478628Y-91999999D01*
X136954819Y-92238094D02*
X135954819Y-92238094D01*
X135954819Y-92238094D02*
X135954819Y-91857142D01*
X135954819Y-91857142D02*
X136002438Y-91761904D01*
X136002438Y-91761904D02*
X136050057Y-91714285D01*
X136050057Y-91714285D02*
X136145295Y-91666666D01*
X136145295Y-91666666D02*
X136288152Y-91666666D01*
X136288152Y-91666666D02*
X136383390Y-91714285D01*
X136383390Y-91714285D02*
X136431009Y-91761904D01*
X136431009Y-91761904D02*
X136478628Y-91857142D01*
X136478628Y-91857142D02*
X136478628Y-92238094D01*
X135954819Y-91333332D02*
X135954819Y-90666666D01*
X135954819Y-90666666D02*
X136954819Y-91095237D01*
X151655895Y-103754428D02*
X151274942Y-103967762D01*
X151655895Y-104120143D02*
X150855895Y-104120143D01*
X150855895Y-104120143D02*
X150855895Y-103876333D01*
X150855895Y-103876333D02*
X150893990Y-103815381D01*
X150893990Y-103815381D02*
X150932085Y-103784904D01*
X150932085Y-103784904D02*
X151008276Y-103754428D01*
X151008276Y-103754428D02*
X151122561Y-103754428D01*
X151122561Y-103754428D02*
X151198752Y-103784904D01*
X151198752Y-103784904D02*
X151236847Y-103815381D01*
X151236847Y-103815381D02*
X151274942Y-103876333D01*
X151274942Y-103876333D02*
X151274942Y-104120143D01*
X151655895Y-103144904D02*
X151655895Y-103510619D01*
X151655895Y-103327762D02*
X150855895Y-103327762D01*
X150855895Y-103327762D02*
X150970180Y-103388714D01*
X150970180Y-103388714D02*
X151046371Y-103449666D01*
X151046371Y-103449666D02*
X151084466Y-103510619D01*
X150855895Y-102565857D02*
X150855895Y-102870619D01*
X150855895Y-102870619D02*
X151236847Y-102901095D01*
X151236847Y-102901095D02*
X151198752Y-102870619D01*
X151198752Y-102870619D02*
X151160657Y-102809666D01*
X151160657Y-102809666D02*
X151160657Y-102657285D01*
X151160657Y-102657285D02*
X151198752Y-102596333D01*
X151198752Y-102596333D02*
X151236847Y-102565857D01*
X151236847Y-102565857D02*
X151313038Y-102535380D01*
X151313038Y-102535380D02*
X151503514Y-102535380D01*
X151503514Y-102535380D02*
X151579704Y-102565857D01*
X151579704Y-102565857D02*
X151617800Y-102596333D01*
X151617800Y-102596333D02*
X151655895Y-102657285D01*
X151655895Y-102657285D02*
X151655895Y-102809666D01*
X151655895Y-102809666D02*
X151617800Y-102870619D01*
X151617800Y-102870619D02*
X151579704Y-102901095D01*
X142833333Y-105954819D02*
X142500000Y-105478628D01*
X142261905Y-105954819D02*
X142261905Y-104954819D01*
X142261905Y-104954819D02*
X142642857Y-104954819D01*
X142642857Y-104954819D02*
X142738095Y-105002438D01*
X142738095Y-105002438D02*
X142785714Y-105050057D01*
X142785714Y-105050057D02*
X142833333Y-105145295D01*
X142833333Y-105145295D02*
X142833333Y-105288152D01*
X142833333Y-105288152D02*
X142785714Y-105383390D01*
X142785714Y-105383390D02*
X142738095Y-105431009D01*
X142738095Y-105431009D02*
X142642857Y-105478628D01*
X142642857Y-105478628D02*
X142261905Y-105478628D01*
X143166667Y-104954819D02*
X143785714Y-104954819D01*
X143785714Y-104954819D02*
X143452381Y-105335771D01*
X143452381Y-105335771D02*
X143595238Y-105335771D01*
X143595238Y-105335771D02*
X143690476Y-105383390D01*
X143690476Y-105383390D02*
X143738095Y-105431009D01*
X143738095Y-105431009D02*
X143785714Y-105526247D01*
X143785714Y-105526247D02*
X143785714Y-105764342D01*
X143785714Y-105764342D02*
X143738095Y-105859580D01*
X143738095Y-105859580D02*
X143690476Y-105907200D01*
X143690476Y-105907200D02*
X143595238Y-105954819D01*
X143595238Y-105954819D02*
X143309524Y-105954819D01*
X143309524Y-105954819D02*
X143214286Y-105907200D01*
X143214286Y-105907200D02*
X143166667Y-105859580D01*
X154833333Y-61954819D02*
X154357143Y-61954819D01*
X154357143Y-61954819D02*
X154357143Y-60954819D01*
X155690476Y-61954819D02*
X155119048Y-61954819D01*
X155404762Y-61954819D02*
X155404762Y-60954819D01*
X155404762Y-60954819D02*
X155309524Y-61097676D01*
X155309524Y-61097676D02*
X155214286Y-61192914D01*
X155214286Y-61192914D02*
X155119048Y-61240533D01*
X184038095Y-55414819D02*
X184038095Y-56224342D01*
X184038095Y-56224342D02*
X184085714Y-56319580D01*
X184085714Y-56319580D02*
X184133333Y-56367200D01*
X184133333Y-56367200D02*
X184228571Y-56414819D01*
X184228571Y-56414819D02*
X184419047Y-56414819D01*
X184419047Y-56414819D02*
X184514285Y-56367200D01*
X184514285Y-56367200D02*
X184561904Y-56319580D01*
X184561904Y-56319580D02*
X184609523Y-56224342D01*
X184609523Y-56224342D02*
X184609523Y-55414819D01*
X185609523Y-56414819D02*
X185038095Y-56414819D01*
X185323809Y-56414819D02*
X185323809Y-55414819D01*
X185323809Y-55414819D02*
X185228571Y-55557676D01*
X185228571Y-55557676D02*
X185133333Y-55652914D01*
X185133333Y-55652914D02*
X185038095Y-55700533D01*
X184731009Y-87785237D02*
X184731009Y-87451904D01*
X185254819Y-87309047D02*
X185254819Y-87785237D01*
X185254819Y-87785237D02*
X184254819Y-87785237D01*
X184254819Y-87785237D02*
X184254819Y-87309047D01*
X185207200Y-86928094D02*
X185254819Y-86785237D01*
X185254819Y-86785237D02*
X185254819Y-86547142D01*
X185254819Y-86547142D02*
X185207200Y-86451904D01*
X185207200Y-86451904D02*
X185159580Y-86404285D01*
X185159580Y-86404285D02*
X185064342Y-86356666D01*
X185064342Y-86356666D02*
X184969104Y-86356666D01*
X184969104Y-86356666D02*
X184873866Y-86404285D01*
X184873866Y-86404285D02*
X184826247Y-86451904D01*
X184826247Y-86451904D02*
X184778628Y-86547142D01*
X184778628Y-86547142D02*
X184731009Y-86737618D01*
X184731009Y-86737618D02*
X184683390Y-86832856D01*
X184683390Y-86832856D02*
X184635771Y-86880475D01*
X184635771Y-86880475D02*
X184540533Y-86928094D01*
X184540533Y-86928094D02*
X184445295Y-86928094D01*
X184445295Y-86928094D02*
X184350057Y-86880475D01*
X184350057Y-86880475D02*
X184302438Y-86832856D01*
X184302438Y-86832856D02*
X184254819Y-86737618D01*
X184254819Y-86737618D02*
X184254819Y-86499523D01*
X184254819Y-86499523D02*
X184302438Y-86356666D01*
X185254819Y-85928094D02*
X184254819Y-85928094D01*
X184254819Y-85928094D02*
X184254819Y-85547142D01*
X184254819Y-85547142D02*
X184302438Y-85451904D01*
X184302438Y-85451904D02*
X184350057Y-85404285D01*
X184350057Y-85404285D02*
X184445295Y-85356666D01*
X184445295Y-85356666D02*
X184588152Y-85356666D01*
X184588152Y-85356666D02*
X184683390Y-85404285D01*
X184683390Y-85404285D02*
X184731009Y-85451904D01*
X184731009Y-85451904D02*
X184778628Y-85547142D01*
X184778628Y-85547142D02*
X184778628Y-85928094D01*
X184254819Y-85023332D02*
X184254819Y-84404285D01*
X184254819Y-84404285D02*
X184635771Y-84737618D01*
X184635771Y-84737618D02*
X184635771Y-84594761D01*
X184635771Y-84594761D02*
X184683390Y-84499523D01*
X184683390Y-84499523D02*
X184731009Y-84451904D01*
X184731009Y-84451904D02*
X184826247Y-84404285D01*
X184826247Y-84404285D02*
X185064342Y-84404285D01*
X185064342Y-84404285D02*
X185159580Y-84451904D01*
X185159580Y-84451904D02*
X185207200Y-84499523D01*
X185207200Y-84499523D02*
X185254819Y-84594761D01*
X185254819Y-84594761D02*
X185254819Y-84880475D01*
X185254819Y-84880475D02*
X185207200Y-84975713D01*
X185207200Y-84975713D02*
X185159580Y-85023332D01*
X184350057Y-84023332D02*
X184302438Y-83975713D01*
X184302438Y-83975713D02*
X184254819Y-83880475D01*
X184254819Y-83880475D02*
X184254819Y-83642380D01*
X184254819Y-83642380D02*
X184302438Y-83547142D01*
X184302438Y-83547142D02*
X184350057Y-83499523D01*
X184350057Y-83499523D02*
X184445295Y-83451904D01*
X184445295Y-83451904D02*
X184540533Y-83451904D01*
X184540533Y-83451904D02*
X184683390Y-83499523D01*
X184683390Y-83499523D02*
X185254819Y-84070951D01*
X185254819Y-84070951D02*
X185254819Y-83451904D01*
X184873866Y-83023332D02*
X184873866Y-82261428D01*
X185254819Y-81785237D02*
X184254819Y-81785237D01*
X184254819Y-81785237D02*
X184254819Y-81547142D01*
X184254819Y-81547142D02*
X184302438Y-81404285D01*
X184302438Y-81404285D02*
X184397676Y-81309047D01*
X184397676Y-81309047D02*
X184492914Y-81261428D01*
X184492914Y-81261428D02*
X184683390Y-81213809D01*
X184683390Y-81213809D02*
X184826247Y-81213809D01*
X184826247Y-81213809D02*
X185016723Y-81261428D01*
X185016723Y-81261428D02*
X185111961Y-81309047D01*
X185111961Y-81309047D02*
X185207200Y-81404285D01*
X185207200Y-81404285D02*
X185254819Y-81547142D01*
X185254819Y-81547142D02*
X185254819Y-81785237D01*
X185207200Y-80404285D02*
X185254819Y-80499523D01*
X185254819Y-80499523D02*
X185254819Y-80689999D01*
X185254819Y-80689999D02*
X185207200Y-80785237D01*
X185207200Y-80785237D02*
X185111961Y-80832856D01*
X185111961Y-80832856D02*
X184731009Y-80832856D01*
X184731009Y-80832856D02*
X184635771Y-80785237D01*
X184635771Y-80785237D02*
X184588152Y-80689999D01*
X184588152Y-80689999D02*
X184588152Y-80499523D01*
X184588152Y-80499523D02*
X184635771Y-80404285D01*
X184635771Y-80404285D02*
X184731009Y-80356666D01*
X184731009Y-80356666D02*
X184826247Y-80356666D01*
X184826247Y-80356666D02*
X184921485Y-80832856D01*
X184588152Y-80023332D02*
X185254819Y-79785237D01*
X185254819Y-79785237D02*
X184588152Y-79547142D01*
X185254819Y-79166189D02*
X184254819Y-79166189D01*
X185254819Y-78594761D02*
X184683390Y-79023332D01*
X184254819Y-78594761D02*
X184826247Y-79166189D01*
X185254819Y-78166189D02*
X184588152Y-78166189D01*
X184254819Y-78166189D02*
X184302438Y-78213808D01*
X184302438Y-78213808D02*
X184350057Y-78166189D01*
X184350057Y-78166189D02*
X184302438Y-78118570D01*
X184302438Y-78118570D02*
X184254819Y-78166189D01*
X184254819Y-78166189D02*
X184350057Y-78166189D01*
X184588152Y-77832856D02*
X184588152Y-77451904D01*
X184254819Y-77689999D02*
X185111961Y-77689999D01*
X185111961Y-77689999D02*
X185207200Y-77642380D01*
X185207200Y-77642380D02*
X185254819Y-77547142D01*
X185254819Y-77547142D02*
X185254819Y-77451904D01*
X185159580Y-76547142D02*
X185207200Y-76594761D01*
X185207200Y-76594761D02*
X185254819Y-76737618D01*
X185254819Y-76737618D02*
X185254819Y-76832856D01*
X185254819Y-76832856D02*
X185207200Y-76975713D01*
X185207200Y-76975713D02*
X185111961Y-77070951D01*
X185111961Y-77070951D02*
X185016723Y-77118570D01*
X185016723Y-77118570D02*
X184826247Y-77166189D01*
X184826247Y-77166189D02*
X184683390Y-77166189D01*
X184683390Y-77166189D02*
X184492914Y-77118570D01*
X184492914Y-77118570D02*
X184397676Y-77070951D01*
X184397676Y-77070951D02*
X184302438Y-76975713D01*
X184302438Y-76975713D02*
X184254819Y-76832856D01*
X184254819Y-76832856D02*
X184254819Y-76737618D01*
X184254819Y-76737618D02*
X184302438Y-76594761D01*
X184302438Y-76594761D02*
X184350057Y-76547142D01*
X193845601Y-57660390D02*
X193750363Y-57622295D01*
X193750363Y-57622295D02*
X193607506Y-57622295D01*
X193607506Y-57622295D02*
X193464649Y-57660390D01*
X193464649Y-57660390D02*
X193369411Y-57736580D01*
X193369411Y-57736580D02*
X193321792Y-57812771D01*
X193321792Y-57812771D02*
X193274173Y-57965152D01*
X193274173Y-57965152D02*
X193274173Y-58079438D01*
X193274173Y-58079438D02*
X193321792Y-58231819D01*
X193321792Y-58231819D02*
X193369411Y-58308009D01*
X193369411Y-58308009D02*
X193464649Y-58384200D01*
X193464649Y-58384200D02*
X193607506Y-58422295D01*
X193607506Y-58422295D02*
X193702744Y-58422295D01*
X193702744Y-58422295D02*
X193845601Y-58384200D01*
X193845601Y-58384200D02*
X193893220Y-58346104D01*
X193893220Y-58346104D02*
X193893220Y-58079438D01*
X193893220Y-58079438D02*
X193702744Y-58079438D01*
X194321792Y-58422295D02*
X194321792Y-57622295D01*
X194321792Y-57622295D02*
X194893220Y-58422295D01*
X194893220Y-58422295D02*
X194893220Y-57622295D01*
X195369411Y-58422295D02*
X195369411Y-57622295D01*
X195369411Y-57622295D02*
X195607506Y-57622295D01*
X195607506Y-57622295D02*
X195750363Y-57660390D01*
X195750363Y-57660390D02*
X195845601Y-57736580D01*
X195845601Y-57736580D02*
X195893220Y-57812771D01*
X195893220Y-57812771D02*
X195940839Y-57965152D01*
X195940839Y-57965152D02*
X195940839Y-58079438D01*
X195940839Y-58079438D02*
X195893220Y-58231819D01*
X195893220Y-58231819D02*
X195845601Y-58308009D01*
X195845601Y-58308009D02*
X195750363Y-58384200D01*
X195750363Y-58384200D02*
X195607506Y-58422295D01*
X195607506Y-58422295D02*
X195369411Y-58422295D01*
X174002017Y-83060390D02*
X173935350Y-83022295D01*
X173935350Y-83022295D02*
X173835350Y-83022295D01*
X173835350Y-83022295D02*
X173735350Y-83060390D01*
X173735350Y-83060390D02*
X173668684Y-83136580D01*
X173668684Y-83136580D02*
X173635350Y-83212771D01*
X173635350Y-83212771D02*
X173602017Y-83365152D01*
X173602017Y-83365152D02*
X173602017Y-83479438D01*
X173602017Y-83479438D02*
X173635350Y-83631819D01*
X173635350Y-83631819D02*
X173668684Y-83708009D01*
X173668684Y-83708009D02*
X173735350Y-83784200D01*
X173735350Y-83784200D02*
X173835350Y-83822295D01*
X173835350Y-83822295D02*
X173902017Y-83822295D01*
X173902017Y-83822295D02*
X174002017Y-83784200D01*
X174002017Y-83784200D02*
X174035350Y-83746104D01*
X174035350Y-83746104D02*
X174035350Y-83479438D01*
X174035350Y-83479438D02*
X173902017Y-83479438D01*
X174335350Y-83822295D02*
X174335350Y-83022295D01*
X174335350Y-83022295D02*
X174602017Y-83022295D01*
X174602017Y-83022295D02*
X174668684Y-83060390D01*
X174668684Y-83060390D02*
X174702017Y-83098485D01*
X174702017Y-83098485D02*
X174735350Y-83174676D01*
X174735350Y-83174676D02*
X174735350Y-83288961D01*
X174735350Y-83288961D02*
X174702017Y-83365152D01*
X174702017Y-83365152D02*
X174668684Y-83403247D01*
X174668684Y-83403247D02*
X174602017Y-83441342D01*
X174602017Y-83441342D02*
X174335350Y-83441342D01*
X175035350Y-83822295D02*
X175035350Y-83022295D01*
X175502017Y-83022295D02*
X175635350Y-83022295D01*
X175635350Y-83022295D02*
X175702017Y-83060390D01*
X175702017Y-83060390D02*
X175768683Y-83136580D01*
X175768683Y-83136580D02*
X175802017Y-83288961D01*
X175802017Y-83288961D02*
X175802017Y-83555628D01*
X175802017Y-83555628D02*
X175768683Y-83708009D01*
X175768683Y-83708009D02*
X175702017Y-83784200D01*
X175702017Y-83784200D02*
X175635350Y-83822295D01*
X175635350Y-83822295D02*
X175502017Y-83822295D01*
X175502017Y-83822295D02*
X175435350Y-83784200D01*
X175435350Y-83784200D02*
X175368683Y-83708009D01*
X175368683Y-83708009D02*
X175335350Y-83555628D01*
X175335350Y-83555628D02*
X175335350Y-83288961D01*
X175335350Y-83288961D02*
X175368683Y-83136580D01*
X175368683Y-83136580D02*
X175435350Y-83060390D01*
X175435350Y-83060390D02*
X175502017Y-83022295D01*
X176068683Y-83098485D02*
X176102016Y-83060390D01*
X176102016Y-83060390D02*
X176168683Y-83022295D01*
X176168683Y-83022295D02*
X176335350Y-83022295D01*
X176335350Y-83022295D02*
X176402016Y-83060390D01*
X176402016Y-83060390D02*
X176435350Y-83098485D01*
X176435350Y-83098485D02*
X176468683Y-83174676D01*
X176468683Y-83174676D02*
X176468683Y-83250866D01*
X176468683Y-83250866D02*
X176435350Y-83365152D01*
X176435350Y-83365152D02*
X176035350Y-83822295D01*
X176035350Y-83822295D02*
X176468683Y-83822295D01*
X176702017Y-83022295D02*
X177168683Y-83022295D01*
X177168683Y-83022295D02*
X176868683Y-83822295D01*
X174002017Y-80520390D02*
X173935350Y-80482295D01*
X173935350Y-80482295D02*
X173835350Y-80482295D01*
X173835350Y-80482295D02*
X173735350Y-80520390D01*
X173735350Y-80520390D02*
X173668684Y-80596580D01*
X173668684Y-80596580D02*
X173635350Y-80672771D01*
X173635350Y-80672771D02*
X173602017Y-80825152D01*
X173602017Y-80825152D02*
X173602017Y-80939438D01*
X173602017Y-80939438D02*
X173635350Y-81091819D01*
X173635350Y-81091819D02*
X173668684Y-81168009D01*
X173668684Y-81168009D02*
X173735350Y-81244200D01*
X173735350Y-81244200D02*
X173835350Y-81282295D01*
X173835350Y-81282295D02*
X173902017Y-81282295D01*
X173902017Y-81282295D02*
X174002017Y-81244200D01*
X174002017Y-81244200D02*
X174035350Y-81206104D01*
X174035350Y-81206104D02*
X174035350Y-80939438D01*
X174035350Y-80939438D02*
X173902017Y-80939438D01*
X174335350Y-81282295D02*
X174335350Y-80482295D01*
X174335350Y-80482295D02*
X174602017Y-80482295D01*
X174602017Y-80482295D02*
X174668684Y-80520390D01*
X174668684Y-80520390D02*
X174702017Y-80558485D01*
X174702017Y-80558485D02*
X174735350Y-80634676D01*
X174735350Y-80634676D02*
X174735350Y-80748961D01*
X174735350Y-80748961D02*
X174702017Y-80825152D01*
X174702017Y-80825152D02*
X174668684Y-80863247D01*
X174668684Y-80863247D02*
X174602017Y-80901342D01*
X174602017Y-80901342D02*
X174335350Y-80901342D01*
X175035350Y-81282295D02*
X175035350Y-80482295D01*
X175502017Y-80482295D02*
X175635350Y-80482295D01*
X175635350Y-80482295D02*
X175702017Y-80520390D01*
X175702017Y-80520390D02*
X175768683Y-80596580D01*
X175768683Y-80596580D02*
X175802017Y-80748961D01*
X175802017Y-80748961D02*
X175802017Y-81015628D01*
X175802017Y-81015628D02*
X175768683Y-81168009D01*
X175768683Y-81168009D02*
X175702017Y-81244200D01*
X175702017Y-81244200D02*
X175635350Y-81282295D01*
X175635350Y-81282295D02*
X175502017Y-81282295D01*
X175502017Y-81282295D02*
X175435350Y-81244200D01*
X175435350Y-81244200D02*
X175368683Y-81168009D01*
X175368683Y-81168009D02*
X175335350Y-81015628D01*
X175335350Y-81015628D02*
X175335350Y-80748961D01*
X175335350Y-80748961D02*
X175368683Y-80596580D01*
X175368683Y-80596580D02*
X175435350Y-80520390D01*
X175435350Y-80520390D02*
X175502017Y-80482295D01*
X176068683Y-80558485D02*
X176102016Y-80520390D01*
X176102016Y-80520390D02*
X176168683Y-80482295D01*
X176168683Y-80482295D02*
X176335350Y-80482295D01*
X176335350Y-80482295D02*
X176402016Y-80520390D01*
X176402016Y-80520390D02*
X176435350Y-80558485D01*
X176435350Y-80558485D02*
X176468683Y-80634676D01*
X176468683Y-80634676D02*
X176468683Y-80710866D01*
X176468683Y-80710866D02*
X176435350Y-80825152D01*
X176435350Y-80825152D02*
X176035350Y-81282295D01*
X176035350Y-81282295D02*
X176468683Y-81282295D01*
X177068683Y-80482295D02*
X176935350Y-80482295D01*
X176935350Y-80482295D02*
X176868683Y-80520390D01*
X176868683Y-80520390D02*
X176835350Y-80558485D01*
X176835350Y-80558485D02*
X176768683Y-80672771D01*
X176768683Y-80672771D02*
X176735350Y-80825152D01*
X176735350Y-80825152D02*
X176735350Y-81129914D01*
X176735350Y-81129914D02*
X176768683Y-81206104D01*
X176768683Y-81206104D02*
X176802017Y-81244200D01*
X176802017Y-81244200D02*
X176868683Y-81282295D01*
X176868683Y-81282295D02*
X177002017Y-81282295D01*
X177002017Y-81282295D02*
X177068683Y-81244200D01*
X177068683Y-81244200D02*
X177102017Y-81206104D01*
X177102017Y-81206104D02*
X177135350Y-81129914D01*
X177135350Y-81129914D02*
X177135350Y-80939438D01*
X177135350Y-80939438D02*
X177102017Y-80863247D01*
X177102017Y-80863247D02*
X177068683Y-80825152D01*
X177068683Y-80825152D02*
X177002017Y-80787057D01*
X177002017Y-80787057D02*
X176868683Y-80787057D01*
X176868683Y-80787057D02*
X176802017Y-80825152D01*
X176802017Y-80825152D02*
X176768683Y-80863247D01*
X176768683Y-80863247D02*
X176735350Y-80939438D01*
X193531316Y-80520390D02*
X193464649Y-80482295D01*
X193464649Y-80482295D02*
X193364649Y-80482295D01*
X193364649Y-80482295D02*
X193264649Y-80520390D01*
X193264649Y-80520390D02*
X193197983Y-80596580D01*
X193197983Y-80596580D02*
X193164649Y-80672771D01*
X193164649Y-80672771D02*
X193131316Y-80825152D01*
X193131316Y-80825152D02*
X193131316Y-80939438D01*
X193131316Y-80939438D02*
X193164649Y-81091819D01*
X193164649Y-81091819D02*
X193197983Y-81168009D01*
X193197983Y-81168009D02*
X193264649Y-81244200D01*
X193264649Y-81244200D02*
X193364649Y-81282295D01*
X193364649Y-81282295D02*
X193431316Y-81282295D01*
X193431316Y-81282295D02*
X193531316Y-81244200D01*
X193531316Y-81244200D02*
X193564649Y-81206104D01*
X193564649Y-81206104D02*
X193564649Y-80939438D01*
X193564649Y-80939438D02*
X193431316Y-80939438D01*
X193864649Y-81282295D02*
X193864649Y-80482295D01*
X193864649Y-80482295D02*
X194131316Y-80482295D01*
X194131316Y-80482295D02*
X194197983Y-80520390D01*
X194197983Y-80520390D02*
X194231316Y-80558485D01*
X194231316Y-80558485D02*
X194264649Y-80634676D01*
X194264649Y-80634676D02*
X194264649Y-80748961D01*
X194264649Y-80748961D02*
X194231316Y-80825152D01*
X194231316Y-80825152D02*
X194197983Y-80863247D01*
X194197983Y-80863247D02*
X194131316Y-80901342D01*
X194131316Y-80901342D02*
X193864649Y-80901342D01*
X194564649Y-81282295D02*
X194564649Y-80482295D01*
X195031316Y-80482295D02*
X195164649Y-80482295D01*
X195164649Y-80482295D02*
X195231316Y-80520390D01*
X195231316Y-80520390D02*
X195297982Y-80596580D01*
X195297982Y-80596580D02*
X195331316Y-80748961D01*
X195331316Y-80748961D02*
X195331316Y-81015628D01*
X195331316Y-81015628D02*
X195297982Y-81168009D01*
X195297982Y-81168009D02*
X195231316Y-81244200D01*
X195231316Y-81244200D02*
X195164649Y-81282295D01*
X195164649Y-81282295D02*
X195031316Y-81282295D01*
X195031316Y-81282295D02*
X194964649Y-81244200D01*
X194964649Y-81244200D02*
X194897982Y-81168009D01*
X194897982Y-81168009D02*
X194864649Y-81015628D01*
X194864649Y-81015628D02*
X194864649Y-80748961D01*
X194864649Y-80748961D02*
X194897982Y-80596580D01*
X194897982Y-80596580D02*
X194964649Y-80520390D01*
X194964649Y-80520390D02*
X195031316Y-80482295D01*
X195964649Y-80482295D02*
X195631315Y-80482295D01*
X195631315Y-80482295D02*
X195597982Y-80863247D01*
X195597982Y-80863247D02*
X195631315Y-80825152D01*
X195631315Y-80825152D02*
X195697982Y-80787057D01*
X195697982Y-80787057D02*
X195864649Y-80787057D01*
X195864649Y-80787057D02*
X195931315Y-80825152D01*
X195931315Y-80825152D02*
X195964649Y-80863247D01*
X195964649Y-80863247D02*
X195997982Y-80939438D01*
X195997982Y-80939438D02*
X195997982Y-81129914D01*
X195997982Y-81129914D02*
X195964649Y-81206104D01*
X195964649Y-81206104D02*
X195931315Y-81244200D01*
X195931315Y-81244200D02*
X195864649Y-81282295D01*
X195864649Y-81282295D02*
X195697982Y-81282295D01*
X195697982Y-81282295D02*
X195631315Y-81244200D01*
X195631315Y-81244200D02*
X195597982Y-81206104D01*
X174002017Y-70360390D02*
X173935350Y-70322295D01*
X173935350Y-70322295D02*
X173835350Y-70322295D01*
X173835350Y-70322295D02*
X173735350Y-70360390D01*
X173735350Y-70360390D02*
X173668684Y-70436580D01*
X173668684Y-70436580D02*
X173635350Y-70512771D01*
X173635350Y-70512771D02*
X173602017Y-70665152D01*
X173602017Y-70665152D02*
X173602017Y-70779438D01*
X173602017Y-70779438D02*
X173635350Y-70931819D01*
X173635350Y-70931819D02*
X173668684Y-71008009D01*
X173668684Y-71008009D02*
X173735350Y-71084200D01*
X173735350Y-71084200D02*
X173835350Y-71122295D01*
X173835350Y-71122295D02*
X173902017Y-71122295D01*
X173902017Y-71122295D02*
X174002017Y-71084200D01*
X174002017Y-71084200D02*
X174035350Y-71046104D01*
X174035350Y-71046104D02*
X174035350Y-70779438D01*
X174035350Y-70779438D02*
X173902017Y-70779438D01*
X174335350Y-71122295D02*
X174335350Y-70322295D01*
X174335350Y-70322295D02*
X174602017Y-70322295D01*
X174602017Y-70322295D02*
X174668684Y-70360390D01*
X174668684Y-70360390D02*
X174702017Y-70398485D01*
X174702017Y-70398485D02*
X174735350Y-70474676D01*
X174735350Y-70474676D02*
X174735350Y-70588961D01*
X174735350Y-70588961D02*
X174702017Y-70665152D01*
X174702017Y-70665152D02*
X174668684Y-70703247D01*
X174668684Y-70703247D02*
X174602017Y-70741342D01*
X174602017Y-70741342D02*
X174335350Y-70741342D01*
X175035350Y-71122295D02*
X175035350Y-70322295D01*
X175502017Y-70322295D02*
X175635350Y-70322295D01*
X175635350Y-70322295D02*
X175702017Y-70360390D01*
X175702017Y-70360390D02*
X175768683Y-70436580D01*
X175768683Y-70436580D02*
X175802017Y-70588961D01*
X175802017Y-70588961D02*
X175802017Y-70855628D01*
X175802017Y-70855628D02*
X175768683Y-71008009D01*
X175768683Y-71008009D02*
X175702017Y-71084200D01*
X175702017Y-71084200D02*
X175635350Y-71122295D01*
X175635350Y-71122295D02*
X175502017Y-71122295D01*
X175502017Y-71122295D02*
X175435350Y-71084200D01*
X175435350Y-71084200D02*
X175368683Y-71008009D01*
X175368683Y-71008009D02*
X175335350Y-70855628D01*
X175335350Y-70855628D02*
X175335350Y-70588961D01*
X175335350Y-70588961D02*
X175368683Y-70436580D01*
X175368683Y-70436580D02*
X175435350Y-70360390D01*
X175435350Y-70360390D02*
X175502017Y-70322295D01*
X176035350Y-70322295D02*
X176468683Y-70322295D01*
X176468683Y-70322295D02*
X176235350Y-70627057D01*
X176235350Y-70627057D02*
X176335350Y-70627057D01*
X176335350Y-70627057D02*
X176402016Y-70665152D01*
X176402016Y-70665152D02*
X176435350Y-70703247D01*
X176435350Y-70703247D02*
X176468683Y-70779438D01*
X176468683Y-70779438D02*
X176468683Y-70969914D01*
X176468683Y-70969914D02*
X176435350Y-71046104D01*
X176435350Y-71046104D02*
X176402016Y-71084200D01*
X176402016Y-71084200D02*
X176335350Y-71122295D01*
X176335350Y-71122295D02*
X176135350Y-71122295D01*
X176135350Y-71122295D02*
X176068683Y-71084200D01*
X176068683Y-71084200D02*
X176035350Y-71046104D01*
X177102017Y-70322295D02*
X176768683Y-70322295D01*
X176768683Y-70322295D02*
X176735350Y-70703247D01*
X176735350Y-70703247D02*
X176768683Y-70665152D01*
X176768683Y-70665152D02*
X176835350Y-70627057D01*
X176835350Y-70627057D02*
X177002017Y-70627057D01*
X177002017Y-70627057D02*
X177068683Y-70665152D01*
X177068683Y-70665152D02*
X177102017Y-70703247D01*
X177102017Y-70703247D02*
X177135350Y-70779438D01*
X177135350Y-70779438D02*
X177135350Y-70969914D01*
X177135350Y-70969914D02*
X177102017Y-71046104D01*
X177102017Y-71046104D02*
X177068683Y-71084200D01*
X177068683Y-71084200D02*
X177002017Y-71122295D01*
X177002017Y-71122295D02*
X176835350Y-71122295D01*
X176835350Y-71122295D02*
X176768683Y-71084200D01*
X176768683Y-71084200D02*
X176735350Y-71046104D01*
X173635350Y-96522295D02*
X173635350Y-95722295D01*
X173635350Y-95722295D02*
X173802017Y-95722295D01*
X173802017Y-95722295D02*
X173902017Y-95760390D01*
X173902017Y-95760390D02*
X173968684Y-95836580D01*
X173968684Y-95836580D02*
X174002017Y-95912771D01*
X174002017Y-95912771D02*
X174035350Y-96065152D01*
X174035350Y-96065152D02*
X174035350Y-96179438D01*
X174035350Y-96179438D02*
X174002017Y-96331819D01*
X174002017Y-96331819D02*
X173968684Y-96408009D01*
X173968684Y-96408009D02*
X173902017Y-96484200D01*
X173902017Y-96484200D02*
X173802017Y-96522295D01*
X173802017Y-96522295D02*
X173635350Y-96522295D01*
X174302017Y-95798485D02*
X174335350Y-95760390D01*
X174335350Y-95760390D02*
X174402017Y-95722295D01*
X174402017Y-95722295D02*
X174568684Y-95722295D01*
X174568684Y-95722295D02*
X174635350Y-95760390D01*
X174635350Y-95760390D02*
X174668684Y-95798485D01*
X174668684Y-95798485D02*
X174702017Y-95874676D01*
X174702017Y-95874676D02*
X174702017Y-95950866D01*
X174702017Y-95950866D02*
X174668684Y-96065152D01*
X174668684Y-96065152D02*
X174268684Y-96522295D01*
X174268684Y-96522295D02*
X174702017Y-96522295D01*
X174179289Y-103486099D02*
X173703099Y-103486099D01*
X173703099Y-103486099D02*
X173655480Y-103962289D01*
X173655480Y-103962289D02*
X173703099Y-103914670D01*
X173703099Y-103914670D02*
X173798337Y-103867051D01*
X173798337Y-103867051D02*
X174036432Y-103867051D01*
X174036432Y-103867051D02*
X174131670Y-103914670D01*
X174131670Y-103914670D02*
X174179289Y-103962289D01*
X174179289Y-103962289D02*
X174226908Y-104057527D01*
X174226908Y-104057527D02*
X174226908Y-104295622D01*
X174226908Y-104295622D02*
X174179289Y-104390860D01*
X174179289Y-104390860D02*
X174131670Y-104438480D01*
X174131670Y-104438480D02*
X174036432Y-104486099D01*
X174036432Y-104486099D02*
X173798337Y-104486099D01*
X173798337Y-104486099D02*
X173703099Y-104438480D01*
X173703099Y-104438480D02*
X173655480Y-104390860D01*
X174512623Y-103486099D02*
X174845956Y-104486099D01*
X174845956Y-104486099D02*
X175179289Y-103486099D01*
X192864649Y-75440390D02*
X192797982Y-75402295D01*
X192797982Y-75402295D02*
X192697982Y-75402295D01*
X192697982Y-75402295D02*
X192597982Y-75440390D01*
X192597982Y-75440390D02*
X192531316Y-75516580D01*
X192531316Y-75516580D02*
X192497982Y-75592771D01*
X192497982Y-75592771D02*
X192464649Y-75745152D01*
X192464649Y-75745152D02*
X192464649Y-75859438D01*
X192464649Y-75859438D02*
X192497982Y-76011819D01*
X192497982Y-76011819D02*
X192531316Y-76088009D01*
X192531316Y-76088009D02*
X192597982Y-76164200D01*
X192597982Y-76164200D02*
X192697982Y-76202295D01*
X192697982Y-76202295D02*
X192764649Y-76202295D01*
X192764649Y-76202295D02*
X192864649Y-76164200D01*
X192864649Y-76164200D02*
X192897982Y-76126104D01*
X192897982Y-76126104D02*
X192897982Y-75859438D01*
X192897982Y-75859438D02*
X192764649Y-75859438D01*
X193197982Y-76202295D02*
X193197982Y-75402295D01*
X193197982Y-75402295D02*
X193464649Y-75402295D01*
X193464649Y-75402295D02*
X193531316Y-75440390D01*
X193531316Y-75440390D02*
X193564649Y-75478485D01*
X193564649Y-75478485D02*
X193597982Y-75554676D01*
X193597982Y-75554676D02*
X193597982Y-75668961D01*
X193597982Y-75668961D02*
X193564649Y-75745152D01*
X193564649Y-75745152D02*
X193531316Y-75783247D01*
X193531316Y-75783247D02*
X193464649Y-75821342D01*
X193464649Y-75821342D02*
X193197982Y-75821342D01*
X193897982Y-76202295D02*
X193897982Y-75402295D01*
X194364649Y-75402295D02*
X194497982Y-75402295D01*
X194497982Y-75402295D02*
X194564649Y-75440390D01*
X194564649Y-75440390D02*
X194631315Y-75516580D01*
X194631315Y-75516580D02*
X194664649Y-75668961D01*
X194664649Y-75668961D02*
X194664649Y-75935628D01*
X194664649Y-75935628D02*
X194631315Y-76088009D01*
X194631315Y-76088009D02*
X194564649Y-76164200D01*
X194564649Y-76164200D02*
X194497982Y-76202295D01*
X194497982Y-76202295D02*
X194364649Y-76202295D01*
X194364649Y-76202295D02*
X194297982Y-76164200D01*
X194297982Y-76164200D02*
X194231315Y-76088009D01*
X194231315Y-76088009D02*
X194197982Y-75935628D01*
X194197982Y-75935628D02*
X194197982Y-75668961D01*
X194197982Y-75668961D02*
X194231315Y-75516580D01*
X194231315Y-75516580D02*
X194297982Y-75440390D01*
X194297982Y-75440390D02*
X194364649Y-75402295D01*
X195331315Y-76202295D02*
X194931315Y-76202295D01*
X195131315Y-76202295D02*
X195131315Y-75402295D01*
X195131315Y-75402295D02*
X195064648Y-75516580D01*
X195064648Y-75516580D02*
X194997982Y-75592771D01*
X194997982Y-75592771D02*
X194931315Y-75630866D01*
X195664649Y-76202295D02*
X195797982Y-76202295D01*
X195797982Y-76202295D02*
X195864649Y-76164200D01*
X195864649Y-76164200D02*
X195897982Y-76126104D01*
X195897982Y-76126104D02*
X195964649Y-76011819D01*
X195964649Y-76011819D02*
X195997982Y-75859438D01*
X195997982Y-75859438D02*
X195997982Y-75554676D01*
X195997982Y-75554676D02*
X195964649Y-75478485D01*
X195964649Y-75478485D02*
X195931315Y-75440390D01*
X195931315Y-75440390D02*
X195864649Y-75402295D01*
X195864649Y-75402295D02*
X195731315Y-75402295D01*
X195731315Y-75402295D02*
X195664649Y-75440390D01*
X195664649Y-75440390D02*
X195631315Y-75478485D01*
X195631315Y-75478485D02*
X195597982Y-75554676D01*
X195597982Y-75554676D02*
X195597982Y-75745152D01*
X195597982Y-75745152D02*
X195631315Y-75821342D01*
X195631315Y-75821342D02*
X195664649Y-75859438D01*
X195664649Y-75859438D02*
X195731315Y-75897533D01*
X195731315Y-75897533D02*
X195864649Y-75897533D01*
X195864649Y-75897533D02*
X195931315Y-75859438D01*
X195931315Y-75859438D02*
X195964649Y-75821342D01*
X195964649Y-75821342D02*
X195997982Y-75745152D01*
X174002017Y-88140390D02*
X173935350Y-88102295D01*
X173935350Y-88102295D02*
X173835350Y-88102295D01*
X173835350Y-88102295D02*
X173735350Y-88140390D01*
X173735350Y-88140390D02*
X173668684Y-88216580D01*
X173668684Y-88216580D02*
X173635350Y-88292771D01*
X173635350Y-88292771D02*
X173602017Y-88445152D01*
X173602017Y-88445152D02*
X173602017Y-88559438D01*
X173602017Y-88559438D02*
X173635350Y-88711819D01*
X173635350Y-88711819D02*
X173668684Y-88788009D01*
X173668684Y-88788009D02*
X173735350Y-88864200D01*
X173735350Y-88864200D02*
X173835350Y-88902295D01*
X173835350Y-88902295D02*
X173902017Y-88902295D01*
X173902017Y-88902295D02*
X174002017Y-88864200D01*
X174002017Y-88864200D02*
X174035350Y-88826104D01*
X174035350Y-88826104D02*
X174035350Y-88559438D01*
X174035350Y-88559438D02*
X173902017Y-88559438D01*
X174335350Y-88902295D02*
X174335350Y-88102295D01*
X174335350Y-88102295D02*
X174602017Y-88102295D01*
X174602017Y-88102295D02*
X174668684Y-88140390D01*
X174668684Y-88140390D02*
X174702017Y-88178485D01*
X174702017Y-88178485D02*
X174735350Y-88254676D01*
X174735350Y-88254676D02*
X174735350Y-88368961D01*
X174735350Y-88368961D02*
X174702017Y-88445152D01*
X174702017Y-88445152D02*
X174668684Y-88483247D01*
X174668684Y-88483247D02*
X174602017Y-88521342D01*
X174602017Y-88521342D02*
X174335350Y-88521342D01*
X175035350Y-88902295D02*
X175035350Y-88102295D01*
X175502017Y-88102295D02*
X175635350Y-88102295D01*
X175635350Y-88102295D02*
X175702017Y-88140390D01*
X175702017Y-88140390D02*
X175768683Y-88216580D01*
X175768683Y-88216580D02*
X175802017Y-88368961D01*
X175802017Y-88368961D02*
X175802017Y-88635628D01*
X175802017Y-88635628D02*
X175768683Y-88788009D01*
X175768683Y-88788009D02*
X175702017Y-88864200D01*
X175702017Y-88864200D02*
X175635350Y-88902295D01*
X175635350Y-88902295D02*
X175502017Y-88902295D01*
X175502017Y-88902295D02*
X175435350Y-88864200D01*
X175435350Y-88864200D02*
X175368683Y-88788009D01*
X175368683Y-88788009D02*
X175335350Y-88635628D01*
X175335350Y-88635628D02*
X175335350Y-88368961D01*
X175335350Y-88368961D02*
X175368683Y-88216580D01*
X175368683Y-88216580D02*
X175435350Y-88140390D01*
X175435350Y-88140390D02*
X175502017Y-88102295D01*
X176468683Y-88902295D02*
X176068683Y-88902295D01*
X176268683Y-88902295D02*
X176268683Y-88102295D01*
X176268683Y-88102295D02*
X176202016Y-88216580D01*
X176202016Y-88216580D02*
X176135350Y-88292771D01*
X176135350Y-88292771D02*
X176068683Y-88330866D01*
X176735350Y-88178485D02*
X176768683Y-88140390D01*
X176768683Y-88140390D02*
X176835350Y-88102295D01*
X176835350Y-88102295D02*
X177002017Y-88102295D01*
X177002017Y-88102295D02*
X177068683Y-88140390D01*
X177068683Y-88140390D02*
X177102017Y-88178485D01*
X177102017Y-88178485D02*
X177135350Y-88254676D01*
X177135350Y-88254676D02*
X177135350Y-88330866D01*
X177135350Y-88330866D02*
X177102017Y-88445152D01*
X177102017Y-88445152D02*
X176702017Y-88902295D01*
X176702017Y-88902295D02*
X177135350Y-88902295D01*
X177935350Y-88064200D02*
X177335350Y-89092771D01*
X178168683Y-88902295D02*
X178168683Y-88102295D01*
X178168683Y-88102295D02*
X178402017Y-88673723D01*
X178402017Y-88673723D02*
X178635350Y-88102295D01*
X178635350Y-88102295D02*
X178635350Y-88902295D01*
X178868683Y-88102295D02*
X179268683Y-88102295D01*
X179068683Y-88902295D02*
X179068683Y-88102295D01*
X179502016Y-88902295D02*
X179502016Y-88102295D01*
X179502016Y-88102295D02*
X179668683Y-88102295D01*
X179668683Y-88102295D02*
X179768683Y-88140390D01*
X179768683Y-88140390D02*
X179835350Y-88216580D01*
X179835350Y-88216580D02*
X179868683Y-88292771D01*
X179868683Y-88292771D02*
X179902016Y-88445152D01*
X179902016Y-88445152D02*
X179902016Y-88559438D01*
X179902016Y-88559438D02*
X179868683Y-88711819D01*
X179868683Y-88711819D02*
X179835350Y-88788009D01*
X179835350Y-88788009D02*
X179768683Y-88864200D01*
X179768683Y-88864200D02*
X179668683Y-88902295D01*
X179668683Y-88902295D02*
X179502016Y-88902295D01*
X180202016Y-88902295D02*
X180202016Y-88102295D01*
X193531316Y-88140390D02*
X193464649Y-88102295D01*
X193464649Y-88102295D02*
X193364649Y-88102295D01*
X193364649Y-88102295D02*
X193264649Y-88140390D01*
X193264649Y-88140390D02*
X193197983Y-88216580D01*
X193197983Y-88216580D02*
X193164649Y-88292771D01*
X193164649Y-88292771D02*
X193131316Y-88445152D01*
X193131316Y-88445152D02*
X193131316Y-88559438D01*
X193131316Y-88559438D02*
X193164649Y-88711819D01*
X193164649Y-88711819D02*
X193197983Y-88788009D01*
X193197983Y-88788009D02*
X193264649Y-88864200D01*
X193264649Y-88864200D02*
X193364649Y-88902295D01*
X193364649Y-88902295D02*
X193431316Y-88902295D01*
X193431316Y-88902295D02*
X193531316Y-88864200D01*
X193531316Y-88864200D02*
X193564649Y-88826104D01*
X193564649Y-88826104D02*
X193564649Y-88559438D01*
X193564649Y-88559438D02*
X193431316Y-88559438D01*
X193864649Y-88902295D02*
X193864649Y-88102295D01*
X193864649Y-88102295D02*
X194131316Y-88102295D01*
X194131316Y-88102295D02*
X194197983Y-88140390D01*
X194197983Y-88140390D02*
X194231316Y-88178485D01*
X194231316Y-88178485D02*
X194264649Y-88254676D01*
X194264649Y-88254676D02*
X194264649Y-88368961D01*
X194264649Y-88368961D02*
X194231316Y-88445152D01*
X194231316Y-88445152D02*
X194197983Y-88483247D01*
X194197983Y-88483247D02*
X194131316Y-88521342D01*
X194131316Y-88521342D02*
X193864649Y-88521342D01*
X194564649Y-88902295D02*
X194564649Y-88102295D01*
X195031316Y-88102295D02*
X195164649Y-88102295D01*
X195164649Y-88102295D02*
X195231316Y-88140390D01*
X195231316Y-88140390D02*
X195297982Y-88216580D01*
X195297982Y-88216580D02*
X195331316Y-88368961D01*
X195331316Y-88368961D02*
X195331316Y-88635628D01*
X195331316Y-88635628D02*
X195297982Y-88788009D01*
X195297982Y-88788009D02*
X195231316Y-88864200D01*
X195231316Y-88864200D02*
X195164649Y-88902295D01*
X195164649Y-88902295D02*
X195031316Y-88902295D01*
X195031316Y-88902295D02*
X194964649Y-88864200D01*
X194964649Y-88864200D02*
X194897982Y-88788009D01*
X194897982Y-88788009D02*
X194864649Y-88635628D01*
X194864649Y-88635628D02*
X194864649Y-88368961D01*
X194864649Y-88368961D02*
X194897982Y-88216580D01*
X194897982Y-88216580D02*
X194964649Y-88140390D01*
X194964649Y-88140390D02*
X195031316Y-88102295D01*
X195931315Y-88368961D02*
X195931315Y-88902295D01*
X195764649Y-88064200D02*
X195597982Y-88635628D01*
X195597982Y-88635628D02*
X196031315Y-88635628D01*
X174035350Y-101526104D02*
X174002017Y-101564200D01*
X174002017Y-101564200D02*
X173902017Y-101602295D01*
X173902017Y-101602295D02*
X173835350Y-101602295D01*
X173835350Y-101602295D02*
X173735350Y-101564200D01*
X173735350Y-101564200D02*
X173668684Y-101488009D01*
X173668684Y-101488009D02*
X173635350Y-101411819D01*
X173635350Y-101411819D02*
X173602017Y-101259438D01*
X173602017Y-101259438D02*
X173602017Y-101145152D01*
X173602017Y-101145152D02*
X173635350Y-100992771D01*
X173635350Y-100992771D02*
X173668684Y-100916580D01*
X173668684Y-100916580D02*
X173735350Y-100840390D01*
X173735350Y-100840390D02*
X173835350Y-100802295D01*
X173835350Y-100802295D02*
X173902017Y-100802295D01*
X173902017Y-100802295D02*
X174002017Y-100840390D01*
X174002017Y-100840390D02*
X174035350Y-100878485D01*
X174335350Y-101602295D02*
X174335350Y-100802295D01*
X174335350Y-100802295D02*
X174568684Y-101373723D01*
X174568684Y-101373723D02*
X174802017Y-100802295D01*
X174802017Y-100802295D02*
X174802017Y-101602295D01*
X175135350Y-101602295D02*
X175135350Y-100802295D01*
X175135350Y-100802295D02*
X175302017Y-100802295D01*
X175302017Y-100802295D02*
X175402017Y-100840390D01*
X175402017Y-100840390D02*
X175468684Y-100916580D01*
X175468684Y-100916580D02*
X175502017Y-100992771D01*
X175502017Y-100992771D02*
X175535350Y-101145152D01*
X175535350Y-101145152D02*
X175535350Y-101259438D01*
X175535350Y-101259438D02*
X175502017Y-101411819D01*
X175502017Y-101411819D02*
X175468684Y-101488009D01*
X175468684Y-101488009D02*
X175402017Y-101564200D01*
X175402017Y-101564200D02*
X175302017Y-101602295D01*
X175302017Y-101602295D02*
X175135350Y-101602295D01*
X174002017Y-75440390D02*
X173935350Y-75402295D01*
X173935350Y-75402295D02*
X173835350Y-75402295D01*
X173835350Y-75402295D02*
X173735350Y-75440390D01*
X173735350Y-75440390D02*
X173668684Y-75516580D01*
X173668684Y-75516580D02*
X173635350Y-75592771D01*
X173635350Y-75592771D02*
X173602017Y-75745152D01*
X173602017Y-75745152D02*
X173602017Y-75859438D01*
X173602017Y-75859438D02*
X173635350Y-76011819D01*
X173635350Y-76011819D02*
X173668684Y-76088009D01*
X173668684Y-76088009D02*
X173735350Y-76164200D01*
X173735350Y-76164200D02*
X173835350Y-76202295D01*
X173835350Y-76202295D02*
X173902017Y-76202295D01*
X173902017Y-76202295D02*
X174002017Y-76164200D01*
X174002017Y-76164200D02*
X174035350Y-76126104D01*
X174035350Y-76126104D02*
X174035350Y-75859438D01*
X174035350Y-75859438D02*
X173902017Y-75859438D01*
X174335350Y-76202295D02*
X174335350Y-75402295D01*
X174335350Y-75402295D02*
X174602017Y-75402295D01*
X174602017Y-75402295D02*
X174668684Y-75440390D01*
X174668684Y-75440390D02*
X174702017Y-75478485D01*
X174702017Y-75478485D02*
X174735350Y-75554676D01*
X174735350Y-75554676D02*
X174735350Y-75668961D01*
X174735350Y-75668961D02*
X174702017Y-75745152D01*
X174702017Y-75745152D02*
X174668684Y-75783247D01*
X174668684Y-75783247D02*
X174602017Y-75821342D01*
X174602017Y-75821342D02*
X174335350Y-75821342D01*
X175035350Y-76202295D02*
X175035350Y-75402295D01*
X175502017Y-75402295D02*
X175635350Y-75402295D01*
X175635350Y-75402295D02*
X175702017Y-75440390D01*
X175702017Y-75440390D02*
X175768683Y-75516580D01*
X175768683Y-75516580D02*
X175802017Y-75668961D01*
X175802017Y-75668961D02*
X175802017Y-75935628D01*
X175802017Y-75935628D02*
X175768683Y-76088009D01*
X175768683Y-76088009D02*
X175702017Y-76164200D01*
X175702017Y-76164200D02*
X175635350Y-76202295D01*
X175635350Y-76202295D02*
X175502017Y-76202295D01*
X175502017Y-76202295D02*
X175435350Y-76164200D01*
X175435350Y-76164200D02*
X175368683Y-76088009D01*
X175368683Y-76088009D02*
X175335350Y-75935628D01*
X175335350Y-75935628D02*
X175335350Y-75668961D01*
X175335350Y-75668961D02*
X175368683Y-75516580D01*
X175368683Y-75516580D02*
X175435350Y-75440390D01*
X175435350Y-75440390D02*
X175502017Y-75402295D01*
X176035350Y-75402295D02*
X176468683Y-75402295D01*
X176468683Y-75402295D02*
X176235350Y-75707057D01*
X176235350Y-75707057D02*
X176335350Y-75707057D01*
X176335350Y-75707057D02*
X176402016Y-75745152D01*
X176402016Y-75745152D02*
X176435350Y-75783247D01*
X176435350Y-75783247D02*
X176468683Y-75859438D01*
X176468683Y-75859438D02*
X176468683Y-76049914D01*
X176468683Y-76049914D02*
X176435350Y-76126104D01*
X176435350Y-76126104D02*
X176402016Y-76164200D01*
X176402016Y-76164200D02*
X176335350Y-76202295D01*
X176335350Y-76202295D02*
X176135350Y-76202295D01*
X176135350Y-76202295D02*
X176068683Y-76164200D01*
X176068683Y-76164200D02*
X176035350Y-76126104D01*
X176702017Y-75402295D02*
X177135350Y-75402295D01*
X177135350Y-75402295D02*
X176902017Y-75707057D01*
X176902017Y-75707057D02*
X177002017Y-75707057D01*
X177002017Y-75707057D02*
X177068683Y-75745152D01*
X177068683Y-75745152D02*
X177102017Y-75783247D01*
X177102017Y-75783247D02*
X177135350Y-75859438D01*
X177135350Y-75859438D02*
X177135350Y-76049914D01*
X177135350Y-76049914D02*
X177102017Y-76126104D01*
X177102017Y-76126104D02*
X177068683Y-76164200D01*
X177068683Y-76164200D02*
X177002017Y-76202295D01*
X177002017Y-76202295D02*
X176802017Y-76202295D01*
X176802017Y-76202295D02*
X176735350Y-76164200D01*
X176735350Y-76164200D02*
X176702017Y-76126104D01*
X173535350Y-62702295D02*
X173768684Y-63502295D01*
X173768684Y-63502295D02*
X174002017Y-62702295D01*
X174235350Y-63502295D02*
X174235350Y-62702295D01*
X174235350Y-62702295D02*
X174502017Y-62702295D01*
X174502017Y-62702295D02*
X174568684Y-62740390D01*
X174568684Y-62740390D02*
X174602017Y-62778485D01*
X174602017Y-62778485D02*
X174635350Y-62854676D01*
X174635350Y-62854676D02*
X174635350Y-62968961D01*
X174635350Y-62968961D02*
X174602017Y-63045152D01*
X174602017Y-63045152D02*
X174568684Y-63083247D01*
X174568684Y-63083247D02*
X174502017Y-63121342D01*
X174502017Y-63121342D02*
X174235350Y-63121342D01*
X175435350Y-62664200D02*
X174835350Y-63692771D01*
X176035350Y-62740390D02*
X175968683Y-62702295D01*
X175968683Y-62702295D02*
X175868683Y-62702295D01*
X175868683Y-62702295D02*
X175768683Y-62740390D01*
X175768683Y-62740390D02*
X175702017Y-62816580D01*
X175702017Y-62816580D02*
X175668683Y-62892771D01*
X175668683Y-62892771D02*
X175635350Y-63045152D01*
X175635350Y-63045152D02*
X175635350Y-63159438D01*
X175635350Y-63159438D02*
X175668683Y-63311819D01*
X175668683Y-63311819D02*
X175702017Y-63388009D01*
X175702017Y-63388009D02*
X175768683Y-63464200D01*
X175768683Y-63464200D02*
X175868683Y-63502295D01*
X175868683Y-63502295D02*
X175935350Y-63502295D01*
X175935350Y-63502295D02*
X176035350Y-63464200D01*
X176035350Y-63464200D02*
X176068683Y-63426104D01*
X176068683Y-63426104D02*
X176068683Y-63159438D01*
X176068683Y-63159438D02*
X175935350Y-63159438D01*
X176368683Y-63502295D02*
X176368683Y-62702295D01*
X176368683Y-62702295D02*
X176635350Y-62702295D01*
X176635350Y-62702295D02*
X176702017Y-62740390D01*
X176702017Y-62740390D02*
X176735350Y-62778485D01*
X176735350Y-62778485D02*
X176768683Y-62854676D01*
X176768683Y-62854676D02*
X176768683Y-62968961D01*
X176768683Y-62968961D02*
X176735350Y-63045152D01*
X176735350Y-63045152D02*
X176702017Y-63083247D01*
X176702017Y-63083247D02*
X176635350Y-63121342D01*
X176635350Y-63121342D02*
X176368683Y-63121342D01*
X177068683Y-63502295D02*
X177068683Y-62702295D01*
X177535350Y-62702295D02*
X177668683Y-62702295D01*
X177668683Y-62702295D02*
X177735350Y-62740390D01*
X177735350Y-62740390D02*
X177802016Y-62816580D01*
X177802016Y-62816580D02*
X177835350Y-62968961D01*
X177835350Y-62968961D02*
X177835350Y-63235628D01*
X177835350Y-63235628D02*
X177802016Y-63388009D01*
X177802016Y-63388009D02*
X177735350Y-63464200D01*
X177735350Y-63464200D02*
X177668683Y-63502295D01*
X177668683Y-63502295D02*
X177535350Y-63502295D01*
X177535350Y-63502295D02*
X177468683Y-63464200D01*
X177468683Y-63464200D02*
X177402016Y-63388009D01*
X177402016Y-63388009D02*
X177368683Y-63235628D01*
X177368683Y-63235628D02*
X177368683Y-62968961D01*
X177368683Y-62968961D02*
X177402016Y-62816580D01*
X177402016Y-62816580D02*
X177468683Y-62740390D01*
X177468683Y-62740390D02*
X177535350Y-62702295D01*
X178068683Y-62702295D02*
X178502016Y-62702295D01*
X178502016Y-62702295D02*
X178268683Y-63007057D01*
X178268683Y-63007057D02*
X178368683Y-63007057D01*
X178368683Y-63007057D02*
X178435349Y-63045152D01*
X178435349Y-63045152D02*
X178468683Y-63083247D01*
X178468683Y-63083247D02*
X178502016Y-63159438D01*
X178502016Y-63159438D02*
X178502016Y-63349914D01*
X178502016Y-63349914D02*
X178468683Y-63426104D01*
X178468683Y-63426104D02*
X178435349Y-63464200D01*
X178435349Y-63464200D02*
X178368683Y-63502295D01*
X178368683Y-63502295D02*
X178168683Y-63502295D01*
X178168683Y-63502295D02*
X178102016Y-63464200D01*
X178102016Y-63464200D02*
X178068683Y-63426104D01*
X179102016Y-62702295D02*
X178968683Y-62702295D01*
X178968683Y-62702295D02*
X178902016Y-62740390D01*
X178902016Y-62740390D02*
X178868683Y-62778485D01*
X178868683Y-62778485D02*
X178802016Y-62892771D01*
X178802016Y-62892771D02*
X178768683Y-63045152D01*
X178768683Y-63045152D02*
X178768683Y-63349914D01*
X178768683Y-63349914D02*
X178802016Y-63426104D01*
X178802016Y-63426104D02*
X178835350Y-63464200D01*
X178835350Y-63464200D02*
X178902016Y-63502295D01*
X178902016Y-63502295D02*
X179035350Y-63502295D01*
X179035350Y-63502295D02*
X179102016Y-63464200D01*
X179102016Y-63464200D02*
X179135350Y-63426104D01*
X179135350Y-63426104D02*
X179168683Y-63349914D01*
X179168683Y-63349914D02*
X179168683Y-63159438D01*
X179168683Y-63159438D02*
X179135350Y-63083247D01*
X179135350Y-63083247D02*
X179102016Y-63045152D01*
X179102016Y-63045152D02*
X179035350Y-63007057D01*
X179035350Y-63007057D02*
X178902016Y-63007057D01*
X178902016Y-63007057D02*
X178835350Y-63045152D01*
X178835350Y-63045152D02*
X178802016Y-63083247D01*
X178802016Y-63083247D02*
X178768683Y-63159438D01*
X194931315Y-99062295D02*
X194931315Y-98262295D01*
X194931315Y-98262295D02*
X195097982Y-98262295D01*
X195097982Y-98262295D02*
X195197982Y-98300390D01*
X195197982Y-98300390D02*
X195264649Y-98376580D01*
X195264649Y-98376580D02*
X195297982Y-98452771D01*
X195297982Y-98452771D02*
X195331315Y-98605152D01*
X195331315Y-98605152D02*
X195331315Y-98719438D01*
X195331315Y-98719438D02*
X195297982Y-98871819D01*
X195297982Y-98871819D02*
X195264649Y-98948009D01*
X195264649Y-98948009D02*
X195197982Y-99024200D01*
X195197982Y-99024200D02*
X195097982Y-99062295D01*
X195097982Y-99062295D02*
X194931315Y-99062295D01*
X195997982Y-99062295D02*
X195597982Y-99062295D01*
X195797982Y-99062295D02*
X195797982Y-98262295D01*
X195797982Y-98262295D02*
X195731315Y-98376580D01*
X195731315Y-98376580D02*
X195664649Y-98452771D01*
X195664649Y-98452771D02*
X195597982Y-98490866D01*
X189364650Y-95760390D02*
X189297983Y-95722295D01*
X189297983Y-95722295D02*
X189197983Y-95722295D01*
X189197983Y-95722295D02*
X189097983Y-95760390D01*
X189097983Y-95760390D02*
X189031317Y-95836580D01*
X189031317Y-95836580D02*
X188997983Y-95912771D01*
X188997983Y-95912771D02*
X188964650Y-96065152D01*
X188964650Y-96065152D02*
X188964650Y-96179438D01*
X188964650Y-96179438D02*
X188997983Y-96331819D01*
X188997983Y-96331819D02*
X189031317Y-96408009D01*
X189031317Y-96408009D02*
X189097983Y-96484200D01*
X189097983Y-96484200D02*
X189197983Y-96522295D01*
X189197983Y-96522295D02*
X189264650Y-96522295D01*
X189264650Y-96522295D02*
X189364650Y-96484200D01*
X189364650Y-96484200D02*
X189397983Y-96446104D01*
X189397983Y-96446104D02*
X189397983Y-96179438D01*
X189397983Y-96179438D02*
X189264650Y-96179438D01*
X189697983Y-96522295D02*
X189697983Y-95722295D01*
X189697983Y-95722295D02*
X189964650Y-95722295D01*
X189964650Y-95722295D02*
X190031317Y-95760390D01*
X190031317Y-95760390D02*
X190064650Y-95798485D01*
X190064650Y-95798485D02*
X190097983Y-95874676D01*
X190097983Y-95874676D02*
X190097983Y-95988961D01*
X190097983Y-95988961D02*
X190064650Y-96065152D01*
X190064650Y-96065152D02*
X190031317Y-96103247D01*
X190031317Y-96103247D02*
X189964650Y-96141342D01*
X189964650Y-96141342D02*
X189697983Y-96141342D01*
X190397983Y-96522295D02*
X190397983Y-95722295D01*
X190864650Y-95722295D02*
X190997983Y-95722295D01*
X190997983Y-95722295D02*
X191064650Y-95760390D01*
X191064650Y-95760390D02*
X191131316Y-95836580D01*
X191131316Y-95836580D02*
X191164650Y-95988961D01*
X191164650Y-95988961D02*
X191164650Y-96255628D01*
X191164650Y-96255628D02*
X191131316Y-96408009D01*
X191131316Y-96408009D02*
X191064650Y-96484200D01*
X191064650Y-96484200D02*
X190997983Y-96522295D01*
X190997983Y-96522295D02*
X190864650Y-96522295D01*
X190864650Y-96522295D02*
X190797983Y-96484200D01*
X190797983Y-96484200D02*
X190731316Y-96408009D01*
X190731316Y-96408009D02*
X190697983Y-96255628D01*
X190697983Y-96255628D02*
X190697983Y-95988961D01*
X190697983Y-95988961D02*
X190731316Y-95836580D01*
X190731316Y-95836580D02*
X190797983Y-95760390D01*
X190797983Y-95760390D02*
X190864650Y-95722295D01*
X191831316Y-96522295D02*
X191431316Y-96522295D01*
X191631316Y-96522295D02*
X191631316Y-95722295D01*
X191631316Y-95722295D02*
X191564649Y-95836580D01*
X191564649Y-95836580D02*
X191497983Y-95912771D01*
X191497983Y-95912771D02*
X191431316Y-95950866D01*
X192464650Y-95722295D02*
X192131316Y-95722295D01*
X192131316Y-95722295D02*
X192097983Y-96103247D01*
X192097983Y-96103247D02*
X192131316Y-96065152D01*
X192131316Y-96065152D02*
X192197983Y-96027057D01*
X192197983Y-96027057D02*
X192364650Y-96027057D01*
X192364650Y-96027057D02*
X192431316Y-96065152D01*
X192431316Y-96065152D02*
X192464650Y-96103247D01*
X192464650Y-96103247D02*
X192497983Y-96179438D01*
X192497983Y-96179438D02*
X192497983Y-96369914D01*
X192497983Y-96369914D02*
X192464650Y-96446104D01*
X192464650Y-96446104D02*
X192431316Y-96484200D01*
X192431316Y-96484200D02*
X192364650Y-96522295D01*
X192364650Y-96522295D02*
X192197983Y-96522295D01*
X192197983Y-96522295D02*
X192131316Y-96484200D01*
X192131316Y-96484200D02*
X192097983Y-96446104D01*
X193297983Y-95684200D02*
X192697983Y-96712771D01*
X193531316Y-96522295D02*
X193531316Y-95722295D01*
X193531316Y-95722295D02*
X193764650Y-96293723D01*
X193764650Y-96293723D02*
X193997983Y-95722295D01*
X193997983Y-95722295D02*
X193997983Y-96522295D01*
X194231316Y-95722295D02*
X194631316Y-95722295D01*
X194431316Y-96522295D02*
X194431316Y-95722295D01*
X194864649Y-96522295D02*
X194864649Y-95722295D01*
X194864649Y-95722295D02*
X195031316Y-95722295D01*
X195031316Y-95722295D02*
X195131316Y-95760390D01*
X195131316Y-95760390D02*
X195197983Y-95836580D01*
X195197983Y-95836580D02*
X195231316Y-95912771D01*
X195231316Y-95912771D02*
X195264649Y-96065152D01*
X195264649Y-96065152D02*
X195264649Y-96179438D01*
X195264649Y-96179438D02*
X195231316Y-96331819D01*
X195231316Y-96331819D02*
X195197983Y-96408009D01*
X195197983Y-96408009D02*
X195131316Y-96484200D01*
X195131316Y-96484200D02*
X195031316Y-96522295D01*
X195031316Y-96522295D02*
X194864649Y-96522295D01*
X195697983Y-95722295D02*
X195831316Y-95722295D01*
X195831316Y-95722295D02*
X195897983Y-95760390D01*
X195897983Y-95760390D02*
X195964649Y-95836580D01*
X195964649Y-95836580D02*
X195997983Y-95988961D01*
X195997983Y-95988961D02*
X195997983Y-96255628D01*
X195997983Y-96255628D02*
X195964649Y-96408009D01*
X195964649Y-96408009D02*
X195897983Y-96484200D01*
X195897983Y-96484200D02*
X195831316Y-96522295D01*
X195831316Y-96522295D02*
X195697983Y-96522295D01*
X195697983Y-96522295D02*
X195631316Y-96484200D01*
X195631316Y-96484200D02*
X195564649Y-96408009D01*
X195564649Y-96408009D02*
X195531316Y-96255628D01*
X195531316Y-96255628D02*
X195531316Y-95988961D01*
X195531316Y-95988961D02*
X195564649Y-95836580D01*
X195564649Y-95836580D02*
X195631316Y-95760390D01*
X195631316Y-95760390D02*
X195697983Y-95722295D01*
X174002017Y-93220390D02*
X173935350Y-93182295D01*
X173935350Y-93182295D02*
X173835350Y-93182295D01*
X173835350Y-93182295D02*
X173735350Y-93220390D01*
X173735350Y-93220390D02*
X173668684Y-93296580D01*
X173668684Y-93296580D02*
X173635350Y-93372771D01*
X173635350Y-93372771D02*
X173602017Y-93525152D01*
X173602017Y-93525152D02*
X173602017Y-93639438D01*
X173602017Y-93639438D02*
X173635350Y-93791819D01*
X173635350Y-93791819D02*
X173668684Y-93868009D01*
X173668684Y-93868009D02*
X173735350Y-93944200D01*
X173735350Y-93944200D02*
X173835350Y-93982295D01*
X173835350Y-93982295D02*
X173902017Y-93982295D01*
X173902017Y-93982295D02*
X174002017Y-93944200D01*
X174002017Y-93944200D02*
X174035350Y-93906104D01*
X174035350Y-93906104D02*
X174035350Y-93639438D01*
X174035350Y-93639438D02*
X173902017Y-93639438D01*
X174335350Y-93982295D02*
X174335350Y-93182295D01*
X174335350Y-93182295D02*
X174602017Y-93182295D01*
X174602017Y-93182295D02*
X174668684Y-93220390D01*
X174668684Y-93220390D02*
X174702017Y-93258485D01*
X174702017Y-93258485D02*
X174735350Y-93334676D01*
X174735350Y-93334676D02*
X174735350Y-93448961D01*
X174735350Y-93448961D02*
X174702017Y-93525152D01*
X174702017Y-93525152D02*
X174668684Y-93563247D01*
X174668684Y-93563247D02*
X174602017Y-93601342D01*
X174602017Y-93601342D02*
X174335350Y-93601342D01*
X175035350Y-93982295D02*
X175035350Y-93182295D01*
X175502017Y-93182295D02*
X175635350Y-93182295D01*
X175635350Y-93182295D02*
X175702017Y-93220390D01*
X175702017Y-93220390D02*
X175768683Y-93296580D01*
X175768683Y-93296580D02*
X175802017Y-93448961D01*
X175802017Y-93448961D02*
X175802017Y-93715628D01*
X175802017Y-93715628D02*
X175768683Y-93868009D01*
X175768683Y-93868009D02*
X175702017Y-93944200D01*
X175702017Y-93944200D02*
X175635350Y-93982295D01*
X175635350Y-93982295D02*
X175502017Y-93982295D01*
X175502017Y-93982295D02*
X175435350Y-93944200D01*
X175435350Y-93944200D02*
X175368683Y-93868009D01*
X175368683Y-93868009D02*
X175335350Y-93715628D01*
X175335350Y-93715628D02*
X175335350Y-93448961D01*
X175335350Y-93448961D02*
X175368683Y-93296580D01*
X175368683Y-93296580D02*
X175435350Y-93220390D01*
X175435350Y-93220390D02*
X175502017Y-93182295D01*
X176468683Y-93982295D02*
X176068683Y-93982295D01*
X176268683Y-93982295D02*
X176268683Y-93182295D01*
X176268683Y-93182295D02*
X176202016Y-93296580D01*
X176202016Y-93296580D02*
X176135350Y-93372771D01*
X176135350Y-93372771D02*
X176068683Y-93410866D01*
X176702017Y-93182295D02*
X177135350Y-93182295D01*
X177135350Y-93182295D02*
X176902017Y-93487057D01*
X176902017Y-93487057D02*
X177002017Y-93487057D01*
X177002017Y-93487057D02*
X177068683Y-93525152D01*
X177068683Y-93525152D02*
X177102017Y-93563247D01*
X177102017Y-93563247D02*
X177135350Y-93639438D01*
X177135350Y-93639438D02*
X177135350Y-93829914D01*
X177135350Y-93829914D02*
X177102017Y-93906104D01*
X177102017Y-93906104D02*
X177068683Y-93944200D01*
X177068683Y-93944200D02*
X177002017Y-93982295D01*
X177002017Y-93982295D02*
X176802017Y-93982295D01*
X176802017Y-93982295D02*
X176735350Y-93944200D01*
X176735350Y-93944200D02*
X176702017Y-93906104D01*
X177935350Y-93144200D02*
X177335350Y-94172771D01*
X178168683Y-93982295D02*
X178168683Y-93182295D01*
X178168683Y-93182295D02*
X178402017Y-93753723D01*
X178402017Y-93753723D02*
X178635350Y-93182295D01*
X178635350Y-93182295D02*
X178635350Y-93982295D01*
X178868683Y-93182295D02*
X179268683Y-93182295D01*
X179068683Y-93982295D02*
X179068683Y-93182295D01*
X179902016Y-93906104D02*
X179868683Y-93944200D01*
X179868683Y-93944200D02*
X179768683Y-93982295D01*
X179768683Y-93982295D02*
X179702016Y-93982295D01*
X179702016Y-93982295D02*
X179602016Y-93944200D01*
X179602016Y-93944200D02*
X179535350Y-93868009D01*
X179535350Y-93868009D02*
X179502016Y-93791819D01*
X179502016Y-93791819D02*
X179468683Y-93639438D01*
X179468683Y-93639438D02*
X179468683Y-93525152D01*
X179468683Y-93525152D02*
X179502016Y-93372771D01*
X179502016Y-93372771D02*
X179535350Y-93296580D01*
X179535350Y-93296580D02*
X179602016Y-93220390D01*
X179602016Y-93220390D02*
X179702016Y-93182295D01*
X179702016Y-93182295D02*
X179768683Y-93182295D01*
X179768683Y-93182295D02*
X179868683Y-93220390D01*
X179868683Y-93220390D02*
X179902016Y-93258485D01*
X180202016Y-93982295D02*
X180202016Y-93182295D01*
X180602016Y-93982295D02*
X180302016Y-93525152D01*
X180602016Y-93182295D02*
X180202016Y-93639438D01*
X193845601Y-72802438D02*
X193750363Y-72754819D01*
X193750363Y-72754819D02*
X193607506Y-72754819D01*
X193607506Y-72754819D02*
X193464649Y-72802438D01*
X193464649Y-72802438D02*
X193369411Y-72897676D01*
X193369411Y-72897676D02*
X193321792Y-72992914D01*
X193321792Y-72992914D02*
X193274173Y-73183390D01*
X193274173Y-73183390D02*
X193274173Y-73326247D01*
X193274173Y-73326247D02*
X193321792Y-73516723D01*
X193321792Y-73516723D02*
X193369411Y-73611961D01*
X193369411Y-73611961D02*
X193464649Y-73707200D01*
X193464649Y-73707200D02*
X193607506Y-73754819D01*
X193607506Y-73754819D02*
X193702744Y-73754819D01*
X193702744Y-73754819D02*
X193845601Y-73707200D01*
X193845601Y-73707200D02*
X193893220Y-73659580D01*
X193893220Y-73659580D02*
X193893220Y-73326247D01*
X193893220Y-73326247D02*
X193702744Y-73326247D01*
X194321792Y-73754819D02*
X194321792Y-72754819D01*
X194321792Y-72754819D02*
X194893220Y-73754819D01*
X194893220Y-73754819D02*
X194893220Y-72754819D01*
X195369411Y-73754819D02*
X195369411Y-72754819D01*
X195369411Y-72754819D02*
X195607506Y-72754819D01*
X195607506Y-72754819D02*
X195750363Y-72802438D01*
X195750363Y-72802438D02*
X195845601Y-72897676D01*
X195845601Y-72897676D02*
X195893220Y-72992914D01*
X195893220Y-72992914D02*
X195940839Y-73183390D01*
X195940839Y-73183390D02*
X195940839Y-73326247D01*
X195940839Y-73326247D02*
X195893220Y-73516723D01*
X195893220Y-73516723D02*
X195845601Y-73611961D01*
X195845601Y-73611961D02*
X195750363Y-73707200D01*
X195750363Y-73707200D02*
X195607506Y-73754819D01*
X195607506Y-73754819D02*
X195369411Y-73754819D01*
X174002017Y-77980390D02*
X173935350Y-77942295D01*
X173935350Y-77942295D02*
X173835350Y-77942295D01*
X173835350Y-77942295D02*
X173735350Y-77980390D01*
X173735350Y-77980390D02*
X173668684Y-78056580D01*
X173668684Y-78056580D02*
X173635350Y-78132771D01*
X173635350Y-78132771D02*
X173602017Y-78285152D01*
X173602017Y-78285152D02*
X173602017Y-78399438D01*
X173602017Y-78399438D02*
X173635350Y-78551819D01*
X173635350Y-78551819D02*
X173668684Y-78628009D01*
X173668684Y-78628009D02*
X173735350Y-78704200D01*
X173735350Y-78704200D02*
X173835350Y-78742295D01*
X173835350Y-78742295D02*
X173902017Y-78742295D01*
X173902017Y-78742295D02*
X174002017Y-78704200D01*
X174002017Y-78704200D02*
X174035350Y-78666104D01*
X174035350Y-78666104D02*
X174035350Y-78399438D01*
X174035350Y-78399438D02*
X173902017Y-78399438D01*
X174335350Y-78742295D02*
X174335350Y-77942295D01*
X174335350Y-77942295D02*
X174602017Y-77942295D01*
X174602017Y-77942295D02*
X174668684Y-77980390D01*
X174668684Y-77980390D02*
X174702017Y-78018485D01*
X174702017Y-78018485D02*
X174735350Y-78094676D01*
X174735350Y-78094676D02*
X174735350Y-78208961D01*
X174735350Y-78208961D02*
X174702017Y-78285152D01*
X174702017Y-78285152D02*
X174668684Y-78323247D01*
X174668684Y-78323247D02*
X174602017Y-78361342D01*
X174602017Y-78361342D02*
X174335350Y-78361342D01*
X175035350Y-78742295D02*
X175035350Y-77942295D01*
X175502017Y-77942295D02*
X175635350Y-77942295D01*
X175635350Y-77942295D02*
X175702017Y-77980390D01*
X175702017Y-77980390D02*
X175768683Y-78056580D01*
X175768683Y-78056580D02*
X175802017Y-78208961D01*
X175802017Y-78208961D02*
X175802017Y-78475628D01*
X175802017Y-78475628D02*
X175768683Y-78628009D01*
X175768683Y-78628009D02*
X175702017Y-78704200D01*
X175702017Y-78704200D02*
X175635350Y-78742295D01*
X175635350Y-78742295D02*
X175502017Y-78742295D01*
X175502017Y-78742295D02*
X175435350Y-78704200D01*
X175435350Y-78704200D02*
X175368683Y-78628009D01*
X175368683Y-78628009D02*
X175335350Y-78475628D01*
X175335350Y-78475628D02*
X175335350Y-78208961D01*
X175335350Y-78208961D02*
X175368683Y-78056580D01*
X175368683Y-78056580D02*
X175435350Y-77980390D01*
X175435350Y-77980390D02*
X175502017Y-77942295D01*
X176068683Y-78018485D02*
X176102016Y-77980390D01*
X176102016Y-77980390D02*
X176168683Y-77942295D01*
X176168683Y-77942295D02*
X176335350Y-77942295D01*
X176335350Y-77942295D02*
X176402016Y-77980390D01*
X176402016Y-77980390D02*
X176435350Y-78018485D01*
X176435350Y-78018485D02*
X176468683Y-78094676D01*
X176468683Y-78094676D02*
X176468683Y-78170866D01*
X176468683Y-78170866D02*
X176435350Y-78285152D01*
X176435350Y-78285152D02*
X176035350Y-78742295D01*
X176035350Y-78742295D02*
X176468683Y-78742295D01*
X177102017Y-77942295D02*
X176768683Y-77942295D01*
X176768683Y-77942295D02*
X176735350Y-78323247D01*
X176735350Y-78323247D02*
X176768683Y-78285152D01*
X176768683Y-78285152D02*
X176835350Y-78247057D01*
X176835350Y-78247057D02*
X177002017Y-78247057D01*
X177002017Y-78247057D02*
X177068683Y-78285152D01*
X177068683Y-78285152D02*
X177102017Y-78323247D01*
X177102017Y-78323247D02*
X177135350Y-78399438D01*
X177135350Y-78399438D02*
X177135350Y-78589914D01*
X177135350Y-78589914D02*
X177102017Y-78666104D01*
X177102017Y-78666104D02*
X177068683Y-78704200D01*
X177068683Y-78704200D02*
X177002017Y-78742295D01*
X177002017Y-78742295D02*
X176835350Y-78742295D01*
X176835350Y-78742295D02*
X176768683Y-78704200D01*
X176768683Y-78704200D02*
X176735350Y-78666104D01*
X173635350Y-99062295D02*
X173635350Y-98262295D01*
X173635350Y-98262295D02*
X173802017Y-98262295D01*
X173802017Y-98262295D02*
X173902017Y-98300390D01*
X173902017Y-98300390D02*
X173968684Y-98376580D01*
X173968684Y-98376580D02*
X174002017Y-98452771D01*
X174002017Y-98452771D02*
X174035350Y-98605152D01*
X174035350Y-98605152D02*
X174035350Y-98719438D01*
X174035350Y-98719438D02*
X174002017Y-98871819D01*
X174002017Y-98871819D02*
X173968684Y-98948009D01*
X173968684Y-98948009D02*
X173902017Y-99024200D01*
X173902017Y-99024200D02*
X173802017Y-99062295D01*
X173802017Y-99062295D02*
X173635350Y-99062295D01*
X174268684Y-98262295D02*
X174702017Y-98262295D01*
X174702017Y-98262295D02*
X174468684Y-98567057D01*
X174468684Y-98567057D02*
X174568684Y-98567057D01*
X174568684Y-98567057D02*
X174635350Y-98605152D01*
X174635350Y-98605152D02*
X174668684Y-98643247D01*
X174668684Y-98643247D02*
X174702017Y-98719438D01*
X174702017Y-98719438D02*
X174702017Y-98909914D01*
X174702017Y-98909914D02*
X174668684Y-98986104D01*
X174668684Y-98986104D02*
X174635350Y-99024200D01*
X174635350Y-99024200D02*
X174568684Y-99062295D01*
X174568684Y-99062295D02*
X174368684Y-99062295D01*
X174368684Y-99062295D02*
X174302017Y-99024200D01*
X174302017Y-99024200D02*
X174268684Y-98986104D01*
X174230588Y-90582438D02*
X174135350Y-90534819D01*
X174135350Y-90534819D02*
X173992493Y-90534819D01*
X173992493Y-90534819D02*
X173849636Y-90582438D01*
X173849636Y-90582438D02*
X173754398Y-90677676D01*
X173754398Y-90677676D02*
X173706779Y-90772914D01*
X173706779Y-90772914D02*
X173659160Y-90963390D01*
X173659160Y-90963390D02*
X173659160Y-91106247D01*
X173659160Y-91106247D02*
X173706779Y-91296723D01*
X173706779Y-91296723D02*
X173754398Y-91391961D01*
X173754398Y-91391961D02*
X173849636Y-91487200D01*
X173849636Y-91487200D02*
X173992493Y-91534819D01*
X173992493Y-91534819D02*
X174087731Y-91534819D01*
X174087731Y-91534819D02*
X174230588Y-91487200D01*
X174230588Y-91487200D02*
X174278207Y-91439580D01*
X174278207Y-91439580D02*
X174278207Y-91106247D01*
X174278207Y-91106247D02*
X174087731Y-91106247D01*
X174706779Y-91534819D02*
X174706779Y-90534819D01*
X174706779Y-90534819D02*
X175278207Y-91534819D01*
X175278207Y-91534819D02*
X175278207Y-90534819D01*
X175754398Y-91534819D02*
X175754398Y-90534819D01*
X175754398Y-90534819D02*
X175992493Y-90534819D01*
X175992493Y-90534819D02*
X176135350Y-90582438D01*
X176135350Y-90582438D02*
X176230588Y-90677676D01*
X176230588Y-90677676D02*
X176278207Y-90772914D01*
X176278207Y-90772914D02*
X176325826Y-90963390D01*
X176325826Y-90963390D02*
X176325826Y-91106247D01*
X176325826Y-91106247D02*
X176278207Y-91296723D01*
X176278207Y-91296723D02*
X176230588Y-91391961D01*
X176230588Y-91391961D02*
X176135350Y-91487200D01*
X176135350Y-91487200D02*
X175992493Y-91534819D01*
X175992493Y-91534819D02*
X175754398Y-91534819D01*
X193531316Y-93220390D02*
X193464649Y-93182295D01*
X193464649Y-93182295D02*
X193364649Y-93182295D01*
X193364649Y-93182295D02*
X193264649Y-93220390D01*
X193264649Y-93220390D02*
X193197983Y-93296580D01*
X193197983Y-93296580D02*
X193164649Y-93372771D01*
X193164649Y-93372771D02*
X193131316Y-93525152D01*
X193131316Y-93525152D02*
X193131316Y-93639438D01*
X193131316Y-93639438D02*
X193164649Y-93791819D01*
X193164649Y-93791819D02*
X193197983Y-93868009D01*
X193197983Y-93868009D02*
X193264649Y-93944200D01*
X193264649Y-93944200D02*
X193364649Y-93982295D01*
X193364649Y-93982295D02*
X193431316Y-93982295D01*
X193431316Y-93982295D02*
X193531316Y-93944200D01*
X193531316Y-93944200D02*
X193564649Y-93906104D01*
X193564649Y-93906104D02*
X193564649Y-93639438D01*
X193564649Y-93639438D02*
X193431316Y-93639438D01*
X193864649Y-93982295D02*
X193864649Y-93182295D01*
X193864649Y-93182295D02*
X194131316Y-93182295D01*
X194131316Y-93182295D02*
X194197983Y-93220390D01*
X194197983Y-93220390D02*
X194231316Y-93258485D01*
X194231316Y-93258485D02*
X194264649Y-93334676D01*
X194264649Y-93334676D02*
X194264649Y-93448961D01*
X194264649Y-93448961D02*
X194231316Y-93525152D01*
X194231316Y-93525152D02*
X194197983Y-93563247D01*
X194197983Y-93563247D02*
X194131316Y-93601342D01*
X194131316Y-93601342D02*
X193864649Y-93601342D01*
X194564649Y-93982295D02*
X194564649Y-93182295D01*
X195031316Y-93182295D02*
X195164649Y-93182295D01*
X195164649Y-93182295D02*
X195231316Y-93220390D01*
X195231316Y-93220390D02*
X195297982Y-93296580D01*
X195297982Y-93296580D02*
X195331316Y-93448961D01*
X195331316Y-93448961D02*
X195331316Y-93715628D01*
X195331316Y-93715628D02*
X195297982Y-93868009D01*
X195297982Y-93868009D02*
X195231316Y-93944200D01*
X195231316Y-93944200D02*
X195164649Y-93982295D01*
X195164649Y-93982295D02*
X195031316Y-93982295D01*
X195031316Y-93982295D02*
X194964649Y-93944200D01*
X194964649Y-93944200D02*
X194897982Y-93868009D01*
X194897982Y-93868009D02*
X194864649Y-93715628D01*
X194864649Y-93715628D02*
X194864649Y-93448961D01*
X194864649Y-93448961D02*
X194897982Y-93296580D01*
X194897982Y-93296580D02*
X194964649Y-93220390D01*
X194964649Y-93220390D02*
X195031316Y-93182295D01*
X195597982Y-93258485D02*
X195631315Y-93220390D01*
X195631315Y-93220390D02*
X195697982Y-93182295D01*
X195697982Y-93182295D02*
X195864649Y-93182295D01*
X195864649Y-93182295D02*
X195931315Y-93220390D01*
X195931315Y-93220390D02*
X195964649Y-93258485D01*
X195964649Y-93258485D02*
X195997982Y-93334676D01*
X195997982Y-93334676D02*
X195997982Y-93410866D01*
X195997982Y-93410866D02*
X195964649Y-93525152D01*
X195964649Y-93525152D02*
X195564649Y-93982295D01*
X195564649Y-93982295D02*
X195997982Y-93982295D01*
X174002017Y-67820390D02*
X173935350Y-67782295D01*
X173935350Y-67782295D02*
X173835350Y-67782295D01*
X173835350Y-67782295D02*
X173735350Y-67820390D01*
X173735350Y-67820390D02*
X173668684Y-67896580D01*
X173668684Y-67896580D02*
X173635350Y-67972771D01*
X173635350Y-67972771D02*
X173602017Y-68125152D01*
X173602017Y-68125152D02*
X173602017Y-68239438D01*
X173602017Y-68239438D02*
X173635350Y-68391819D01*
X173635350Y-68391819D02*
X173668684Y-68468009D01*
X173668684Y-68468009D02*
X173735350Y-68544200D01*
X173735350Y-68544200D02*
X173835350Y-68582295D01*
X173835350Y-68582295D02*
X173902017Y-68582295D01*
X173902017Y-68582295D02*
X174002017Y-68544200D01*
X174002017Y-68544200D02*
X174035350Y-68506104D01*
X174035350Y-68506104D02*
X174035350Y-68239438D01*
X174035350Y-68239438D02*
X173902017Y-68239438D01*
X174335350Y-68582295D02*
X174335350Y-67782295D01*
X174335350Y-67782295D02*
X174602017Y-67782295D01*
X174602017Y-67782295D02*
X174668684Y-67820390D01*
X174668684Y-67820390D02*
X174702017Y-67858485D01*
X174702017Y-67858485D02*
X174735350Y-67934676D01*
X174735350Y-67934676D02*
X174735350Y-68048961D01*
X174735350Y-68048961D02*
X174702017Y-68125152D01*
X174702017Y-68125152D02*
X174668684Y-68163247D01*
X174668684Y-68163247D02*
X174602017Y-68201342D01*
X174602017Y-68201342D02*
X174335350Y-68201342D01*
X175035350Y-68582295D02*
X175035350Y-67782295D01*
X175502017Y-67782295D02*
X175635350Y-67782295D01*
X175635350Y-67782295D02*
X175702017Y-67820390D01*
X175702017Y-67820390D02*
X175768683Y-67896580D01*
X175768683Y-67896580D02*
X175802017Y-68048961D01*
X175802017Y-68048961D02*
X175802017Y-68315628D01*
X175802017Y-68315628D02*
X175768683Y-68468009D01*
X175768683Y-68468009D02*
X175702017Y-68544200D01*
X175702017Y-68544200D02*
X175635350Y-68582295D01*
X175635350Y-68582295D02*
X175502017Y-68582295D01*
X175502017Y-68582295D02*
X175435350Y-68544200D01*
X175435350Y-68544200D02*
X175368683Y-68468009D01*
X175368683Y-68468009D02*
X175335350Y-68315628D01*
X175335350Y-68315628D02*
X175335350Y-68048961D01*
X175335350Y-68048961D02*
X175368683Y-67896580D01*
X175368683Y-67896580D02*
X175435350Y-67820390D01*
X175435350Y-67820390D02*
X175502017Y-67782295D01*
X176035350Y-67782295D02*
X176468683Y-67782295D01*
X176468683Y-67782295D02*
X176235350Y-68087057D01*
X176235350Y-68087057D02*
X176335350Y-68087057D01*
X176335350Y-68087057D02*
X176402016Y-68125152D01*
X176402016Y-68125152D02*
X176435350Y-68163247D01*
X176435350Y-68163247D02*
X176468683Y-68239438D01*
X176468683Y-68239438D02*
X176468683Y-68429914D01*
X176468683Y-68429914D02*
X176435350Y-68506104D01*
X176435350Y-68506104D02*
X176402016Y-68544200D01*
X176402016Y-68544200D02*
X176335350Y-68582295D01*
X176335350Y-68582295D02*
X176135350Y-68582295D01*
X176135350Y-68582295D02*
X176068683Y-68544200D01*
X176068683Y-68544200D02*
X176035350Y-68506104D01*
X177068683Y-68048961D02*
X177068683Y-68582295D01*
X176902017Y-67744200D02*
X176735350Y-68315628D01*
X176735350Y-68315628D02*
X177168683Y-68315628D01*
X174002017Y-72900390D02*
X173935350Y-72862295D01*
X173935350Y-72862295D02*
X173835350Y-72862295D01*
X173835350Y-72862295D02*
X173735350Y-72900390D01*
X173735350Y-72900390D02*
X173668684Y-72976580D01*
X173668684Y-72976580D02*
X173635350Y-73052771D01*
X173635350Y-73052771D02*
X173602017Y-73205152D01*
X173602017Y-73205152D02*
X173602017Y-73319438D01*
X173602017Y-73319438D02*
X173635350Y-73471819D01*
X173635350Y-73471819D02*
X173668684Y-73548009D01*
X173668684Y-73548009D02*
X173735350Y-73624200D01*
X173735350Y-73624200D02*
X173835350Y-73662295D01*
X173835350Y-73662295D02*
X173902017Y-73662295D01*
X173902017Y-73662295D02*
X174002017Y-73624200D01*
X174002017Y-73624200D02*
X174035350Y-73586104D01*
X174035350Y-73586104D02*
X174035350Y-73319438D01*
X174035350Y-73319438D02*
X173902017Y-73319438D01*
X174335350Y-73662295D02*
X174335350Y-72862295D01*
X174335350Y-72862295D02*
X174602017Y-72862295D01*
X174602017Y-72862295D02*
X174668684Y-72900390D01*
X174668684Y-72900390D02*
X174702017Y-72938485D01*
X174702017Y-72938485D02*
X174735350Y-73014676D01*
X174735350Y-73014676D02*
X174735350Y-73128961D01*
X174735350Y-73128961D02*
X174702017Y-73205152D01*
X174702017Y-73205152D02*
X174668684Y-73243247D01*
X174668684Y-73243247D02*
X174602017Y-73281342D01*
X174602017Y-73281342D02*
X174335350Y-73281342D01*
X175035350Y-73662295D02*
X175035350Y-72862295D01*
X175502017Y-72862295D02*
X175635350Y-72862295D01*
X175635350Y-72862295D02*
X175702017Y-72900390D01*
X175702017Y-72900390D02*
X175768683Y-72976580D01*
X175768683Y-72976580D02*
X175802017Y-73128961D01*
X175802017Y-73128961D02*
X175802017Y-73395628D01*
X175802017Y-73395628D02*
X175768683Y-73548009D01*
X175768683Y-73548009D02*
X175702017Y-73624200D01*
X175702017Y-73624200D02*
X175635350Y-73662295D01*
X175635350Y-73662295D02*
X175502017Y-73662295D01*
X175502017Y-73662295D02*
X175435350Y-73624200D01*
X175435350Y-73624200D02*
X175368683Y-73548009D01*
X175368683Y-73548009D02*
X175335350Y-73395628D01*
X175335350Y-73395628D02*
X175335350Y-73128961D01*
X175335350Y-73128961D02*
X175368683Y-72976580D01*
X175368683Y-72976580D02*
X175435350Y-72900390D01*
X175435350Y-72900390D02*
X175502017Y-72862295D01*
X176035350Y-72862295D02*
X176468683Y-72862295D01*
X176468683Y-72862295D02*
X176235350Y-73167057D01*
X176235350Y-73167057D02*
X176335350Y-73167057D01*
X176335350Y-73167057D02*
X176402016Y-73205152D01*
X176402016Y-73205152D02*
X176435350Y-73243247D01*
X176435350Y-73243247D02*
X176468683Y-73319438D01*
X176468683Y-73319438D02*
X176468683Y-73509914D01*
X176468683Y-73509914D02*
X176435350Y-73586104D01*
X176435350Y-73586104D02*
X176402016Y-73624200D01*
X176402016Y-73624200D02*
X176335350Y-73662295D01*
X176335350Y-73662295D02*
X176135350Y-73662295D01*
X176135350Y-73662295D02*
X176068683Y-73624200D01*
X176068683Y-73624200D02*
X176035350Y-73586104D01*
X176735350Y-72938485D02*
X176768683Y-72900390D01*
X176768683Y-72900390D02*
X176835350Y-72862295D01*
X176835350Y-72862295D02*
X177002017Y-72862295D01*
X177002017Y-72862295D02*
X177068683Y-72900390D01*
X177068683Y-72900390D02*
X177102017Y-72938485D01*
X177102017Y-72938485D02*
X177135350Y-73014676D01*
X177135350Y-73014676D02*
X177135350Y-73090866D01*
X177135350Y-73090866D02*
X177102017Y-73205152D01*
X177102017Y-73205152D02*
X176702017Y-73662295D01*
X176702017Y-73662295D02*
X177135350Y-73662295D01*
X194931315Y-101602295D02*
X194931315Y-100802295D01*
X194931315Y-100802295D02*
X195097982Y-100802295D01*
X195097982Y-100802295D02*
X195197982Y-100840390D01*
X195197982Y-100840390D02*
X195264649Y-100916580D01*
X195264649Y-100916580D02*
X195297982Y-100992771D01*
X195297982Y-100992771D02*
X195331315Y-101145152D01*
X195331315Y-101145152D02*
X195331315Y-101259438D01*
X195331315Y-101259438D02*
X195297982Y-101411819D01*
X195297982Y-101411819D02*
X195264649Y-101488009D01*
X195264649Y-101488009D02*
X195197982Y-101564200D01*
X195197982Y-101564200D02*
X195097982Y-101602295D01*
X195097982Y-101602295D02*
X194931315Y-101602295D01*
X195764649Y-100802295D02*
X195831315Y-100802295D01*
X195831315Y-100802295D02*
X195897982Y-100840390D01*
X195897982Y-100840390D02*
X195931315Y-100878485D01*
X195931315Y-100878485D02*
X195964649Y-100954676D01*
X195964649Y-100954676D02*
X195997982Y-101107057D01*
X195997982Y-101107057D02*
X195997982Y-101297533D01*
X195997982Y-101297533D02*
X195964649Y-101449914D01*
X195964649Y-101449914D02*
X195931315Y-101526104D01*
X195931315Y-101526104D02*
X195897982Y-101564200D01*
X195897982Y-101564200D02*
X195831315Y-101602295D01*
X195831315Y-101602295D02*
X195764649Y-101602295D01*
X195764649Y-101602295D02*
X195697982Y-101564200D01*
X195697982Y-101564200D02*
X195664649Y-101526104D01*
X195664649Y-101526104D02*
X195631315Y-101449914D01*
X195631315Y-101449914D02*
X195597982Y-101297533D01*
X195597982Y-101297533D02*
X195597982Y-101107057D01*
X195597982Y-101107057D02*
X195631315Y-100954676D01*
X195631315Y-100954676D02*
X195664649Y-100878485D01*
X195664649Y-100878485D02*
X195697982Y-100840390D01*
X195697982Y-100840390D02*
X195764649Y-100802295D01*
X173601921Y-60528289D02*
X173935254Y-60528289D01*
X174078111Y-61052099D02*
X173601921Y-61052099D01*
X173601921Y-61052099D02*
X173601921Y-60052099D01*
X173601921Y-60052099D02*
X174078111Y-60052099D01*
X174506683Y-61052099D02*
X174506683Y-60052099D01*
X174506683Y-60052099D02*
X175078111Y-61052099D01*
X175078111Y-61052099D02*
X175078111Y-60052099D01*
X176268587Y-60004480D02*
X175411445Y-61290194D01*
X177173349Y-61052099D02*
X176840016Y-60575908D01*
X176601921Y-61052099D02*
X176601921Y-60052099D01*
X176601921Y-60052099D02*
X176982873Y-60052099D01*
X176982873Y-60052099D02*
X177078111Y-60099718D01*
X177078111Y-60099718D02*
X177125730Y-60147337D01*
X177125730Y-60147337D02*
X177173349Y-60242575D01*
X177173349Y-60242575D02*
X177173349Y-60385432D01*
X177173349Y-60385432D02*
X177125730Y-60480670D01*
X177125730Y-60480670D02*
X177078111Y-60528289D01*
X177078111Y-60528289D02*
X176982873Y-60575908D01*
X176982873Y-60575908D02*
X176601921Y-60575908D01*
X177601921Y-60528289D02*
X177935254Y-60528289D01*
X178078111Y-61052099D02*
X177601921Y-61052099D01*
X177601921Y-61052099D02*
X177601921Y-60052099D01*
X177601921Y-60052099D02*
X178078111Y-60052099D01*
X178459064Y-61004480D02*
X178601921Y-61052099D01*
X178601921Y-61052099D02*
X178840016Y-61052099D01*
X178840016Y-61052099D02*
X178935254Y-61004480D01*
X178935254Y-61004480D02*
X178982873Y-60956860D01*
X178982873Y-60956860D02*
X179030492Y-60861622D01*
X179030492Y-60861622D02*
X179030492Y-60766384D01*
X179030492Y-60766384D02*
X178982873Y-60671146D01*
X178982873Y-60671146D02*
X178935254Y-60623527D01*
X178935254Y-60623527D02*
X178840016Y-60575908D01*
X178840016Y-60575908D02*
X178649540Y-60528289D01*
X178649540Y-60528289D02*
X178554302Y-60480670D01*
X178554302Y-60480670D02*
X178506683Y-60433051D01*
X178506683Y-60433051D02*
X178459064Y-60337813D01*
X178459064Y-60337813D02*
X178459064Y-60242575D01*
X178459064Y-60242575D02*
X178506683Y-60147337D01*
X178506683Y-60147337D02*
X178554302Y-60099718D01*
X178554302Y-60099718D02*
X178649540Y-60052099D01*
X178649540Y-60052099D02*
X178887635Y-60052099D01*
X178887635Y-60052099D02*
X179030492Y-60099718D01*
X179459064Y-60528289D02*
X179792397Y-60528289D01*
X179935254Y-61052099D02*
X179459064Y-61052099D01*
X179459064Y-61052099D02*
X179459064Y-60052099D01*
X179459064Y-60052099D02*
X179935254Y-60052099D01*
X180220969Y-60052099D02*
X180792397Y-60052099D01*
X180506683Y-61052099D02*
X180506683Y-60052099D01*
X192864649Y-62740390D02*
X192797982Y-62702295D01*
X192797982Y-62702295D02*
X192697982Y-62702295D01*
X192697982Y-62702295D02*
X192597982Y-62740390D01*
X192597982Y-62740390D02*
X192531316Y-62816580D01*
X192531316Y-62816580D02*
X192497982Y-62892771D01*
X192497982Y-62892771D02*
X192464649Y-63045152D01*
X192464649Y-63045152D02*
X192464649Y-63159438D01*
X192464649Y-63159438D02*
X192497982Y-63311819D01*
X192497982Y-63311819D02*
X192531316Y-63388009D01*
X192531316Y-63388009D02*
X192597982Y-63464200D01*
X192597982Y-63464200D02*
X192697982Y-63502295D01*
X192697982Y-63502295D02*
X192764649Y-63502295D01*
X192764649Y-63502295D02*
X192864649Y-63464200D01*
X192864649Y-63464200D02*
X192897982Y-63426104D01*
X192897982Y-63426104D02*
X192897982Y-63159438D01*
X192897982Y-63159438D02*
X192764649Y-63159438D01*
X193197982Y-63502295D02*
X193197982Y-62702295D01*
X193197982Y-62702295D02*
X193464649Y-62702295D01*
X193464649Y-62702295D02*
X193531316Y-62740390D01*
X193531316Y-62740390D02*
X193564649Y-62778485D01*
X193564649Y-62778485D02*
X193597982Y-62854676D01*
X193597982Y-62854676D02*
X193597982Y-62968961D01*
X193597982Y-62968961D02*
X193564649Y-63045152D01*
X193564649Y-63045152D02*
X193531316Y-63083247D01*
X193531316Y-63083247D02*
X193464649Y-63121342D01*
X193464649Y-63121342D02*
X193197982Y-63121342D01*
X193897982Y-63502295D02*
X193897982Y-62702295D01*
X194364649Y-62702295D02*
X194497982Y-62702295D01*
X194497982Y-62702295D02*
X194564649Y-62740390D01*
X194564649Y-62740390D02*
X194631315Y-62816580D01*
X194631315Y-62816580D02*
X194664649Y-62968961D01*
X194664649Y-62968961D02*
X194664649Y-63235628D01*
X194664649Y-63235628D02*
X194631315Y-63388009D01*
X194631315Y-63388009D02*
X194564649Y-63464200D01*
X194564649Y-63464200D02*
X194497982Y-63502295D01*
X194497982Y-63502295D02*
X194364649Y-63502295D01*
X194364649Y-63502295D02*
X194297982Y-63464200D01*
X194297982Y-63464200D02*
X194231315Y-63388009D01*
X194231315Y-63388009D02*
X194197982Y-63235628D01*
X194197982Y-63235628D02*
X194197982Y-62968961D01*
X194197982Y-62968961D02*
X194231315Y-62816580D01*
X194231315Y-62816580D02*
X194297982Y-62740390D01*
X194297982Y-62740390D02*
X194364649Y-62702295D01*
X194931315Y-62778485D02*
X194964648Y-62740390D01*
X194964648Y-62740390D02*
X195031315Y-62702295D01*
X195031315Y-62702295D02*
X195197982Y-62702295D01*
X195197982Y-62702295D02*
X195264648Y-62740390D01*
X195264648Y-62740390D02*
X195297982Y-62778485D01*
X195297982Y-62778485D02*
X195331315Y-62854676D01*
X195331315Y-62854676D02*
X195331315Y-62930866D01*
X195331315Y-62930866D02*
X195297982Y-63045152D01*
X195297982Y-63045152D02*
X194897982Y-63502295D01*
X194897982Y-63502295D02*
X195331315Y-63502295D01*
X195597982Y-62778485D02*
X195631315Y-62740390D01*
X195631315Y-62740390D02*
X195697982Y-62702295D01*
X195697982Y-62702295D02*
X195864649Y-62702295D01*
X195864649Y-62702295D02*
X195931315Y-62740390D01*
X195931315Y-62740390D02*
X195964649Y-62778485D01*
X195964649Y-62778485D02*
X195997982Y-62854676D01*
X195997982Y-62854676D02*
X195997982Y-62930866D01*
X195997982Y-62930866D02*
X195964649Y-63045152D01*
X195964649Y-63045152D02*
X195564649Y-63502295D01*
X195564649Y-63502295D02*
X195997982Y-63502295D01*
X194731315Y-104066104D02*
X194697982Y-104104200D01*
X194697982Y-104104200D02*
X194597982Y-104142295D01*
X194597982Y-104142295D02*
X194531315Y-104142295D01*
X194531315Y-104142295D02*
X194431315Y-104104200D01*
X194431315Y-104104200D02*
X194364649Y-104028009D01*
X194364649Y-104028009D02*
X194331315Y-103951819D01*
X194331315Y-103951819D02*
X194297982Y-103799438D01*
X194297982Y-103799438D02*
X194297982Y-103685152D01*
X194297982Y-103685152D02*
X194331315Y-103532771D01*
X194331315Y-103532771D02*
X194364649Y-103456580D01*
X194364649Y-103456580D02*
X194431315Y-103380390D01*
X194431315Y-103380390D02*
X194531315Y-103342295D01*
X194531315Y-103342295D02*
X194597982Y-103342295D01*
X194597982Y-103342295D02*
X194697982Y-103380390D01*
X194697982Y-103380390D02*
X194731315Y-103418485D01*
X195364649Y-104142295D02*
X195031315Y-104142295D01*
X195031315Y-104142295D02*
X195031315Y-103342295D01*
X195597982Y-104142295D02*
X195597982Y-103342295D01*
X195997982Y-104142295D02*
X195697982Y-103685152D01*
X195997982Y-103342295D02*
X195597982Y-103799438D01*
X189331316Y-67820390D02*
X189264649Y-67782295D01*
X189264649Y-67782295D02*
X189164649Y-67782295D01*
X189164649Y-67782295D02*
X189064649Y-67820390D01*
X189064649Y-67820390D02*
X188997983Y-67896580D01*
X188997983Y-67896580D02*
X188964649Y-67972771D01*
X188964649Y-67972771D02*
X188931316Y-68125152D01*
X188931316Y-68125152D02*
X188931316Y-68239438D01*
X188931316Y-68239438D02*
X188964649Y-68391819D01*
X188964649Y-68391819D02*
X188997983Y-68468009D01*
X188997983Y-68468009D02*
X189064649Y-68544200D01*
X189064649Y-68544200D02*
X189164649Y-68582295D01*
X189164649Y-68582295D02*
X189231316Y-68582295D01*
X189231316Y-68582295D02*
X189331316Y-68544200D01*
X189331316Y-68544200D02*
X189364649Y-68506104D01*
X189364649Y-68506104D02*
X189364649Y-68239438D01*
X189364649Y-68239438D02*
X189231316Y-68239438D01*
X189664649Y-68582295D02*
X189664649Y-67782295D01*
X189664649Y-67782295D02*
X189931316Y-67782295D01*
X189931316Y-67782295D02*
X189997983Y-67820390D01*
X189997983Y-67820390D02*
X190031316Y-67858485D01*
X190031316Y-67858485D02*
X190064649Y-67934676D01*
X190064649Y-67934676D02*
X190064649Y-68048961D01*
X190064649Y-68048961D02*
X190031316Y-68125152D01*
X190031316Y-68125152D02*
X189997983Y-68163247D01*
X189997983Y-68163247D02*
X189931316Y-68201342D01*
X189931316Y-68201342D02*
X189664649Y-68201342D01*
X190364649Y-68582295D02*
X190364649Y-67782295D01*
X190831316Y-67782295D02*
X190964649Y-67782295D01*
X190964649Y-67782295D02*
X191031316Y-67820390D01*
X191031316Y-67820390D02*
X191097982Y-67896580D01*
X191097982Y-67896580D02*
X191131316Y-68048961D01*
X191131316Y-68048961D02*
X191131316Y-68315628D01*
X191131316Y-68315628D02*
X191097982Y-68468009D01*
X191097982Y-68468009D02*
X191031316Y-68544200D01*
X191031316Y-68544200D02*
X190964649Y-68582295D01*
X190964649Y-68582295D02*
X190831316Y-68582295D01*
X190831316Y-68582295D02*
X190764649Y-68544200D01*
X190764649Y-68544200D02*
X190697982Y-68468009D01*
X190697982Y-68468009D02*
X190664649Y-68315628D01*
X190664649Y-68315628D02*
X190664649Y-68048961D01*
X190664649Y-68048961D02*
X190697982Y-67896580D01*
X190697982Y-67896580D02*
X190764649Y-67820390D01*
X190764649Y-67820390D02*
X190831316Y-67782295D01*
X191364649Y-67782295D02*
X191797982Y-67782295D01*
X191797982Y-67782295D02*
X191564649Y-68087057D01*
X191564649Y-68087057D02*
X191664649Y-68087057D01*
X191664649Y-68087057D02*
X191731315Y-68125152D01*
X191731315Y-68125152D02*
X191764649Y-68163247D01*
X191764649Y-68163247D02*
X191797982Y-68239438D01*
X191797982Y-68239438D02*
X191797982Y-68429914D01*
X191797982Y-68429914D02*
X191764649Y-68506104D01*
X191764649Y-68506104D02*
X191731315Y-68544200D01*
X191731315Y-68544200D02*
X191664649Y-68582295D01*
X191664649Y-68582295D02*
X191464649Y-68582295D01*
X191464649Y-68582295D02*
X191397982Y-68544200D01*
X191397982Y-68544200D02*
X191364649Y-68506104D01*
X192597982Y-67744200D02*
X191997982Y-68772771D01*
X192831315Y-67782295D02*
X192831315Y-68429914D01*
X192831315Y-68429914D02*
X192864649Y-68506104D01*
X192864649Y-68506104D02*
X192897982Y-68544200D01*
X192897982Y-68544200D02*
X192964649Y-68582295D01*
X192964649Y-68582295D02*
X193097982Y-68582295D01*
X193097982Y-68582295D02*
X193164649Y-68544200D01*
X193164649Y-68544200D02*
X193197982Y-68506104D01*
X193197982Y-68506104D02*
X193231315Y-68429914D01*
X193231315Y-68429914D02*
X193231315Y-67782295D01*
X193697982Y-67782295D02*
X193764648Y-67782295D01*
X193764648Y-67782295D02*
X193831315Y-67820390D01*
X193831315Y-67820390D02*
X193864648Y-67858485D01*
X193864648Y-67858485D02*
X193897982Y-67934676D01*
X193897982Y-67934676D02*
X193931315Y-68087057D01*
X193931315Y-68087057D02*
X193931315Y-68277533D01*
X193931315Y-68277533D02*
X193897982Y-68429914D01*
X193897982Y-68429914D02*
X193864648Y-68506104D01*
X193864648Y-68506104D02*
X193831315Y-68544200D01*
X193831315Y-68544200D02*
X193764648Y-68582295D01*
X193764648Y-68582295D02*
X193697982Y-68582295D01*
X193697982Y-68582295D02*
X193631315Y-68544200D01*
X193631315Y-68544200D02*
X193597982Y-68506104D01*
X193597982Y-68506104D02*
X193564648Y-68429914D01*
X193564648Y-68429914D02*
X193531315Y-68277533D01*
X193531315Y-68277533D02*
X193531315Y-68087057D01*
X193531315Y-68087057D02*
X193564648Y-67934676D01*
X193564648Y-67934676D02*
X193597982Y-67858485D01*
X193597982Y-67858485D02*
X193631315Y-67820390D01*
X193631315Y-67820390D02*
X193697982Y-67782295D01*
X194631315Y-68582295D02*
X194397982Y-68201342D01*
X194231315Y-68582295D02*
X194231315Y-67782295D01*
X194231315Y-67782295D02*
X194497982Y-67782295D01*
X194497982Y-67782295D02*
X194564649Y-67820390D01*
X194564649Y-67820390D02*
X194597982Y-67858485D01*
X194597982Y-67858485D02*
X194631315Y-67934676D01*
X194631315Y-67934676D02*
X194631315Y-68048961D01*
X194631315Y-68048961D02*
X194597982Y-68125152D01*
X194597982Y-68125152D02*
X194564649Y-68163247D01*
X194564649Y-68163247D02*
X194497982Y-68201342D01*
X194497982Y-68201342D02*
X194231315Y-68201342D01*
X194864649Y-67782295D02*
X195331315Y-68582295D01*
X195331315Y-67782295D02*
X194864649Y-68582295D01*
X195597982Y-68582295D02*
X195597982Y-67782295D01*
X195597982Y-67782295D02*
X195764649Y-67782295D01*
X195764649Y-67782295D02*
X195864649Y-67820390D01*
X195864649Y-67820390D02*
X195931316Y-67896580D01*
X195931316Y-67896580D02*
X195964649Y-67972771D01*
X195964649Y-67972771D02*
X195997982Y-68125152D01*
X195997982Y-68125152D02*
X195997982Y-68239438D01*
X195997982Y-68239438D02*
X195964649Y-68391819D01*
X195964649Y-68391819D02*
X195931316Y-68468009D01*
X195931316Y-68468009D02*
X195864649Y-68544200D01*
X195864649Y-68544200D02*
X195764649Y-68582295D01*
X195764649Y-68582295D02*
X195597982Y-68582295D01*
X192864649Y-60200390D02*
X192797982Y-60162295D01*
X192797982Y-60162295D02*
X192697982Y-60162295D01*
X192697982Y-60162295D02*
X192597982Y-60200390D01*
X192597982Y-60200390D02*
X192531316Y-60276580D01*
X192531316Y-60276580D02*
X192497982Y-60352771D01*
X192497982Y-60352771D02*
X192464649Y-60505152D01*
X192464649Y-60505152D02*
X192464649Y-60619438D01*
X192464649Y-60619438D02*
X192497982Y-60771819D01*
X192497982Y-60771819D02*
X192531316Y-60848009D01*
X192531316Y-60848009D02*
X192597982Y-60924200D01*
X192597982Y-60924200D02*
X192697982Y-60962295D01*
X192697982Y-60962295D02*
X192764649Y-60962295D01*
X192764649Y-60962295D02*
X192864649Y-60924200D01*
X192864649Y-60924200D02*
X192897982Y-60886104D01*
X192897982Y-60886104D02*
X192897982Y-60619438D01*
X192897982Y-60619438D02*
X192764649Y-60619438D01*
X193197982Y-60962295D02*
X193197982Y-60162295D01*
X193197982Y-60162295D02*
X193464649Y-60162295D01*
X193464649Y-60162295D02*
X193531316Y-60200390D01*
X193531316Y-60200390D02*
X193564649Y-60238485D01*
X193564649Y-60238485D02*
X193597982Y-60314676D01*
X193597982Y-60314676D02*
X193597982Y-60428961D01*
X193597982Y-60428961D02*
X193564649Y-60505152D01*
X193564649Y-60505152D02*
X193531316Y-60543247D01*
X193531316Y-60543247D02*
X193464649Y-60581342D01*
X193464649Y-60581342D02*
X193197982Y-60581342D01*
X193897982Y-60962295D02*
X193897982Y-60162295D01*
X194364649Y-60162295D02*
X194497982Y-60162295D01*
X194497982Y-60162295D02*
X194564649Y-60200390D01*
X194564649Y-60200390D02*
X194631315Y-60276580D01*
X194631315Y-60276580D02*
X194664649Y-60428961D01*
X194664649Y-60428961D02*
X194664649Y-60695628D01*
X194664649Y-60695628D02*
X194631315Y-60848009D01*
X194631315Y-60848009D02*
X194564649Y-60924200D01*
X194564649Y-60924200D02*
X194497982Y-60962295D01*
X194497982Y-60962295D02*
X194364649Y-60962295D01*
X194364649Y-60962295D02*
X194297982Y-60924200D01*
X194297982Y-60924200D02*
X194231315Y-60848009D01*
X194231315Y-60848009D02*
X194197982Y-60695628D01*
X194197982Y-60695628D02*
X194197982Y-60428961D01*
X194197982Y-60428961D02*
X194231315Y-60276580D01*
X194231315Y-60276580D02*
X194297982Y-60200390D01*
X194297982Y-60200390D02*
X194364649Y-60162295D01*
X194931315Y-60238485D02*
X194964648Y-60200390D01*
X194964648Y-60200390D02*
X195031315Y-60162295D01*
X195031315Y-60162295D02*
X195197982Y-60162295D01*
X195197982Y-60162295D02*
X195264648Y-60200390D01*
X195264648Y-60200390D02*
X195297982Y-60238485D01*
X195297982Y-60238485D02*
X195331315Y-60314676D01*
X195331315Y-60314676D02*
X195331315Y-60390866D01*
X195331315Y-60390866D02*
X195297982Y-60505152D01*
X195297982Y-60505152D02*
X194897982Y-60962295D01*
X194897982Y-60962295D02*
X195331315Y-60962295D01*
X195564649Y-60162295D02*
X195997982Y-60162295D01*
X195997982Y-60162295D02*
X195764649Y-60467057D01*
X195764649Y-60467057D02*
X195864649Y-60467057D01*
X195864649Y-60467057D02*
X195931315Y-60505152D01*
X195931315Y-60505152D02*
X195964649Y-60543247D01*
X195964649Y-60543247D02*
X195997982Y-60619438D01*
X195997982Y-60619438D02*
X195997982Y-60809914D01*
X195997982Y-60809914D02*
X195964649Y-60886104D01*
X195964649Y-60886104D02*
X195931315Y-60924200D01*
X195931315Y-60924200D02*
X195864649Y-60962295D01*
X195864649Y-60962295D02*
X195664649Y-60962295D01*
X195664649Y-60962295D02*
X195597982Y-60924200D01*
X195597982Y-60924200D02*
X195564649Y-60886104D01*
X193531316Y-90680390D02*
X193464649Y-90642295D01*
X193464649Y-90642295D02*
X193364649Y-90642295D01*
X193364649Y-90642295D02*
X193264649Y-90680390D01*
X193264649Y-90680390D02*
X193197983Y-90756580D01*
X193197983Y-90756580D02*
X193164649Y-90832771D01*
X193164649Y-90832771D02*
X193131316Y-90985152D01*
X193131316Y-90985152D02*
X193131316Y-91099438D01*
X193131316Y-91099438D02*
X193164649Y-91251819D01*
X193164649Y-91251819D02*
X193197983Y-91328009D01*
X193197983Y-91328009D02*
X193264649Y-91404200D01*
X193264649Y-91404200D02*
X193364649Y-91442295D01*
X193364649Y-91442295D02*
X193431316Y-91442295D01*
X193431316Y-91442295D02*
X193531316Y-91404200D01*
X193531316Y-91404200D02*
X193564649Y-91366104D01*
X193564649Y-91366104D02*
X193564649Y-91099438D01*
X193564649Y-91099438D02*
X193431316Y-91099438D01*
X193864649Y-91442295D02*
X193864649Y-90642295D01*
X193864649Y-90642295D02*
X194131316Y-90642295D01*
X194131316Y-90642295D02*
X194197983Y-90680390D01*
X194197983Y-90680390D02*
X194231316Y-90718485D01*
X194231316Y-90718485D02*
X194264649Y-90794676D01*
X194264649Y-90794676D02*
X194264649Y-90908961D01*
X194264649Y-90908961D02*
X194231316Y-90985152D01*
X194231316Y-90985152D02*
X194197983Y-91023247D01*
X194197983Y-91023247D02*
X194131316Y-91061342D01*
X194131316Y-91061342D02*
X193864649Y-91061342D01*
X194564649Y-91442295D02*
X194564649Y-90642295D01*
X195031316Y-90642295D02*
X195164649Y-90642295D01*
X195164649Y-90642295D02*
X195231316Y-90680390D01*
X195231316Y-90680390D02*
X195297982Y-90756580D01*
X195297982Y-90756580D02*
X195331316Y-90908961D01*
X195331316Y-90908961D02*
X195331316Y-91175628D01*
X195331316Y-91175628D02*
X195297982Y-91328009D01*
X195297982Y-91328009D02*
X195231316Y-91404200D01*
X195231316Y-91404200D02*
X195164649Y-91442295D01*
X195164649Y-91442295D02*
X195031316Y-91442295D01*
X195031316Y-91442295D02*
X194964649Y-91404200D01*
X194964649Y-91404200D02*
X194897982Y-91328009D01*
X194897982Y-91328009D02*
X194864649Y-91175628D01*
X194864649Y-91175628D02*
X194864649Y-90908961D01*
X194864649Y-90908961D02*
X194897982Y-90756580D01*
X194897982Y-90756580D02*
X194964649Y-90680390D01*
X194964649Y-90680390D02*
X195031316Y-90642295D01*
X195764649Y-90642295D02*
X195831315Y-90642295D01*
X195831315Y-90642295D02*
X195897982Y-90680390D01*
X195897982Y-90680390D02*
X195931315Y-90718485D01*
X195931315Y-90718485D02*
X195964649Y-90794676D01*
X195964649Y-90794676D02*
X195997982Y-90947057D01*
X195997982Y-90947057D02*
X195997982Y-91137533D01*
X195997982Y-91137533D02*
X195964649Y-91289914D01*
X195964649Y-91289914D02*
X195931315Y-91366104D01*
X195931315Y-91366104D02*
X195897982Y-91404200D01*
X195897982Y-91404200D02*
X195831315Y-91442295D01*
X195831315Y-91442295D02*
X195764649Y-91442295D01*
X195764649Y-91442295D02*
X195697982Y-91404200D01*
X195697982Y-91404200D02*
X195664649Y-91366104D01*
X195664649Y-91366104D02*
X195631315Y-91289914D01*
X195631315Y-91289914D02*
X195597982Y-91137533D01*
X195597982Y-91137533D02*
X195597982Y-90947057D01*
X195597982Y-90947057D02*
X195631315Y-90794676D01*
X195631315Y-90794676D02*
X195664649Y-90718485D01*
X195664649Y-90718485D02*
X195697982Y-90680390D01*
X195697982Y-90680390D02*
X195764649Y-90642295D01*
X192864649Y-85600390D02*
X192797982Y-85562295D01*
X192797982Y-85562295D02*
X192697982Y-85562295D01*
X192697982Y-85562295D02*
X192597982Y-85600390D01*
X192597982Y-85600390D02*
X192531316Y-85676580D01*
X192531316Y-85676580D02*
X192497982Y-85752771D01*
X192497982Y-85752771D02*
X192464649Y-85905152D01*
X192464649Y-85905152D02*
X192464649Y-86019438D01*
X192464649Y-86019438D02*
X192497982Y-86171819D01*
X192497982Y-86171819D02*
X192531316Y-86248009D01*
X192531316Y-86248009D02*
X192597982Y-86324200D01*
X192597982Y-86324200D02*
X192697982Y-86362295D01*
X192697982Y-86362295D02*
X192764649Y-86362295D01*
X192764649Y-86362295D02*
X192864649Y-86324200D01*
X192864649Y-86324200D02*
X192897982Y-86286104D01*
X192897982Y-86286104D02*
X192897982Y-86019438D01*
X192897982Y-86019438D02*
X192764649Y-86019438D01*
X193197982Y-86362295D02*
X193197982Y-85562295D01*
X193197982Y-85562295D02*
X193464649Y-85562295D01*
X193464649Y-85562295D02*
X193531316Y-85600390D01*
X193531316Y-85600390D02*
X193564649Y-85638485D01*
X193564649Y-85638485D02*
X193597982Y-85714676D01*
X193597982Y-85714676D02*
X193597982Y-85828961D01*
X193597982Y-85828961D02*
X193564649Y-85905152D01*
X193564649Y-85905152D02*
X193531316Y-85943247D01*
X193531316Y-85943247D02*
X193464649Y-85981342D01*
X193464649Y-85981342D02*
X193197982Y-85981342D01*
X193897982Y-86362295D02*
X193897982Y-85562295D01*
X194364649Y-85562295D02*
X194497982Y-85562295D01*
X194497982Y-85562295D02*
X194564649Y-85600390D01*
X194564649Y-85600390D02*
X194631315Y-85676580D01*
X194631315Y-85676580D02*
X194664649Y-85828961D01*
X194664649Y-85828961D02*
X194664649Y-86095628D01*
X194664649Y-86095628D02*
X194631315Y-86248009D01*
X194631315Y-86248009D02*
X194564649Y-86324200D01*
X194564649Y-86324200D02*
X194497982Y-86362295D01*
X194497982Y-86362295D02*
X194364649Y-86362295D01*
X194364649Y-86362295D02*
X194297982Y-86324200D01*
X194297982Y-86324200D02*
X194231315Y-86248009D01*
X194231315Y-86248009D02*
X194197982Y-86095628D01*
X194197982Y-86095628D02*
X194197982Y-85828961D01*
X194197982Y-85828961D02*
X194231315Y-85676580D01*
X194231315Y-85676580D02*
X194297982Y-85600390D01*
X194297982Y-85600390D02*
X194364649Y-85562295D01*
X195331315Y-86362295D02*
X194931315Y-86362295D01*
X195131315Y-86362295D02*
X195131315Y-85562295D01*
X195131315Y-85562295D02*
X195064648Y-85676580D01*
X195064648Y-85676580D02*
X194997982Y-85752771D01*
X194997982Y-85752771D02*
X194931315Y-85790866D01*
X195931315Y-85562295D02*
X195797982Y-85562295D01*
X195797982Y-85562295D02*
X195731315Y-85600390D01*
X195731315Y-85600390D02*
X195697982Y-85638485D01*
X195697982Y-85638485D02*
X195631315Y-85752771D01*
X195631315Y-85752771D02*
X195597982Y-85905152D01*
X195597982Y-85905152D02*
X195597982Y-86209914D01*
X195597982Y-86209914D02*
X195631315Y-86286104D01*
X195631315Y-86286104D02*
X195664649Y-86324200D01*
X195664649Y-86324200D02*
X195731315Y-86362295D01*
X195731315Y-86362295D02*
X195864649Y-86362295D01*
X195864649Y-86362295D02*
X195931315Y-86324200D01*
X195931315Y-86324200D02*
X195964649Y-86286104D01*
X195964649Y-86286104D02*
X195997982Y-86209914D01*
X195997982Y-86209914D02*
X195997982Y-86019438D01*
X195997982Y-86019438D02*
X195964649Y-85943247D01*
X195964649Y-85943247D02*
X195931315Y-85905152D01*
X195931315Y-85905152D02*
X195864649Y-85867057D01*
X195864649Y-85867057D02*
X195731315Y-85867057D01*
X195731315Y-85867057D02*
X195664649Y-85905152D01*
X195664649Y-85905152D02*
X195631315Y-85943247D01*
X195631315Y-85943247D02*
X195597982Y-86019438D01*
X192864649Y-77980390D02*
X192797982Y-77942295D01*
X192797982Y-77942295D02*
X192697982Y-77942295D01*
X192697982Y-77942295D02*
X192597982Y-77980390D01*
X192597982Y-77980390D02*
X192531316Y-78056580D01*
X192531316Y-78056580D02*
X192497982Y-78132771D01*
X192497982Y-78132771D02*
X192464649Y-78285152D01*
X192464649Y-78285152D02*
X192464649Y-78399438D01*
X192464649Y-78399438D02*
X192497982Y-78551819D01*
X192497982Y-78551819D02*
X192531316Y-78628009D01*
X192531316Y-78628009D02*
X192597982Y-78704200D01*
X192597982Y-78704200D02*
X192697982Y-78742295D01*
X192697982Y-78742295D02*
X192764649Y-78742295D01*
X192764649Y-78742295D02*
X192864649Y-78704200D01*
X192864649Y-78704200D02*
X192897982Y-78666104D01*
X192897982Y-78666104D02*
X192897982Y-78399438D01*
X192897982Y-78399438D02*
X192764649Y-78399438D01*
X193197982Y-78742295D02*
X193197982Y-77942295D01*
X193197982Y-77942295D02*
X193464649Y-77942295D01*
X193464649Y-77942295D02*
X193531316Y-77980390D01*
X193531316Y-77980390D02*
X193564649Y-78018485D01*
X193564649Y-78018485D02*
X193597982Y-78094676D01*
X193597982Y-78094676D02*
X193597982Y-78208961D01*
X193597982Y-78208961D02*
X193564649Y-78285152D01*
X193564649Y-78285152D02*
X193531316Y-78323247D01*
X193531316Y-78323247D02*
X193464649Y-78361342D01*
X193464649Y-78361342D02*
X193197982Y-78361342D01*
X193897982Y-78742295D02*
X193897982Y-77942295D01*
X194364649Y-77942295D02*
X194497982Y-77942295D01*
X194497982Y-77942295D02*
X194564649Y-77980390D01*
X194564649Y-77980390D02*
X194631315Y-78056580D01*
X194631315Y-78056580D02*
X194664649Y-78208961D01*
X194664649Y-78208961D02*
X194664649Y-78475628D01*
X194664649Y-78475628D02*
X194631315Y-78628009D01*
X194631315Y-78628009D02*
X194564649Y-78704200D01*
X194564649Y-78704200D02*
X194497982Y-78742295D01*
X194497982Y-78742295D02*
X194364649Y-78742295D01*
X194364649Y-78742295D02*
X194297982Y-78704200D01*
X194297982Y-78704200D02*
X194231315Y-78628009D01*
X194231315Y-78628009D02*
X194197982Y-78475628D01*
X194197982Y-78475628D02*
X194197982Y-78208961D01*
X194197982Y-78208961D02*
X194231315Y-78056580D01*
X194231315Y-78056580D02*
X194297982Y-77980390D01*
X194297982Y-77980390D02*
X194364649Y-77942295D01*
X195331315Y-78742295D02*
X194931315Y-78742295D01*
X195131315Y-78742295D02*
X195131315Y-77942295D01*
X195131315Y-77942295D02*
X195064648Y-78056580D01*
X195064648Y-78056580D02*
X194997982Y-78132771D01*
X194997982Y-78132771D02*
X194931315Y-78170866D01*
X195731315Y-78285152D02*
X195664649Y-78247057D01*
X195664649Y-78247057D02*
X195631315Y-78208961D01*
X195631315Y-78208961D02*
X195597982Y-78132771D01*
X195597982Y-78132771D02*
X195597982Y-78094676D01*
X195597982Y-78094676D02*
X195631315Y-78018485D01*
X195631315Y-78018485D02*
X195664649Y-77980390D01*
X195664649Y-77980390D02*
X195731315Y-77942295D01*
X195731315Y-77942295D02*
X195864649Y-77942295D01*
X195864649Y-77942295D02*
X195931315Y-77980390D01*
X195931315Y-77980390D02*
X195964649Y-78018485D01*
X195964649Y-78018485D02*
X195997982Y-78094676D01*
X195997982Y-78094676D02*
X195997982Y-78132771D01*
X195997982Y-78132771D02*
X195964649Y-78208961D01*
X195964649Y-78208961D02*
X195931315Y-78247057D01*
X195931315Y-78247057D02*
X195864649Y-78285152D01*
X195864649Y-78285152D02*
X195731315Y-78285152D01*
X195731315Y-78285152D02*
X195664649Y-78323247D01*
X195664649Y-78323247D02*
X195631315Y-78361342D01*
X195631315Y-78361342D02*
X195597982Y-78437533D01*
X195597982Y-78437533D02*
X195597982Y-78589914D01*
X195597982Y-78589914D02*
X195631315Y-78666104D01*
X195631315Y-78666104D02*
X195664649Y-78704200D01*
X195664649Y-78704200D02*
X195731315Y-78742295D01*
X195731315Y-78742295D02*
X195864649Y-78742295D01*
X195864649Y-78742295D02*
X195931315Y-78704200D01*
X195931315Y-78704200D02*
X195964649Y-78666104D01*
X195964649Y-78666104D02*
X195997982Y-78589914D01*
X195997982Y-78589914D02*
X195997982Y-78437533D01*
X195997982Y-78437533D02*
X195964649Y-78361342D01*
X195964649Y-78361342D02*
X195931315Y-78323247D01*
X195931315Y-78323247D02*
X195864649Y-78285152D01*
X189497983Y-65280390D02*
X189431316Y-65242295D01*
X189431316Y-65242295D02*
X189331316Y-65242295D01*
X189331316Y-65242295D02*
X189231316Y-65280390D01*
X189231316Y-65280390D02*
X189164650Y-65356580D01*
X189164650Y-65356580D02*
X189131316Y-65432771D01*
X189131316Y-65432771D02*
X189097983Y-65585152D01*
X189097983Y-65585152D02*
X189097983Y-65699438D01*
X189097983Y-65699438D02*
X189131316Y-65851819D01*
X189131316Y-65851819D02*
X189164650Y-65928009D01*
X189164650Y-65928009D02*
X189231316Y-66004200D01*
X189231316Y-66004200D02*
X189331316Y-66042295D01*
X189331316Y-66042295D02*
X189397983Y-66042295D01*
X189397983Y-66042295D02*
X189497983Y-66004200D01*
X189497983Y-66004200D02*
X189531316Y-65966104D01*
X189531316Y-65966104D02*
X189531316Y-65699438D01*
X189531316Y-65699438D02*
X189397983Y-65699438D01*
X189831316Y-66042295D02*
X189831316Y-65242295D01*
X189831316Y-65242295D02*
X190097983Y-65242295D01*
X190097983Y-65242295D02*
X190164650Y-65280390D01*
X190164650Y-65280390D02*
X190197983Y-65318485D01*
X190197983Y-65318485D02*
X190231316Y-65394676D01*
X190231316Y-65394676D02*
X190231316Y-65508961D01*
X190231316Y-65508961D02*
X190197983Y-65585152D01*
X190197983Y-65585152D02*
X190164650Y-65623247D01*
X190164650Y-65623247D02*
X190097983Y-65661342D01*
X190097983Y-65661342D02*
X189831316Y-65661342D01*
X190531316Y-66042295D02*
X190531316Y-65242295D01*
X190997983Y-65242295D02*
X191131316Y-65242295D01*
X191131316Y-65242295D02*
X191197983Y-65280390D01*
X191197983Y-65280390D02*
X191264649Y-65356580D01*
X191264649Y-65356580D02*
X191297983Y-65508961D01*
X191297983Y-65508961D02*
X191297983Y-65775628D01*
X191297983Y-65775628D02*
X191264649Y-65928009D01*
X191264649Y-65928009D02*
X191197983Y-66004200D01*
X191197983Y-66004200D02*
X191131316Y-66042295D01*
X191131316Y-66042295D02*
X190997983Y-66042295D01*
X190997983Y-66042295D02*
X190931316Y-66004200D01*
X190931316Y-66004200D02*
X190864649Y-65928009D01*
X190864649Y-65928009D02*
X190831316Y-65775628D01*
X190831316Y-65775628D02*
X190831316Y-65508961D01*
X190831316Y-65508961D02*
X190864649Y-65356580D01*
X190864649Y-65356580D02*
X190931316Y-65280390D01*
X190931316Y-65280390D02*
X190997983Y-65242295D01*
X191964649Y-66042295D02*
X191564649Y-66042295D01*
X191764649Y-66042295D02*
X191764649Y-65242295D01*
X191764649Y-65242295D02*
X191697982Y-65356580D01*
X191697982Y-65356580D02*
X191631316Y-65432771D01*
X191631316Y-65432771D02*
X191564649Y-65470866D01*
X192764649Y-65204200D02*
X192164649Y-66232771D01*
X192997982Y-65242295D02*
X192997982Y-65889914D01*
X192997982Y-65889914D02*
X193031316Y-65966104D01*
X193031316Y-65966104D02*
X193064649Y-66004200D01*
X193064649Y-66004200D02*
X193131316Y-66042295D01*
X193131316Y-66042295D02*
X193264649Y-66042295D01*
X193264649Y-66042295D02*
X193331316Y-66004200D01*
X193331316Y-66004200D02*
X193364649Y-65966104D01*
X193364649Y-65966104D02*
X193397982Y-65889914D01*
X193397982Y-65889914D02*
X193397982Y-65242295D01*
X193864649Y-65242295D02*
X193931315Y-65242295D01*
X193931315Y-65242295D02*
X193997982Y-65280390D01*
X193997982Y-65280390D02*
X194031315Y-65318485D01*
X194031315Y-65318485D02*
X194064649Y-65394676D01*
X194064649Y-65394676D02*
X194097982Y-65547057D01*
X194097982Y-65547057D02*
X194097982Y-65737533D01*
X194097982Y-65737533D02*
X194064649Y-65889914D01*
X194064649Y-65889914D02*
X194031315Y-65966104D01*
X194031315Y-65966104D02*
X193997982Y-66004200D01*
X193997982Y-66004200D02*
X193931315Y-66042295D01*
X193931315Y-66042295D02*
X193864649Y-66042295D01*
X193864649Y-66042295D02*
X193797982Y-66004200D01*
X193797982Y-66004200D02*
X193764649Y-65966104D01*
X193764649Y-65966104D02*
X193731315Y-65889914D01*
X193731315Y-65889914D02*
X193697982Y-65737533D01*
X193697982Y-65737533D02*
X193697982Y-65547057D01*
X193697982Y-65547057D02*
X193731315Y-65394676D01*
X193731315Y-65394676D02*
X193764649Y-65318485D01*
X193764649Y-65318485D02*
X193797982Y-65280390D01*
X193797982Y-65280390D02*
X193864649Y-65242295D01*
X194297982Y-65242295D02*
X194697982Y-65242295D01*
X194497982Y-66042295D02*
X194497982Y-65242295D01*
X194864649Y-65242295D02*
X195331315Y-66042295D01*
X195331315Y-65242295D02*
X194864649Y-66042295D01*
X195597982Y-66042295D02*
X195597982Y-65242295D01*
X195597982Y-65242295D02*
X195764649Y-65242295D01*
X195764649Y-65242295D02*
X195864649Y-65280390D01*
X195864649Y-65280390D02*
X195931316Y-65356580D01*
X195931316Y-65356580D02*
X195964649Y-65432771D01*
X195964649Y-65432771D02*
X195997982Y-65585152D01*
X195997982Y-65585152D02*
X195997982Y-65699438D01*
X195997982Y-65699438D02*
X195964649Y-65851819D01*
X195964649Y-65851819D02*
X195931316Y-65928009D01*
X195931316Y-65928009D02*
X195864649Y-66004200D01*
X195864649Y-66004200D02*
X195764649Y-66042295D01*
X195764649Y-66042295D02*
X195597982Y-66042295D01*
X192864649Y-70360390D02*
X192797982Y-70322295D01*
X192797982Y-70322295D02*
X192697982Y-70322295D01*
X192697982Y-70322295D02*
X192597982Y-70360390D01*
X192597982Y-70360390D02*
X192531316Y-70436580D01*
X192531316Y-70436580D02*
X192497982Y-70512771D01*
X192497982Y-70512771D02*
X192464649Y-70665152D01*
X192464649Y-70665152D02*
X192464649Y-70779438D01*
X192464649Y-70779438D02*
X192497982Y-70931819D01*
X192497982Y-70931819D02*
X192531316Y-71008009D01*
X192531316Y-71008009D02*
X192597982Y-71084200D01*
X192597982Y-71084200D02*
X192697982Y-71122295D01*
X192697982Y-71122295D02*
X192764649Y-71122295D01*
X192764649Y-71122295D02*
X192864649Y-71084200D01*
X192864649Y-71084200D02*
X192897982Y-71046104D01*
X192897982Y-71046104D02*
X192897982Y-70779438D01*
X192897982Y-70779438D02*
X192764649Y-70779438D01*
X193197982Y-71122295D02*
X193197982Y-70322295D01*
X193197982Y-70322295D02*
X193464649Y-70322295D01*
X193464649Y-70322295D02*
X193531316Y-70360390D01*
X193531316Y-70360390D02*
X193564649Y-70398485D01*
X193564649Y-70398485D02*
X193597982Y-70474676D01*
X193597982Y-70474676D02*
X193597982Y-70588961D01*
X193597982Y-70588961D02*
X193564649Y-70665152D01*
X193564649Y-70665152D02*
X193531316Y-70703247D01*
X193531316Y-70703247D02*
X193464649Y-70741342D01*
X193464649Y-70741342D02*
X193197982Y-70741342D01*
X193897982Y-71122295D02*
X193897982Y-70322295D01*
X194364649Y-70322295D02*
X194497982Y-70322295D01*
X194497982Y-70322295D02*
X194564649Y-70360390D01*
X194564649Y-70360390D02*
X194631315Y-70436580D01*
X194631315Y-70436580D02*
X194664649Y-70588961D01*
X194664649Y-70588961D02*
X194664649Y-70855628D01*
X194664649Y-70855628D02*
X194631315Y-71008009D01*
X194631315Y-71008009D02*
X194564649Y-71084200D01*
X194564649Y-71084200D02*
X194497982Y-71122295D01*
X194497982Y-71122295D02*
X194364649Y-71122295D01*
X194364649Y-71122295D02*
X194297982Y-71084200D01*
X194297982Y-71084200D02*
X194231315Y-71008009D01*
X194231315Y-71008009D02*
X194197982Y-70855628D01*
X194197982Y-70855628D02*
X194197982Y-70588961D01*
X194197982Y-70588961D02*
X194231315Y-70436580D01*
X194231315Y-70436580D02*
X194297982Y-70360390D01*
X194297982Y-70360390D02*
X194364649Y-70322295D01*
X194931315Y-70398485D02*
X194964648Y-70360390D01*
X194964648Y-70360390D02*
X195031315Y-70322295D01*
X195031315Y-70322295D02*
X195197982Y-70322295D01*
X195197982Y-70322295D02*
X195264648Y-70360390D01*
X195264648Y-70360390D02*
X195297982Y-70398485D01*
X195297982Y-70398485D02*
X195331315Y-70474676D01*
X195331315Y-70474676D02*
X195331315Y-70550866D01*
X195331315Y-70550866D02*
X195297982Y-70665152D01*
X195297982Y-70665152D02*
X194897982Y-71122295D01*
X194897982Y-71122295D02*
X195331315Y-71122295D01*
X195997982Y-71122295D02*
X195597982Y-71122295D01*
X195797982Y-71122295D02*
X195797982Y-70322295D01*
X195797982Y-70322295D02*
X195731315Y-70436580D01*
X195731315Y-70436580D02*
X195664649Y-70512771D01*
X195664649Y-70512771D02*
X195597982Y-70550866D01*
X173611541Y-57514819D02*
X174230588Y-57514819D01*
X174230588Y-57514819D02*
X173897255Y-57895771D01*
X173897255Y-57895771D02*
X174040112Y-57895771D01*
X174040112Y-57895771D02*
X174135350Y-57943390D01*
X174135350Y-57943390D02*
X174182969Y-57991009D01*
X174182969Y-57991009D02*
X174230588Y-58086247D01*
X174230588Y-58086247D02*
X174230588Y-58324342D01*
X174230588Y-58324342D02*
X174182969Y-58419580D01*
X174182969Y-58419580D02*
X174135350Y-58467200D01*
X174135350Y-58467200D02*
X174040112Y-58514819D01*
X174040112Y-58514819D02*
X173754398Y-58514819D01*
X173754398Y-58514819D02*
X173659160Y-58467200D01*
X173659160Y-58467200D02*
X173611541Y-58419580D01*
X174516303Y-57514819D02*
X174849636Y-58514819D01*
X174849636Y-58514819D02*
X175182969Y-57514819D01*
X175421065Y-57514819D02*
X176040112Y-57514819D01*
X176040112Y-57514819D02*
X175706779Y-57895771D01*
X175706779Y-57895771D02*
X175849636Y-57895771D01*
X175849636Y-57895771D02*
X175944874Y-57943390D01*
X175944874Y-57943390D02*
X175992493Y-57991009D01*
X175992493Y-57991009D02*
X176040112Y-58086247D01*
X176040112Y-58086247D02*
X176040112Y-58324342D01*
X176040112Y-58324342D02*
X175992493Y-58419580D01*
X175992493Y-58419580D02*
X175944874Y-58467200D01*
X175944874Y-58467200D02*
X175849636Y-58514819D01*
X175849636Y-58514819D02*
X175563922Y-58514819D01*
X175563922Y-58514819D02*
X175468684Y-58467200D01*
X175468684Y-58467200D02*
X175421065Y-58419580D01*
X174002017Y-85600390D02*
X173935350Y-85562295D01*
X173935350Y-85562295D02*
X173835350Y-85562295D01*
X173835350Y-85562295D02*
X173735350Y-85600390D01*
X173735350Y-85600390D02*
X173668684Y-85676580D01*
X173668684Y-85676580D02*
X173635350Y-85752771D01*
X173635350Y-85752771D02*
X173602017Y-85905152D01*
X173602017Y-85905152D02*
X173602017Y-86019438D01*
X173602017Y-86019438D02*
X173635350Y-86171819D01*
X173635350Y-86171819D02*
X173668684Y-86248009D01*
X173668684Y-86248009D02*
X173735350Y-86324200D01*
X173735350Y-86324200D02*
X173835350Y-86362295D01*
X173835350Y-86362295D02*
X173902017Y-86362295D01*
X173902017Y-86362295D02*
X174002017Y-86324200D01*
X174002017Y-86324200D02*
X174035350Y-86286104D01*
X174035350Y-86286104D02*
X174035350Y-86019438D01*
X174035350Y-86019438D02*
X173902017Y-86019438D01*
X174335350Y-86362295D02*
X174335350Y-85562295D01*
X174335350Y-85562295D02*
X174602017Y-85562295D01*
X174602017Y-85562295D02*
X174668684Y-85600390D01*
X174668684Y-85600390D02*
X174702017Y-85638485D01*
X174702017Y-85638485D02*
X174735350Y-85714676D01*
X174735350Y-85714676D02*
X174735350Y-85828961D01*
X174735350Y-85828961D02*
X174702017Y-85905152D01*
X174702017Y-85905152D02*
X174668684Y-85943247D01*
X174668684Y-85943247D02*
X174602017Y-85981342D01*
X174602017Y-85981342D02*
X174335350Y-85981342D01*
X175035350Y-86362295D02*
X175035350Y-85562295D01*
X175502017Y-85562295D02*
X175635350Y-85562295D01*
X175635350Y-85562295D02*
X175702017Y-85600390D01*
X175702017Y-85600390D02*
X175768683Y-85676580D01*
X175768683Y-85676580D02*
X175802017Y-85828961D01*
X175802017Y-85828961D02*
X175802017Y-86095628D01*
X175802017Y-86095628D02*
X175768683Y-86248009D01*
X175768683Y-86248009D02*
X175702017Y-86324200D01*
X175702017Y-86324200D02*
X175635350Y-86362295D01*
X175635350Y-86362295D02*
X175502017Y-86362295D01*
X175502017Y-86362295D02*
X175435350Y-86324200D01*
X175435350Y-86324200D02*
X175368683Y-86248009D01*
X175368683Y-86248009D02*
X175335350Y-86095628D01*
X175335350Y-86095628D02*
X175335350Y-85828961D01*
X175335350Y-85828961D02*
X175368683Y-85676580D01*
X175368683Y-85676580D02*
X175435350Y-85600390D01*
X175435350Y-85600390D02*
X175502017Y-85562295D01*
X176468683Y-86362295D02*
X176068683Y-86362295D01*
X176268683Y-86362295D02*
X176268683Y-85562295D01*
X176268683Y-85562295D02*
X176202016Y-85676580D01*
X176202016Y-85676580D02*
X176135350Y-85752771D01*
X176135350Y-85752771D02*
X176068683Y-85790866D01*
X177068683Y-85828961D02*
X177068683Y-86362295D01*
X176902017Y-85524200D02*
X176735350Y-86095628D01*
X176735350Y-86095628D02*
X177168683Y-86095628D01*
X177935350Y-85524200D02*
X177335350Y-86552771D01*
X178168683Y-86362295D02*
X178168683Y-85562295D01*
X178168683Y-85562295D02*
X178402017Y-86133723D01*
X178402017Y-86133723D02*
X178635350Y-85562295D01*
X178635350Y-85562295D02*
X178635350Y-86362295D01*
X178868683Y-85562295D02*
X179268683Y-85562295D01*
X179068683Y-86362295D02*
X179068683Y-85562295D01*
X179502016Y-86362295D02*
X179502016Y-85562295D01*
X179502016Y-85562295D02*
X179735350Y-86133723D01*
X179735350Y-86133723D02*
X179968683Y-85562295D01*
X179968683Y-85562295D02*
X179968683Y-86362295D01*
X180268683Y-86324200D02*
X180368683Y-86362295D01*
X180368683Y-86362295D02*
X180535350Y-86362295D01*
X180535350Y-86362295D02*
X180602016Y-86324200D01*
X180602016Y-86324200D02*
X180635350Y-86286104D01*
X180635350Y-86286104D02*
X180668683Y-86209914D01*
X180668683Y-86209914D02*
X180668683Y-86133723D01*
X180668683Y-86133723D02*
X180635350Y-86057533D01*
X180635350Y-86057533D02*
X180602016Y-86019438D01*
X180602016Y-86019438D02*
X180535350Y-85981342D01*
X180535350Y-85981342D02*
X180402016Y-85943247D01*
X180402016Y-85943247D02*
X180335350Y-85905152D01*
X180335350Y-85905152D02*
X180302016Y-85867057D01*
X180302016Y-85867057D02*
X180268683Y-85790866D01*
X180268683Y-85790866D02*
X180268683Y-85714676D01*
X180268683Y-85714676D02*
X180302016Y-85638485D01*
X180302016Y-85638485D02*
X180335350Y-85600390D01*
X180335350Y-85600390D02*
X180402016Y-85562295D01*
X180402016Y-85562295D02*
X180568683Y-85562295D01*
X180568683Y-85562295D02*
X180668683Y-85600390D01*
X173535350Y-65242295D02*
X173768684Y-66042295D01*
X173768684Y-66042295D02*
X174002017Y-65242295D01*
X174235350Y-66042295D02*
X174235350Y-65242295D01*
X174235350Y-65242295D02*
X174635350Y-66042295D01*
X174635350Y-66042295D02*
X174635350Y-65242295D01*
X175468683Y-65204200D02*
X174868683Y-66232771D01*
X176068683Y-65280390D02*
X176002016Y-65242295D01*
X176002016Y-65242295D02*
X175902016Y-65242295D01*
X175902016Y-65242295D02*
X175802016Y-65280390D01*
X175802016Y-65280390D02*
X175735350Y-65356580D01*
X175735350Y-65356580D02*
X175702016Y-65432771D01*
X175702016Y-65432771D02*
X175668683Y-65585152D01*
X175668683Y-65585152D02*
X175668683Y-65699438D01*
X175668683Y-65699438D02*
X175702016Y-65851819D01*
X175702016Y-65851819D02*
X175735350Y-65928009D01*
X175735350Y-65928009D02*
X175802016Y-66004200D01*
X175802016Y-66004200D02*
X175902016Y-66042295D01*
X175902016Y-66042295D02*
X175968683Y-66042295D01*
X175968683Y-66042295D02*
X176068683Y-66004200D01*
X176068683Y-66004200D02*
X176102016Y-65966104D01*
X176102016Y-65966104D02*
X176102016Y-65699438D01*
X176102016Y-65699438D02*
X175968683Y-65699438D01*
X176402016Y-66042295D02*
X176402016Y-65242295D01*
X176402016Y-65242295D02*
X176668683Y-65242295D01*
X176668683Y-65242295D02*
X176735350Y-65280390D01*
X176735350Y-65280390D02*
X176768683Y-65318485D01*
X176768683Y-65318485D02*
X176802016Y-65394676D01*
X176802016Y-65394676D02*
X176802016Y-65508961D01*
X176802016Y-65508961D02*
X176768683Y-65585152D01*
X176768683Y-65585152D02*
X176735350Y-65623247D01*
X176735350Y-65623247D02*
X176668683Y-65661342D01*
X176668683Y-65661342D02*
X176402016Y-65661342D01*
X177102016Y-66042295D02*
X177102016Y-65242295D01*
X177568683Y-65242295D02*
X177702016Y-65242295D01*
X177702016Y-65242295D02*
X177768683Y-65280390D01*
X177768683Y-65280390D02*
X177835349Y-65356580D01*
X177835349Y-65356580D02*
X177868683Y-65508961D01*
X177868683Y-65508961D02*
X177868683Y-65775628D01*
X177868683Y-65775628D02*
X177835349Y-65928009D01*
X177835349Y-65928009D02*
X177768683Y-66004200D01*
X177768683Y-66004200D02*
X177702016Y-66042295D01*
X177702016Y-66042295D02*
X177568683Y-66042295D01*
X177568683Y-66042295D02*
X177502016Y-66004200D01*
X177502016Y-66004200D02*
X177435349Y-65928009D01*
X177435349Y-65928009D02*
X177402016Y-65775628D01*
X177402016Y-65775628D02*
X177402016Y-65508961D01*
X177402016Y-65508961D02*
X177435349Y-65356580D01*
X177435349Y-65356580D02*
X177502016Y-65280390D01*
X177502016Y-65280390D02*
X177568683Y-65242295D01*
X178102016Y-65242295D02*
X178535349Y-65242295D01*
X178535349Y-65242295D02*
X178302016Y-65547057D01*
X178302016Y-65547057D02*
X178402016Y-65547057D01*
X178402016Y-65547057D02*
X178468682Y-65585152D01*
X178468682Y-65585152D02*
X178502016Y-65623247D01*
X178502016Y-65623247D02*
X178535349Y-65699438D01*
X178535349Y-65699438D02*
X178535349Y-65889914D01*
X178535349Y-65889914D02*
X178502016Y-65966104D01*
X178502016Y-65966104D02*
X178468682Y-66004200D01*
X178468682Y-66004200D02*
X178402016Y-66042295D01*
X178402016Y-66042295D02*
X178202016Y-66042295D01*
X178202016Y-66042295D02*
X178135349Y-66004200D01*
X178135349Y-66004200D02*
X178102016Y-65966104D01*
X178868683Y-66042295D02*
X179002016Y-66042295D01*
X179002016Y-66042295D02*
X179068683Y-66004200D01*
X179068683Y-66004200D02*
X179102016Y-65966104D01*
X179102016Y-65966104D02*
X179168683Y-65851819D01*
X179168683Y-65851819D02*
X179202016Y-65699438D01*
X179202016Y-65699438D02*
X179202016Y-65394676D01*
X179202016Y-65394676D02*
X179168683Y-65318485D01*
X179168683Y-65318485D02*
X179135349Y-65280390D01*
X179135349Y-65280390D02*
X179068683Y-65242295D01*
X179068683Y-65242295D02*
X178935349Y-65242295D01*
X178935349Y-65242295D02*
X178868683Y-65280390D01*
X178868683Y-65280390D02*
X178835349Y-65318485D01*
X178835349Y-65318485D02*
X178802016Y-65394676D01*
X178802016Y-65394676D02*
X178802016Y-65585152D01*
X178802016Y-65585152D02*
X178835349Y-65661342D01*
X178835349Y-65661342D02*
X178868683Y-65699438D01*
X178868683Y-65699438D02*
X178935349Y-65737533D01*
X178935349Y-65737533D02*
X179068683Y-65737533D01*
X179068683Y-65737533D02*
X179135349Y-65699438D01*
X179135349Y-65699438D02*
X179168683Y-65661342D01*
X179168683Y-65661342D02*
X179202016Y-65585152D01*
X192864649Y-83060390D02*
X192797982Y-83022295D01*
X192797982Y-83022295D02*
X192697982Y-83022295D01*
X192697982Y-83022295D02*
X192597982Y-83060390D01*
X192597982Y-83060390D02*
X192531316Y-83136580D01*
X192531316Y-83136580D02*
X192497982Y-83212771D01*
X192497982Y-83212771D02*
X192464649Y-83365152D01*
X192464649Y-83365152D02*
X192464649Y-83479438D01*
X192464649Y-83479438D02*
X192497982Y-83631819D01*
X192497982Y-83631819D02*
X192531316Y-83708009D01*
X192531316Y-83708009D02*
X192597982Y-83784200D01*
X192597982Y-83784200D02*
X192697982Y-83822295D01*
X192697982Y-83822295D02*
X192764649Y-83822295D01*
X192764649Y-83822295D02*
X192864649Y-83784200D01*
X192864649Y-83784200D02*
X192897982Y-83746104D01*
X192897982Y-83746104D02*
X192897982Y-83479438D01*
X192897982Y-83479438D02*
X192764649Y-83479438D01*
X193197982Y-83822295D02*
X193197982Y-83022295D01*
X193197982Y-83022295D02*
X193464649Y-83022295D01*
X193464649Y-83022295D02*
X193531316Y-83060390D01*
X193531316Y-83060390D02*
X193564649Y-83098485D01*
X193564649Y-83098485D02*
X193597982Y-83174676D01*
X193597982Y-83174676D02*
X193597982Y-83288961D01*
X193597982Y-83288961D02*
X193564649Y-83365152D01*
X193564649Y-83365152D02*
X193531316Y-83403247D01*
X193531316Y-83403247D02*
X193464649Y-83441342D01*
X193464649Y-83441342D02*
X193197982Y-83441342D01*
X193897982Y-83822295D02*
X193897982Y-83022295D01*
X194364649Y-83022295D02*
X194497982Y-83022295D01*
X194497982Y-83022295D02*
X194564649Y-83060390D01*
X194564649Y-83060390D02*
X194631315Y-83136580D01*
X194631315Y-83136580D02*
X194664649Y-83288961D01*
X194664649Y-83288961D02*
X194664649Y-83555628D01*
X194664649Y-83555628D02*
X194631315Y-83708009D01*
X194631315Y-83708009D02*
X194564649Y-83784200D01*
X194564649Y-83784200D02*
X194497982Y-83822295D01*
X194497982Y-83822295D02*
X194364649Y-83822295D01*
X194364649Y-83822295D02*
X194297982Y-83784200D01*
X194297982Y-83784200D02*
X194231315Y-83708009D01*
X194231315Y-83708009D02*
X194197982Y-83555628D01*
X194197982Y-83555628D02*
X194197982Y-83288961D01*
X194197982Y-83288961D02*
X194231315Y-83136580D01*
X194231315Y-83136580D02*
X194297982Y-83060390D01*
X194297982Y-83060390D02*
X194364649Y-83022295D01*
X195331315Y-83822295D02*
X194931315Y-83822295D01*
X195131315Y-83822295D02*
X195131315Y-83022295D01*
X195131315Y-83022295D02*
X195064648Y-83136580D01*
X195064648Y-83136580D02*
X194997982Y-83212771D01*
X194997982Y-83212771D02*
X194931315Y-83250866D01*
X195564649Y-83022295D02*
X196031315Y-83022295D01*
X196031315Y-83022295D02*
X195731315Y-83822295D01*
X166045180Y-82357142D02*
X166521371Y-82023809D01*
X166045180Y-81785714D02*
X167045180Y-81785714D01*
X167045180Y-81785714D02*
X167045180Y-82166666D01*
X167045180Y-82166666D02*
X166997561Y-82261904D01*
X166997561Y-82261904D02*
X166949942Y-82309523D01*
X166949942Y-82309523D02*
X166854704Y-82357142D01*
X166854704Y-82357142D02*
X166711847Y-82357142D01*
X166711847Y-82357142D02*
X166616609Y-82309523D01*
X166616609Y-82309523D02*
X166568990Y-82261904D01*
X166568990Y-82261904D02*
X166521371Y-82166666D01*
X166521371Y-82166666D02*
X166521371Y-81785714D01*
X166045180Y-83309523D02*
X166045180Y-82738095D01*
X166045180Y-83023809D02*
X167045180Y-83023809D01*
X167045180Y-83023809D02*
X166902323Y-82928571D01*
X166902323Y-82928571D02*
X166807085Y-82833333D01*
X166807085Y-82833333D02*
X166759466Y-82738095D01*
X167045180Y-83642857D02*
X167045180Y-84309523D01*
X167045180Y-84309523D02*
X166045180Y-83880952D01*
X135174819Y-95238094D02*
X134174819Y-95238094D01*
X134174819Y-95238094D02*
X134174819Y-94999999D01*
X134174819Y-94999999D02*
X134222438Y-94857142D01*
X134222438Y-94857142D02*
X134317676Y-94761904D01*
X134317676Y-94761904D02*
X134412914Y-94714285D01*
X134412914Y-94714285D02*
X134603390Y-94666666D01*
X134603390Y-94666666D02*
X134746247Y-94666666D01*
X134746247Y-94666666D02*
X134936723Y-94714285D01*
X134936723Y-94714285D02*
X135031961Y-94761904D01*
X135031961Y-94761904D02*
X135127200Y-94857142D01*
X135127200Y-94857142D02*
X135174819Y-94999999D01*
X135174819Y-94999999D02*
X135174819Y-95238094D01*
X134270057Y-94285713D02*
X134222438Y-94238094D01*
X134222438Y-94238094D02*
X134174819Y-94142856D01*
X134174819Y-94142856D02*
X134174819Y-93904761D01*
X134174819Y-93904761D02*
X134222438Y-93809523D01*
X134222438Y-93809523D02*
X134270057Y-93761904D01*
X134270057Y-93761904D02*
X134365295Y-93714285D01*
X134365295Y-93714285D02*
X134460533Y-93714285D01*
X134460533Y-93714285D02*
X134603390Y-93761904D01*
X134603390Y-93761904D02*
X135174819Y-94333332D01*
X135174819Y-94333332D02*
X135174819Y-93714285D01*
X134054819Y-87141904D02*
X133054819Y-87141904D01*
X134054819Y-86570476D02*
X133483390Y-86999047D01*
X133054819Y-86570476D02*
X133626247Y-87141904D01*
X151359580Y-100666666D02*
X151407200Y-100714285D01*
X151407200Y-100714285D02*
X151454819Y-100857142D01*
X151454819Y-100857142D02*
X151454819Y-100952380D01*
X151454819Y-100952380D02*
X151407200Y-101095237D01*
X151407200Y-101095237D02*
X151311961Y-101190475D01*
X151311961Y-101190475D02*
X151216723Y-101238094D01*
X151216723Y-101238094D02*
X151026247Y-101285713D01*
X151026247Y-101285713D02*
X150883390Y-101285713D01*
X150883390Y-101285713D02*
X150692914Y-101238094D01*
X150692914Y-101238094D02*
X150597676Y-101190475D01*
X150597676Y-101190475D02*
X150502438Y-101095237D01*
X150502438Y-101095237D02*
X150454819Y-100952380D01*
X150454819Y-100952380D02*
X150454819Y-100857142D01*
X150454819Y-100857142D02*
X150502438Y-100714285D01*
X150502438Y-100714285D02*
X150550057Y-100666666D01*
X150454819Y-100333332D02*
X150454819Y-99714285D01*
X150454819Y-99714285D02*
X150835771Y-100047618D01*
X150835771Y-100047618D02*
X150835771Y-99904761D01*
X150835771Y-99904761D02*
X150883390Y-99809523D01*
X150883390Y-99809523D02*
X150931009Y-99761904D01*
X150931009Y-99761904D02*
X151026247Y-99714285D01*
X151026247Y-99714285D02*
X151264342Y-99714285D01*
X151264342Y-99714285D02*
X151359580Y-99761904D01*
X151359580Y-99761904D02*
X151407200Y-99809523D01*
X151407200Y-99809523D02*
X151454819Y-99904761D01*
X151454819Y-99904761D02*
X151454819Y-100190475D01*
X151454819Y-100190475D02*
X151407200Y-100285713D01*
X151407200Y-100285713D02*
X151359580Y-100333332D01*
X117333333Y-105954819D02*
X117000000Y-105478628D01*
X116761905Y-105954819D02*
X116761905Y-104954819D01*
X116761905Y-104954819D02*
X117142857Y-104954819D01*
X117142857Y-104954819D02*
X117238095Y-105002438D01*
X117238095Y-105002438D02*
X117285714Y-105050057D01*
X117285714Y-105050057D02*
X117333333Y-105145295D01*
X117333333Y-105145295D02*
X117333333Y-105288152D01*
X117333333Y-105288152D02*
X117285714Y-105383390D01*
X117285714Y-105383390D02*
X117238095Y-105431009D01*
X117238095Y-105431009D02*
X117142857Y-105478628D01*
X117142857Y-105478628D02*
X116761905Y-105478628D01*
X118190476Y-104954819D02*
X118000000Y-104954819D01*
X118000000Y-104954819D02*
X117904762Y-105002438D01*
X117904762Y-105002438D02*
X117857143Y-105050057D01*
X117857143Y-105050057D02*
X117761905Y-105192914D01*
X117761905Y-105192914D02*
X117714286Y-105383390D01*
X117714286Y-105383390D02*
X117714286Y-105764342D01*
X117714286Y-105764342D02*
X117761905Y-105859580D01*
X117761905Y-105859580D02*
X117809524Y-105907200D01*
X117809524Y-105907200D02*
X117904762Y-105954819D01*
X117904762Y-105954819D02*
X118095238Y-105954819D01*
X118095238Y-105954819D02*
X118190476Y-105907200D01*
X118190476Y-105907200D02*
X118238095Y-105859580D01*
X118238095Y-105859580D02*
X118285714Y-105764342D01*
X118285714Y-105764342D02*
X118285714Y-105526247D01*
X118285714Y-105526247D02*
X118238095Y-105431009D01*
X118238095Y-105431009D02*
X118190476Y-105383390D01*
X118190476Y-105383390D02*
X118095238Y-105335771D01*
X118095238Y-105335771D02*
X117904762Y-105335771D01*
X117904762Y-105335771D02*
X117809524Y-105383390D01*
X117809524Y-105383390D02*
X117761905Y-105431009D01*
X117761905Y-105431009D02*
X117714286Y-105526247D01*
X131333333Y-105954819D02*
X131000000Y-105478628D01*
X130761905Y-105954819D02*
X130761905Y-104954819D01*
X130761905Y-104954819D02*
X131142857Y-104954819D01*
X131142857Y-104954819D02*
X131238095Y-105002438D01*
X131238095Y-105002438D02*
X131285714Y-105050057D01*
X131285714Y-105050057D02*
X131333333Y-105145295D01*
X131333333Y-105145295D02*
X131333333Y-105288152D01*
X131333333Y-105288152D02*
X131285714Y-105383390D01*
X131285714Y-105383390D02*
X131238095Y-105431009D01*
X131238095Y-105431009D02*
X131142857Y-105478628D01*
X131142857Y-105478628D02*
X130761905Y-105478628D01*
X131714286Y-105050057D02*
X131761905Y-105002438D01*
X131761905Y-105002438D02*
X131857143Y-104954819D01*
X131857143Y-104954819D02*
X132095238Y-104954819D01*
X132095238Y-104954819D02*
X132190476Y-105002438D01*
X132190476Y-105002438D02*
X132238095Y-105050057D01*
X132238095Y-105050057D02*
X132285714Y-105145295D01*
X132285714Y-105145295D02*
X132285714Y-105240533D01*
X132285714Y-105240533D02*
X132238095Y-105383390D01*
X132238095Y-105383390D02*
X131666667Y-105954819D01*
X131666667Y-105954819D02*
X132285714Y-105954819D01*
X135783333Y-49859580D02*
X135735714Y-49907200D01*
X135735714Y-49907200D02*
X135592857Y-49954819D01*
X135592857Y-49954819D02*
X135497619Y-49954819D01*
X135497619Y-49954819D02*
X135354762Y-49907200D01*
X135354762Y-49907200D02*
X135259524Y-49811961D01*
X135259524Y-49811961D02*
X135211905Y-49716723D01*
X135211905Y-49716723D02*
X135164286Y-49526247D01*
X135164286Y-49526247D02*
X135164286Y-49383390D01*
X135164286Y-49383390D02*
X135211905Y-49192914D01*
X135211905Y-49192914D02*
X135259524Y-49097676D01*
X135259524Y-49097676D02*
X135354762Y-49002438D01*
X135354762Y-49002438D02*
X135497619Y-48954819D01*
X135497619Y-48954819D02*
X135592857Y-48954819D01*
X135592857Y-48954819D02*
X135735714Y-49002438D01*
X135735714Y-49002438D02*
X135783333Y-49050057D01*
X136211905Y-49954819D02*
X136211905Y-48954819D01*
X136211905Y-48954819D02*
X136592857Y-48954819D01*
X136592857Y-48954819D02*
X136688095Y-49002438D01*
X136688095Y-49002438D02*
X136735714Y-49050057D01*
X136735714Y-49050057D02*
X136783333Y-49145295D01*
X136783333Y-49145295D02*
X136783333Y-49288152D01*
X136783333Y-49288152D02*
X136735714Y-49383390D01*
X136735714Y-49383390D02*
X136688095Y-49431009D01*
X136688095Y-49431009D02*
X136592857Y-49478628D01*
X136592857Y-49478628D02*
X136211905Y-49478628D01*
X137116667Y-48954819D02*
X137735714Y-48954819D01*
X137735714Y-48954819D02*
X137402381Y-49335771D01*
X137402381Y-49335771D02*
X137545238Y-49335771D01*
X137545238Y-49335771D02*
X137640476Y-49383390D01*
X137640476Y-49383390D02*
X137688095Y-49431009D01*
X137688095Y-49431009D02*
X137735714Y-49526247D01*
X137735714Y-49526247D02*
X137735714Y-49764342D01*
X137735714Y-49764342D02*
X137688095Y-49859580D01*
X137688095Y-49859580D02*
X137640476Y-49907200D01*
X137640476Y-49907200D02*
X137545238Y-49954819D01*
X137545238Y-49954819D02*
X137259524Y-49954819D01*
X137259524Y-49954819D02*
X137164286Y-49907200D01*
X137164286Y-49907200D02*
X137116667Y-49859580D01*
X166020571Y-78155895D02*
X165807237Y-77774942D01*
X165654856Y-78155895D02*
X165654856Y-77355895D01*
X165654856Y-77355895D02*
X165898666Y-77355895D01*
X165898666Y-77355895D02*
X165959618Y-77393990D01*
X165959618Y-77393990D02*
X165990095Y-77432085D01*
X165990095Y-77432085D02*
X166020571Y-77508276D01*
X166020571Y-77508276D02*
X166020571Y-77622561D01*
X166020571Y-77622561D02*
X165990095Y-77698752D01*
X165990095Y-77698752D02*
X165959618Y-77736847D01*
X165959618Y-77736847D02*
X165898666Y-77774942D01*
X165898666Y-77774942D02*
X165654856Y-77774942D01*
X166630095Y-78155895D02*
X166264380Y-78155895D01*
X166447237Y-78155895D02*
X166447237Y-77355895D01*
X166447237Y-77355895D02*
X166386285Y-77470180D01*
X166386285Y-77470180D02*
X166325333Y-77546371D01*
X166325333Y-77546371D02*
X166264380Y-77584466D01*
X167178666Y-77622561D02*
X167178666Y-78155895D01*
X167026285Y-77317800D02*
X166873904Y-77889228D01*
X166873904Y-77889228D02*
X167270095Y-77889228D01*
X113833333Y-105954819D02*
X113500000Y-105478628D01*
X113261905Y-105954819D02*
X113261905Y-104954819D01*
X113261905Y-104954819D02*
X113642857Y-104954819D01*
X113642857Y-104954819D02*
X113738095Y-105002438D01*
X113738095Y-105002438D02*
X113785714Y-105050057D01*
X113785714Y-105050057D02*
X113833333Y-105145295D01*
X113833333Y-105145295D02*
X113833333Y-105288152D01*
X113833333Y-105288152D02*
X113785714Y-105383390D01*
X113785714Y-105383390D02*
X113738095Y-105431009D01*
X113738095Y-105431009D02*
X113642857Y-105478628D01*
X113642857Y-105478628D02*
X113261905Y-105478628D01*
X114738095Y-104954819D02*
X114261905Y-104954819D01*
X114261905Y-104954819D02*
X114214286Y-105431009D01*
X114214286Y-105431009D02*
X114261905Y-105383390D01*
X114261905Y-105383390D02*
X114357143Y-105335771D01*
X114357143Y-105335771D02*
X114595238Y-105335771D01*
X114595238Y-105335771D02*
X114690476Y-105383390D01*
X114690476Y-105383390D02*
X114738095Y-105431009D01*
X114738095Y-105431009D02*
X114785714Y-105526247D01*
X114785714Y-105526247D02*
X114785714Y-105764342D01*
X114785714Y-105764342D02*
X114738095Y-105859580D01*
X114738095Y-105859580D02*
X114690476Y-105907200D01*
X114690476Y-105907200D02*
X114595238Y-105954819D01*
X114595238Y-105954819D02*
X114357143Y-105954819D01*
X114357143Y-105954819D02*
X114261905Y-105907200D01*
X114261905Y-105907200D02*
X114214286Y-105859580D01*
D12*
X203216667Y-49360995D02*
X202883333Y-49360995D01*
X202883333Y-49360995D02*
X202883333Y-48560995D01*
X203450000Y-48941947D02*
X203683334Y-48941947D01*
X203783334Y-49360995D02*
X203450000Y-49360995D01*
X203450000Y-49360995D02*
X203450000Y-48560995D01*
X203450000Y-48560995D02*
X203783334Y-48560995D01*
X204083333Y-49360995D02*
X204083333Y-48560995D01*
X204083333Y-48560995D02*
X204250000Y-48560995D01*
X204250000Y-48560995D02*
X204350000Y-48599090D01*
X204350000Y-48599090D02*
X204416667Y-48675280D01*
X204416667Y-48675280D02*
X204450000Y-48751471D01*
X204450000Y-48751471D02*
X204483333Y-48903852D01*
X204483333Y-48903852D02*
X204483333Y-49018138D01*
X204483333Y-49018138D02*
X204450000Y-49170519D01*
X204450000Y-49170519D02*
X204416667Y-49246709D01*
X204416667Y-49246709D02*
X204350000Y-49322900D01*
X204350000Y-49322900D02*
X204250000Y-49360995D01*
X204250000Y-49360995D02*
X204083333Y-49360995D01*
X205150000Y-49360995D02*
X204750000Y-49360995D01*
X204950000Y-49360995D02*
X204950000Y-48560995D01*
X204950000Y-48560995D02*
X204883333Y-48675280D01*
X204883333Y-48675280D02*
X204816667Y-48751471D01*
X204816667Y-48751471D02*
X204750000Y-48789566D01*
D11*
X110333333Y-105954819D02*
X110000000Y-105478628D01*
X109761905Y-105954819D02*
X109761905Y-104954819D01*
X109761905Y-104954819D02*
X110142857Y-104954819D01*
X110142857Y-104954819D02*
X110238095Y-105002438D01*
X110238095Y-105002438D02*
X110285714Y-105050057D01*
X110285714Y-105050057D02*
X110333333Y-105145295D01*
X110333333Y-105145295D02*
X110333333Y-105288152D01*
X110333333Y-105288152D02*
X110285714Y-105383390D01*
X110285714Y-105383390D02*
X110238095Y-105431009D01*
X110238095Y-105431009D02*
X110142857Y-105478628D01*
X110142857Y-105478628D02*
X109761905Y-105478628D01*
X110904762Y-105383390D02*
X110809524Y-105335771D01*
X110809524Y-105335771D02*
X110761905Y-105288152D01*
X110761905Y-105288152D02*
X110714286Y-105192914D01*
X110714286Y-105192914D02*
X110714286Y-105145295D01*
X110714286Y-105145295D02*
X110761905Y-105050057D01*
X110761905Y-105050057D02*
X110809524Y-105002438D01*
X110809524Y-105002438D02*
X110904762Y-104954819D01*
X110904762Y-104954819D02*
X111095238Y-104954819D01*
X111095238Y-104954819D02*
X111190476Y-105002438D01*
X111190476Y-105002438D02*
X111238095Y-105050057D01*
X111238095Y-105050057D02*
X111285714Y-105145295D01*
X111285714Y-105145295D02*
X111285714Y-105192914D01*
X111285714Y-105192914D02*
X111238095Y-105288152D01*
X111238095Y-105288152D02*
X111190476Y-105335771D01*
X111190476Y-105335771D02*
X111095238Y-105383390D01*
X111095238Y-105383390D02*
X110904762Y-105383390D01*
X110904762Y-105383390D02*
X110809524Y-105431009D01*
X110809524Y-105431009D02*
X110761905Y-105478628D01*
X110761905Y-105478628D02*
X110714286Y-105573866D01*
X110714286Y-105573866D02*
X110714286Y-105764342D01*
X110714286Y-105764342D02*
X110761905Y-105859580D01*
X110761905Y-105859580D02*
X110809524Y-105907200D01*
X110809524Y-105907200D02*
X110904762Y-105954819D01*
X110904762Y-105954819D02*
X111095238Y-105954819D01*
X111095238Y-105954819D02*
X111190476Y-105907200D01*
X111190476Y-105907200D02*
X111238095Y-105859580D01*
X111238095Y-105859580D02*
X111285714Y-105764342D01*
X111285714Y-105764342D02*
X111285714Y-105573866D01*
X111285714Y-105573866D02*
X111238095Y-105478628D01*
X111238095Y-105478628D02*
X111190476Y-105431009D01*
X111190476Y-105431009D02*
X111095238Y-105383390D01*
X122833333Y-49709580D02*
X122785714Y-49757200D01*
X122785714Y-49757200D02*
X122642857Y-49804819D01*
X122642857Y-49804819D02*
X122547619Y-49804819D01*
X122547619Y-49804819D02*
X122404762Y-49757200D01*
X122404762Y-49757200D02*
X122309524Y-49661961D01*
X122309524Y-49661961D02*
X122261905Y-49566723D01*
X122261905Y-49566723D02*
X122214286Y-49376247D01*
X122214286Y-49376247D02*
X122214286Y-49233390D01*
X122214286Y-49233390D02*
X122261905Y-49042914D01*
X122261905Y-49042914D02*
X122309524Y-48947676D01*
X122309524Y-48947676D02*
X122404762Y-48852438D01*
X122404762Y-48852438D02*
X122547619Y-48804819D01*
X122547619Y-48804819D02*
X122642857Y-48804819D01*
X122642857Y-48804819D02*
X122785714Y-48852438D01*
X122785714Y-48852438D02*
X122833333Y-48900057D01*
X123261905Y-49804819D02*
X123261905Y-48804819D01*
X123261905Y-48804819D02*
X123642857Y-48804819D01*
X123642857Y-48804819D02*
X123738095Y-48852438D01*
X123738095Y-48852438D02*
X123785714Y-48900057D01*
X123785714Y-48900057D02*
X123833333Y-48995295D01*
X123833333Y-48995295D02*
X123833333Y-49138152D01*
X123833333Y-49138152D02*
X123785714Y-49233390D01*
X123785714Y-49233390D02*
X123738095Y-49281009D01*
X123738095Y-49281009D02*
X123642857Y-49328628D01*
X123642857Y-49328628D02*
X123261905Y-49328628D01*
X124785714Y-49804819D02*
X124214286Y-49804819D01*
X124500000Y-49804819D02*
X124500000Y-48804819D01*
X124500000Y-48804819D02*
X124404762Y-48947676D01*
X124404762Y-48947676D02*
X124309524Y-49042914D01*
X124309524Y-49042914D02*
X124214286Y-49090533D01*
X175666666Y-116384819D02*
X175666666Y-117099104D01*
X175666666Y-117099104D02*
X175619047Y-117241961D01*
X175619047Y-117241961D02*
X175523809Y-117337200D01*
X175523809Y-117337200D02*
X175380952Y-117384819D01*
X175380952Y-117384819D02*
X175285714Y-117384819D01*
X176095238Y-116480057D02*
X176142857Y-116432438D01*
X176142857Y-116432438D02*
X176238095Y-116384819D01*
X176238095Y-116384819D02*
X176476190Y-116384819D01*
X176476190Y-116384819D02*
X176571428Y-116432438D01*
X176571428Y-116432438D02*
X176619047Y-116480057D01*
X176619047Y-116480057D02*
X176666666Y-116575295D01*
X176666666Y-116575295D02*
X176666666Y-116670533D01*
X176666666Y-116670533D02*
X176619047Y-116813390D01*
X176619047Y-116813390D02*
X176047619Y-117384819D01*
X176047619Y-117384819D02*
X176666666Y-117384819D01*
D13*
X153578809Y-94074318D02*
X152974047Y-94074318D01*
X152974047Y-94074318D02*
X152974047Y-92804318D01*
X154002142Y-93409080D02*
X154425476Y-93409080D01*
X154606904Y-94074318D02*
X154002142Y-94074318D01*
X154002142Y-94074318D02*
X154002142Y-92804318D01*
X154002142Y-92804318D02*
X154606904Y-92804318D01*
X155151190Y-94074318D02*
X155151190Y-92804318D01*
X155151190Y-92804318D02*
X155453571Y-92804318D01*
X155453571Y-92804318D02*
X155635000Y-92864794D01*
X155635000Y-92864794D02*
X155755952Y-92985746D01*
X155755952Y-92985746D02*
X155816429Y-93106699D01*
X155816429Y-93106699D02*
X155876905Y-93348603D01*
X155876905Y-93348603D02*
X155876905Y-93530032D01*
X155876905Y-93530032D02*
X155816429Y-93771937D01*
X155816429Y-93771937D02*
X155755952Y-93892889D01*
X155755952Y-93892889D02*
X155635000Y-94013842D01*
X155635000Y-94013842D02*
X155453571Y-94074318D01*
X155453571Y-94074318D02*
X155151190Y-94074318D01*
X156965476Y-93227651D02*
X156965476Y-94074318D01*
X156663095Y-92743842D02*
X156360714Y-93650984D01*
X156360714Y-93650984D02*
X157146905Y-93650984D01*
D11*
X194633333Y-106869580D02*
X194585714Y-106917200D01*
X194585714Y-106917200D02*
X194442857Y-106964819D01*
X194442857Y-106964819D02*
X194347619Y-106964819D01*
X194347619Y-106964819D02*
X194204762Y-106917200D01*
X194204762Y-106917200D02*
X194109524Y-106821961D01*
X194109524Y-106821961D02*
X194061905Y-106726723D01*
X194061905Y-106726723D02*
X194014286Y-106536247D01*
X194014286Y-106536247D02*
X194014286Y-106393390D01*
X194014286Y-106393390D02*
X194061905Y-106202914D01*
X194061905Y-106202914D02*
X194109524Y-106107676D01*
X194109524Y-106107676D02*
X194204762Y-106012438D01*
X194204762Y-106012438D02*
X194347619Y-105964819D01*
X194347619Y-105964819D02*
X194442857Y-105964819D01*
X194442857Y-105964819D02*
X194585714Y-106012438D01*
X194585714Y-106012438D02*
X194633333Y-106060057D01*
X195061905Y-106964819D02*
X195061905Y-105964819D01*
X195061905Y-105964819D02*
X195442857Y-105964819D01*
X195442857Y-105964819D02*
X195538095Y-106012438D01*
X195538095Y-106012438D02*
X195585714Y-106060057D01*
X195585714Y-106060057D02*
X195633333Y-106155295D01*
X195633333Y-106155295D02*
X195633333Y-106298152D01*
X195633333Y-106298152D02*
X195585714Y-106393390D01*
X195585714Y-106393390D02*
X195538095Y-106441009D01*
X195538095Y-106441009D02*
X195442857Y-106488628D01*
X195442857Y-106488628D02*
X195061905Y-106488628D01*
X196538095Y-105964819D02*
X196061905Y-105964819D01*
X196061905Y-105964819D02*
X196014286Y-106441009D01*
X196014286Y-106441009D02*
X196061905Y-106393390D01*
X196061905Y-106393390D02*
X196157143Y-106345771D01*
X196157143Y-106345771D02*
X196395238Y-106345771D01*
X196395238Y-106345771D02*
X196490476Y-106393390D01*
X196490476Y-106393390D02*
X196538095Y-106441009D01*
X196538095Y-106441009D02*
X196585714Y-106536247D01*
X196585714Y-106536247D02*
X196585714Y-106774342D01*
X196585714Y-106774342D02*
X196538095Y-106869580D01*
X196538095Y-106869580D02*
X196490476Y-106917200D01*
X196490476Y-106917200D02*
X196395238Y-106964819D01*
X196395238Y-106964819D02*
X196157143Y-106964819D01*
X196157143Y-106964819D02*
X196061905Y-106917200D01*
X196061905Y-106917200D02*
X196014286Y-106869580D01*
D14*
%TO.C,J4*%
X123370000Y-112580700D02*
X123370000Y-111250700D01*
X124700000Y-112580700D02*
X123370000Y-112580700D01*
X125970000Y-109920700D02*
X133650000Y-109920700D01*
X125970000Y-112580700D02*
X125970000Y-109920700D01*
X125970000Y-112580700D02*
X133650000Y-112580700D01*
X133650000Y-112580700D02*
X133650000Y-109920700D01*
D15*
%TO.C,J6*%
X182375800Y-108056500D02*
X182375800Y-111151261D01*
X183337060Y-108056500D02*
X182375800Y-108056500D01*
X183680441Y-113263500D02*
X187319559Y-113263500D01*
X188624200Y-108056500D02*
X187662940Y-108056500D01*
X188624200Y-111151261D02*
X188624200Y-108056500D01*
D16*
X182121800Y-108561500D02*
G75*
G02*
X181359800Y-108561500I-381000J0D01*
G01*
X181359800Y-108561500D02*
G75*
G02*
X182121800Y-108561500I381000J0D01*
G01*
D15*
%TO.C,R4*%
X145661800Y-107351287D02*
X145661800Y-107648713D01*
X147338200Y-107648713D02*
X147338200Y-107351287D01*
%TO.C,R11*%
X166912500Y-58851287D02*
X166912500Y-59148713D01*
X168588900Y-59148713D02*
X168588900Y-58851287D01*
%TO.C,C2*%
X137076200Y-99331600D02*
G75*
G02*
X136923800Y-99331600I-76200J0D01*
G01*
X136923800Y-99331600D02*
G75*
G02*
X137076200Y-99331600I76200J0D01*
G01*
%TO.C,U4*%
D10*
X208100000Y-105040000D02*
X202600000Y-105040000D01*
X202600000Y-58040000D01*
X208100000Y-58040000D01*
X208100000Y-105040000D01*
X203682843Y-103240000D02*
G75*
G02*
X203117157Y-103240000I-282843J0D01*
G01*
X203117157Y-103240000D02*
G75*
G02*
X203682843Y-103240000I282843J0D01*
G01*
D17*
%TO.C,S3*%
X146500000Y-53445000D02*
X146500000Y-56555000D01*
X148445000Y-51750000D02*
X160555000Y-51750000D01*
X148445000Y-58250000D02*
X160555000Y-58250000D01*
X162500000Y-53445000D02*
X162500000Y-56555000D01*
D18*
X145225000Y-53750000D02*
G75*
G02*
X145025000Y-53750000I-100000J0D01*
G01*
X145025000Y-53750000D02*
G75*
G02*
X145225000Y-53750000I100000J0D01*
G01*
D14*
%TO.C,J7*%
X153210000Y-106170000D02*
X168710000Y-106170000D01*
X153210000Y-115290000D02*
X153210000Y-106170000D01*
X154510000Y-107480000D02*
X167410000Y-107480000D01*
X154510000Y-113980000D02*
X154510000Y-107480000D01*
X157920000Y-116680000D02*
X158920000Y-116680000D01*
X158420000Y-115680000D02*
X157920000Y-116680000D01*
X158910000Y-113980000D02*
X154510000Y-113980000D01*
X158910000Y-115290000D02*
X158910000Y-113980000D01*
X158920000Y-116680000D02*
X158420000Y-115680000D01*
X163010000Y-113980000D02*
X163010000Y-113980000D01*
X163010000Y-113980000D02*
X163010000Y-115290000D01*
X167410000Y-107480000D02*
X167410000Y-113980000D01*
X167410000Y-113980000D02*
X163010000Y-113980000D01*
X168710000Y-106170000D02*
X168710000Y-115290000D01*
X168710000Y-115290000D02*
X153210000Y-115290000D01*
D15*
%TO.C,C4*%
X158031500Y-61000000D02*
G75*
G02*
X157879100Y-61000000I-76200J0D01*
G01*
X157879100Y-61000000D02*
G75*
G02*
X158031500Y-61000000I76200J0D01*
G01*
%TO.C,R16*%
X161161800Y-82851287D02*
X161161800Y-83148713D01*
X162838200Y-83148713D02*
X162838200Y-82851287D01*
D14*
%TO.C,U2*%
X114825000Y-59200000D02*
X114825000Y-60150000D01*
X114825000Y-69600000D02*
X114825000Y-68650000D01*
X116190000Y-59200000D02*
X114825000Y-59200000D01*
X116190000Y-69600000D02*
X114825000Y-69600000D01*
X112000000Y-60190000D02*
X111660000Y-59720000D01*
X112340000Y-59720000D01*
X112000000Y-60190000D01*
G36*
X112000000Y-60190000D02*
G01*
X111660000Y-59720000D01*
X112340000Y-59720000D01*
X112000000Y-60190000D01*
G37*
D15*
%TO.C,C8*%
X151031500Y-78500000D02*
G75*
G02*
X150879100Y-78500000I-76200J0D01*
G01*
X150879100Y-78500000D02*
G75*
G02*
X151031500Y-78500000I76200J0D01*
G01*
D18*
%TO.C,LED2*%
X164700000Y-63825000D02*
X164700000Y-66175000D01*
X164700000Y-66175000D02*
X168500000Y-66175000D01*
X168500000Y-63825000D02*
X164700000Y-63825000D01*
D15*
%TO.C,R1*%
X127161800Y-107101987D02*
X127161800Y-107399413D01*
X128838200Y-107399413D02*
X128838200Y-107101987D01*
%TO.C,U5*%
X139322999Y-95022199D02*
X139322999Y-95341459D01*
X139322999Y-102056939D02*
X139322999Y-102376199D01*
X139322999Y-102376199D02*
X139642259Y-102376199D01*
X139642259Y-95022199D02*
X139322999Y-95022199D01*
X146357739Y-102376199D02*
X146676999Y-102376199D01*
X146676999Y-95022199D02*
X146357739Y-95022199D01*
X146676999Y-95341459D02*
X146676999Y-95022199D01*
X146676999Y-102376199D02*
X146676999Y-102056939D01*
D19*
G36*
X141190498Y-103984599D02*
G01*
X140809498Y-103984599D01*
X140809498Y-103730599D01*
X141190498Y-103730599D01*
X141190498Y-103984599D01*
G37*
G36*
X141990499Y-93667799D02*
G01*
X141609499Y-93667799D01*
X141609499Y-93413799D01*
X141990499Y-93413799D01*
X141990499Y-93667799D01*
G37*
G36*
X148285399Y-99289698D02*
G01*
X148031399Y-99289698D01*
X148031399Y-98908698D01*
X148285399Y-98908698D01*
X148285399Y-99289698D01*
G37*
D15*
%TO.C,C1*%
X137076200Y-98790700D02*
G75*
G02*
X136923800Y-98790700I-76200J0D01*
G01*
X136923800Y-98790700D02*
G75*
G02*
X137076200Y-98790700I76200J0D01*
G01*
%TO.C,C7*%
X149576200Y-98790700D02*
G75*
G02*
X149423800Y-98790700I-76200J0D01*
G01*
X149423800Y-98790700D02*
G75*
G02*
X149576200Y-98790700I76200J0D01*
G01*
%TO.C,C6*%
X141076200Y-92790700D02*
G75*
G02*
X140923800Y-92790700I-76200J0D01*
G01*
X140923800Y-92790700D02*
G75*
G02*
X141076200Y-92790700I76200J0D01*
G01*
D18*
%TO.C,LED3*%
X164650000Y-74325000D02*
X164650000Y-76675000D01*
X164650000Y-76675000D02*
X168450000Y-76675000D01*
X168450000Y-74325000D02*
X164650000Y-74325000D01*
D17*
%TO.C,R12*%
X203270000Y-54700000D02*
X204830000Y-54700000D01*
X203270000Y-56300000D02*
X204830000Y-56300000D01*
D14*
%TO.C,CP2*%
X127625000Y-77600000D02*
X127625000Y-77100000D01*
X127875000Y-77350000D02*
X127375000Y-77350000D01*
X128540000Y-77300000D02*
X128540000Y-77940000D01*
X128540000Y-77300000D02*
X129600000Y-76240000D01*
X128540000Y-80700000D02*
X128540000Y-80060000D01*
X128540000Y-80700000D02*
X129600000Y-81760000D01*
X129600000Y-76240000D02*
X134060000Y-76240000D01*
X129600000Y-81760000D02*
X134060000Y-81760000D01*
X134060000Y-76240000D02*
X134060000Y-77940000D01*
X134060000Y-80060000D02*
X134060000Y-81760000D01*
%TO.C,U3*%
X114825000Y-75200000D02*
X114825000Y-76150000D01*
X114825000Y-85600000D02*
X114825000Y-84650000D01*
X116190000Y-75200000D02*
X114825000Y-75200000D01*
X116190000Y-85600000D02*
X114825000Y-85600000D01*
X112000000Y-76190000D02*
X111660000Y-75720000D01*
X112340000Y-75720000D01*
X112000000Y-76190000D01*
G36*
X112000000Y-76190000D02*
G01*
X111660000Y-75720000D01*
X112340000Y-75720000D01*
X112000000Y-76190000D01*
G37*
D17*
%TO.C,J1*%
X110050000Y-51100000D02*
X117450000Y-51100000D01*
X110050000Y-56850000D02*
X110050000Y-51100000D01*
X117450000Y-51100000D02*
X117450000Y-56850000D01*
X117450000Y-56850000D02*
X110050000Y-56850000D01*
D18*
X118290000Y-54500000D02*
G75*
G02*
X118090000Y-54500000I-100000J0D01*
G01*
X118090000Y-54500000D02*
G75*
G02*
X118290000Y-54500000I100000J0D01*
G01*
D15*
%TO.C,R9*%
X123661800Y-107351287D02*
X123661800Y-107648713D01*
X125338200Y-107648713D02*
X125338200Y-107351287D01*
D14*
%TO.C,L2*%
X136940000Y-88610000D02*
X136940000Y-85460000D01*
X136940000Y-88610000D02*
X149160000Y-88610000D01*
X143050000Y-76390000D02*
X149160000Y-76390000D01*
X149160000Y-76390000D02*
X149160000Y-79540000D01*
X149160000Y-85460000D02*
X149160000Y-88610000D01*
%TO.C,J3*%
X109050000Y-112830000D02*
X109050000Y-111500000D01*
X110380000Y-112830000D02*
X109050000Y-112830000D01*
X111650000Y-110170000D02*
X119330000Y-110170000D01*
X111650000Y-112830000D02*
X111650000Y-110170000D01*
X111650000Y-112830000D02*
X119330000Y-112830000D01*
X119330000Y-112830000D02*
X119330000Y-110170000D01*
%TO.C,J5*%
X137870000Y-112580700D02*
X137870000Y-111250700D01*
X139200000Y-112580700D02*
X137870000Y-112580700D01*
X140470000Y-109920700D02*
X148150000Y-109920700D01*
X140470000Y-112580700D02*
X140470000Y-109920700D01*
X140470000Y-112580700D02*
X148150000Y-112580700D01*
X148150000Y-112580700D02*
X148150000Y-109920700D01*
D17*
%TO.C,J8*%
X201050000Y-107760000D02*
X208450000Y-107760000D01*
X201050000Y-113510000D02*
X201050000Y-107760000D01*
X208450000Y-107760000D02*
X208450000Y-113510000D01*
X208450000Y-113510000D02*
X201050000Y-113510000D01*
D18*
X209290000Y-111160000D02*
G75*
G02*
X209090000Y-111160000I-100000J0D01*
G01*
X209090000Y-111160000D02*
G75*
G02*
X209290000Y-111160000I100000J0D01*
G01*
D14*
%TO.C,CP6*%
X165125000Y-51260000D02*
X165125000Y-50760000D01*
X165375000Y-51010000D02*
X164875000Y-51010000D01*
X166040000Y-50960000D02*
X166040000Y-51600000D01*
X166040000Y-50960000D02*
X167100000Y-49900000D01*
X166040000Y-54360000D02*
X166040000Y-53720000D01*
X166040000Y-54360000D02*
X167100000Y-55420000D01*
X167100000Y-49900000D02*
X171560000Y-49900000D01*
X167100000Y-55420000D02*
X171560000Y-55420000D01*
X171560000Y-49900000D02*
X171560000Y-51600000D01*
X171560000Y-53720000D02*
X171560000Y-55420000D01*
%TO.C,CP4*%
X108725000Y-94650000D02*
X108725000Y-94150000D01*
X108975000Y-94400000D02*
X108475000Y-94400000D01*
X109840000Y-92450000D02*
X109840000Y-94990000D01*
X109840000Y-92450000D02*
X112400000Y-89890000D01*
X109840000Y-100550000D02*
X109840000Y-98010000D01*
X109840000Y-100550000D02*
X112400000Y-103110000D01*
X112400000Y-89890000D02*
X123060000Y-89890000D01*
X112400000Y-103110000D02*
X123060000Y-103110000D01*
X123060000Y-89890000D02*
X123060000Y-94990000D01*
X123060000Y-98010000D02*
X123060000Y-103110000D01*
%TO.C,D1*%
X131600000Y-71000000D02*
X132510000Y-71000000D01*
X132510000Y-68280000D02*
X132510000Y-73720000D01*
X132510000Y-73720000D02*
X142250000Y-73720000D01*
X133935000Y-68280000D02*
X133935000Y-73720000D01*
X134055000Y-68280000D02*
X134055000Y-73720000D01*
X134175000Y-68280000D02*
X134175000Y-73720000D01*
X142250000Y-68280000D02*
X132510000Y-68280000D01*
X142250000Y-73720000D02*
X142250000Y-68280000D01*
X143160000Y-71000000D02*
X142250000Y-71000000D01*
D15*
%TO.C,C5*%
X169076200Y-101709300D02*
G75*
G02*
X168923800Y-101709300I-76200J0D01*
G01*
X168923800Y-101709300D02*
G75*
G02*
X169076200Y-101709300I76200J0D01*
G01*
%TO.C,R13*%
X166346987Y-70426998D02*
X167455409Y-70426998D01*
X167455409Y-68573002D02*
X166346987Y-68573002D01*
D17*
%TO.C,S2*%
X159500000Y-100055000D02*
X159500000Y-87945000D01*
X161195000Y-86000000D02*
X164305000Y-86000000D01*
X161195000Y-102000000D02*
X164305000Y-102000000D01*
X166000000Y-100055000D02*
X166000000Y-87945000D01*
D18*
X161600000Y-103375000D02*
G75*
G02*
X161400000Y-103375000I-100000J0D01*
G01*
X161400000Y-103375000D02*
G75*
G02*
X161600000Y-103375000I100000J0D01*
G01*
D15*
%TO.C,R10*%
X138661800Y-107351287D02*
X138661800Y-107648713D01*
X140338200Y-107648713D02*
X140338200Y-107351287D01*
%TO.C,R7*%
X137661800Y-91351287D02*
X137661800Y-91648713D01*
X139338200Y-91648713D02*
X139338200Y-91351287D01*
D17*
%TO.C,R15*%
X152200000Y-103555000D02*
X152200000Y-101995000D01*
X153800000Y-103555000D02*
X153800000Y-101995000D01*
D15*
%TO.C,R3*%
X142161800Y-107101987D02*
X142161800Y-107399413D01*
X143838200Y-107399413D02*
X143838200Y-107101987D01*
D14*
%TO.C,L1*%
X148890000Y-74610000D02*
X148890000Y-71460000D01*
X148890000Y-74610000D02*
X161110000Y-74610000D01*
X155000000Y-62390000D02*
X161110000Y-62390000D01*
X161110000Y-62390000D02*
X161110000Y-65540000D01*
X161110000Y-71460000D02*
X161110000Y-74610000D01*
%TO.C,U1*%
X170600000Y-104880000D02*
X198999999Y-104880000D01*
X170600001Y-56960000D02*
X170600000Y-104880000D01*
X175830120Y-51046880D02*
X193813320Y-51046880D01*
X175830120Y-56939680D02*
X175830120Y-51046880D01*
X193813320Y-51046880D02*
X193813320Y-56939680D01*
X198999999Y-104880000D02*
X199000000Y-56960000D01*
X199000000Y-56960000D02*
X170600001Y-56960000D01*
D15*
%TO.C,R17*%
X163661800Y-82851287D02*
X163661800Y-83148713D01*
X165338200Y-83148713D02*
X165338200Y-82851287D01*
D14*
%TO.C,D2*%
X128280000Y-89630000D02*
X128280000Y-99370000D01*
X128280000Y-99370000D02*
X133720000Y-99370000D01*
X131000000Y-88720000D02*
X131000000Y-89630000D01*
X131000000Y-100280000D02*
X131000000Y-99370000D01*
X133720000Y-89630000D02*
X128280000Y-89630000D01*
X133720000Y-91055000D02*
X128280000Y-91055000D01*
X133720000Y-91175000D02*
X128280000Y-91175000D01*
X133720000Y-91295000D02*
X128280000Y-91295000D01*
X133720000Y-99370000D02*
X133720000Y-89630000D01*
D15*
%TO.C,C3*%
X149576200Y-102290700D02*
G75*
G02*
X149423800Y-102290700I-76200J0D01*
G01*
X149423800Y-102290700D02*
G75*
G02*
X149576200Y-102290700I76200J0D01*
G01*
%TO.C,R6*%
X116661800Y-107351287D02*
X116661800Y-107648713D01*
X118338200Y-107648713D02*
X118338200Y-107351287D01*
%TO.C,R2*%
X130661800Y-107101987D02*
X130661800Y-107399413D01*
X132338200Y-107399413D02*
X132338200Y-107101987D01*
D14*
%TO.C,CP3*%
X128725000Y-55650000D02*
X128725000Y-55150000D01*
X128975000Y-55400000D02*
X128475000Y-55400000D01*
X129840000Y-53450000D02*
X129840000Y-55990000D01*
X129840000Y-53450000D02*
X132400000Y-50890000D01*
X129840000Y-61550000D02*
X129840000Y-59010000D01*
X129840000Y-61550000D02*
X132400000Y-64110000D01*
X132400000Y-50890000D02*
X143060000Y-50890000D01*
X132400000Y-64110000D02*
X143060000Y-64110000D01*
X143060000Y-50890000D02*
X143060000Y-55990000D01*
X143060000Y-59010000D02*
X143060000Y-64110000D01*
D17*
%TO.C,R14*%
X166220000Y-78700000D02*
X167780000Y-78700000D01*
X166220000Y-80300000D02*
X167780000Y-80300000D01*
D15*
%TO.C,R5*%
X113081800Y-107351287D02*
X113081800Y-107648713D01*
X114758200Y-107648713D02*
X114758200Y-107351287D01*
D18*
%TO.C,LED1*%
X201700000Y-50325000D02*
X201700000Y-52675000D01*
X201700000Y-52675000D02*
X205500000Y-52675000D01*
X205500000Y-50325000D02*
X201700000Y-50325000D01*
D15*
%TO.C,R8*%
X109661800Y-107351287D02*
X109661800Y-107648713D01*
X111338200Y-107648713D02*
X111338200Y-107351287D01*
D14*
%TO.C,CP1*%
X119825000Y-52100000D02*
X119825000Y-51600000D01*
X120075000Y-51850000D02*
X119575000Y-51850000D01*
X120740000Y-51800000D02*
X120740000Y-52440000D01*
X120740000Y-51800000D02*
X121800000Y-50740000D01*
X120740000Y-55200000D02*
X120740000Y-54560000D01*
X120740000Y-55200000D02*
X121800000Y-56260000D01*
X121800000Y-50740000D02*
X126260000Y-50740000D01*
X121800000Y-56260000D02*
X126260000Y-56260000D01*
X126260000Y-50740000D02*
X126260000Y-52440000D01*
X126260000Y-54560000D02*
X126260000Y-56260000D01*
%TO.C,J2*%
X174670000Y-112890000D02*
X174670000Y-107750000D01*
X174670000Y-115490000D02*
X174670000Y-114160000D01*
X176000000Y-115490000D02*
X174670000Y-115490000D01*
X177330000Y-107750000D02*
X174670000Y-107750000D01*
X177330000Y-112890000D02*
X174670000Y-112890000D01*
X177330000Y-112890000D02*
X177330000Y-107750000D01*
D18*
%TO.C,LED4*%
X153825000Y-95050000D02*
X153825000Y-98850000D01*
X153825000Y-98850000D02*
X156175000Y-98850000D01*
X156175000Y-98850000D02*
X156175000Y-95050000D01*
D14*
%TO.C,CP5*%
X191625000Y-109260000D02*
X191625000Y-108760000D01*
X191875000Y-109010000D02*
X191375000Y-109010000D01*
X192540000Y-108960000D02*
X192540000Y-109600000D01*
X192540000Y-108960000D02*
X193600000Y-107900000D01*
X192540000Y-112360000D02*
X192540000Y-111720000D01*
X192540000Y-112360000D02*
X193600000Y-113420000D01*
X193600000Y-107900000D02*
X198060000Y-107900000D01*
X193600000Y-113420000D02*
X198060000Y-113420000D01*
X198060000Y-107900000D02*
X198060000Y-109600000D01*
X198060000Y-111720000D02*
X198060000Y-113420000D01*
%TD*%
M02*
