%TF.GenerationSoftware,KiCad,Pcbnew,8.0.8*%
%TF.CreationDate,2025-02-20T18:56:18-05:00*%
%TF.ProjectId,pcb_v3,7063625f-7633-42e6-9b69-6361645f7063,rev?*%
%TF.SameCoordinates,Original*%
%TF.FileFunction,Soldermask,Top*%
%TF.FilePolarity,Negative*%
%FSLAX46Y46*%
G04 Gerber Fmt 4.6, Leading zero omitted, Abs format (unit mm)*
G04 Created by KiCad (PCBNEW 8.0.8) date 2025-02-20 18:56:18*
%MOMM*%
%LPD*%
G01*
G04 APERTURE LIST*
G04 Aperture macros list*
%AMRoundRect*
0 Rectangle with rounded corners*
0 $1 Rounding radius*
0 $2 $3 $4 $5 $6 $7 $8 $9 X,Y pos of 4 corners*
0 Add a 4 corners polygon primitive as box body*
4,1,4,$2,$3,$4,$5,$6,$7,$8,$9,$2,$3,0*
0 Add four circle primitives for the rounded corners*
1,1,$1+$1,$2,$3*
1,1,$1+$1,$4,$5*
1,1,$1+$1,$6,$7*
1,1,$1+$1,$8,$9*
0 Add four rect primitives between the rounded corners*
20,1,$1+$1,$2,$3,$4,$5,0*
20,1,$1+$1,$4,$5,$6,$7,0*
20,1,$1+$1,$6,$7,$8,$9,0*
20,1,$1+$1,$8,$9,$2,$3,0*%
G04 Aperture macros list end*
%ADD10C,3.200000*%
%ADD11RoundRect,0.250000X-0.400000X-0.625000X0.400000X-0.625000X0.400000X0.625000X-0.400000X0.625000X0*%
%ADD12R,5.800000X2.500000*%
%ADD13RoundRect,0.250000X0.300000X-2.050000X0.300000X2.050000X-0.300000X2.050000X-0.300000X-2.050000X0*%
%ADD14RoundRect,0.250002X5.149998X-4.449998X5.149998X4.449998X-5.149998X4.449998X-5.149998X-4.449998X0*%
%ADD15RoundRect,0.102000X0.604000X-0.604000X0.604000X0.604000X-0.604000X0.604000X-0.604000X-0.604000X0*%
%ADD16C,1.412000*%
%ADD17C,2.454000*%
%ADD18R,2.900000X5.400000*%
%ADD19RoundRect,0.250000X-0.412500X-0.650000X0.412500X-0.650000X0.412500X0.650000X-0.412500X0.650000X0*%
%ADD20RoundRect,0.102000X0.787500X-0.787500X0.787500X0.787500X-0.787500X0.787500X-0.787500X-0.787500X0*%
%ADD21C,1.779000*%
%ADD22RoundRect,0.102000X0.425000X-0.550000X0.425000X0.550000X-0.425000X0.550000X-0.425000X-0.550000X0*%
%ADD23C,1.734000*%
%ADD24R,1.200000X2.000000*%
%ADD25O,1.200000X2.000000*%
%ADD26R,3.200000X3.200000*%
%ADD27O,3.200000X3.200000*%
%ADD28RoundRect,0.250000X-0.650000X0.412500X-0.650000X-0.412500X0.650000X-0.412500X0.650000X0.412500X0*%
%ADD29RoundRect,0.250000X0.725000X-0.600000X0.725000X0.600000X-0.725000X0.600000X-0.725000X-0.600000X0*%
%ADD30O,1.950000X1.700000*%
%ADD31R,3.000000X1.600000*%
%ADD32RoundRect,0.250000X0.400000X0.625000X-0.400000X0.625000X-0.400000X-0.625000X0.400000X-0.625000X0*%
%ADD33R,1.700000X1.700000*%
%ADD34O,1.700000X1.700000*%
%ADD35RoundRect,0.250000X0.625000X-0.400000X0.625000X0.400000X-0.625000X0.400000X-0.625000X-0.400000X0*%
%ADD36RoundRect,0.250000X0.650000X-0.412500X0.650000X0.412500X-0.650000X0.412500X-0.650000X-0.412500X0*%
%ADD37RoundRect,0.250000X-0.625000X0.400000X-0.625000X-0.400000X0.625000X-0.400000X0.625000X0.400000X0*%
%ADD38R,1.549400X0.660400*%
%ADD39R,1.905000X1.295400*%
%ADD40RoundRect,0.102000X0.550000X0.425000X-0.550000X0.425000X-0.550000X-0.425000X0.550000X-0.425000X0*%
G04 APERTURE END LIST*
D10*
%TO.C,REF\u002A\u002A*%
X102000000Y-152000000D03*
%TD*%
%TO.C,REF\u002A\u002A*%
X149500000Y-152000000D03*
%TD*%
%TO.C,REF\u002A\u002A*%
X149500000Y-54500000D03*
%TD*%
%TO.C,REF\u002A\u002A*%
X102000000Y-54500000D03*
%TD*%
D11*
%TO.C,R7*%
X146450000Y-65500000D03*
X149550000Y-65500000D03*
%TD*%
D12*
%TO.C,CP4*%
X124450000Y-78500000D03*
X134550000Y-78500000D03*
%TD*%
D13*
%TO.C,U2*%
X102825000Y-102225000D03*
X104525000Y-102225000D03*
X106225000Y-102225000D03*
D14*
X106225000Y-93075000D03*
D13*
X107925000Y-102225000D03*
X109625000Y-102225000D03*
%TD*%
D11*
%TO.C,R10*%
X146450000Y-69500000D03*
X149550000Y-69500000D03*
%TD*%
D12*
%TO.C,CP3*%
X106950000Y-78500000D03*
X117050000Y-78500000D03*
%TD*%
D15*
%TO.C,S1*%
X140000000Y-93500000D03*
D16*
X140000000Y-89500000D03*
X140000000Y-85500000D03*
X142500000Y-93500000D03*
X142500000Y-89500000D03*
X142500000Y-85500000D03*
D17*
X138250000Y-97000000D03*
X138250000Y-82000000D03*
X144250000Y-82000000D03*
X144250000Y-97000000D03*
%TD*%
D18*
%TO.C,L2*%
X125050000Y-64500000D03*
X134950000Y-64500000D03*
%TD*%
D19*
%TO.C,C4*%
X101437500Y-70000000D03*
X104562500Y-70000000D03*
%TD*%
D20*
%TO.C,J1*%
X104000000Y-111000000D03*
D21*
X104000000Y-113500000D03*
%TD*%
D22*
%TO.C,D4*%
X124760000Y-115005000D03*
X124760000Y-112995000D03*
%TD*%
D23*
%TO.C,U6*%
X129810000Y-54125000D03*
X127270000Y-54125000D03*
X124730000Y-54125000D03*
X122190000Y-54125000D03*
%TD*%
D24*
%TO.C,U1*%
X147903440Y-121800000D03*
D25*
X145363440Y-121800000D03*
X142823440Y-121800000D03*
X140283440Y-121800000D03*
X137743440Y-121800000D03*
X135203440Y-121800000D03*
X132663440Y-121800000D03*
X130123440Y-121800000D03*
X127583440Y-121800000D03*
X125043440Y-121800000D03*
X122503440Y-121800000D03*
X119963440Y-121800000D03*
X117423440Y-121800000D03*
X114883440Y-121800000D03*
X112343440Y-121800000D03*
X109803440Y-121800000D03*
X107263440Y-121800000D03*
X104723440Y-121800000D03*
X102183440Y-121800000D03*
X102186160Y-147196320D03*
X104726160Y-147196320D03*
X107263440Y-147200000D03*
X109803440Y-147200000D03*
X112343440Y-147200000D03*
X114883440Y-147200000D03*
X117423440Y-147200000D03*
X119963440Y-147200000D03*
X122503440Y-147200000D03*
X125043440Y-147200000D03*
X127583440Y-147200000D03*
X130123440Y-147200000D03*
X132663440Y-147200000D03*
X135203440Y-147200000D03*
X137743440Y-147200000D03*
X140283440Y-147200000D03*
X142823440Y-147200000D03*
X145363440Y-147200000D03*
X147903440Y-147200000D03*
%TD*%
D26*
%TO.C,D2*%
X134000000Y-92000000D03*
D27*
X134000000Y-107240000D03*
%TD*%
D28*
%TO.C,C6*%
X149500000Y-82437500D03*
X149500000Y-85562500D03*
%TD*%
D29*
%TO.C,J7*%
X147000000Y-113500000D03*
D30*
X147000000Y-111000000D03*
X147000000Y-108500000D03*
%TD*%
D23*
%TO.C,U5*%
X101625000Y-72880000D03*
X101625000Y-75420000D03*
X101625000Y-77960000D03*
X101625000Y-80500000D03*
%TD*%
D31*
%TO.C,CP2*%
X121300000Y-89000000D03*
X125700000Y-89000000D03*
%TD*%
D32*
%TO.C,R11*%
X148050000Y-119000000D03*
X144950000Y-119000000D03*
%TD*%
D33*
%TO.C,J9*%
X127580000Y-150500000D03*
D34*
X125040000Y-150500000D03*
X122500000Y-150500000D03*
X119960000Y-150500000D03*
X117420000Y-150500000D03*
X114880000Y-150500000D03*
X112340000Y-150500000D03*
X109800000Y-150500000D03*
X107260000Y-150500000D03*
%TD*%
D35*
%TO.C,R8*%
X119500000Y-57000000D03*
X119500000Y-53900000D03*
%TD*%
D36*
%TO.C,C1*%
X108000000Y-115062500D03*
X108000000Y-111937500D03*
%TD*%
D37*
%TO.C,R1*%
X111500000Y-111950000D03*
X111500000Y-115050000D03*
%TD*%
D13*
%TO.C,U3*%
X121700000Y-106775000D03*
X123400000Y-106775000D03*
X125100000Y-106775000D03*
D14*
X125100000Y-97625000D03*
D13*
X126800000Y-106775000D03*
X128500000Y-106775000D03*
%TD*%
D33*
%TO.C,J8*%
X133360000Y-118000000D03*
D34*
X130820000Y-118000000D03*
X128280000Y-118000000D03*
X125740000Y-118000000D03*
X123200000Y-118000000D03*
X120660000Y-118000000D03*
X118120000Y-118000000D03*
X115580000Y-118000000D03*
X113040000Y-118000000D03*
X110500000Y-118000000D03*
X107960000Y-118000000D03*
X105420000Y-118000000D03*
X102880000Y-118000000D03*
%TD*%
D35*
%TO.C,R5*%
X116000000Y-56920000D03*
X116000000Y-53820000D03*
%TD*%
%TO.C,R2*%
X112500000Y-57050000D03*
X112500000Y-53950000D03*
%TD*%
%TO.C,R12*%
X128000000Y-115050000D03*
X128000000Y-111950000D03*
%TD*%
D36*
%TO.C,C2*%
X140000000Y-104562500D03*
X140000000Y-101437500D03*
%TD*%
%TO.C,C5*%
X132500000Y-57062500D03*
X132500000Y-53937500D03*
%TD*%
D22*
%TO.C,D5*%
X130260000Y-115005000D03*
X130260000Y-112995000D03*
%TD*%
D38*
%TO.C,J2*%
X146901500Y-102000000D03*
X146901500Y-100999999D03*
X146901500Y-100000001D03*
X146901500Y-99000000D03*
D39*
X150776501Y-97700001D03*
X150776501Y-103299999D03*
%TD*%
D35*
%TO.C,R13*%
X133500000Y-115000000D03*
X133500000Y-111900000D03*
%TD*%
D11*
%TO.C,R6*%
X101400000Y-62500000D03*
X104500000Y-62500000D03*
%TD*%
D18*
%TO.C,L1*%
X108050000Y-64500000D03*
X117950000Y-64500000D03*
%TD*%
D11*
%TO.C,R3*%
X101350000Y-59500000D03*
X104450000Y-59500000D03*
%TD*%
%TO.C,R4*%
X146450000Y-61500000D03*
X149550000Y-61500000D03*
%TD*%
D40*
%TO.C,D3*%
X110505000Y-109740000D03*
X108495000Y-109740000D03*
%TD*%
D29*
%TO.C,J6*%
X140000000Y-113500000D03*
D30*
X140000000Y-111000000D03*
X140000000Y-108500000D03*
%TD*%
D11*
%TO.C,R9*%
X101400000Y-66500000D03*
X104500000Y-66500000D03*
%TD*%
D26*
%TO.C,D1*%
X115000000Y-106620000D03*
D27*
X115000000Y-91380000D03*
%TD*%
D23*
%TO.C,U4*%
X149500000Y-79810000D03*
X149500000Y-77270000D03*
X149500000Y-74730000D03*
X149500000Y-72190000D03*
%TD*%
D31*
%TO.C,CP1*%
X115100000Y-113000000D03*
X119500000Y-113000000D03*
%TD*%
M02*
