M48
; DRILL file {KiCad 8.0.8} date 2025-02-20T18:43:36-0500
; FORMAT={-:-/ absolute / inch / decimal}
; #@! TF.CreationDate,2025-02-20T18:43:36-05:00
; #@! TF.GenerationSoftware,Kicad,Pcbnew,8.0.8
; #@! TF.FileFunction,Plated,1,2,PTH
FMAT,2
INCH
; #@! TA.AperFunction,Plated,PTH,ViaDrill
T1C0.0157
; #@! TA.AperFunction,Plated,PTH,ComponentDrill
T2C0.0276
; #@! TA.AperFunction,Plated,PTH,ViaDrill
T3C0.0315
; #@! TA.AperFunction,Plated,PTH,ComponentDrill
T4C0.0315
; #@! TA.AperFunction,Plated,PTH,ComponentDrill
T5C0.0374
; #@! TA.AperFunction,Plated,PTH,ComponentDrill
T6C0.0394
; #@! TA.AperFunction,Plated,PTH,ComponentDrill
T7C0.0402
; #@! TA.AperFunction,Plated,PTH,ComponentDrill
T8C0.0413
; #@! TA.AperFunction,Plated,PTH,ComponentDrill
T9C0.0591
; #@! TA.AperFunction,Plated,PTH,ComponentDrill
T10C0.0630
%
G90
G05
T1
X3.9921Y-2.6181
X4.1821Y-4.0246
X4.252Y-4.407
X4.3086Y-4.5866
X4.3159Y-4.0246
X4.3307Y-3.4252
X4.3898Y-4.5295
X4.4685Y-4.5472
X4.5472Y-4.5079
X4.5669Y-2.8543
X4.5866Y-3.4252
X4.5866Y-3.8386
X4.6063Y-4.5079
X4.6654Y-4.1535
X4.6654Y-4.8622
X4.6949Y-4.3799
X4.7047Y-2.2441
X4.7539Y-4.3209
X4.7638Y-4.9606
X4.7738Y-4.5866
X4.7835Y-2.5197
X4.7835Y-3.2874
X4.8031Y-2.7756
X4.8228Y-4.3307
X4.8425Y-4.4291
X4.9252Y-4.2037
X5.0591Y-4.2037
X5.0984Y-4.9409
X5.1378Y-4.3504
X5.1575Y-3.3858
X5.1969Y-3.7598
X5.1969Y-3.9173
X5.2559Y-4.4055
X5.2756Y-5.2953
X5.2953Y-4.0551
X5.3346Y-3.8189
X5.3346Y-4.6457
X5.3543Y-3.9567
X5.374Y-4.3504
X5.374Y-4.4291
X5.3937Y-3.4252
X5.4134Y-3.6024
X5.4134Y-4.5276
X5.4134Y-4.6654
X5.4331Y-5.9252
X5.4528Y-4.6063
X5.4724Y-2.5
X5.5709Y-4.5472
X5.5709Y-4.7244
X5.6496Y-5.1575
X5.6693Y-2.2244
X5.6693Y-4.1142
X5.7835Y-3.8976
X5.7835Y-3.937
X5.8071Y-4.5866
T2
X5.5118Y-3.3661
X5.5118Y-3.5236
X5.5118Y-3.6811
X5.6102Y-3.3661
X5.6102Y-3.5236
X5.6102Y-3.6811
T3
X4.0351Y-3.6574
X4.0404Y-3.5543
X4.0434Y-3.7734
X4.1789Y-3.7764
X4.1821Y-3.6644
X4.1834Y-3.5626
X4.2539Y-2.5394
X4.2971Y-3.5716
X4.3001Y-3.6605
X4.3092Y-3.7907
X4.7955Y-3.9458
X4.797Y-3.8517
X4.8046Y-3.7455
X4.925Y-3.7508
X4.9252Y-3.8435
X4.928Y-3.9503
X5.047Y-3.8479
X5.0485Y-3.7501
X5.0485Y-3.9541
T4
X4.023Y-4.7953
X4.0231Y-5.7951
X4.123Y-4.7953
X4.1231Y-5.7951
X4.223Y-4.7953
X4.223Y-5.7953
X4.323Y-4.7953
X4.323Y-5.7953
X4.423Y-4.7953
X4.423Y-5.7953
X4.523Y-4.7953
X4.523Y-5.7953
X4.623Y-4.7953
X4.623Y-5.7953
X4.723Y-4.7953
X4.723Y-5.7953
X4.823Y-4.7953
X4.823Y-5.7953
X4.923Y-4.7953
X4.923Y-5.7953
X5.023Y-4.7953
X5.023Y-5.7953
X5.123Y-4.7953
X5.123Y-5.7953
X5.223Y-4.7953
X5.223Y-5.7953
X5.323Y-4.7953
X5.323Y-5.7953
X5.423Y-4.7953
X5.423Y-5.7953
X5.523Y-4.7953
X5.523Y-5.7953
X5.623Y-4.7953
X5.623Y-5.7953
X5.723Y-4.7953
X5.723Y-5.7953
X5.823Y-4.7953
X5.823Y-5.7953
T5
X5.5118Y-4.2717
X5.5118Y-4.3701
X5.5118Y-4.4685
X5.7874Y-4.2717
X5.7874Y-4.3701
X5.7874Y-4.4685
T6
X4.0504Y-4.6457
X4.1504Y-4.6457
X4.2228Y-5.9252
X4.2504Y-4.6457
X4.3228Y-5.9252
X4.3504Y-4.6457
X4.4228Y-5.9252
X4.4504Y-4.6457
X4.5228Y-5.9252
X4.5504Y-4.6457
X4.6228Y-5.9252
X4.6504Y-4.6457
X4.7228Y-5.9252
X4.7504Y-4.6457
X4.8228Y-5.9252
X4.8504Y-4.6457
X4.9228Y-5.9252
X4.9504Y-4.6457
X5.0228Y-5.9252
X5.0504Y-4.6457
X5.1504Y-4.6457
X5.2504Y-4.6457
T7
X4.001Y-2.8693
X4.001Y-2.9693
X4.001Y-3.0693
X4.001Y-3.1693
X4.8106Y-2.1309
X4.9106Y-2.1309
X5.0106Y-2.1309
X5.1106Y-2.1309
X5.8858Y-2.8421
X5.8858Y-2.9421
X5.8858Y-3.0421
X5.8858Y-3.1421
T8
X4.0945Y-4.3701
X4.0945Y-4.4685
T9
X5.4429Y-3.2283
X5.4429Y-3.8189
X5.6791Y-3.2283
X5.6791Y-3.8189
T10
X4.5276Y-3.5976
X4.5276Y-4.1976
X5.2756Y-3.622
X5.2756Y-4.222
M30
